<?xml version="1.0" encoding="UTF-8"?>
<!DOCTYPE svg PUBLIC "-//W3C//DTD SVG 1.1//EN" "http://www.w3.org/Graphics/SVG/1.1/DTD/svg11.dtd">
<svg xmlns="http://www.w3.org/2000/svg" version="1.1" width="4000px" height="1932px" style="shape-rendering:geometricPrecision; text-rendering:geometricPrecision; image-rendering:optimizeQuality; fill-rule:evenodd; clip-rule:evenodd" xmlns:xlink="http://www.w3.org/1999/xlink">
<g><path style="opacity:0.825" fill="#000000" d="M 1855.5,46.5 C 1878.5,46.5 1901.5,46.5 1924.5,46.5C 1924.98,76.2299 1924.48,105.897 1923,135.5C 1921.36,137.81 1919.2,139.31 1916.5,140C 1909.18,140.999 1901.85,141.333 1894.5,141C 1892.28,137.832 1890.94,134.332 1890.5,130.5C 1898.17,130.5 1905.83,130.5 1913.5,130.5C 1913.5,123.167 1913.5,115.833 1913.5,108.5C 1896.83,108.333 1880.16,108.5 1863.5,109C 1860.56,120.05 1855.39,129.883 1848,138.5C 1846.94,139.899 1845.61,140.899 1844,141.5C 1842.34,139.672 1840.5,138.005 1838.5,136.5C 1837.42,135.635 1837.25,134.635 1838,133.5C 1846.43,125.982 1851.76,116.649 1854,105.5C 1855.38,85.864 1855.88,66.1974 1855.5,46.5 Z M 1866.5,56.5 C 1882.17,56.5 1897.83,56.5 1913.5,56.5C 1913.67,61.8437 1913.5,67.1771 1913,72.5C 1897.67,71.1667 1882.33,71.1667 1867,72.5C 1866.5,67.1771 1866.33,61.8437 1866.5,56.5 Z M 1865.5,81.5 C 1881.84,81.3334 1898.17,81.5001 1914.5,82C 1913.53,87.4066 1913.19,92.9066 1913.5,98.5C 1897.16,98.6666 1880.83,98.4999 1864.5,98C 1865.47,92.5934 1865.81,87.0934 1865.5,81.5 Z"/></g>
<g><path style="opacity:0.826" fill="#000000" d="M 2364.5,46.5 C 2387.5,46.5 2410.5,46.5 2433.5,46.5C 2433.96,76.2086 2433.46,105.875 2432,135.5C 2430.05,137.894 2427.55,139.394 2424.5,140C 2417.16,141.17 2409.82,141.337 2402.5,140.5C 2401.44,137.382 2400.11,134.382 2398.5,131.5C 2406.47,130.502 2414.47,130.169 2422.5,130.5C 2422.5,123.167 2422.5,115.833 2422.5,108.5C 2405.5,108.5 2388.5,108.5 2371.5,108.5C 2369.03,121.78 2362.7,132.78 2352.5,141.5C 2349.97,139.395 2347.64,137.061 2345.5,134.5C 2355.5,125.831 2361.34,114.831 2363,101.5C 2364.39,83.2007 2364.89,64.8673 2364.5,46.5 Z M 2374.5,56.5 C 2390.5,56.5 2406.5,56.5 2422.5,56.5C 2422.67,61.8437 2422.5,67.1771 2422,72.5C 2406.24,71.5088 2390.41,71.1754 2374.5,71.5C 2374.5,66.5 2374.5,61.5 2374.5,56.5 Z M 2374.5,81.5 C 2390.5,81.5 2406.5,81.5 2422.5,81.5C 2422.5,87.1667 2422.5,92.8333 2422.5,98.5C 2406.17,98.5 2389.83,98.5 2373.5,98.5C 2374.35,92.8791 2374.69,87.2124 2374.5,81.5 Z"/></g>
<g><path style="opacity:0.836" fill="#000000" d="M 2909.5,46.5 C 2932.17,46.5 2954.83,46.5 2977.5,46.5C 2977.67,75.5019 2977.5,104.502 2977,133.5C 2976.31,136.057 2974.81,137.891 2972.5,139C 2964.24,140.979 2955.9,141.479 2947.5,140.5C 2946.44,137.382 2945.11,134.382 2943.5,131.5C 2951.47,130.502 2959.47,130.169 2967.5,130.5C 2967.5,123.167 2967.5,115.833 2967.5,108.5C 2950.5,108.5 2933.5,108.5 2916.5,108.5C 2914.03,121.774 2907.7,132.774 2897.5,141.5C 2894.83,139.5 2892.5,137.167 2890.5,134.5C 2902.05,123.384 2908.22,109.717 2909,93.5C 2909.5,77.8369 2909.67,62.1702 2909.5,46.5 Z M 2919.5,56.5 C 2935.5,56.5 2951.5,56.5 2967.5,56.5C 2967.67,61.8437 2967.5,67.1771 2967,72.5C 2951.24,71.5088 2935.41,71.1754 2919.5,71.5C 2919.5,66.5 2919.5,61.5 2919.5,56.5 Z M 2919.5,81.5 C 2935.5,81.5 2951.5,81.5 2967.5,81.5C 2967.5,87.1667 2967.5,92.8333 2967.5,98.5C 2951.15,98.8328 2934.82,98.4994 2918.5,97.5C 2919.45,92.2302 2919.78,86.8968 2919.5,81.5 Z"/></g>
<g><path style="opacity:0.857" fill="#000000" d="M 1399.5,48.5 C 1422.17,48.5 1444.83,48.5 1467.5,48.5C 1467.98,78.2299 1467.48,107.897 1466,137.5C 1464.01,141.247 1460.85,143.081 1456.5,143C 1450.17,143.667 1443.83,143.667 1437.5,143C 1436.31,140.122 1434.98,137.288 1433.5,134.5C 1441.15,133.669 1448.81,133.169 1456.5,133C 1457.48,125.587 1457.81,118.087 1457.5,110.5C 1440.5,110.5 1423.5,110.5 1406.5,110.5C 1403.59,123.903 1397.09,135.236 1387,144.5C 1384.82,142.125 1382.66,139.792 1380.5,137.5C 1392.61,125.029 1398.77,110.029 1399,92.5C 1399.5,77.8371 1399.67,63.1705 1399.5,48.5 Z M 1408.5,57.5 C 1424.83,57.5 1441.17,57.5 1457.5,57.5C 1457.5,63.1667 1457.5,68.8333 1457.5,74.5C 1441.17,74.5 1424.83,74.5 1408.5,74.5C 1408.5,68.8333 1408.5,63.1667 1408.5,57.5 Z M 1408.5,83.5 C 1424.83,83.5 1441.17,83.5 1457.5,83.5C 1457.5,89.1667 1457.5,94.8333 1457.5,100.5C 1440.83,100.667 1424.16,100.5 1407.5,100C 1408.47,94.5934 1408.81,89.0934 1408.5,83.5 Z"/></g>
<g><path style="opacity:0.86" fill="#000000" d="M 3811.5,48.5 C 3834.17,48.5 3856.83,48.5 3879.5,48.5C 3879.67,77.5019 3879.5,106.502 3879,135.5C 3878.21,138.583 3876.38,140.749 3873.5,142C 3865.56,143.53 3857.56,143.863 3849.5,143C 3848.31,140.122 3846.98,137.288 3845.5,134.5C 3853.15,133.669 3860.81,133.169 3868.5,133C 3869.48,125.587 3869.81,118.087 3869.5,110.5C 3852.5,110.5 3835.5,110.5 3818.5,110.5C 3815.9,124.035 3809.4,135.368 3799,144.5C 3797.33,141.663 3795.16,139.33 3792.5,137.5C 3804.4,125.316 3810.57,110.649 3811,93.5C 3811.5,78.5037 3811.67,63.5037 3811.5,48.5 Z M 3820.5,58.5 C 3836.66,57.5036 3852.99,57.1702 3869.5,57.5C 3869.5,63.1667 3869.5,68.8333 3869.5,74.5C 3853.16,74.6666 3836.83,74.4999 3820.5,74C 3821.82,68.734 3821.82,63.5673 3820.5,58.5 Z M 3820.5,83.5 C 3836.83,83.5 3853.17,83.5 3869.5,83.5C 3869.5,89.1667 3869.5,94.8333 3869.5,100.5C 3852.83,100.667 3836.16,100.5 3819.5,100C 3820.98,94.5443 3821.31,89.0443 3820.5,83.5 Z"/></g>
<g><path style="opacity:0.861" fill="#000000" d="M 1272.5,52.5 C 1276.83,52.5 1281.17,52.5 1285.5,52.5C 1276.64,81.9063 1267.48,111.24 1258,140.5C 1253.82,142.399 1249.32,143.065 1244.5,142.5C 1244.34,140.801 1244.51,139.134 1245,137.5C 1254.61,109.29 1263.77,80.9565 1272.5,52.5 Z"/></g>
<g><path style="opacity:0.885" fill="#000000" d="M 1790.5,53.5 C 1797.17,53.3337 1803.84,53.5004 1810.5,54C 1827.09,61.1156 1830.93,72.6156 1822,88.5C 1820.42,90.0412 1818.59,91.2078 1816.5,92C 1826.67,97.5178 1830.51,106.018 1828,117.5C 1825.86,124.974 1821.03,129.807 1813.5,132C 1799.08,135.804 1785.58,133.637 1773,125.5C 1773.47,121.373 1774.97,117.539 1777.5,114C 1781.14,115.314 1784.81,116.981 1788.5,119C 1795.53,122.232 1802.53,122.232 1809.5,119C 1813.26,115.257 1814.43,110.757 1813,105.5C 1811.83,103.667 1810.33,102.167 1808.5,101C 1801.91,99.6712 1795.24,99.1712 1788.5,99.5C 1788.5,95.1667 1788.5,90.8333 1788.5,86.5C 1794.59,86.8608 1800.59,86.3608 1806.5,85C 1811.15,82.1034 1812.65,77.9367 1811,72.5C 1808.67,68.1628 1805,65.8295 1800,65.5C 1792.03,66.3206 1785.03,69.3206 1779,74.5C 1777.03,70.7275 1775.2,66.8941 1773.5,63C 1778.34,58.2497 1784.01,55.083 1790.5,53.5 Z"/></g>
<g><path style="opacity:0.869" fill="#000000" d="M 2317.5,53.5 C 2321.77,53.203 2325.93,53.5363 2330,54.5C 2330.5,71.4967 2330.67,88.4967 2330.5,105.5C 2334.17,105.5 2337.83,105.5 2341.5,105.5C 2341.67,109.514 2341.5,113.514 2341,117.5C 2337.67,118.833 2334.33,118.833 2331,117.5C 2330.5,122.823 2330.33,128.156 2330.5,133.5C 2325.17,133.5 2319.83,133.5 2314.5,133.5C 2314.67,128.156 2314.5,122.823 2314,117.5C 2303.25,118.487 2292.41,118.82 2281.5,118.5C 2281.11,113.372 2281.61,108.372 2283,103.5C 2294.76,86.9785 2306.26,70.3118 2317.5,53.5 Z M 2313.5,80.5 C 2314.49,88.6499 2314.83,96.9832 2314.5,105.5C 2308.49,105.666 2302.49,105.499 2296.5,105C 2302.78,97.2289 2308.44,89.0622 2313.5,80.5 Z"/></g>
<g><path style="opacity:0.874" fill="#000000" d="M 2831.5,53.5 C 2847.84,53.3334 2864.17,53.5001 2880.5,54C 2881.46,58.0659 2881.8,62.2325 2881.5,66.5C 2869.5,66.3335 2857.5,66.5001 2845.5,67C 2846.47,72.7412 2846.81,78.5746 2846.5,84.5C 2859.23,79.3452 2870.39,81.6785 2880,91.5C 2885.87,102.867 2885.87,113.534 2880,123.5C 2873.26,130.284 2865.1,133.951 2855.5,134.5C 2846.67,133.707 2838.33,131.207 2830.5,127C 2829.2,126.196 2828.53,125.029 2828.5,123.5C 2830,119.838 2831.5,116.172 2833,112.5C 2842.4,120.445 2852.9,122.612 2864.5,119C 2871.17,111.667 2871.17,104.333 2864.5,97C 2855.61,92.9508 2847.61,94.2841 2840.5,101C 2837.18,101.498 2833.85,101.665 2830.5,101.5C 2830.18,85.4225 2830.52,69.4225 2831.5,53.5 Z"/></g>
<g><path style="opacity:0.884" fill="#000000" d="M 979.5,55.5 C 992.792,52.5407 1003.63,56.2073 1012,66.5C 1016.18,77.23 1014.84,87.23 1008,96.5C 1000.85,105.653 993.013,114.153 984.5,122C 995.495,122.5 1006.49,122.667 1017.5,122.5C 1017.5,126.833 1017.5,131.167 1017.5,135.5C 999.5,135.5 981.5,135.5 963.5,135.5C 963.334,131.486 963.501,127.486 964,123.5C 973.667,113.167 983.333,102.833 993,92.5C 996.041,88.7911 998.208,84.6244 999.5,80C 998.806,70.5937 993.473,66.927 983.5,69C 977.512,70.1612 972.179,72.6612 967.5,76.5C 964.287,73.0782 962.454,69.0782 962,64.5C 967.295,60.2703 973.128,57.2703 979.5,55.5 Z"/></g>
<g><path style="opacity:0.886" fill="#000000" d="M 1047.5,55.5 C 1067.98,53.8086 1079.81,63.1419 1083,83.5C 1084.06,95.2795 1083.4,106.946 1081,118.5C 1074.58,132.296 1063.75,138.13 1048.5,136C 1034.4,131.35 1026.9,121.516 1026,106.5C 1023.51,91.4201 1026.18,77.4201 1034,64.5C 1037.88,60.4293 1042.38,57.4293 1047.5,55.5 Z M 1051.5,68.5 C 1061.04,67.5366 1066.21,71.8699 1067,81.5C 1069.58,94.4753 1068.58,107.142 1064,119.5C 1057.38,125.062 1051.05,124.728 1045,118.5C 1040.05,103.008 1040.38,87.6745 1046,72.5C 1047.5,70.5313 1049.33,69.198 1051.5,68.5 Z"/></g>
<g><path style="opacity:0.887" fill="#000000" d="M 1110.5,55.5 C 1123.02,52.9516 1133.52,56.285 1142,65.5C 1146.87,75.5259 1146.21,85.1925 1140,94.5C 1132.2,103.964 1124.04,113.131 1115.5,122C 1126.49,122.5 1137.49,122.667 1148.5,122.5C 1148.5,126.833 1148.5,131.167 1148.5,135.5C 1130.5,135.5 1112.5,135.5 1094.5,135.5C 1094.33,131.486 1094.5,127.486 1095,123.5C 1103.43,113.951 1112.09,104.618 1121,95.5C 1124.45,92.0441 1127.12,88.0441 1129,83.5C 1131.35,76.4144 1129.19,71.5811 1122.5,69C 1113.36,68.2683 1105.19,70.7683 1098,76.5C 1095.2,72.9071 1093.53,68.9071 1093,64.5C 1098.29,60.2703 1104.13,57.2703 1110.5,55.5 Z"/></g>
<g><path style="opacity:0.881" fill="#000000" d="M 1175.5,55.5 C 1182.59,55.1156 1189.59,55.6156 1196.5,57C 1211.21,64.7951 1214.37,75.9617 1206,90.5C 1204.07,91.8804 1202.24,93.3804 1200.5,95C 1210.06,99.9605 1213.9,107.794 1212,118.5C 1209.86,127.307 1204.36,132.807 1195.5,135C 1180.98,138.465 1167.98,135.631 1156.5,126.5C 1158.13,122.915 1159.46,119.248 1160.5,115.5C 1165.59,119.028 1171.25,121.528 1177.5,123C 1181.5,123.667 1185.5,123.667 1189.5,123C 1197.85,118.952 1199.51,112.952 1194.5,105C 1187.15,102.034 1179.49,100.867 1171.5,101.5C 1171.5,97.5 1171.5,93.5 1171.5,89.5C 1178.34,89.9615 1185.01,89.1282 1191.5,87C 1196.1,82.2291 1196.6,77.0624 1193,71.5C 1188.86,68.8353 1184.36,68.002 1179.5,69C 1173.07,70.7205 1167.07,73.2205 1161.5,76.5C 1160,72.5219 1158.83,68.5219 1158,64.5C 1163.29,60.2703 1169.13,57.2703 1175.5,55.5 Z"/></g>
<g><path style="opacity:0.877" fill="#000000" d="M 1334.5,55.5 C 1348.37,52.5082 1359.54,56.5082 1368,67.5C 1371.45,77.4774 1370.12,86.8107 1364,95.5C 1356.57,104.934 1348.4,113.768 1339.5,122C 1350.49,122.5 1361.49,122.667 1372.5,122.5C 1372.5,126.833 1372.5,131.167 1372.5,135.5C 1354.5,135.5 1336.5,135.5 1318.5,135.5C 1318.33,131.486 1318.5,127.486 1319,123.5C 1328.67,113.167 1338.33,102.833 1348,92.5C 1351.13,88.0711 1353.3,83.2378 1354.5,78C 1353.56,71.4359 1349.73,68.2692 1343,68.5C 1339.05,68.7796 1335.21,69.6129 1331.5,71C 1328.05,73.3928 1324.38,75.2261 1320.5,76.5C 1319,72.5219 1317.83,68.5219 1317,64.5C 1322.29,60.2703 1328.13,57.2703 1334.5,55.5 Z"/></g>
<g><path style="opacity:0.885" fill="#000000" d="M 3752.5,55.5 C 3765.53,53.5841 3776.86,56.9174 3786.5,65.5C 3784.86,69.4598 3782.86,73.1265 3780.5,76.5C 3772.87,69.8953 3764.2,67.7287 3754.5,70C 3747.49,75.0071 3744.33,81.8404 3745,90.5C 3756.63,82.3694 3768.13,82.536 3779.5,91C 3786.13,100.419 3787.63,110.585 3784,121.5C 3776.98,133.629 3766.48,138.462 3752.5,136C 3739.55,132.721 3731.72,124.554 3729,111.5C 3726.42,98.5247 3727.42,85.858 3732,73.5C 3736.54,64.8235 3743.38,58.8235 3752.5,55.5 Z M 3757.5,96.5 C 3766.45,96.7838 3771.12,101.451 3771.5,110.5C 3770.2,121.322 3764.2,125.489 3753.5,123C 3750.67,121.5 3748.5,119.333 3747,116.5C 3744.05,106.046 3747.55,99.3792 3757.5,96.5 Z"/></g>
<g><path style="opacity:0.994" fill="#4fbafe" d="M 1302.5,295.5 C 1304.28,297.344 1306.61,298.01 1309.5,297.5C 1352.64,305.474 1379.48,330.807 1390,373.5C 1395.24,416.172 1380.08,449.338 1344.5,473C 1334.61,478.13 1324.27,481.963 1313.5,484.5C 1225.68,485.146 1138.01,485.812 1050.5,486.5C 999.828,482.663 968.661,455.996 957,406.5C 952.46,363.082 968.627,329.915 1005.5,307C 1017.84,300.998 1030.84,297.332 1044.5,296C 1130.5,295.5 1216.5,295.333 1302.5,295.5 Z"/></g>
<g><path style="opacity:0.99" fill="#d8d8d9" d="M 1305.5,295.5 C 2140.5,295.333 2975.5,295.5 3810.5,296C 3857.03,302.255 3886.2,327.755 3898,372.5C 3903.71,425.108 3882.21,461.608 3833.5,482C 3827.62,483.843 3821.62,485.177 3815.5,486C 2979.17,486.5 2142.83,486.667 1306.5,486.5C 1308.83,485.833 1311.17,485.167 1313.5,484.5C 1324.27,481.963 1334.61,478.13 1344.5,473C 1380.08,449.338 1395.24,416.172 1390,373.5C 1379.48,330.807 1352.64,305.474 1309.5,297.5C 1308.17,296.833 1306.83,296.167 1305.5,295.5 Z"/></g>
<g><path style="opacity:0.796" fill="#9bcaea" d="M 1302.5,295.5 C 1303.5,295.5 1304.5,295.5 1305.5,295.5C 1306.83,296.167 1308.17,296.833 1309.5,297.5C 1306.61,298.01 1304.28,297.344 1302.5,295.5 Z"/></g>
<g><path style="opacity:0.853" fill="#000000" d="M 215.5,340.5 C 218.833,340.5 222.167,340.5 225.5,340.5C 225.5,346.5 225.5,352.5 225.5,358.5C 234.173,358.666 242.84,358.5 251.5,358C 246.254,354.125 240.754,350.625 235,347.5C 235.504,344.487 237.337,342.487 240.5,341.5C 247.287,344.393 253.62,348.06 259.5,352.5C 260.725,354.843 260.059,356.677 257.5,358C 261.486,358.499 265.486,358.666 269.5,358.5C 269.5,361.5 269.5,364.5 269.5,367.5C 254.83,367.333 240.163,367.5 225.5,368C 228.943,376.32 232.777,384.487 237,392.5C 244.054,385.781 250.721,378.781 257,371.5C 260.842,372.672 263.175,375.006 264,378.5C 256.986,385.681 249.819,392.681 242.5,399.5C 250.673,410.004 260.673,418.338 272.5,424.5C 270.177,427.126 267.843,429.793 265.5,432.5C 247.303,422.803 234.137,408.469 226,389.5C 225.97,405.592 225.304,421.592 224,437.5C 216.573,441.1 208.74,442.267 200.5,441C 198.695,438.433 197.362,435.599 196.5,432.5C 202.798,431.504 209.132,431.17 215.5,431.5C 215.553,423.222 215.553,415.222 215.5,407.5C 202.833,415.167 190.167,422.833 177.5,430.5C 174.892,428.126 172.892,425.293 171.5,422C 185.773,413.86 200.106,405.693 214.5,397.5C 215.178,387.607 215.845,377.773 216.5,368C 202.171,367.5 187.837,367.333 173.5,367.5C 173.5,364.5 173.5,361.5 173.5,358.5C 187.837,358.667 202.171,358.5 216.5,358C 215.525,352.259 215.192,346.425 215.5,340.5 Z"/></g>
<g><path style="opacity:0.862" fill="#000000" d="M 406.5,340.5 C 409.5,340.5 412.5,340.5 415.5,340.5C 415.5,348.167 415.5,355.833 415.5,363.5C 421.167,363.5 426.833,363.5 432.5,363.5C 432.5,366.5 432.5,369.5 432.5,372.5C 426.833,372.5 421.167,372.5 415.5,372.5C 415.34,374.199 415.506,375.866 416,377.5C 421.358,384.024 426.525,390.69 431.5,397.5C 429.37,400.642 426.703,402.975 423.5,404.5C 421.304,399.768 418.804,395.102 416,390.5C 415.5,407.497 415.333,424.497 415.5,441.5C 412.5,441.5 409.5,441.5 406.5,441.5C 406.667,426.163 406.5,410.83 406,395.5C 402.969,403.896 399.135,411.896 394.5,419.5C 393.5,420.833 392.5,420.833 391.5,419.5C 390.035,417.401 388.701,415.234 387.5,413C 395.231,400.7 401.231,387.533 405.5,373.5C 400.544,372.506 395.544,372.173 390.5,372.5C 390.5,369.5 390.5,366.5 390.5,363.5C 395.833,363.5 401.167,363.5 406.5,363.5C 406.5,355.833 406.5,348.167 406.5,340.5 Z"/></g>
<g><path style="opacity:0.834" fill="#000000" d="M 324.5,341.5 C 333.192,341.169 341.859,341.502 350.5,342.5C 355.972,359.955 366.305,373.622 381.5,383.5C 379.157,386.207 376.823,388.874 374.5,391.5C 370.894,389.397 367.727,386.731 365,383.5C 363.667,398.147 362.334,412.814 361,427.5C 360.49,433.678 357.323,437.845 351.5,440C 344.476,440.831 337.476,440.664 330.5,439.5C 329.642,436.38 328.642,433.38 327.5,430.5C 334.138,431.498 340.805,431.665 347.5,431C 350.377,427.372 351.877,423.206 352,418.5C 352.856,409.152 353.689,399.819 354.5,390.5C 345.5,390.5 336.5,390.5 327.5,390.5C 326.299,415.49 313.799,432.49 290,441.5C 287.602,439.049 285.436,436.382 283.5,433.5C 303.688,426.298 315.021,411.965 317.5,390.5C 310.167,390.5 302.833,390.5 295.5,390.5C 295.663,388.143 295.497,385.81 295,383.5C 292.974,387.026 290.141,389.693 286.5,391.5C 283.217,389.42 281.051,386.753 280,383.5C 293.315,373.112 302.315,360.112 307,344.5C 307.414,344.043 307.914,343.709 308.5,343.5C 311.096,344.482 313.762,345.149 316.5,345.5C 313.541,358.585 307.541,370.085 298.5,380C 319.5,380.667 340.5,380.667 361.5,380C 353.885,371.948 347.885,362.781 343.5,352.5C 336.866,351.503 330.2,351.17 323.5,351.5C 323.253,348.061 323.586,344.728 324.5,341.5 Z"/></g>
<g><path style="opacity:0.85" fill="#000000" d="M 472.5,341.5 C 476.536,342.02 479.703,344.02 482,347.5C 482.688,348.332 482.521,348.998 481.5,349.5C 469.836,354.082 457.836,357.416 445.5,359.5C 445.5,365.5 445.5,371.5 445.5,377.5C 459.833,377.5 474.167,377.5 488.5,377.5C 488.5,380.5 488.5,383.5 488.5,386.5C 483.167,386.5 477.833,386.5 472.5,386.5C 472.5,404.833 472.5,423.167 472.5,441.5C 469.5,441.5 466.5,441.5 463.5,441.5C 463.5,423.167 463.5,404.833 463.5,386.5C 457.5,386.5 451.5,386.5 445.5,386.5C 445.919,402.318 443.419,417.651 438,432.5C 436.401,435.378 434.567,438.044 432.5,440.5C 429.865,439.189 427.531,437.522 425.5,435.5C 430.861,425.558 434.028,414.891 435,403.5C 435.333,386.5 435.667,369.5 436,352.5C 448.646,350.134 460.813,346.468 472.5,341.5 Z"/></g>
<g><path style="opacity:0.796" fill="#000000" d="M 101.5,379.5 C 93.8394,377.502 86.1728,375.502 78.5,373.5C 78.472,371.418 79.1387,369.584 80.5,368C 78.8659,367.506 77.1992,367.34 75.5,367.5C 75.5,372.833 75.5,378.167 75.5,383.5C 72.1667,383.5 68.8333,383.5 65.5,383.5C 65.5,375.5 65.5,367.5 65.5,359.5C 79.5,359.5 93.5,359.5 107.5,359.5C 107.5,357.167 107.5,354.833 107.5,352.5C 95.1667,352.5 82.8333,352.5 70.5,352.5C 70.5,349.833 70.5,347.167 70.5,344.5C 98.5,344.5 126.5,344.5 154.5,344.5C 154.5,347.167 154.5,349.833 154.5,352.5C 141.829,352.333 129.162,352.5 116.5,353C 117.833,355 117.833,357 116.5,359C 130.829,359.5 145.163,359.667 159.5,359.5C 159.5,367.5 159.5,375.5 159.5,383.5C 156.167,383.5 152.833,383.5 149.5,383.5C 149.5,378.167 149.5,372.833 149.5,367.5C 147.473,367.338 145.473,367.505 143.5,368C 146.059,369.323 146.725,371.157 145.5,373.5C 139.557,375.703 133.557,377.703 127.5,379.5C 134.471,381.326 141.471,382.993 148.5,384.5C 148.632,387.855 147.299,390.189 144.5,391.5C 136.197,389.341 127.864,387.341 119.5,385.5C 120.747,383.677 121.414,381.677 121.5,379.5C 122.552,379.649 123.552,379.483 124.5,379C 122.437,377.428 121.771,375.595 122.5,373.5C 128.192,371.769 133.859,369.936 139.5,368C 131.833,367.333 124.167,367.333 116.5,368C 117.813,375.442 117.813,382.942 116.5,390.5C 113.681,390.742 110.681,390.742 107.5,390.5C 107.5,382.833 107.5,375.167 107.5,367.5C 100.159,367.334 92.8258,367.5 85.5,368C 92.0016,369.109 98.0016,371.275 103.5,374.5C 102.544,376.075 101.877,377.742 101.5,379.5 Z M 101.5,379.5 C 93.0613,381.46 84.3946,382.794 75.5,383.5C 75.5,378.167 75.5,372.833 75.5,367.5C 77.1992,367.34 78.8659,367.506 80.5,368C 79.1387,369.584 78.472,371.418 78.5,373.5C 86.1728,375.502 93.8394,377.502 101.5,379.5 Z"/></g>
<g><path style="opacity:0.81" fill="#000000" d="M 185.5,372.5 C 192.833,377.667 199,384 204,391.5C 203.715,395.161 201.715,397.828 198,399.5C 194.425,395.347 191.091,391.014 188,386.5C 185.629,383.794 182.963,381.461 180,379.5C 179.251,378.365 179.417,377.365 180.5,376.5C 182.419,375.388 184.086,374.054 185.5,372.5 Z"/></g>
<g><path style="opacity:0.721" fill="#000000" d="M 101.5,379.5 C 103.369,381.635 104.036,384.302 103.5,387.5C 95.8058,388.572 88.1391,389.905 80.5,391.5C 77.019,390.153 75.3523,387.486 75.5,383.5C 84.3946,382.794 93.0613,381.46 101.5,379.5 Z"/></g>
<g><path style="opacity:0.812" fill="#000000" d="M 64.5,392.5 C 96.8333,392.5 129.167,392.5 161.5,392.5C 161.5,395.167 161.5,397.833 161.5,400.5C 146.496,400.333 131.496,400.5 116.5,401C 115.74,402.441 115.074,403.941 114.5,405.5C 127.817,406.499 141.15,406.833 154.5,406.5C 154.809,416.886 154.476,427.219 153.5,437.5C 148.777,441.088 143.444,442.255 137.5,441C 136.071,438.31 135.071,435.477 134.5,432.5C 137.833,432.5 141.167,432.5 144.5,432.5C 144.5,426.833 144.5,421.167 144.5,415.5C 139.5,415.5 134.5,415.5 129.5,415.5C 129.5,423.833 129.5,432.167 129.5,440.5C 126.5,440.5 123.5,440.5 120.5,440.5C 120.5,432.167 120.5,423.833 120.5,415.5C 115.833,415.5 111.167,415.5 106.5,415.5C 106.5,423.833 106.5,432.167 106.5,440.5C 103.167,440.5 99.8333,440.5 96.5,440.5C 96.5,432.167 96.5,423.833 96.5,415.5C 91.8333,415.5 87.1667,415.5 82.5,415.5C 82.5,424.167 82.5,432.833 82.5,441.5C 79.2234,441.784 76.0567,441.451 73,440.5C 72.5001,429.172 72.3335,417.838 72.5,406.5C 83.5,406.5 94.5,406.5 105.5,406.5C 105.357,404.738 105.691,403.071 106.5,401.5C 92.5159,400.501 78.5159,400.167 64.5,400.5C 64.5,397.833 64.5,395.167 64.5,392.5 Z"/></g>
<g><path style="opacity:0.326" fill="#c9d5dd" d="M 1313.5,484.5 C 1311.17,485.167 1308.83,485.833 1306.5,486.5C 1221.17,486.5 1135.83,486.5 1050.5,486.5C 1138.01,485.812 1225.68,485.146 1313.5,484.5 Z"/></g>
<g><path style="opacity:0.8" fill="#000000" d="M 326.5,591.5 C 329.482,591.963 332.482,592.296 335.5,592.5C 335.643,594.262 335.309,595.929 334.5,597.5C 348.222,598.053 361.889,598.886 375.5,600C 376.517,601.049 376.684,602.216 376,603.5C 373.562,608.267 370.729,612.767 367.5,617C 364.826,616.847 362.16,616.347 359.5,615.5C 360.323,612.649 361.656,609.982 363.5,607.5C 358.544,606.506 353.544,606.173 348.5,606.5C 348.188,609.888 349.521,612.388 352.5,614C 361.401,618.689 370.734,621.855 380.5,623.5C 378.642,625.524 376.975,627.691 375.5,630C 364.364,629.27 354.364,625.437 345.5,618.5C 339.55,623.99 332.55,627.49 324.5,629C 338.496,629.5 352.496,629.667 366.5,629.5C 366.5,644.833 366.5,660.167 366.5,675.5C 361.489,675.334 356.489,675.501 351.5,676C 360.285,678.895 368.952,682.061 377.5,685.5C 378.711,686.274 378.711,687.107 377.5,688C 375.44,689.696 373.107,690.863 370.5,691.5C 360.506,687.835 350.506,684.168 340.5,680.5C 339.812,678.282 340.812,676.782 343.5,676C 334.833,675.333 326.167,675.333 317.5,676C 322.098,677.192 322.431,678.859 318.5,681C 308.774,685.52 298.774,689.354 288.5,692.5C 286.183,690.684 284.016,688.684 282,686.5C 281.383,685.551 281.549,684.718 282.5,684C 292.698,682.6 302.364,679.6 311.5,675C 305.919,675.402 300.253,675.569 294.5,675.5C 294.5,660.167 294.5,644.833 294.5,629.5C 300.509,629.666 306.509,629.499 312.5,629C 311.624,627.414 310.624,625.914 309.5,624.5C 299.856,623.502 290.19,623.168 280.5,623.5C 280.5,620.5 280.5,617.5 280.5,614.5C 291.5,614.5 302.5,614.5 313.5,614.5C 313.768,617.119 313.435,619.619 312.5,622C 322.82,622.227 331.653,618.727 339,611.5C 339.402,610.128 339.902,608.795 340.5,607.5C 336.833,606.167 333.167,606.167 329.5,607.5C 327.303,611.238 324.636,614.571 321.5,617.5C 319.338,615.98 317.005,614.98 314.5,614.5C 316.343,610.472 318.843,606.805 322,603.5C 323.998,599.67 325.498,595.67 326.5,591.5 Z M 303.5,637.5 C 321.326,636.503 339.326,636.17 357.5,636.5C 357.5,638.5 357.5,640.5 357.5,642.5C 339.833,642.5 322.167,642.5 304.5,642.5C 304.784,640.585 304.451,638.919 303.5,637.5 Z M 304.5,649.5 C 322.167,649.5 339.833,649.5 357.5,649.5C 357.5,651.5 357.5,653.5 357.5,655.5C 339.497,655.667 321.497,655.5 303.5,655C 304.406,653.301 304.739,651.467 304.5,649.5 Z M 304.5,662.5 C 322.167,662.5 339.833,662.5 357.5,662.5C 357.5,664.167 357.5,665.833 357.5,667.5C 339.833,667.5 322.167,667.5 304.5,667.5C 304.5,665.833 304.5,664.167 304.5,662.5 Z"/></g>
<g><path style="opacity:0.844" fill="#000000" d="M 406.5,591.5 C 409.5,591.5 412.5,591.5 415.5,591.5C 415.5,603.833 415.5,616.167 415.5,628.5C 421.5,628.5 427.5,628.5 433.5,628.5C 433.5,631.5 433.5,634.5 433.5,637.5C 427.5,637.5 421.5,637.5 415.5,637.5C 415.337,639.857 415.503,642.19 416,644.5C 417.133,642.789 418.633,642.289 420.5,643C 424.22,648.948 428.053,654.782 432,660.5C 443.444,658.121 454.944,656.121 466.5,654.5C 466.5,633.5 466.5,612.5 466.5,591.5C 469.5,591.5 472.5,591.5 475.5,591.5C 475.333,611.836 475.5,632.169 476,652.5C 480.039,651.244 484.206,650.577 488.5,650.5C 489.159,653.455 489.492,656.455 489.5,659.5C 484.853,660.296 480.186,660.963 475.5,661.5C 475.5,671.833 475.5,682.167 475.5,692.5C 472.5,692.5 469.5,692.5 466.5,692.5C 466.666,682.828 466.5,673.161 466,663.5C 454.985,666.197 443.818,668.197 432.5,669.5C 432.657,668.127 432.49,666.793 432,665.5C 430.5,667 429,668.5 427.5,670C 426.365,670.749 425.365,670.583 424.5,669.5C 421.764,662.792 418.931,656.126 416,649.5C 415.5,663.829 415.333,678.163 415.5,692.5C 412.5,692.5 409.5,692.5 406.5,692.5C 406.667,673.83 406.5,655.164 406,636.5C 400.593,637.473 395.093,637.807 389.5,637.5C 389.5,634.5 389.5,631.5 389.5,628.5C 395.167,628.5 400.833,628.5 406.5,628.5C 406.5,616.167 406.5,603.833 406.5,591.5 Z"/></g>
<g><path style="opacity:0.821" fill="#000000" d="M 106.5,592.5 C 110.907,592.413 114.241,594.246 116.5,598C 116.167,598.5 115.833,599 115.5,599.5C 103.377,603.653 91.0438,606.986 78.5,609.5C 78.6666,623.837 78.4999,638.171 78,652.5C 77.3974,666.016 74.564,679.016 69.5,691.5C 69.1667,691.833 68.8333,692.167 68.5,692.5C 65.6443,690.766 63.3109,688.599 61.5,686C 66.0992,677.106 68.5992,667.606 69,657.5C 69.4999,639.17 69.6666,620.836 69.5,602.5C 82.2586,600.352 94.592,597.019 106.5,592.5 Z"/></g>
<g><path style="opacity:0.745" fill="#000000" d="M 282.5,597.5 C 291.833,597.5 301.167,597.5 310.5,597.5C 310.5,600.167 310.5,602.833 310.5,605.5C 301.167,605.5 291.833,605.5 282.5,605.5C 282.5,602.833 282.5,600.167 282.5,597.5 Z"/></g>
<g><path style="opacity:0.747" fill="#000000" d="M 424.5,597.5 C 427.556,598.296 430.556,599.296 433.5,600.5C 431.651,608.529 428.818,616.529 425,624.5C 422.568,625.45 420.068,625.45 417.5,624.5C 420.446,615.662 422.779,606.662 424.5,597.5 Z"/></g>
<g><path style="opacity:0.843" fill="#000000" d="M 171.5,598.5 C 189.5,598.5 207.5,598.5 225.5,598.5C 225.5,601.167 225.5,603.833 225.5,606.5C 238.837,606.333 252.171,606.5 265.5,607C 266.766,607.309 267.933,607.809 269,608.5C 267.102,628.029 261.269,646.363 251.5,663.5C 257.421,671.924 264.755,678.757 273.5,684C 271.672,685.663 270.005,687.496 268.5,689.5C 267.277,690.614 265.944,690.781 264.5,690C 256.903,685.536 250.57,679.702 245.5,672.5C 239.348,679.914 232.015,685.914 223.5,690.5C 221.851,689.352 220.351,688.019 219,686.5C 218.505,688.473 218.338,690.473 218.5,692.5C 215.223,692.784 212.057,692.451 209,691.5C 208.191,685.251 208.358,679.084 209.5,673C 196.552,674.823 183.552,676.657 170.5,678.5C 170.384,675.14 170.051,671.807 169.5,668.5C 172.833,668.167 176.167,667.833 179.5,667.5C 179.174,647.591 179.507,627.757 180.5,608C 177.518,607.502 174.518,607.335 171.5,607.5C 171.5,604.5 171.5,601.5 171.5,598.5 Z M 189.5,607.5 C 196.175,607.334 202.842,607.5 209.5,608C 208.167,612 208.167,616 209.5,620C 202.842,620.5 196.175,620.666 189.5,620.5C 189.5,616.167 189.5,611.833 189.5,607.5 Z M 218.5,607.5 C 219.5,607.5 220.5,607.5 221.5,607.5C 221.5,610.167 221.5,612.833 221.5,615.5C 224.276,615.089 224.943,615.922 223.5,618C 226.775,633.956 232.108,649.122 239.5,663.5C 234.098,671.403 227.265,677.736 219,682.5C 218.5,657.502 218.333,632.502 218.5,607.5 Z M 233.5,615.5 C 241.84,615.334 250.173,615.5 258.5,616C 255.537,628.889 251.37,641.389 246,653.5C 239.243,641.4 235.076,628.734 233.5,615.5 Z M 189.5,629.5 C 195.833,629.5 202.167,629.5 208.5,629.5C 208.203,633.767 208.536,637.934 209.5,642C 202.842,642.5 196.175,642.666 189.5,642.5C 189.5,638.167 189.5,633.833 189.5,629.5 Z M 189.5,651.5 C 195.833,651.5 202.167,651.5 208.5,651.5C 208.824,655.555 208.491,659.555 207.5,663.5C 201.602,664.957 195.602,665.623 189.5,665.5C 189.5,660.833 189.5,656.167 189.5,651.5 Z"/></g>
<g><path style="opacity:0.77" fill="#000000" d="M 393.5,598.5 C 395.451,598.227 396.951,598.893 398,600.5C 400.976,608.255 402.809,616.255 403.5,624.5C 400.833,624.833 398.167,625.167 395.5,625.5C 394.917,616.834 392.917,608.501 389.5,600.5C 390.949,599.828 392.282,599.161 393.5,598.5 Z"/></g>
<g><path style="opacity:0.788" fill="#000000" d="M 443.5,599.5 C 450.085,602.471 456.085,606.471 461.5,611.5C 462.583,612.365 462.749,613.365 462,614.5C 460.667,616.5 459.333,618.5 458,620.5C 451.742,615.62 445.575,610.62 439.5,605.5C 441.252,603.754 442.585,601.754 443.5,599.5 Z"/></g>
<g><path style="opacity:0.77" fill="#000000" d="M 117.5,600.5 C 131.167,600.5 144.833,600.5 158.5,600.5C 158.5,613.5 158.5,626.5 158.5,639.5C 147.495,639.333 136.495,639.5 125.5,640C 126.428,645.787 126.762,651.454 126.5,657C 134.833,657.667 143.167,657.667 151.5,657C 152.338,653.155 153.338,649.322 154.5,645.5C 156.22,646.934 158.22,647.767 160.5,648C 162.562,663.764 155.562,670.264 139.5,667.5C 135.167,667.333 130.833,667.167 126.5,667C 121.124,666.624 117.958,663.79 117,658.5C 116.18,639.093 116.347,619.76 117.5,600.5 Z M 125.5,610.5 C 128.304,609.362 131.304,609.195 134.5,610C 133.182,616.47 133.182,622.97 134.5,629.5C 131.914,630.48 129.247,630.813 126.5,630.5C 126.824,623.646 126.491,616.979 125.5,610.5 Z M 141.5,609.5 C 144.167,609.5 146.833,609.5 149.5,609.5C 149.5,616.5 149.5,623.5 149.5,630.5C 146.833,630.5 144.167,630.5 141.5,630.5C 141.5,623.5 141.5,616.5 141.5,609.5 Z"/></g>
<g><path style="opacity:0.859" fill="#000000" d="M 547.5,600.5 C 551.833,600.5 556.167,600.5 560.5,600.5C 551.645,629.919 542.478,659.252 533,688.5C 528.822,690.399 524.322,691.065 519.5,690.5C 528.832,660.507 538.165,630.507 547.5,600.5 Z"/></g>
<g><path style="opacity:0.822" fill="#000000" d="M 85.5,609.5 C 88.5,609.5 91.5,609.5 94.5,609.5C 94.5,636.833 94.5,664.167 94.5,691.5C 91.5,691.5 88.5,691.5 85.5,691.5C 85.5,664.167 85.5,636.833 85.5,609.5 Z"/></g>
<g><path style="opacity:0.829" fill="#000000" d="M 102.5,610.5 C 104.92,610.292 107.253,610.626 109.5,611.5C 110.146,624.521 110.98,637.521 112,650.5C 114.108,665.894 122.608,675.728 137.5,680C 146.044,682.079 154.711,683.246 163.5,683.5C 163.161,687.528 161.328,690.528 158,692.5C 145.713,691.47 133.88,688.636 122.5,684C 109.616,675.407 103.116,663.24 103,647.5C 101.655,635.139 101.488,622.806 102.5,610.5 Z"/></g>
<g><path style="opacity:0.992" fill="#d8d8d9" d="M 1049.5,617.5 C 1968.5,617.333 2887.5,617.5 3806.5,618C 3845.5,622.066 3873.67,641.566 3891,676.5C 3907.12,719.84 3898.96,758.007 3866.5,791C 3851.22,804.137 3833.55,812.137 3813.5,815C 2889.83,815.667 1966.17,815.667 1042.5,815C 1005.32,808.811 978.817,788.644 963,754.5C 947.206,706.896 958.706,667.396 997.5,636C 1013.41,625.529 1030.75,619.363 1049.5,617.5 Z"/></g>
<g><path style="opacity:1" fill="#4fbafe" d="M 1409.5,619.5 C 1590.83,619.333 1772.17,619.5 1953.5,620C 1997.55,630.053 2024.05,657.219 2033,701.5C 2036.67,754.035 2014.17,789.869 1965.5,809C 1961.13,809.842 1956.8,810.842 1952.5,812C 1862.19,813.155 1771.85,813.655 1681.5,813.5C 1591.48,813.657 1501.48,813.157 1411.5,812C 1368.46,801.625 1342.29,774.791 1333,731.5C 1329.12,673.912 1354.62,636.579 1409.5,619.5 Z"/></g>
<g><path style="opacity:0.792" fill="#000000" d="M 437.5,626.5 C 444.953,628.817 451.453,632.817 457,638.5C 456.828,641.351 455.661,643.851 453.5,646C 452.833,646.667 452.167,646.667 451.5,646C 446.568,641.065 441.068,636.899 435,633.5C 434.333,632.5 434.333,631.5 435,630.5C 436.481,629.529 437.315,628.196 437.5,626.5 Z"/></g>
<g><path style="opacity:0.783" fill="#000000" d="M 397.5,641.5 C 401.486,641.352 404.153,643.019 405.5,646.5C 403.505,658.831 399.172,670.165 392.5,680.5C 390.838,677.176 389.171,673.842 387.5,670.5C 393.439,661.752 396.772,652.085 397.5,641.5 Z"/></g>
<g><path style="opacity:0.74" fill="#000000" d="M 407.5,739.5 C 410.807,743.426 413.64,747.76 416,752.5C 417.206,755.838 416.04,757.671 412.5,758C 418.833,758.333 425.167,758.667 431.5,759C 432.444,761.719 432.777,764.552 432.5,767.5C 417.833,767.5 403.167,767.5 388.5,767.5C 388.5,764.5 388.5,761.5 388.5,758.5C 395.175,758.666 401.842,758.5 408.5,758C 405.659,752.816 402.993,747.649 400.5,742.5C 403.241,742.293 405.574,741.293 407.5,739.5 Z"/></g>
<g><path style="opacity:0.765" fill="#000000" d="M 518.5,739.5 C 522.687,744.023 526.021,749.189 528.5,755C 527.556,756.477 526.223,757.477 524.5,758C 531.492,758.5 538.492,758.666 545.5,758.5C 545.5,761.5 545.5,764.5 545.5,767.5C 530.167,767.5 514.833,767.5 499.5,767.5C 499.5,764.5 499.5,761.5 499.5,758.5C 506.508,758.666 513.508,758.5 520.5,758C 518.032,753.37 515.366,748.87 512.5,744.5C 514.531,742.825 516.531,741.159 518.5,739.5 Z"/></g>
<g><path style="opacity:0.797" fill="#000000" d="M 108.5,740.5 C 111.86,740.616 115.193,740.949 118.5,741.5C 117.937,743.91 117.437,746.243 117,748.5C 129.087,747.549 141.087,747.216 153,747.5C 155.235,748.368 157.402,749.368 159.5,750.5C 156.795,756.604 153.128,761.937 148.5,766.5C 141.827,765.334 140.827,762.334 145.5,757.5C 140.88,756.507 136.214,756.173 131.5,756.5C 131.081,759.325 132.081,761.491 134.5,763C 143.533,768.009 153.199,771.009 163.5,772C 161.678,774.821 159.511,777.321 157,779.5C 146.274,778.386 136.774,774.386 128.5,767.5C 122.114,773.691 114.448,777.191 105.5,778C 120.163,778.5 134.83,778.667 149.5,778.5C 149.5,793.833 149.5,809.167 149.5,824.5C 144.156,824.334 138.823,824.501 133.5,825C 143.258,827.419 152.592,830.919 161.5,835.5C 158.872,837.488 156.205,839.488 153.5,841.5C 143.069,836.945 132.736,832.445 122.5,828C 123.272,826.779 124.272,825.779 125.5,825C 116.833,824.333 108.167,824.333 99.5,825C 100.872,825.402 102.205,825.902 103.5,826.5C 104.711,827.274 104.711,828.107 103.5,829C 92.9018,833.755 82.0684,837.922 71,841.5C 68.0341,839.702 65.5341,837.369 63.5,834.5C 73.4845,831.336 83.4845,828.17 93.5,825C 88.1771,824.501 82.8437,824.334 77.5,824.5C 77.5,809.167 77.5,793.833 77.5,778.5C 83.5092,778.666 89.5092,778.499 95.5,778C 93.981,776.649 92.6477,775.149 91.5,773.5C 81.8563,772.502 72.1896,772.168 62.5,772.5C 62.2229,769.552 62.5562,766.719 63.5,764C 74.1615,763.5 84.8281,763.333 95.5,763.5C 95.5,766.167 95.5,768.833 95.5,771.5C 105.249,771.198 113.749,767.864 121,761.5C 122.009,759.975 122.509,758.308 122.5,756.5C 118.774,756.177 115.107,756.511 111.5,757.5C 109.468,760.902 106.968,763.902 104,766.5C 101.845,765.421 99.8448,764.087 98,762.5C 97.3333,761.833 97.3333,761.167 98,760.5C 103.878,755.078 107.378,748.411 108.5,740.5 Z M 86.5,786.5 C 104.167,786.5 121.833,786.5 139.5,786.5C 139.5,788.167 139.5,789.833 139.5,791.5C 121.833,791.5 104.167,791.5 86.5,791.5C 86.5,789.833 86.5,788.167 86.5,786.5 Z M 86.5,798.5 C 104.167,798.5 121.833,798.5 139.5,798.5C 139.5,800.5 139.5,802.5 139.5,804.5C 121.833,804.5 104.167,804.5 86.5,804.5C 86.5,802.5 86.5,800.5 86.5,798.5 Z M 86.5,811.5 C 104.167,811.5 121.833,811.5 139.5,811.5C 139.5,813.5 139.5,815.5 139.5,817.5C 121.833,817.5 104.167,817.5 86.5,817.5C 86.5,815.5 86.5,813.5 86.5,811.5 Z"/></g>
<g><path style="opacity:0.815" fill="#000000" d="M 188.5,795.5 C 189.833,794.5 189.833,793.5 188.5,792.5C 188.261,790.533 188.594,788.699 189.5,787C 183.509,786.501 177.509,786.334 171.5,786.5C 171.5,783.167 171.5,779.833 171.5,776.5C 177.509,776.666 183.509,776.499 189.5,776C 188.512,764.247 188.179,752.414 188.5,740.5C 191.833,740.5 195.167,740.5 198.5,740.5C 198.5,752.5 198.5,764.5 198.5,776.5C 204.176,776.334 209.843,776.501 215.5,777C 216.694,781.404 218.027,781.237 219.5,776.5C 220.723,775.386 222.056,775.219 223.5,776C 229.612,779.619 235.279,783.786 240.5,788.5C 239.14,791.228 237.307,793.561 235,795.5C 229.275,790.773 223.275,786.44 217,782.5C 216.691,783.766 216.191,784.933 215.5,786C 209.843,786.499 204.176,786.666 198.5,786.5C 198.201,788.604 198.534,790.604 199.5,792.5C 201.042,791.253 202.542,791.253 204,792.5C 207.333,798.5 210.667,804.5 214,810.5C 225.617,807.343 237.45,805.01 249.5,803.5C 249.5,782.5 249.5,761.5 249.5,740.5C 252.5,740.5 255.5,740.5 258.5,740.5C 258.167,760.844 258.5,781.178 259.5,801.5C 263.11,800.342 266.777,799.842 270.5,800C 271.218,802.461 271.885,804.961 272.5,807.5C 268.193,809.397 263.693,810.73 259,811.5C 258.5,821.494 258.334,831.494 258.5,841.5C 255.5,841.5 252.5,841.5 249.5,841.5C 249.5,831.833 249.5,822.167 249.5,812.5C 237.832,814.5 226.165,816.5 214.5,818.5C 214.657,817.127 214.49,815.793 214,814.5C 212.5,816 211,817.5 209.5,819C 208.551,819.617 207.718,819.451 207,818.5C 204.058,812.282 201.391,805.949 199,799.5C 198.5,813.496 198.333,827.496 198.5,841.5C 195.167,841.5 191.833,841.5 188.5,841.5C 188.5,826.167 188.5,810.833 188.5,795.5 Z"/></g>
<g><path style="opacity:0.847" fill="#000000" d="M 331.5,740.5 C 332.873,740.343 334.207,740.51 335.5,741C 337.545,743.586 339.211,746.42 340.5,749.5C 353.483,750.499 366.483,750.832 379.5,750.5C 379.5,753.167 379.5,755.833 379.5,758.5C 352.167,758.5 324.833,758.5 297.5,758.5C 297.667,772.171 297.5,785.837 297,799.5C 296.412,808.284 295.078,816.951 293,825.5C 291.601,831.043 289.434,836.21 286.5,841C 284.156,840.232 281.823,839.065 279.5,837.5C 279.167,837 278.833,836.5 278.5,836C 282.382,829.355 284.882,822.189 286,814.5C 287.33,793.19 287.83,771.857 287.5,750.5C 301.837,750.667 316.171,750.5 330.5,750C 328.47,748.104 326.803,745.937 325.5,743.5C 327.594,742.482 329.594,741.482 331.5,740.5 Z"/></g>
<g><path style="opacity:0.821" fill="#000000" d="M 565.5,742.5 C 568.833,742.5 572.167,742.5 575.5,742.5C 575.5,754.167 575.5,765.833 575.5,777.5C 582.833,777.5 590.167,777.5 597.5,777.5C 597.5,780.833 597.5,784.167 597.5,787.5C 590.167,787.5 582.833,787.5 575.5,787.5C 575.5,805.5 575.5,823.5 575.5,841.5C 572.167,841.5 568.833,841.5 565.5,841.5C 565.5,823.5 565.5,805.5 565.5,787.5C 558.167,787.5 550.833,787.5 543.5,787.5C 543.5,784.167 543.5,780.833 543.5,777.5C 550.833,777.5 558.167,777.5 565.5,777.5C 565.5,765.833 565.5,754.167 565.5,742.5 Z"/></g>
<g><path style="opacity:0.826" fill="#000000" d="M 439.5,744.5 C 451.167,744.5 462.833,744.5 474.5,744.5C 474.5,754.167 474.5,763.833 474.5,773.5C 478.833,773.5 483.167,773.5 487.5,773.5C 487.777,776.448 487.444,779.281 486.5,782C 480.388,782.909 474.388,782.576 468.5,781C 467.299,780.097 466.465,778.931 466,777.5C 465.5,769.507 465.334,761.507 465.5,753.5C 459.833,753.5 454.167,753.5 448.5,753.5C 450.196,768.439 444.696,779.772 432,787.5C 430.38,785.759 428.88,783.925 427.5,782C 416.172,781.5 404.838,781.333 393.5,781.5C 393.5,778.833 393.5,776.167 393.5,773.5C 404.833,773.5 416.167,773.5 427.5,773.5C 427.34,775.199 427.506,776.866 428,778.5C 432.781,775.718 436.114,771.718 438,766.5C 439.348,759.239 439.848,751.906 439.5,744.5 Z"/></g>
<g><path style="opacity:0.717" fill="#000000" d="M 66.5,746.5 C 75.1667,746.5 83.8333,746.5 92.5,746.5C 92.5,749.5 92.5,752.5 92.5,755.5C 83.5,755.5 74.5,755.5 65.5,755.5C 65.2641,752.391 65.5975,749.391 66.5,746.5 Z"/></g>
<g><path style="opacity:0.78" fill="#000000" d="M 177.5,747.5 C 178.496,747.414 179.329,747.748 180,748.5C 183.246,756.566 185.412,764.899 186.5,773.5C 183.882,773.779 181.382,774.446 179,775.5C 177.3,766.366 175.133,757.366 172.5,748.5C 174.415,748.784 176.081,748.451 177.5,747.5 Z"/></g>
<g><path style="opacity:0.734" fill="#000000" d="M 207.5,747.5 C 210.962,747.441 213.962,748.441 216.5,750.5C 213.902,757.128 211.402,763.795 209,770.5C 207.116,776.363 203.95,777.03 199.5,772.5C 202.58,764.262 205.246,755.929 207.5,747.5 Z"/></g>
<g><path style="opacity:0.794" fill="#000000" d="M 226.5,748.5 C 232.71,751.862 238.543,755.862 244,760.5C 244.357,763.856 243.191,766.689 240.5,769C 235.424,764.418 229.757,760.252 223.5,756.5C 222.417,755.635 222.251,754.635 223,753.5C 223.997,751.677 225.164,750.01 226.5,748.5 Z"/></g>
<g><path style="opacity:0.829" fill="#000000" d="M 332.5,759.5 C 335.833,759.5 339.167,759.5 342.5,759.5C 342.756,761.792 342.423,763.959 341.5,766C 353.162,766.5 364.829,766.667 376.5,766.5C 376.5,769.167 376.5,771.833 376.5,774.5C 365.167,774.5 353.833,774.5 342.5,774.5C 342.714,776.144 342.38,777.644 341.5,779C 351.161,779.5 360.828,779.666 370.5,779.5C 370.5,791.167 370.5,802.833 370.5,814.5C 361.167,814.5 351.833,814.5 342.5,814.5C 342.739,816.467 342.406,818.301 341.5,820C 354.162,820.5 366.829,820.667 379.5,820.5C 379.5,823.167 379.5,825.833 379.5,828.5C 367.167,828.5 354.833,828.5 342.5,828.5C 342.5,832.833 342.5,837.167 342.5,841.5C 339.223,841.784 336.057,841.451 333,840.5C 332.501,836.514 332.334,832.514 332.5,828.5C 320.5,828.5 308.5,828.5 296.5,828.5C 296.5,825.833 296.5,823.167 296.5,820.5C 308.838,820.667 321.171,820.5 333.5,820C 332.167,818.333 332.167,816.667 333.5,815C 324.173,814.5 314.839,814.334 305.5,814.5C 305.5,802.833 305.5,791.167 305.5,779.5C 314.839,779.666 324.173,779.5 333.5,779C 332.62,777.644 332.286,776.144 332.5,774.5C 322.167,774.5 311.833,774.5 301.5,774.5C 301.5,771.833 301.5,769.167 301.5,766.5C 312.172,766.667 322.839,766.5 333.5,766C 332.577,763.959 332.244,761.792 332.5,759.5 Z M 314.5,786.5 C 320.509,786.334 326.509,786.501 332.5,787C 332.784,788.956 332.784,791.123 332.5,793.5C 326.5,793.5 320.5,793.5 314.5,793.5C 314.5,791.167 314.5,788.833 314.5,786.5 Z M 342.5,786.5 C 348.833,786.5 355.167,786.5 361.5,786.5C 361.5,788.833 361.5,791.167 361.5,793.5C 355.167,793.5 348.833,793.5 342.5,793.5C 342.5,791.167 342.5,788.833 342.5,786.5 Z M 314.5,800.5 C 320.842,800.334 327.175,800.5 333.5,801C 332.167,803 332.167,805 333.5,807C 327.175,807.5 320.842,807.666 314.5,807.5C 314.5,805.167 314.5,802.833 314.5,800.5 Z M 341.5,801.5 C 347.979,800.509 354.646,800.176 361.5,800.5C 361.5,802.833 361.5,805.167 361.5,807.5C 355.167,807.5 348.833,807.5 342.5,807.5C 342.795,805.265 342.461,803.265 341.5,801.5 Z"/></g>
<g><path style="opacity:0.779" fill="#000000" d="M 503.5,773.5 C 516.167,773.5 528.833,773.5 541.5,773.5C 541.5,776.167 541.5,778.833 541.5,781.5C 528.833,781.5 516.167,781.5 503.5,781.5C 503.5,778.833 503.5,776.167 503.5,773.5 Z"/></g>
<g><path style="opacity:0.785" fill="#000000" d="M 393.5,787.5 C 404.833,787.5 416.167,787.5 427.5,787.5C 427.5,790.167 427.5,792.833 427.5,795.5C 416.167,795.5 404.833,795.5 393.5,795.5C 393.5,792.833 393.5,790.167 393.5,787.5 Z"/></g>
<g><path style="opacity:0.767" fill="#000000" d="M 503.5,787.5 C 516.167,787.5 528.833,787.5 541.5,787.5C 541.5,790.167 541.5,792.833 541.5,795.5C 528.833,795.5 516.167,795.5 503.5,795.5C 503.5,792.833 503.5,790.167 503.5,787.5 Z"/></g>
<g><path style="opacity:0.835" fill="#000000" d="M 429.5,788.5 C 446.17,788.333 462.837,788.5 479.5,789C 483.853,790.288 484.686,792.788 482,796.5C 478.51,806.649 472.676,815.149 464.5,822C 466.901,824.062 469.567,825.729 472.5,827C 477.991,829.22 483.658,830.72 489.5,831.5C 489.649,832.552 489.483,833.552 489,834.5C 487.212,837.119 485.212,839.452 483,841.5C 473.943,838.304 465.277,834.304 457,829.5C 448.723,834.304 440.057,838.304 431,841.5C 428.836,839.71 427.002,837.544 425.5,835C 417.5,834.333 409.5,834.333 401.5,835C 402.406,836.699 402.739,838.533 402.5,840.5C 399.5,840.5 396.5,840.5 393.5,840.5C 393.5,827.5 393.5,814.5 393.5,801.5C 404.833,801.5 416.167,801.5 427.5,801.5C 427.5,811.5 427.5,821.5 427.5,831.5C 435.483,829.785 442.816,826.619 449.5,822C 442.816,815.467 437.483,807.967 433.5,799.5C 433.709,798.914 434.043,798.414 434.5,798C 432.866,797.506 431.199,797.34 429.5,797.5C 429.5,794.5 429.5,791.5 429.5,788.5 Z M 442.5,798.5 C 451.675,797.178 461.008,797.178 470.5,798.5C 466.962,805.207 462.462,811.207 457,816.5C 451.544,810.89 446.71,804.89 442.5,798.5 Z M 402.5,810.5 C 407.833,810.5 413.167,810.5 418.5,810.5C 418.5,815.833 418.5,821.167 418.5,826.5C 413.167,826.5 407.833,826.5 402.5,826.5C 402.5,821.167 402.5,815.833 402.5,810.5 Z"/></g>
<g><path style="opacity:0.797" fill="#000000" d="M 188.5,792.5 C 188.5,793.5 188.5,794.5 188.5,795.5C 185.897,807.394 181.563,818.727 175.5,829.5C 173.336,826.506 171.67,823.173 170.5,819.5C 175.614,810.827 178.947,801.494 180.5,791.5C 183.237,791.401 185.904,791.735 188.5,792.5 Z"/></g>
<g><path style="opacity:0.789" fill="#000000" d="M 505.5,801.5 C 517.5,801.5 529.5,801.5 541.5,801.5C 541.5,812.5 541.5,823.5 541.5,834.5C 532.161,834.334 522.827,834.5 513.5,835C 514.747,836.458 514.747,837.958 513.5,839.5C 510.572,840.484 507.572,840.817 504.5,840.5C 504.186,827.421 504.52,814.421 505.5,801.5 Z M 513.5,811.5 C 519.645,810.51 525.978,810.177 532.5,810.5C 532.5,815.833 532.5,821.167 532.5,826.5C 526.158,826.666 519.825,826.5 513.5,826C 514.824,821.067 514.824,816.234 513.5,811.5 Z"/></g>
<g><path style="opacity:0.991" fill="#d8d8d9" d="M 1617.5,967.5 C 1570.57,976.265 1541.73,1003.93 1531,1050.5C 1526.43,1095.53 1543.27,1129.7 1581.5,1153C 1586.53,1156.02 1591.86,1158.18 1597.5,1159.5C 1601.8,1161.75 1606.47,1163.08 1611.5,1163.5C 1612.17,1163.5 1612.83,1163.5 1613.5,1163.5C 1614.83,1164.17 1616.17,1164.83 1617.5,1165.5C 1424.48,1165.99 1231.48,1165.49 1038.5,1164C 996.132,1154.89 969.299,1129.39 958,1087.5C 951.143,1048.73 962.309,1016.23 991.5,990C 1006.62,977.621 1023.95,970.288 1043.5,968C 1234.83,967.5 1426.17,967.333 1617.5,967.5 Z"/></g>
<g><path style="opacity:0.994" fill="#4fbafe" d="M 1617.5,967.5 C 1972.83,967.5 2328.17,967.5 2683.5,967.5C 2729.76,974.883 2758.93,1001.22 2771,1046.5C 2777.49,1090.41 2762.66,1124.91 2726.5,1150C 2712.61,1157.8 2697.95,1162.96 2682.5,1165.5C 2329.5,1165.5 1976.5,1165.5 1623.5,1165.5C 1620.49,1163.83 1617.16,1163.16 1613.5,1163.5C 1612.83,1163.5 1612.17,1163.5 1611.5,1163.5C 1607.11,1161.56 1602.44,1160.23 1597.5,1159.5C 1591.86,1158.18 1586.53,1156.02 1581.5,1153C 1543.27,1129.7 1526.43,1095.53 1531,1050.5C 1541.73,1003.93 1570.57,976.265 1617.5,967.5 Z"/></g>
<g><path style="opacity:0.992" fill="#d8d8d9" d="M 2683.5,967.5 C 3059.5,967.333 3435.5,967.5 3811.5,968C 3846.85,973.587 3873.02,992.087 3890,1023.5C 3907.95,1067.75 3900.12,1106.58 3866.5,1140C 3849.86,1154.31 3830.52,1162.65 3808.5,1165C 3433.17,1165.5 3057.83,1165.67 2682.5,1165.5C 2697.95,1162.96 2712.61,1157.8 2726.5,1150C 2762.66,1124.91 2777.49,1090.41 2771,1046.5C 2758.93,1001.22 2729.76,974.883 2683.5,967.5 Z"/></g>
<g><path style="opacity:0.816" fill="#000000" d="M 468.5,1013.5 C 470.017,1013.51 471.184,1014.18 472,1015.5C 474.25,1019.67 476.75,1023.67 479.5,1027.5C 477.543,1029.48 475.21,1030.98 472.5,1032C 479.492,1032.5 486.492,1032.67 493.5,1032.5C 493.5,1035.17 493.5,1037.83 493.5,1040.5C 479.167,1040.5 464.833,1040.5 450.5,1040.5C 450.5,1037.83 450.5,1035.17 450.5,1032.5C 457.508,1032.67 464.508,1032.5 471.5,1032C 468.573,1027.48 465.907,1022.81 463.5,1018C 464.761,1016.04 466.428,1014.54 468.5,1013.5 Z"/></g>
<g><path style="opacity:0.805" fill="#000000" d="M 580.5,1013.5 C 581.496,1013.41 582.329,1013.75 583,1014.5C 586.021,1018.54 588.521,1022.88 590.5,1027.5C 589.115,1029.71 587.115,1031.21 584.5,1032C 592.493,1032.5 600.493,1032.67 608.5,1032.5C 608.5,1035.17 608.5,1037.83 608.5,1040.5C 592.833,1040.5 577.167,1040.5 561.5,1040.5C 561.5,1037.83 561.5,1035.17 561.5,1032.5C 568.508,1032.67 575.508,1032.5 582.5,1032C 579.96,1027.09 577.294,1022.25 574.5,1017.5C 576.565,1016.14 578.565,1014.81 580.5,1013.5 Z"/></g>
<g><path style="opacity:0.835" fill="#000000" d="M 627.5,1015.5 C 630.833,1015.5 634.167,1015.5 637.5,1015.5C 637.5,1027.5 637.5,1039.5 637.5,1051.5C 644.833,1051.5 652.167,1051.5 659.5,1051.5C 659.5,1054.83 659.5,1058.17 659.5,1061.5C 652.167,1061.5 644.833,1061.5 637.5,1061.5C 637.5,1079.5 637.5,1097.5 637.5,1115.5C 634.167,1115.5 630.833,1115.5 627.5,1115.5C 627.5,1097.5 627.5,1079.5 627.5,1061.5C 620.5,1061.5 613.5,1061.5 606.5,1061.5C 606.5,1058.17 606.5,1054.83 606.5,1051.5C 613.5,1051.5 620.5,1051.5 627.5,1051.5C 627.5,1039.5 627.5,1027.5 627.5,1015.5 Z"/></g>
<g><path style="opacity:0.807" fill="#000000" d="M 501.5,1017.5 C 513.167,1017.5 524.833,1017.5 536.5,1017.5C 536.5,1027.17 536.5,1036.83 536.5,1046.5C 540.767,1046.8 544.934,1046.46 549,1045.5C 549.498,1048.82 549.665,1052.15 549.5,1055.5C 543.491,1055.67 537.491,1055.5 531.5,1055C 528.311,1053.11 526.811,1050.28 527,1046.5C 526.5,1040.18 526.334,1033.84 526.5,1027.5C 521.167,1027.5 515.833,1027.5 510.5,1027.5C 511.822,1041.35 506.822,1052.18 495.5,1060C 492.765,1059.32 490.432,1057.66 488.5,1055C 477.505,1054.5 466.505,1054.33 455.5,1054.5C 455.5,1051.83 455.5,1049.17 455.5,1046.5C 466.833,1046.5 478.167,1046.5 489.5,1046.5C 489.338,1048.53 489.505,1050.53 490,1052.5C 494.265,1049.32 497.599,1045.32 500,1040.5C 501.396,1032.92 501.896,1025.25 501.5,1017.5 Z"/></g>
<g><path style="opacity:0.857" fill="#000000" d="M 223.5,1023.5 C 227.833,1023.5 232.167,1023.5 236.5,1023.5C 235.778,1027.51 234.945,1031.51 234,1035.5C 225.07,1060.62 216.736,1085.96 209,1111.5C 204.822,1113.4 200.322,1114.07 195.5,1113.5C 204.725,1083.18 214.058,1053.18 223.5,1023.5 Z"/></g>
<g><path style="opacity:0.892" fill="#000000" d="M 343.5,1026.5 C 349.448,1027.13 355.448,1027.79 361.5,1028.5C 367.861,1037.03 374.027,1045.69 380,1054.5C 386.866,1045.93 393.366,1037.1 399.5,1028C 405.416,1027.81 411.249,1027.31 417,1026.5C 417.667,1027.5 417.667,1028.5 417,1029.5C 407.255,1041.41 398.089,1053.74 389.5,1066.5C 398.923,1079.68 408.59,1092.68 418.5,1105.5C 412.528,1106.66 406.528,1106.83 400.5,1106C 393.788,1096.74 386.955,1087.58 380,1078.5C 373.532,1087.93 366.699,1097.1 359.5,1106C 353.472,1106.83 347.472,1106.66 341.5,1105.5C 351.692,1092.48 361.692,1079.31 371.5,1066C 362,1053.83 352.5,1041.67 343,1029.5C 342.53,1028.42 342.697,1027.42 343.5,1026.5 Z"/></g>
<g><path style="opacity:0.899" fill="#000000" d="M 65.5,1027.5 C 70.5,1027.5 75.5,1027.5 80.5,1027.5C 80.0521,1046.22 80.5521,1064.89 82,1083.5C 84.5163,1091.52 90.0163,1095.18 98.5,1094.5C 107.499,1095.26 112.999,1091.26 115,1082.5C 115.333,1064.5 115.667,1046.5 116,1028.5C 121.072,1027.53 126.238,1027.2 131.5,1027.5C 131.667,1045.5 131.5,1063.5 131,1081.5C 127.531,1099.12 116.698,1107.78 98.5,1107.5C 87.6564,1107.83 78.4897,1104.17 71,1096.5C 68.5452,1092.47 66.8786,1088.14 66,1083.5C 65.5001,1064.84 65.3334,1046.17 65.5,1027.5 Z"/></g>
<g><path style="opacity:0.824" fill="#000000" d="M 145.5,1027.5 C 151.167,1027.5 156.833,1027.5 162.5,1027.5C 162.5,1053.83 162.5,1080.17 162.5,1106.5C 156.833,1106.5 151.167,1106.5 145.5,1106.5C 145.5,1080.17 145.5,1053.83 145.5,1027.5 Z"/></g>
<g><path style="opacity:0.894" fill="#000000" d="M 270.5,1027.5 C 275.833,1027.5 281.167,1027.5 286.5,1027.5C 286.049,1047.22 286.549,1066.89 288,1086.5C 291.402,1092.45 296.569,1095.12 303.5,1094.5C 311.984,1095.18 317.484,1091.52 320,1083.5C 321.448,1064.89 321.948,1046.22 321.5,1027.5C 326.5,1027.5 331.5,1027.5 336.5,1027.5C 336.667,1046.17 336.5,1064.84 336,1083.5C 334.054,1095.45 327.22,1102.95 315.5,1106C 300.483,1109.93 287.316,1106.77 276,1096.5C 274.667,1093.83 273.333,1091.17 272,1088.5C 270.548,1068.22 270.048,1047.89 270.5,1027.5 Z"/></g>
<g><path style="opacity:0.802" fill="#000000" d="M 566.5,1046.5 C 578.833,1046.5 591.167,1046.5 603.5,1046.5C 603.5,1049.17 603.5,1051.83 603.5,1054.5C 591.167,1054.5 578.833,1054.5 566.5,1054.5C 566.5,1051.83 566.5,1049.17 566.5,1046.5 Z"/></g>
<g><path style="opacity:0.79" fill="#000000" d="M 455.5,1060.5 C 466.833,1060.5 478.167,1060.5 489.5,1060.5C 489.5,1063.17 489.5,1065.83 489.5,1068.5C 478.167,1068.5 466.833,1068.5 455.5,1068.5C 455.5,1065.83 455.5,1063.17 455.5,1060.5 Z"/></g>
<g><path style="opacity:0.785" fill="#000000" d="M 566.5,1060.5 C 578.505,1060.33 590.505,1060.5 602.5,1061C 603.435,1063.38 603.768,1065.88 603.5,1068.5C 591.167,1068.5 578.833,1068.5 566.5,1068.5C 566.5,1065.83 566.5,1063.17 566.5,1060.5 Z"/></g>
<g><path style="opacity:0.835" fill="#000000" d="M 490.5,1061.5 C 508.594,1061.03 526.594,1061.53 544.5,1063C 542.595,1075.99 536.595,1086.99 526.5,1096C 534.622,1100.06 542.955,1103.56 551.5,1106.5C 550.068,1110.08 547.734,1112.75 544.5,1114.5C 535.084,1111.88 526.584,1107.54 519,1101.5C 510.498,1108.17 500.998,1112.83 490.5,1115.5C 490.335,1113.17 489.669,1111.01 488.5,1109C 480.507,1108.5 472.507,1108.33 464.5,1108.5C 464.5,1110.17 464.5,1111.83 464.5,1113.5C 461.5,1113.5 458.5,1113.5 455.5,1113.5C 455.5,1100.83 455.5,1088.17 455.5,1075.5C 466.833,1075.5 478.167,1075.5 489.5,1075.5C 489.168,1085.52 489.501,1095.52 490.5,1105.5C 497.768,1102.86 504.768,1099.7 511.5,1096C 504.334,1088.62 499.334,1080.29 496.5,1071C 494.527,1070.5 492.527,1070.34 490.5,1070.5C 490.5,1067.5 490.5,1064.5 490.5,1061.5 Z M 504.5,1071.5 C 513.991,1070.34 523.658,1070.18 533.5,1071C 529.511,1077.8 524.678,1083.97 519,1089.5C 513.544,1083.89 508.71,1077.89 504.5,1071.5 Z M 464.5,1083.5 C 469.833,1083.5 475.167,1083.5 480.5,1083.5C 480.5,1088.83 480.5,1094.17 480.5,1099.5C 475.167,1099.5 469.833,1099.5 464.5,1099.5C 464.5,1094.17 464.5,1088.83 464.5,1083.5 Z"/></g>
<g><path style="opacity:0.828" fill="#000000" d="M 567.5,1075.5 C 579.5,1075.5 591.5,1075.5 603.5,1075.5C 603.5,1086.5 603.5,1097.5 603.5,1108.5C 594.161,1108.33 584.827,1108.5 575.5,1109C 576.38,1110.36 576.714,1111.86 576.5,1113.5C 573.5,1113.5 570.5,1113.5 567.5,1113.5C 567.5,1100.83 567.5,1088.17 567.5,1075.5 Z M 576.5,1083.5 C 582.5,1083.5 588.5,1083.5 594.5,1083.5C 594.5,1088.83 594.5,1094.17 594.5,1099.5C 588.5,1099.5 582.5,1099.5 576.5,1099.5C 576.5,1094.17 576.5,1088.83 576.5,1083.5 Z"/></g>
<g><path style="opacity:1" fill="#89c6f0" d="M 1597.5,1159.5 C 1602.44,1160.23 1607.11,1161.56 1611.5,1163.5C 1606.47,1163.08 1601.8,1161.75 1597.5,1159.5 Z"/></g>
<g><path style="opacity:0.941" fill="#98caea" d="M 1613.5,1163.5 C 1617.16,1163.16 1620.49,1163.83 1623.5,1165.5C 1621.5,1165.5 1619.5,1165.5 1617.5,1165.5C 1616.17,1164.83 1614.83,1164.17 1613.5,1163.5 Z"/></g>
<g><path style="opacity:0.99" fill="#d9d9d8" d="M 3565.5,1515.5 C 3617.51,1494.85 3640.34,1456.51 3634,1400.5C 3624.51,1363.34 3601.68,1338.5 3565.5,1326C 3559.59,1324.29 3553.59,1323.13 3547.5,1322.5C 3293.33,1321.33 3039,1321.17 2784.5,1322C 2780.87,1322.15 2777.53,1322.98 2774.5,1324.5C 2731.53,1334.97 2705.69,1361.97 2697,1405.5C 2693.18,1459.58 2716.35,1496.25 2766.5,1515.5C 2193.17,1515.67 1619.83,1515.5 1046.5,1515C 997.848,1508.02 968.015,1480.52 957,1432.5C 952.329,1392.02 966.163,1359.52 998.5,1335C 1012.09,1325.8 1027.09,1320.13 1043.5,1318C 1504.83,1317.83 1966.17,1317.67 2427.5,1317.5C 2891.19,1317.34 3354.86,1317.84 3818.5,1319C 3860.59,1329.43 3887.09,1355.59 3898,1397.5C 3903.58,1455.24 3879.08,1493.74 3824.5,1513C 3819.17,1513.67 3813.83,1514.33 3808.5,1515C 3727.5,1515.5 3646.5,1515.67 3565.5,1515.5 Z"/></g>
<g><path style="opacity:1" fill="#9ccbe9" d="M 3547.5,1322.5 C 3294.17,1322.33 3040.83,1322.5 2787.5,1323C 2783.15,1323.46 2778.82,1323.96 2774.5,1324.5C 2777.53,1322.98 2780.87,1322.15 2784.5,1322C 3039,1321.17 3293.33,1321.33 3547.5,1322.5 Z"/></g>
<g><path style="opacity:0.997" fill="#4eb9fe" d="M 3547.5,1322.5 C 3553.59,1323.13 3559.59,1324.29 3565.5,1326C 3601.68,1338.5 3624.51,1363.34 3634,1400.5C 3640.34,1456.51 3617.51,1494.85 3565.5,1515.5C 3559.56,1516.86 3553.56,1518.02 3547.5,1519C 3293.17,1519.67 3038.83,1519.67 2784.5,1519C 2778.39,1518.28 2772.39,1517.11 2766.5,1515.5C 2716.35,1496.25 2693.18,1459.58 2697,1405.5C 2705.69,1361.97 2731.53,1334.97 2774.5,1324.5C 2778.82,1323.96 2783.15,1323.46 2787.5,1323C 3040.83,1322.5 3294.17,1322.33 3547.5,1322.5 Z"/></g>
<g><path style="opacity:0.812" fill="#000000" d="M 81.5,1367.5 C 85.0528,1367.94 88.0528,1369.44 90.5,1372C 86.181,1381.64 80.8477,1390.64 74.5,1399C 77.9283,1399.7 81.2617,1399.37 84.5,1398C 87.4767,1393.55 89.4767,1388.72 90.5,1383.5C 94.2259,1383.9 97.2259,1385.57 99.5,1388.5C 93.5425,1400.61 86.2092,1411.78 77.5,1422C 82.1064,1422.34 86.6064,1421.84 91,1420.5C 90.5008,1417.15 89.6675,1413.82 88.5,1410.5C 90.9372,1410.24 93.2706,1409.58 95.5,1408.5C 98.5489,1414.6 101.049,1420.93 103,1427.5C 103.5,1409.17 103.667,1390.84 103.5,1372.5C 122.5,1372.5 141.5,1372.5 160.5,1372.5C 160.667,1402.84 160.5,1433.17 160,1463.5C 158.387,1465.78 156.22,1467.28 153.5,1468C 149.514,1468.5 145.514,1468.67 141.5,1468.5C 140.833,1465.5 140.167,1462.5 139.5,1459.5C 143.5,1459.5 147.5,1459.5 151.5,1459.5C 151.5,1433.5 151.5,1407.5 151.5,1381.5C 138.5,1381.5 125.5,1381.5 112.5,1381.5C 112.5,1410.5 112.5,1439.5 112.5,1468.5C 109.5,1468.5 106.5,1468.5 103.5,1468.5C 103.666,1464.49 103.499,1460.49 103,1456.5C 100.699,1457.87 98.1985,1458.53 95.5,1458.5C 93.9666,1450.7 91.9666,1443.03 89.5,1435.5C 92.1667,1435.17 94.8333,1434.83 97.5,1434.5C 99.4823,1440.76 101.316,1447.09 103,1453.5C 103.831,1446.14 103.665,1438.81 102.5,1431.5C 100.271,1432.58 97.9372,1433.24 95.5,1433.5C 95.6168,1431.52 94.9501,1429.85 93.5,1428.5C 84.0725,1430.07 74.7392,1432.07 65.5,1434.5C 65.0161,1431.37 63.6827,1428.71 61.5,1426.5C 68.6528,1421.69 74.3195,1415.52 78.5,1408C 74.0531,1407.42 69.7198,1407.92 65.5,1409.5C 64.2617,1407.3 62.9284,1405.14 61.5,1403C 64.3487,1400.48 66.8487,1397.65 69,1394.5C 73.7479,1385.68 77.9145,1376.68 81.5,1367.5 Z"/></g>
<g><path style="opacity:0.759" fill="#000000" d="M 192.5,1367.5 C 197.208,1372.93 200.208,1379.26 201.5,1386.5C 203.743,1387.61 208.743,1387.94 216.5,1387.5C 216.5,1390.83 216.5,1394.17 216.5,1397.5C 201.833,1397.5 187.167,1397.5 172.5,1397.5C 172.5,1394.17 172.5,1390.83 172.5,1387.5C 179.175,1387.67 185.842,1387.5 192.5,1387C 190.018,1381.21 187.685,1375.37 185.5,1369.5C 188.152,1369.59 190.485,1368.92 192.5,1367.5 Z"/></g>
<g><path style="opacity:0.838" fill="#000000" d="M 234.5,1367.5 C 237.833,1367.5 241.167,1367.5 244.5,1367.5C 244.5,1374.83 244.5,1382.17 244.5,1389.5C 253.5,1389.5 262.5,1389.5 271.5,1389.5C 271.5,1392.83 271.5,1396.17 271.5,1399.5C 262.5,1399.5 253.5,1399.5 244.5,1399.5C 244.5,1406.17 244.5,1412.83 244.5,1419.5C 252.167,1419.5 259.833,1419.5 267.5,1419.5C 267.5,1435.83 267.5,1452.17 267.5,1468.5C 264.167,1468.5 260.833,1468.5 257.5,1468.5C 257.5,1466.83 257.5,1465.17 257.5,1463.5C 247.167,1463.5 236.833,1463.5 226.5,1463.5C 226.5,1465.17 226.5,1466.83 226.5,1468.5C 223.167,1468.5 219.833,1468.5 216.5,1468.5C 216.5,1452.17 216.5,1435.83 216.5,1419.5C 222.5,1419.5 228.5,1419.5 234.5,1419.5C 234.5,1402.17 234.5,1384.83 234.5,1367.5 Z M 226.5,1428.5 C 236.833,1428.5 247.167,1428.5 257.5,1428.5C 257.5,1437.17 257.5,1445.83 257.5,1454.5C 247.167,1454.5 236.833,1454.5 226.5,1454.5C 226.5,1445.83 226.5,1437.17 226.5,1428.5 Z"/></g>
<g><path style="opacity:0.814" fill="#000000" d="M 338.5,1367.5 C 341.5,1367.5 344.5,1367.5 347.5,1367.5C 347.335,1370.85 347.502,1374.18 348,1377.5C 355.747,1376.52 363.58,1376.18 371.5,1376.5C 371.5,1381.5 371.5,1386.5 371.5,1391.5C 374.167,1391.5 376.833,1391.5 379.5,1391.5C 379.5,1394.17 379.5,1396.83 379.5,1399.5C 376.833,1399.5 374.167,1399.5 371.5,1399.5C 371.5,1404.5 371.5,1409.5 371.5,1414.5C 363.5,1414.5 355.5,1414.5 347.5,1414.5C 347.5,1416.5 347.5,1418.5 347.5,1420.5C 356.167,1420.5 364.833,1420.5 373.5,1420.5C 373.5,1423.17 373.5,1425.83 373.5,1428.5C 364.833,1428.5 356.167,1428.5 347.5,1428.5C 347.5,1430.83 347.5,1433.17 347.5,1435.5C 357.5,1435.5 367.5,1435.5 377.5,1435.5C 377.5,1438.17 377.5,1440.83 377.5,1443.5C 367.5,1443.5 357.5,1443.5 347.5,1443.5C 347.5,1447.5 347.5,1451.5 347.5,1455.5C 344.5,1455.5 341.5,1455.5 338.5,1455.5C 338.5,1451.5 338.5,1447.5 338.5,1443.5C 329.5,1443.5 320.5,1443.5 311.5,1443.5C 311.5,1440.83 311.5,1438.17 311.5,1435.5C 320.5,1435.5 329.5,1435.5 338.5,1435.5C 338.5,1433.17 338.5,1430.83 338.5,1428.5C 331.167,1428.5 323.833,1428.5 316.5,1428.5C 316.5,1425.83 316.5,1423.17 316.5,1420.5C 323.833,1420.5 331.167,1420.5 338.5,1420.5C 338.5,1418.5 338.5,1416.5 338.5,1414.5C 331.167,1414.5 323.833,1414.5 316.5,1414.5C 316.223,1411.55 316.556,1408.72 317.5,1406C 324.492,1405.5 331.492,1405.33 338.5,1405.5C 338.5,1403.5 338.5,1401.5 338.5,1399.5C 329.167,1399.5 319.833,1399.5 310.5,1399.5C 310.5,1396.83 310.5,1394.17 310.5,1391.5C 319.833,1391.5 329.167,1391.5 338.5,1391.5C 338.5,1389.5 338.5,1387.5 338.5,1385.5C 331.5,1385.5 324.5,1385.5 317.5,1385.5C 317.223,1382.55 317.556,1379.72 318.5,1377C 325.082,1376.19 331.582,1376.36 338,1377.5C 338.498,1374.18 338.665,1370.85 338.5,1367.5 Z M 347.5,1385.5 C 352.5,1385.5 357.5,1385.5 362.5,1385.5C 362.5,1387.5 362.5,1389.5 362.5,1391.5C 357.5,1391.5 352.5,1391.5 347.5,1391.5C 347.5,1389.5 347.5,1387.5 347.5,1385.5 Z M 347.5,1399.5 C 352.5,1399.5 357.5,1399.5 362.5,1399.5C 362.5,1401.5 362.5,1403.5 362.5,1405.5C 357.5,1405.5 352.5,1405.5 347.5,1405.5C 347.5,1403.5 347.5,1401.5 347.5,1399.5 Z"/></g>
<g><path style="opacity:0.825" fill="#000000" d="M 554.5,1367.5 C 556.017,1367.51 557.184,1368.18 558,1369.5C 560.333,1373.17 562.667,1376.83 565,1380.5C 565.757,1383.48 564.591,1385.31 561.5,1386C 565.167,1386.33 568.833,1386.67 572.5,1387C 573.868,1388.34 575.201,1389.67 576.5,1391C 573.102,1399.8 568.435,1407.8 562.5,1415C 563.466,1416.68 564.799,1417.34 566.5,1417C 569.008,1413.66 571.675,1410.5 574.5,1407.5C 576.671,1409.17 578.671,1411.01 580.5,1413C 577.846,1416.99 574.512,1420.32 570.5,1423C 573.941,1425.77 576.607,1429.1 578.5,1433C 577.283,1435.93 575.45,1438.43 573,1440.5C 569.667,1435.83 566.333,1431.17 563,1426.5C 562.5,1440.5 562.333,1454.5 562.5,1468.5C 559.167,1468.5 555.833,1468.5 552.5,1468.5C 552.667,1455.16 552.5,1441.83 552,1428.5C 548.5,1432 545,1435.5 541.5,1439C 540.552,1439.48 539.552,1439.65 538.5,1439.5C 537.609,1436.42 536.776,1433.42 536,1430.5C 541.333,1425.17 546.667,1419.83 552,1414.5C 556.083,1408.67 559.916,1402.67 563.5,1396.5C 555.111,1396.45 546.445,1396.45 537.5,1396.5C 537.5,1393.17 537.5,1389.83 537.5,1386.5C 544.175,1386.67 550.842,1386.5 557.5,1386C 554.625,1381.08 551.625,1376.25 548.5,1371.5C 550.565,1370.14 552.565,1368.81 554.5,1367.5 Z"/></g>
<g><path style="opacity:0.822" fill="#000000" d="M 651.5,1367.5 C 654.5,1367.5 657.5,1367.5 660.5,1367.5C 660.5,1378.5 660.5,1389.5 660.5,1400.5C 664.833,1400.5 669.167,1400.5 673.5,1400.5C 673.5,1390.5 673.5,1380.5 673.5,1370.5C 676.833,1370.5 680.167,1370.5 683.5,1370.5C 683.5,1383.5 683.5,1396.5 683.5,1409.5C 675.833,1409.5 668.167,1409.5 660.5,1409.5C 660.5,1413.17 660.5,1416.83 660.5,1420.5C 667.833,1420.5 675.167,1420.5 682.5,1420.5C 682.5,1436.5 682.5,1452.5 682.5,1468.5C 679.5,1468.5 676.5,1468.5 673.5,1468.5C 673.5,1455.5 673.5,1442.5 673.5,1429.5C 668.833,1429.5 664.167,1429.5 659.5,1429.5C 659.918,1443.58 657.084,1456.92 651,1469.5C 648.767,1467.27 646.6,1465.1 644.5,1463C 647.197,1455.05 649.03,1446.88 650,1438.5C 651.321,1414.85 651.821,1391.19 651.5,1367.5 Z"/></g>
<g><path style="opacity:0.808" fill="#000000" d="M 396.5,1371.5 C 425.167,1371.5 453.833,1371.5 482.5,1371.5C 482.815,1379.42 482.482,1387.25 481.5,1395C 468.591,1395.82 455.758,1395.66 443,1394.5C 442.727,1396.1 442.227,1397.6 441.5,1399C 456.163,1399.5 470.83,1399.67 485.5,1399.5C 485.5,1402.17 485.5,1404.83 485.5,1407.5C 470.496,1407.33 455.496,1407.5 440.5,1408C 439.833,1409.33 439.167,1410.67 438.5,1412C 449.828,1412.5 461.162,1412.67 472.5,1412.5C 472.5,1427.5 472.5,1442.5 472.5,1457.5C 477.5,1457.5 482.5,1457.5 487.5,1457.5C 487.5,1460.17 487.5,1462.83 487.5,1465.5C 455.167,1465.5 422.833,1465.5 390.5,1465.5C 390.5,1462.83 390.5,1460.17 390.5,1457.5C 395.167,1457.5 399.833,1457.5 404.5,1457.5C 404.5,1442.5 404.5,1427.5 404.5,1412.5C 413.167,1412.5 421.833,1412.5 430.5,1412.5C 430.5,1410.83 430.5,1409.17 430.5,1407.5C 417.5,1407.5 404.5,1407.5 391.5,1407.5C 391.5,1404.83 391.5,1402.17 391.5,1399.5C 405.167,1399.5 418.833,1399.5 432.5,1399.5C 432.5,1398.17 432.5,1396.83 432.5,1395.5C 420.5,1395.5 408.5,1395.5 396.5,1395.5C 396.5,1387.5 396.5,1379.5 396.5,1371.5 Z M 405.5,1380.5 C 410.64,1379.51 415.974,1379.18 421.5,1379.5C 421.5,1382.17 421.5,1384.83 421.5,1387.5C 416.125,1387.83 410.792,1387.49 405.5,1386.5C 406.754,1384.36 406.754,1382.36 405.5,1380.5 Z M 430.5,1379.5 C 436.167,1379.5 441.833,1379.5 447.5,1379.5C 447.5,1382.17 447.5,1384.83 447.5,1387.5C 441.833,1387.5 436.167,1387.5 430.5,1387.5C 430.5,1384.83 430.5,1382.17 430.5,1379.5 Z M 455.5,1379.5 C 461.167,1379.5 466.833,1379.5 472.5,1379.5C 472.5,1382.17 472.5,1384.83 472.5,1387.5C 466.833,1387.5 461.167,1387.5 455.5,1387.5C 455.5,1384.83 455.5,1382.17 455.5,1379.5 Z M 413.5,1420.5 C 429.992,1419.5 446.658,1419.17 463.5,1419.5C 463.5,1420.83 463.5,1422.17 463.5,1423.5C 446.83,1423.67 430.163,1423.5 413.5,1423C 414.774,1422.02 414.774,1421.19 413.5,1420.5 Z M 413.5,1431.5 C 429.992,1430.5 446.658,1430.17 463.5,1430.5C 463.5,1431.83 463.5,1433.17 463.5,1434.5C 446.83,1434.67 430.163,1434.5 413.5,1434C 414.774,1433.02 414.774,1432.19 413.5,1431.5 Z M 414.5,1441.5 C 430.833,1441.5 447.167,1441.5 463.5,1441.5C 463.5,1443.17 463.5,1444.83 463.5,1446.5C 447.163,1446.67 430.83,1446.5 414.5,1446C 414.034,1444.7 414.034,1443.2 414.5,1441.5 Z M 413.5,1453.5 C 429.992,1452.5 446.658,1452.17 463.5,1452.5C 463.5,1454.17 463.5,1455.83 463.5,1457.5C 447.167,1457.5 430.833,1457.5 414.5,1457.5C 414.768,1455.9 414.434,1454.57 413.5,1453.5 Z"/></g>
<g><path style="opacity:0.829" fill="#000000" d="M 693.5,1373.5 C 709.422,1374.48 725.422,1374.82 741.5,1374.5C 741.5,1377.5 741.5,1380.5 741.5,1383.5C 728.167,1383.5 714.833,1383.5 701.5,1383.5C 701.5,1389.17 701.5,1394.83 701.5,1400.5C 713.838,1400.33 726.171,1400.5 738.5,1401C 740.286,1401.2 741.619,1402.03 742.5,1403.5C 740.6,1418.71 735.267,1432.54 726.5,1445C 731.316,1451.75 737.65,1456.58 745.5,1459.5C 746.521,1460 746.688,1460.67 746,1461.5C 743.622,1463.71 741.455,1466.04 739.5,1468.5C 732.27,1464.77 726.103,1459.77 721,1453.5C 715.213,1459.46 708.713,1464.46 701.5,1468.5C 699.545,1466.04 697.378,1463.71 695,1461.5C 694.194,1464.45 692.861,1467.11 691,1469.5C 688.591,1467.38 686.091,1465.38 683.5,1463.5C 688.951,1450.87 691.951,1437.7 692.5,1424C 691.342,1407.91 691.176,1391.74 692,1375.5C 692.717,1374.96 693.217,1374.29 693.5,1373.5 Z M 710.5,1409.5 C 717.532,1409.17 724.532,1409.5 731.5,1410.5C 728.883,1419.52 725.383,1428.18 721,1436.5C 716.019,1428.05 712.519,1419.05 710.5,1409.5 Z M 696.5,1459.5 C 700.384,1444.09 702.217,1428.43 702,1412.5C 704.184,1424.36 708.684,1435.19 715.5,1445C 710.408,1451.61 704.075,1456.44 696.5,1459.5 Z"/></g>
<g><path style="opacity:0.833" fill="#000000" d="M 282.5,1374.5 C 293.187,1374.17 303.854,1374.5 314.5,1375.5C 309.833,1384.83 305.167,1394.17 300.5,1403.5C 302.695,1404.77 304.861,1404.77 307,1403.5C 308.667,1404.17 310.333,1404.83 312,1405.5C 311.434,1418.66 308.934,1431.5 304.5,1444C 307.006,1447.6 310.339,1450.27 314.5,1452C 319.375,1453.8 324.375,1455.14 329.5,1456C 346.497,1456.5 363.497,1456.67 380.5,1456.5C 379.833,1459.5 379.167,1462.5 378.5,1465.5C 362.163,1465.67 345.83,1465.5 329.5,1465C 320.714,1463.74 312.381,1461.07 304.5,1457C 303,1455.5 301.5,1454 300,1452.5C 296.581,1457.92 292.415,1462.76 287.5,1467C 283.997,1466.71 281.331,1464.87 279.5,1461.5C 281.522,1458.64 284.022,1456.31 287,1454.5C 289.351,1451.8 291.184,1448.8 292.5,1445.5C 288.694,1438.88 285.694,1431.88 283.5,1424.5C 285.647,1422.34 288.314,1421.34 291.5,1421.5C 292.756,1426.69 294.59,1431.69 297,1436.5C 299.56,1429.09 301.727,1421.59 303.5,1414C 297.472,1413.83 291.472,1413.33 285.5,1412.5C 290.627,1403.08 295.627,1393.58 300.5,1384C 294.509,1383.5 288.509,1383.33 282.5,1383.5C 282.5,1380.5 282.5,1377.5 282.5,1374.5 Z"/></g>
<g><path style="opacity:0.824" fill="#000000" d="M 575.5,1376.5 C 594.5,1376.5 613.5,1376.5 632.5,1376.5C 632.016,1399.18 631.183,1421.85 630,1444.5C 629.526,1465.13 619.36,1472.46 599.5,1466.5C 598.805,1463.72 597.805,1461.05 596.5,1458.5C 602.739,1458.47 609.072,1458.31 615.5,1458C 616,1457.5 616.5,1457 617,1456.5C 619.642,1447.85 620.809,1439.18 620.5,1430.5C 621.143,1425.3 621.81,1420.13 622.5,1415C 622.332,1405.6 622.332,1396.1 622.5,1386.5C 616.167,1386.5 609.833,1386.5 603.5,1386.5C 603.264,1406.32 600.097,1425.66 594,1444.5C 590.29,1454.38 584.124,1462.38 575.5,1468.5C 572.833,1466.5 570.5,1464.17 568.5,1461.5C 580.933,1450.31 588.433,1436.31 591,1419.5C 592.243,1408.53 593.077,1397.53 593.5,1386.5C 587.5,1386.5 581.5,1386.5 575.5,1386.5C 575.5,1383.17 575.5,1379.83 575.5,1376.5 Z"/></g>
<g><path style="opacity:0.869" fill="#000000" d="M 516.5,1381.5 C 520.833,1381.5 525.167,1381.5 529.5,1381.5C 516.218,1413.53 516.218,1445.87 529.5,1478.5C 525.167,1479.83 520.833,1479.83 516.5,1478.5C 497.939,1446.18 497.939,1413.85 516.5,1381.5 Z"/></g>
<g><path style="opacity:0.877" fill="#000000" d="M 751.5,1381.5 C 755.884,1381.17 760.217,1381.51 764.5,1382.5C 781.197,1413.54 781.697,1444.87 766,1476.5C 763.891,1478.62 761.225,1479.62 758,1479.5C 755.833,1479.17 753.667,1478.83 751.5,1478.5C 764.805,1446.16 764.805,1413.83 751.5,1381.5 Z"/></g>
<g><path style="opacity:0.791" fill="#000000" d="M 120.5,1383.5 C 121.978,1383.24 123.311,1383.57 124.5,1384.5C 127.327,1389.48 128.994,1394.82 129.5,1400.5C 128.033,1401.81 129.7,1401.81 134.5,1400.5C 136.476,1395.26 138.143,1389.93 139.5,1384.5C 141.718,1383.94 144.051,1383.94 146.5,1384.5C 145.778,1388.51 144.945,1392.51 144,1396.5C 143.727,1398.33 142.893,1399.83 141.5,1401C 144.482,1401.5 147.482,1401.66 150.5,1401.5C 150.5,1404.17 150.5,1406.83 150.5,1409.5C 144.824,1409.33 139.157,1409.5 133.5,1410C 134.833,1412.67 136.167,1415.33 137.5,1418C 137.167,1418.33 136.833,1418.67 136.5,1419C 140.821,1419.5 145.154,1419.67 149.5,1419.5C 149.5,1422.17 149.5,1424.83 149.5,1427.5C 141.826,1427.33 134.159,1427.5 126.5,1428C 127.46,1431.73 127.793,1435.56 127.5,1439.5C 134.755,1439.81 141.921,1439.48 149,1438.5C 149.498,1441.48 149.665,1444.48 149.5,1447.5C 140.06,1447.95 130.726,1447.45 121.5,1446C 120.107,1444.83 119.273,1443.33 119,1441.5C 118.501,1436.85 118.334,1432.18 118.5,1427.5C 117.167,1427.5 115.833,1427.5 114.5,1427.5C 114.5,1424.83 114.5,1422.17 114.5,1419.5C 119.214,1419.83 123.88,1419.49 128.5,1418.5C 127.443,1415.81 126.11,1413.31 124.5,1411C 124.833,1410.67 125.167,1410.33 125.5,1410C 121.514,1409.5 117.514,1409.33 113.5,1409.5C 113.5,1406.83 113.5,1404.17 113.5,1401.5C 116.5,1401.5 119.5,1401.5 122.5,1401.5C 121.435,1395.64 119.768,1389.97 117.5,1384.5C 118.791,1384.74 119.791,1384.4 120.5,1383.5 Z"/></g>
<g><path style="opacity:0.8" fill="#000000" d="M 201.5,1399.5 C 204.833,1399.83 208.167,1400.17 211.5,1400.5C 209.533,1413.83 206.867,1427 203.5,1440C 207.416,1439.46 211.416,1438.96 215.5,1438.5C 215.5,1441.5 215.5,1444.5 215.5,1447.5C 201.789,1450.96 188.123,1454.63 174.5,1458.5C 172.443,1455.14 171.777,1451.64 172.5,1448C 179.536,1446.49 186.536,1444.82 193.5,1443C 194.428,1442.61 195.095,1441.95 195.5,1441C 198.2,1427.27 200.2,1413.43 201.5,1399.5 Z"/></g>
<g><path style="opacity:0.781" fill="#000000" d="M 181.5,1400.5 C 182.833,1400.5 184.167,1400.5 185.5,1400.5C 188.077,1414.05 189.744,1427.72 190.5,1441.5C 187.5,1441.5 184.5,1441.5 181.5,1441.5C 180.604,1428.12 179.27,1414.79 177.5,1401.5C 179.099,1401.77 180.432,1401.43 181.5,1400.5 Z"/></g>
<g><path style="opacity:0.743" fill="#000000" d="M 83.5,1436.5 C 84.7498,1436.58 85.5831,1437.24 86,1438.5C 87.7248,1446.07 88.5581,1453.74 88.5,1461.5C 85.8333,1461.83 83.1667,1462.17 80.5,1462.5C 80.0806,1454.15 79.414,1445.81 78.5,1437.5C 80.4147,1437.78 82.0813,1437.45 83.5,1436.5 Z"/></g>
<g><path style="opacity:0.765" fill="#000000" d="M 67.5,1437.5 C 69.861,1437.67 72.1944,1438.01 74.5,1438.5C 74.423,1442.79 73.7564,1446.96 72.5,1451C 72.8333,1451.33 73.1667,1451.67 73.5,1452C 72.1062,1456.74 70.9396,1461.58 70,1466.5C 67.5567,1465.41 65.0567,1464.41 62.5,1463.5C 62.1667,1462.83 61.8333,1462.17 61.5,1461.5C 64.3514,1453.74 66.3514,1445.74 67.5,1437.5 Z"/></g>
<g><path style="opacity:0.792" fill="#000000" d="M 110.5,1627.5 C 111.675,1627.28 112.675,1627.61 113.5,1628.5C 115.293,1631.25 116.959,1634.08 118.5,1637C 131.829,1637.5 145.163,1637.67 158.5,1637.5C 158.5,1645.17 158.5,1652.83 158.5,1660.5C 155.167,1660.5 151.833,1660.5 148.5,1660.5C 148.5,1656.17 148.5,1651.83 148.5,1647.5C 124.167,1647.5 99.8333,1647.5 75.5,1647.5C 75.5,1651.83 75.5,1656.17 75.5,1660.5C 72.5,1660.5 69.5,1660.5 66.5,1660.5C 66.5,1652.83 66.5,1645.17 66.5,1637.5C 80.1707,1637.67 93.8374,1637.5 107.5,1637C 105.798,1634.76 104.798,1632.26 104.5,1629.5C 106.786,1629.41 108.786,1628.74 110.5,1627.5 Z"/></g>
<g><path style="opacity:0.826" fill="#000000" d="M 523.5,1627.5 C 526.167,1627.5 528.833,1627.5 531.5,1627.5C 531.5,1630.5 531.5,1633.5 531.5,1636.5C 537.833,1636.5 544.167,1636.5 550.5,1636.5C 550.5,1638.83 550.5,1641.17 550.5,1643.5C 544.167,1643.5 537.833,1643.5 531.5,1643.5C 531.5,1645.17 531.5,1646.83 531.5,1648.5C 539.167,1648.5 546.833,1648.5 554.5,1648.5C 554.5,1651.17 554.5,1653.83 554.5,1656.5C 546.833,1656.5 539.167,1656.5 531.5,1656.5C 531.5,1657.5 531.5,1658.5 531.5,1659.5C 538.167,1659.5 544.833,1659.5 551.5,1659.5C 551.793,1665.89 551.46,1672.23 550.5,1678.5C 551.833,1681.17 553.167,1683.83 554.5,1686.5C 568.484,1687.5 582.484,1687.83 596.5,1687.5C 596.5,1690.17 596.5,1692.83 596.5,1695.5C 593.15,1695.33 589.817,1695.5 586.5,1696C 587.665,1697.08 588.998,1697.92 590.5,1698.5C 591.521,1699 591.688,1699.67 591,1700.5C 585.207,1704.65 579.041,1708.15 572.5,1711C 580.519,1715.06 588.853,1718.23 597.5,1720.5C 595.914,1723.34 594.08,1726.01 592,1728.5C 577.92,1724.96 565.587,1718.3 555,1708.5C 552.333,1704.5 549.667,1700.5 547,1696.5C 541.75,1700.21 536.25,1703.54 530.5,1706.5C 529.167,1710.17 529.167,1713.83 530.5,1717.5C 538.372,1715.2 546.372,1713.53 554.5,1712.5C 554.5,1715.17 554.5,1717.83 554.5,1720.5C 542.639,1722.72 530.973,1725.72 519.5,1729.5C 517.914,1727.33 516.58,1725 515.5,1722.5C 519.519,1719.46 521.019,1715.46 520,1710.5C 514.217,1712.24 508.383,1713.91 502.5,1715.5C 499.98,1713.32 498.313,1710.66 497.5,1707.5C 510.095,1705.58 522.095,1701.75 533.5,1696C 521.838,1695.5 510.171,1695.33 498.5,1695.5C 498.5,1692.83 498.5,1690.17 498.5,1687.5C 513.837,1687.67 529.17,1687.5 544.5,1687C 543.13,1685.56 542.13,1683.89 541.5,1682C 539.899,1681.73 538.399,1681.23 537,1680.5C 536.443,1678.39 535.609,1676.39 534.5,1674.5C 537.002,1674.38 539.668,1674.21 542.5,1674C 543.435,1671.62 543.768,1669.12 543.5,1666.5C 539.5,1666.5 535.5,1666.5 531.5,1666.5C 531.5,1672.5 531.5,1678.5 531.5,1684.5C 528.5,1684.5 525.5,1684.5 522.5,1684.5C 522.5,1678.5 522.5,1672.5 522.5,1666.5C 518.625,1666.08 514.958,1666.58 511.5,1668C 512.467,1672.4 512.8,1676.9 512.5,1681.5C 509.5,1681.5 506.5,1681.5 503.5,1681.5C 503.5,1674.17 503.5,1666.83 503.5,1659.5C 509.833,1659.5 516.167,1659.5 522.5,1659.5C 522.5,1658.5 522.5,1657.5 522.5,1656.5C 514.5,1656.5 506.5,1656.5 498.5,1656.5C 498.5,1653.83 498.5,1651.17 498.5,1648.5C 500.199,1648.66 501.866,1648.49 503.5,1648C 502.09,1647.63 501.09,1646.8 500.5,1645.5C 503.582,1639.72 506.749,1634.05 510,1628.5C 516.306,1628.44 517.806,1630.94 514.5,1636C 517.146,1636.5 519.813,1636.66 522.5,1636.5C 522.264,1633.39 522.597,1630.39 523.5,1627.5 Z M 510.5,1643.5 C 514.5,1643.5 518.5,1643.5 522.5,1643.5C 522.286,1645.14 522.62,1646.64 523.5,1648C 518.167,1648.67 512.833,1648.67 507.5,1648C 509.141,1646.87 510.141,1645.37 510.5,1643.5 Z M 556.5,1696.5 C 564.99,1695.34 573.657,1695.18 582.5,1696C 577.229,1699.55 571.729,1702.72 566,1705.5C 562.318,1702.98 559.152,1699.98 556.5,1696.5 Z"/></g>
<g><path style="opacity:0.798" fill="#000000" d="M 195.5,1628.5 C 198.556,1629.3 201.556,1630.3 204.5,1631.5C 203.926,1633.06 203.26,1634.56 202.5,1636C 211.827,1636.5 221.161,1636.67 230.5,1636.5C 229.405,1628.7 232.572,1626.37 240,1629.5C 240.497,1631.81 240.663,1634.14 240.5,1636.5C 250.506,1636.33 260.506,1636.5 270.5,1637C 271.833,1639.33 271.833,1641.67 270.5,1644C 260.167,1644.33 249.833,1644.67 239.5,1645C 240.337,1646.01 240.67,1647.18 240.5,1648.5C 249.167,1648.5 257.833,1648.5 266.5,1648.5C 266.5,1658.83 266.5,1669.17 266.5,1679.5C 264.473,1679.34 262.473,1679.5 260.5,1680C 265.53,1683.35 269.363,1687.52 272,1692.5C 268.17,1696.47 264.67,1696.31 261.5,1692C 259.866,1691.51 258.199,1691.34 256.5,1691.5C 256.5,1693.17 256.5,1694.83 256.5,1696.5C 261.5,1696.5 266.5,1696.5 271.5,1696.5C 271.5,1699.5 271.5,1702.5 271.5,1705.5C 266.5,1705.5 261.5,1705.5 256.5,1705.5C 256.666,1711.84 256.5,1718.18 256,1724.5C 254.661,1727.09 252.494,1728.59 249.5,1729C 244.136,1729.83 238.802,1729.66 233.5,1728.5C 232.518,1725.9 231.851,1723.24 231.5,1720.5C 236.833,1720.5 242.167,1720.5 247.5,1720.5C 247.5,1715.5 247.5,1710.5 247.5,1705.5C 238.161,1705.33 228.827,1705.5 219.5,1706C 223.861,1709.41 227.528,1713.41 230.5,1718C 228.692,1720.17 226.525,1722 224,1723.5C 220.022,1718.19 215.355,1713.52 210,1709.5C 209.552,1707.59 210.385,1706.42 212.5,1706C 207.511,1705.5 202.511,1705.33 197.5,1705.5C 197.5,1702.5 197.5,1699.5 197.5,1696.5C 214.167,1696.5 230.833,1696.5 247.5,1696.5C 247.5,1694.83 247.5,1693.17 247.5,1691.5C 231.859,1692.35 216.192,1693.02 200.5,1693.5C 200.296,1690.48 199.963,1687.48 199.5,1684.5C 209.833,1684.5 220.167,1684.5 230.5,1684.5C 230.5,1682.83 230.5,1681.17 230.5,1679.5C 222.167,1679.5 213.833,1679.5 205.5,1679.5C 205.5,1669.17 205.5,1658.83 205.5,1648.5C 213.833,1648.5 222.167,1648.5 230.5,1648.5C 230.5,1647.17 230.5,1645.83 230.5,1644.5C 220.5,1644.5 210.5,1644.5 200.5,1644.5C 200.649,1643.45 200.483,1642.45 200,1641.5C 198.527,1645.78 196.527,1649.78 194,1653.5C 193.667,1678.5 193.333,1703.5 193,1728.5C 189.943,1729.45 186.777,1729.78 183.5,1729.5C 183.667,1709.83 183.5,1690.16 183,1670.5C 180.445,1674.31 177.445,1677.65 174,1680.5C 171.56,1678.46 169.727,1675.96 168.5,1673C 179.904,1659.7 188.904,1644.87 195.5,1628.5 Z M 214.5,1656.5 C 219.833,1656.5 225.167,1656.5 230.5,1656.5C 230.5,1657.83 230.5,1659.17 230.5,1660.5C 225.167,1660.5 219.833,1660.5 214.5,1660.5C 214.5,1659.17 214.5,1657.83 214.5,1656.5 Z M 240.5,1656.5 C 245.833,1656.5 251.167,1656.5 256.5,1656.5C 256.5,1657.83 256.5,1659.17 256.5,1660.5C 250.824,1660.67 245.157,1660.5 239.5,1660C 240.337,1658.99 240.67,1657.82 240.5,1656.5 Z M 214.5,1667.5 C 219.833,1667.5 225.167,1667.5 230.5,1667.5C 230.5,1669.17 230.5,1670.83 230.5,1672.5C 225.167,1672.5 219.833,1672.5 214.5,1672.5C 214.5,1670.83 214.5,1669.17 214.5,1667.5 Z M 239.5,1668.5 C 244.975,1667.51 250.642,1667.18 256.5,1667.5C 256.5,1669.17 256.5,1670.83 256.5,1672.5C 251.167,1672.5 245.833,1672.5 240.5,1672.5C 240.768,1670.9 240.434,1669.57 239.5,1668.5 Z M 252.5,1683.5 C 248.107,1683.54 243.774,1683.71 239.5,1684C 240.833,1682.67 240.833,1681.33 239.5,1680C 244.716,1678.54 249.05,1679.71 252.5,1683.5 Z"/></g>
<g><path style="opacity:0.811" fill="#000000" d="M 454.5,1628.5 C 458.167,1628.5 461.833,1628.5 465.5,1628.5C 465.5,1640.5 465.5,1652.5 465.5,1664.5C 448.833,1664.5 432.167,1664.5 415.5,1664.5C 415.5,1669.83 415.5,1675.17 415.5,1680.5C 433.41,1680.17 451.243,1680.51 469,1681.5C 469.667,1697.17 469.667,1712.83 469,1728.5C 465.606,1729.46 462.106,1729.79 458.5,1729.5C 458.5,1716.5 458.5,1703.5 458.5,1690.5C 443.833,1690.5 429.167,1690.5 414.5,1690.5C 413.454,1705.59 407.787,1718.59 397.5,1729.5C 395.643,1727.15 393.643,1724.98 391.5,1723C 397.604,1714.03 401.771,1704.2 404,1693.5C 405.418,1672.2 405.918,1650.87 405.5,1629.5C 408.833,1629.5 412.167,1629.5 415.5,1629.5C 415.5,1637.83 415.5,1646.17 415.5,1654.5C 428.5,1654.5 441.5,1654.5 454.5,1654.5C 454.5,1645.83 454.5,1637.17 454.5,1628.5 Z"/></g>
<g><path style="opacity:0.833" fill="#000000" d="M 631.5,1628.5 C 634.789,1629.37 638.123,1630.04 641.5,1630.5C 638.852,1638.8 635.352,1646.8 631,1654.5C 630.5,1679.5 630.333,1704.5 630.5,1729.5C 627.167,1729.5 623.833,1729.5 620.5,1729.5C 620.667,1710.16 620.5,1690.83 620,1671.5C 617.37,1675.13 614.37,1678.47 611,1681.5C 609.285,1678.56 607.452,1675.73 605.5,1673C 617.635,1660.24 626.301,1645.4 631.5,1628.5 Z"/></g>
<g><path style="opacity:0.816" fill="#000000" d="M 581.5,1629.5 C 584.5,1629.5 587.5,1629.5 590.5,1629.5C 590.819,1646.55 590.486,1663.55 589.5,1680.5C 588.335,1681.58 587.002,1682.42 585.5,1683C 580.545,1684.22 575.545,1684.55 570.5,1684C 569.039,1681.58 567.706,1679.08 566.5,1676.5C 571.456,1675.51 576.456,1675.17 581.5,1675.5C 581.5,1660.17 581.5,1644.83 581.5,1629.5 Z"/></g>
<g><path style="opacity:0.835" fill="#000000" d="M 658.5,1629.5 C 661.461,1630.32 664.461,1630.99 667.5,1631.5C 667.017,1636.97 665.017,1641.8 661.5,1646C 676.496,1646.5 691.496,1646.67 706.5,1646.5C 706.5,1649.83 706.5,1653.17 706.5,1656.5C 695.5,1656.5 684.5,1656.5 673.5,1656.5C 673.5,1660.83 673.5,1665.17 673.5,1669.5C 683.833,1669.5 694.167,1669.5 704.5,1669.5C 704.5,1672.5 704.5,1675.5 704.5,1678.5C 694.167,1678.5 683.833,1678.5 673.5,1678.5C 673.5,1683.5 673.5,1688.5 673.5,1693.5C 684.167,1693.5 694.833,1693.5 705.5,1693.5C 705.5,1696.5 705.5,1699.5 705.5,1702.5C 694.833,1702.5 684.167,1702.5 673.5,1702.5C 673.5,1711.5 673.5,1720.5 673.5,1729.5C 670.167,1729.5 666.833,1729.5 663.5,1729.5C 663.5,1705.17 663.5,1680.83 663.5,1656.5C 661.076,1656.19 658.743,1656.53 656.5,1657.5C 652.297,1665.25 647.131,1672.25 641,1678.5C 638.812,1676.31 636.645,1674.14 634.5,1672C 644.938,1659.3 652.938,1645.13 658.5,1629.5 Z"/></g>
<g><path style="opacity:0.824" fill="#000000" d="M 365.5,1630.5 C 369.583,1631.12 372.75,1632.78 375,1635.5C 367.058,1644.45 358.225,1652.28 348.5,1659C 347.241,1659.98 345.908,1660.32 344.5,1660C 342.046,1658.26 340.546,1656.09 340,1653.5C 350.26,1647.74 358.76,1640.07 365.5,1630.5 Z"/></g>
<g><path style="opacity:0.8" fill="#000000" d="M 286.5,1632.5 C 303.5,1632.5 320.5,1632.5 337.5,1632.5C 337.5,1642.83 337.5,1653.17 337.5,1663.5C 329.826,1663.33 322.159,1663.5 314.5,1664C 315.293,1665.09 315.96,1666.25 316.5,1667.5C 324.807,1668.5 333.14,1668.83 341.5,1668.5C 341.5,1671.17 341.5,1673.83 341.5,1676.5C 321.5,1676.5 301.5,1676.5 281.5,1676.5C 281.5,1673.83 281.5,1671.17 281.5,1668.5C 289.84,1668.67 298.173,1668.5 306.5,1668C 305.707,1666.91 305.04,1665.75 304.5,1664.5C 298.613,1663.81 292.78,1663.15 287,1662.5C 286.5,1652.51 286.334,1642.51 286.5,1632.5 Z M 296.5,1639.5 C 306.833,1639.5 317.167,1639.5 327.5,1639.5C 327.5,1640.83 327.5,1642.17 327.5,1643.5C 317.167,1643.5 306.833,1643.5 296.5,1643.5C 296.5,1642.17 296.5,1640.83 296.5,1639.5 Z M 296.5,1651.5 C 306.833,1651.5 317.167,1651.5 327.5,1651.5C 327.5,1652.83 327.5,1654.17 327.5,1655.5C 317.167,1655.5 306.833,1655.5 296.5,1655.5C 296.5,1654.17 296.5,1652.83 296.5,1651.5 Z"/></g>
<g><path style="opacity:0.729" fill="#000000" d="M 560.5,1633.5 C 563.833,1633.5 567.167,1633.5 570.5,1633.5C 570.5,1645.83 570.5,1658.17 570.5,1670.5C 567.167,1670.5 563.833,1670.5 560.5,1670.5C 560.5,1658.17 560.5,1645.83 560.5,1633.5 Z"/></g>
<g><path style="opacity:0.838" fill="#000000" d="M 765.5,1636.5 C 769.833,1636.5 774.167,1636.5 778.5,1636.5C 777.668,1640.83 776.335,1645 774.5,1649C 774.833,1649.33 775.167,1649.67 775.5,1650C 766.264,1675.54 757.931,1701.37 750.5,1727.5C 745.833,1727.5 741.167,1727.5 736.5,1727.5C 746.321,1697.22 755.988,1666.88 765.5,1636.5 Z"/></g>
<g><path style="opacity:0.75" fill="#000000" d="M 79.5,1654.5 C 101.169,1654.33 122.836,1654.5 144.5,1655C 145.444,1657.72 145.777,1660.55 145.5,1663.5C 123.5,1663.5 101.5,1663.5 79.5,1663.5C 79.5,1660.5 79.5,1657.5 79.5,1654.5 Z"/></g>
<g><path style="opacity:0.827" fill="#000000" d="M 369.5,1659.5 C 372.354,1659.92 375.021,1660.92 377.5,1662.5C 378.521,1663 378.688,1663.67 378,1664.5C 368.821,1675.51 357.988,1684.51 345.5,1691.5C 343.5,1689.17 341.5,1686.83 339.5,1684.5C 346.303,1680.2 352.97,1675.7 359.5,1671C 363.416,1667.59 366.749,1663.76 369.5,1659.5 Z"/></g>
<g><path style="opacity:0.992" fill="#d8d8d9" d="M 2999.5,1662.5 C 2995.5,1663.5 2991.5,1664.5 2987.5,1665.5C 2945.18,1676.65 2919.35,1703.65 2910,1746.5C 2905.85,1790.69 2922.35,1824.52 2959.5,1848C 2968.92,1853.2 2978.92,1856.7 2989.5,1858.5C 2991.83,1859.17 2994.17,1859.83 2996.5,1860.5C 2345.17,1860.67 1693.83,1860.5 1042.5,1860C 1012.61,1855.77 989.114,1841.27 972,1816.5C 947.683,1774.04 950.683,1733.71 981,1695.5C 999.153,1675.88 1021.65,1665.05 1048.5,1663C 1698.83,1662.5 2349.17,1662.33 2999.5,1662.5 Z"/></g>
<g><path style="opacity:0.993" fill="#4fbafe" d="M 3002.5,1662.5 C 3270.5,1662.33 3538.5,1662.5 3806.5,1663C 3854.71,1669.18 3885.21,1695.68 3898,1742.5C 3903.83,1794.01 3883.67,1831.18 3837.5,1854C 3829.36,1856.79 3821.02,1858.79 3812.5,1860C 3542.5,1860.5 3272.5,1860.67 3002.5,1860.5C 3001.74,1859.73 3000.74,1859.23 2999.5,1859C 2996.18,1858.5 2992.85,1858.33 2989.5,1858.5C 2978.92,1856.7 2968.92,1853.2 2959.5,1848C 2922.35,1824.52 2905.85,1790.69 2910,1746.5C 2919.35,1703.65 2945.18,1676.65 2987.5,1665.5C 2991.36,1665.54 2995.2,1665.2 2999,1664.5C 3000.68,1664.39 3001.85,1663.73 3002.5,1662.5 Z"/></g>
<g><path style="opacity:1" fill="#84c5f1" d="M 2999.5,1662.5 C 3000.5,1662.5 3001.5,1662.5 3002.5,1662.5C 3001.85,1663.73 3000.68,1664.39 2999,1664.5C 2995.2,1665.2 2991.36,1665.54 2987.5,1665.5C 2991.5,1664.5 2995.5,1663.5 2999.5,1662.5 Z"/></g>
<g><path style="opacity:0.853" fill="#000000" d="M 81.5,1670.5 C 102.167,1670.5 122.833,1670.5 143.5,1670.5C 143.5,1684.17 143.5,1697.83 143.5,1711.5C 122.833,1711.5 102.167,1711.5 81.5,1711.5C 81.5,1697.83 81.5,1684.17 81.5,1670.5 Z M 90.5,1678.5 C 104.657,1677.5 118.99,1677.17 133.5,1677.5C 133.5,1680.5 133.5,1683.5 133.5,1686.5C 119.163,1686.67 104.829,1686.5 90.5,1686C 91.8143,1683.4 91.8143,1680.9 90.5,1678.5 Z M 90.5,1695.5 C 104.657,1694.5 118.99,1694.17 133.5,1694.5C 133.5,1697.5 133.5,1700.5 133.5,1703.5C 119.163,1703.67 104.829,1703.5 90.5,1703C 91.8143,1700.4 91.8143,1697.9 90.5,1695.5 Z"/></g>
<g><path style="opacity:0.842" fill="#000000" d="M 287.5,1680.5 C 303.5,1680.5 319.5,1680.5 335.5,1680.5C 335.5,1687.83 335.5,1695.17 335.5,1702.5C 329.167,1702.5 322.833,1702.5 316.5,1702.5C 316.666,1709.51 316.5,1716.51 316,1723.5C 313.647,1727.84 309.98,1729.51 305,1728.5C 298.915,1729.35 296.082,1726.68 296.5,1720.5C 299.833,1720.5 303.167,1720.5 306.5,1720.5C 306.192,1714.57 306.525,1708.74 307.5,1703C 300.842,1702.5 294.175,1702.33 287.5,1702.5C 287.5,1695.17 287.5,1687.83 287.5,1680.5 Z M 297.5,1687.5 C 307.167,1687.5 316.833,1687.5 326.5,1687.5C 326.5,1690.17 326.5,1692.83 326.5,1695.5C 316.828,1695.67 307.161,1695.5 297.5,1695C 297.419,1692.5 297.419,1690 297.5,1687.5 Z"/></g>
<g><path style="opacity:0.804" fill="#000000" d="M 371.5,1690.5 C 380.422,1690.52 382.256,1693.85 377,1700.5C 367.451,1712.05 356.118,1721.39 343,1728.5C 340.073,1726.67 337.573,1724.33 335.5,1721.5C 333.588,1723.16 331.588,1723.49 329.5,1722.5C 325.994,1717.02 322.994,1711.36 320.5,1705.5C 322.91,1704.94 325.243,1704.44 327.5,1704C 332.136,1708.77 335.636,1714.27 338,1720.5C 345.44,1716.06 352.606,1711.22 359.5,1706C 364.122,1701.22 368.122,1696.06 371.5,1690.5 Z"/></g>
<g><path style="opacity:0.791" fill="#000000" d="M 291.5,1703.5 C 294.5,1704.17 297.5,1704.83 300.5,1705.5C 297.851,1712.79 293.685,1719.12 288,1724.5C 285.361,1723.43 283.195,1721.77 281.5,1719.5C 285.856,1714.78 289.19,1709.45 291.5,1703.5 Z"/></g>
<g><path style="opacity:0.83" fill="#000000" d="M 65.5,1716.5 C 97.0933,1717.49 128.76,1717.83 160.5,1717.5C 160.5,1720.5 160.5,1723.5 160.5,1726.5C 128.5,1726.5 96.5,1726.5 64.5,1726.5C 64.2529,1723.06 64.5863,1719.73 65.5,1716.5 Z"/></g>
<g><path style="opacity:0.823" fill="#000000" d="M 78.5,1777.5 C 81.5,1778.17 84.5,1778.83 87.5,1779.5C 87.528,1781.58 86.8613,1783.42 85.5,1785C 94.4938,1785.5 103.494,1785.67 112.5,1785.5C 112.5,1788.17 112.5,1790.83 112.5,1793.5C 106.158,1793.33 99.8246,1793.5 93.5,1794C 95.8997,1796.4 98.2331,1798.73 100.5,1801C 99.8464,1802.99 98.513,1804.32 96.5,1805C 100.486,1805.5 104.486,1805.67 108.5,1805.5C 108.5,1815.5 108.5,1825.5 108.5,1835.5C 98.1667,1835.5 87.8333,1835.5 77.5,1835.5C 77.5,1850.17 77.5,1864.83 77.5,1879.5C 74.5,1879.5 71.5,1879.5 68.5,1879.5C 68.6666,1855.16 68.5,1830.83 68,1806.5C 66.8088,1803.47 64.6421,1801.8 61.5,1801.5C 61.5,1800.5 61.5,1799.5 61.5,1798.5C 65.302,1797.22 68.4687,1794.89 71,1791.5C 74.2885,1787.26 76.7885,1782.59 78.5,1777.5 Z M 79.5,1793.5 C 81.8568,1793.34 84.1902,1793.5 86.5,1794C 84.842,1794.73 84.342,1795.89 85,1797.5C 87.5,1800 90,1802.5 92.5,1805C 85.1667,1805.67 77.8333,1805.67 70.5,1805C 74.5025,1801.84 77.5025,1798.01 79.5,1793.5 Z M 77.5,1812.5 C 84.8409,1812.33 92.1742,1812.5 99.5,1813C 98.6634,1814.01 98.33,1815.18 98.5,1816.5C 91.5,1816.5 84.5,1816.5 77.5,1816.5C 77.5,1815.17 77.5,1813.83 77.5,1812.5 Z M 77.5,1823.5 C 84.8409,1823.33 92.1742,1823.5 99.5,1824C 98.1667,1825.33 98.1667,1826.67 99.5,1828C 92.1742,1828.5 84.8409,1828.67 77.5,1828.5C 77.5,1826.83 77.5,1825.17 77.5,1823.5 Z"/></g>
<g><path style="opacity:0.813" fill="#000000" d="M 116.5,1805.5 C 113.687,1803.92 111.021,1802.09 108.5,1800C 110.978,1797.52 113.478,1795.02 116,1792.5C 118.76,1787.31 121.76,1782.31 125,1777.5C 127.749,1777.97 130.249,1778.97 132.5,1780.5C 131.833,1781.83 131.167,1783.17 130.5,1784.5C 141.146,1785.5 151.813,1785.83 162.5,1785.5C 162.5,1788.17 162.5,1790.83 162.5,1793.5C 155.159,1793.33 147.826,1793.5 140.5,1794C 143.645,1795.98 146.312,1798.48 148.5,1801.5C 147.636,1803.2 146.303,1804.36 144.5,1805C 148.486,1805.5 152.486,1805.67 156.5,1805.5C 156.667,1828.17 156.5,1850.84 156,1873.5C 154.723,1875.73 152.889,1877.4 150.5,1878.5C 144.872,1879.5 139.206,1879.83 133.5,1879.5C 133.452,1876.69 132.785,1874.02 131.5,1871.5C 121.188,1870.5 110.855,1870.17 100.5,1870.5C 100.5,1871.5 100.5,1872.5 100.5,1873.5C 97.5,1873.5 94.5,1873.5 91.5,1873.5C 91.5,1861.83 91.5,1850.17 91.5,1838.5C 105.5,1838.5 119.5,1838.5 133.5,1838.5C 133.5,1849.17 133.5,1859.83 133.5,1870.5C 138.322,1871.07 142.822,1870.4 147,1868.5C 147.5,1857.51 147.667,1846.51 147.5,1835.5C 136.833,1835.5 126.167,1835.5 115.5,1835.5C 115.193,1825.42 115.526,1815.42 116.5,1805.5 Z M 116.5,1805.5 C 119.825,1802.17 122.825,1798.5 125.5,1794.5C 128.446,1793.35 131.446,1793.18 134.5,1794C 132.82,1794.35 131.82,1795.35 131.5,1797C 134.279,1799.89 137.279,1802.56 140.5,1805C 132.507,1805.5 124.507,1805.67 116.5,1805.5 Z M 124.5,1812.5 C 132.167,1812.5 139.833,1812.5 147.5,1812.5C 147.5,1813.83 147.5,1815.17 147.5,1816.5C 139.833,1816.5 132.167,1816.5 124.5,1816.5C 124.5,1815.17 124.5,1813.83 124.5,1812.5 Z M 124.5,1823.5 C 132.167,1823.5 139.833,1823.5 147.5,1823.5C 147.5,1825.17 147.5,1826.83 147.5,1828.5C 139.833,1828.5 132.167,1828.5 124.5,1828.5C 124.5,1826.83 124.5,1825.17 124.5,1823.5 Z M 100.5,1845.5 C 108.5,1845.5 116.5,1845.5 124.5,1845.5C 124.5,1847.5 124.5,1849.5 124.5,1851.5C 116.5,1851.5 108.5,1851.5 100.5,1851.5C 100.5,1849.5 100.5,1847.5 100.5,1845.5 Z M 100.5,1857.5 C 108.5,1857.5 116.5,1857.5 124.5,1857.5C 124.5,1859.5 124.5,1861.5 124.5,1863.5C 116.5,1863.5 108.5,1863.5 100.5,1863.5C 100.5,1861.5 100.5,1859.5 100.5,1857.5 Z"/></g>
<g><path style="opacity:0.83" fill="#000000" d="M 191.5,1778.5 C 194.5,1778.5 197.5,1778.5 200.5,1778.5C 200.5,1782.17 200.5,1785.83 200.5,1789.5C 206.167,1789.5 211.833,1789.5 217.5,1789.5C 217.5,1792.5 217.5,1795.5 217.5,1798.5C 211.833,1798.5 206.167,1798.5 200.5,1798.5C 200.5,1801.5 200.5,1804.5 200.5,1807.5C 206.425,1807.81 212.259,1807.47 218,1806.5C 219.405,1809.62 219.905,1812.95 219.5,1816.5C 217.712,1816.21 216.045,1816.55 214.5,1817.5C 212.754,1821.33 210.754,1824.99 208.5,1828.5C 211.428,1829.48 214.428,1829.82 217.5,1829.5C 217.5,1832.5 217.5,1835.5 217.5,1838.5C 211.833,1838.5 206.167,1838.5 200.5,1838.5C 200.5,1841.83 200.5,1845.17 200.5,1848.5C 207.167,1848.5 213.833,1848.5 220.5,1848.5C 220.5,1851.17 220.5,1853.83 220.5,1856.5C 213.833,1856.5 207.167,1856.5 200.5,1856.5C 200.5,1864.17 200.5,1871.83 200.5,1879.5C 197.5,1879.5 194.5,1879.5 191.5,1879.5C 191.5,1871.83 191.5,1864.17 191.5,1856.5C 184.833,1856.5 178.167,1856.5 171.5,1856.5C 171.5,1853.83 171.5,1851.17 171.5,1848.5C 178.508,1848.67 185.508,1848.5 192.5,1848C 191.549,1844.94 191.216,1841.78 191.5,1838.5C 185.5,1838.5 179.5,1838.5 173.5,1838.5C 173.5,1835.5 173.5,1832.5 173.5,1829.5C 176.898,1829.82 180.232,1829.49 183.5,1828.5C 182.234,1824.8 180.568,1821.3 178.5,1818C 178.833,1817.67 179.167,1817.33 179.5,1817C 176.854,1816.5 174.187,1816.34 171.5,1816.5C 170.918,1812.68 171.752,1809.35 174,1806.5C 179.741,1807.47 185.575,1807.81 191.5,1807.5C 191.5,1804.5 191.5,1801.5 191.5,1798.5C 185.833,1798.5 180.167,1798.5 174.5,1798.5C 174.5,1795.5 174.5,1792.5 174.5,1789.5C 180.509,1789.67 186.509,1789.5 192.5,1789C 191.544,1785.61 191.211,1782.11 191.5,1778.5 Z M 187.5,1817.5 C 193.319,1816.35 199.319,1816.18 205.5,1817C 203.388,1820.72 201.388,1824.56 199.5,1828.5C 196.894,1829.65 194.227,1829.82 191.5,1829C 191.957,1828.59 192.291,1828.09 192.5,1827.5C 191.198,1823.89 189.531,1820.55 187.5,1817.5 Z"/></g>
<g><path style="opacity:0.825" fill="#000000" d="M 222.5,1782.5 C 237.167,1782.5 251.833,1782.5 266.5,1782.5C 266.666,1791.51 266.5,1800.51 266,1809.5C 264.238,1812.27 261.738,1813.77 258.5,1814C 253.511,1814.5 248.511,1814.67 243.5,1814.5C 242.833,1811.5 242.167,1808.5 241.5,1805.5C 246.833,1805.5 252.167,1805.5 257.5,1805.5C 257.5,1801.17 257.5,1796.83 257.5,1792.5C 248.833,1792.5 240.167,1792.5 231.5,1792.5C 231.5,1801.5 231.5,1810.5 231.5,1819.5C 242.838,1819.33 254.172,1819.5 265.5,1820C 266.766,1820.31 267.933,1820.81 269,1821.5C 267.173,1834.33 262.673,1846.16 255.5,1857C 259.97,1862.99 265.636,1867.16 272.5,1869.5C 271.344,1873 269.344,1876 266.5,1878.5C 260.354,1875.1 255.021,1870.77 250.5,1865.5C 246.461,1870.54 241.794,1874.87 236.5,1878.5C 236,1878.83 235.5,1879.17 235,1879.5C 233.779,1878.73 232.779,1877.73 232,1876.5C 231.517,1877.45 231.351,1878.45 231.5,1879.5C 228.5,1879.5 225.5,1879.5 222.5,1879.5C 222.5,1847.17 222.5,1814.83 222.5,1782.5 Z M 240.5,1828.5 C 246.167,1828.5 251.833,1828.5 257.5,1828.5C 255.571,1835.69 253.071,1842.69 250,1849.5C 245.736,1842.97 242.569,1835.97 240.5,1828.5 Z M 231.5,1830.5 C 234.325,1839.98 238.658,1848.82 244.5,1857C 240.701,1861.8 236.534,1866.3 232,1870.5C 231.5,1857.17 231.333,1843.84 231.5,1830.5 Z"/></g>
<g><path style="opacity:0.881" fill="#000000" d="M 312.5,1791.5 C 327.55,1791.08 342.55,1791.58 357.5,1793C 374.766,1799.78 379.266,1811.62 371,1828.5C 366.259,1834.45 360.092,1837.62 352.5,1838C 344.507,1838.5 336.507,1838.67 328.5,1838.5C 328.5,1849.5 328.5,1860.5 328.5,1871.5C 323.167,1871.5 317.833,1871.5 312.5,1871.5C 312.5,1844.83 312.5,1818.17 312.5,1791.5 Z M 328.5,1804.5 C 336.507,1804.33 344.507,1804.5 352.5,1805C 357.34,1806.34 359.673,1809.5 359.5,1814.5C 359.978,1819.93 357.645,1823.43 352.5,1825C 344.588,1825.18 336.754,1825.68 329,1826.5C 328.5,1819.17 328.334,1811.84 328.5,1804.5 Z"/></g>
<g><path style="opacity:0.896" fill="#000000" d="M 385.5,1791.5 C 400.217,1791.09 414.884,1791.59 429.5,1793C 442.94,1796.69 448.773,1805.53 447,1819.5C 444.466,1831.03 437.299,1837.2 425.5,1838C 417.173,1838.5 408.84,1838.67 400.5,1838.5C 400.5,1849.5 400.5,1860.5 400.5,1871.5C 395.5,1871.5 390.5,1871.5 385.5,1871.5C 385.5,1844.83 385.5,1818.17 385.5,1791.5 Z M 400.5,1804.5 C 409.582,1804.09 418.582,1804.59 427.5,1806C 428.667,1807.17 429.833,1808.33 431,1809.5C 433.5,1820.34 429.167,1826 418,1826.5C 412.333,1825.17 406.667,1825.17 401,1826.5C 400.5,1819.17 400.334,1811.84 400.5,1804.5 Z"/></g>
<g><path style="opacity:0.877" fill="#000000" d="M 450.5,1791.5 C 472.833,1791.5 495.167,1791.5 517.5,1791.5C 517.5,1795.83 517.5,1800.17 517.5,1804.5C 508.833,1804.5 500.167,1804.5 491.5,1804.5C 491.5,1826.83 491.5,1849.17 491.5,1871.5C 486.025,1872.08 480.858,1871.41 476,1869.5C 475.174,1847.93 475.34,1826.43 476.5,1805C 467.84,1804.5 459.173,1804.33 450.5,1804.5C 450.5,1800.17 450.5,1795.83 450.5,1791.5 Z"/></g>
<g><path style="opacity:1" fill="#7ec4f2" d="M 2989.5,1858.5 C 2992.85,1858.33 2996.18,1858.5 2999.5,1859C 3000.74,1859.23 3001.74,1859.73 3002.5,1860.5C 3000.5,1860.5 2998.5,1860.5 2996.5,1860.5C 2994.17,1859.83 2991.83,1859.17 2989.5,1858.5 Z"/></g>
</svg>
