<?xml version="1.0" encoding="UTF-8"?>
<!DOCTYPE svg PUBLIC "-//W3C//DTD SVG 1.1//EN" "http://www.w3.org/Graphics/SVG/1.1/DTD/svg11.dtd">
<svg xmlns="http://www.w3.org/2000/svg" version="1.1" width="4000px" height="2284px" style="shape-rendering:geometricPrecision; text-rendering:geometricPrecision; image-rendering:optimizeQuality; fill-rule:evenodd; clip-rule:evenodd" xmlns:xlink="http://www.w3.org/1999/xlink">
<g><path style="opacity:0.825" fill="#000000" d="M 1855.5,224.5 C 1878.5,224.5 1901.5,224.5 1924.5,224.5C 1924.98,254.23 1924.48,283.897 1923,313.5C 1921.36,315.81 1919.2,317.31 1916.5,318C 1909.18,318.999 1901.85,319.333 1894.5,319C 1892.28,315.832 1890.94,312.332 1890.5,308.5C 1898.17,308.5 1905.83,308.5 1913.5,308.5C 1913.5,301.167 1913.5,293.833 1913.5,286.5C 1896.83,286.333 1880.16,286.5 1863.5,287C 1860.56,298.05 1855.39,307.883 1848,316.5C 1846.94,317.899 1845.61,318.899 1844,319.5C 1842.34,317.672 1840.5,316.005 1838.5,314.5C 1837.42,313.635 1837.25,312.635 1838,311.5C 1846.43,303.982 1851.76,294.649 1854,283.5C 1855.38,263.864 1855.88,244.197 1855.5,224.5 Z M 1866.5,234.5 C 1882.17,234.5 1897.83,234.5 1913.5,234.5C 1913.67,239.844 1913.5,245.177 1913,250.5C 1897.67,249.167 1882.33,249.167 1867,250.5C 1866.5,245.177 1866.33,239.844 1866.5,234.5 Z M 1865.5,259.5 C 1881.84,259.333 1898.17,259.5 1914.5,260C 1913.53,265.407 1913.19,270.907 1913.5,276.5C 1897.16,276.667 1880.83,276.5 1864.5,276C 1865.47,270.593 1865.81,265.093 1865.5,259.5 Z"/></g>
<g><path style="opacity:0.826" fill="#000000" d="M 2364.5,224.5 C 2387.5,224.5 2410.5,224.5 2433.5,224.5C 2433.96,254.209 2433.46,283.875 2432,313.5C 2430.05,315.894 2427.55,317.394 2424.5,318C 2417.16,319.17 2409.82,319.337 2402.5,318.5C 2401.44,315.382 2400.11,312.382 2398.5,309.5C 2406.47,308.502 2414.47,308.169 2422.5,308.5C 2422.5,301.167 2422.5,293.833 2422.5,286.5C 2405.5,286.5 2388.5,286.5 2371.5,286.5C 2369.03,299.78 2362.7,310.78 2352.5,319.5C 2349.97,317.395 2347.64,315.061 2345.5,312.5C 2355.5,303.831 2361.34,292.831 2363,279.5C 2364.39,261.201 2364.89,242.867 2364.5,224.5 Z M 2374.5,234.5 C 2390.5,234.5 2406.5,234.5 2422.5,234.5C 2422.67,239.844 2422.5,245.177 2422,250.5C 2406.24,249.509 2390.41,249.175 2374.5,249.5C 2374.5,244.5 2374.5,239.5 2374.5,234.5 Z M 2374.5,259.5 C 2390.5,259.5 2406.5,259.5 2422.5,259.5C 2422.5,265.167 2422.5,270.833 2422.5,276.5C 2406.17,276.5 2389.83,276.5 2373.5,276.5C 2374.35,270.879 2374.69,265.212 2374.5,259.5 Z"/></g>
<g><path style="opacity:0.836" fill="#000000" d="M 2909.5,224.5 C 2932.17,224.5 2954.83,224.5 2977.5,224.5C 2977.67,253.502 2977.5,282.502 2977,311.5C 2976.31,314.057 2974.81,315.891 2972.5,317C 2964.24,318.979 2955.9,319.479 2947.5,318.5C 2946.44,315.382 2945.11,312.382 2943.5,309.5C 2951.47,308.502 2959.47,308.169 2967.5,308.5C 2967.5,301.167 2967.5,293.833 2967.5,286.5C 2950.5,286.5 2933.5,286.5 2916.5,286.5C 2914.03,299.774 2907.7,310.774 2897.5,319.5C 2894.83,317.5 2892.5,315.167 2890.5,312.5C 2902.05,301.384 2908.22,287.717 2909,271.5C 2909.5,255.837 2909.67,240.17 2909.5,224.5 Z M 2919.5,234.5 C 2935.5,234.5 2951.5,234.5 2967.5,234.5C 2967.67,239.844 2967.5,245.177 2967,250.5C 2951.24,249.509 2935.41,249.175 2919.5,249.5C 2919.5,244.5 2919.5,239.5 2919.5,234.5 Z M 2919.5,259.5 C 2935.5,259.5 2951.5,259.5 2967.5,259.5C 2967.5,265.167 2967.5,270.833 2967.5,276.5C 2951.15,276.833 2934.82,276.499 2918.5,275.5C 2919.45,270.23 2919.78,264.897 2919.5,259.5 Z"/></g>
<g><path style="opacity:0.857" fill="#000000" d="M 1399.5,226.5 C 1422.17,226.5 1444.83,226.5 1467.5,226.5C 1467.98,256.23 1467.48,285.897 1466,315.5C 1464.01,319.247 1460.85,321.081 1456.5,321C 1450.17,321.667 1443.83,321.667 1437.5,321C 1436.31,318.122 1434.98,315.288 1433.5,312.5C 1441.15,311.669 1448.81,311.169 1456.5,311C 1457.48,303.587 1457.81,296.087 1457.5,288.5C 1440.5,288.5 1423.5,288.5 1406.5,288.5C 1403.59,301.903 1397.09,313.236 1387,322.5C 1384.82,320.125 1382.66,317.792 1380.5,315.5C 1392.61,303.029 1398.77,288.029 1399,270.5C 1399.5,255.837 1399.67,241.17 1399.5,226.5 Z M 1408.5,235.5 C 1424.83,235.5 1441.17,235.5 1457.5,235.5C 1457.5,241.167 1457.5,246.833 1457.5,252.5C 1441.17,252.5 1424.83,252.5 1408.5,252.5C 1408.5,246.833 1408.5,241.167 1408.5,235.5 Z M 1408.5,261.5 C 1424.83,261.5 1441.17,261.5 1457.5,261.5C 1457.5,267.167 1457.5,272.833 1457.5,278.5C 1440.83,278.667 1424.16,278.5 1407.5,278C 1408.47,272.593 1408.81,267.093 1408.5,261.5 Z"/></g>
<g><path style="opacity:0.86" fill="#000000" d="M 3811.5,226.5 C 3834.17,226.5 3856.83,226.5 3879.5,226.5C 3879.67,255.502 3879.5,284.502 3879,313.5C 3878.21,316.583 3876.38,318.749 3873.5,320C 3865.56,321.53 3857.56,321.863 3849.5,321C 3848.31,318.122 3846.98,315.288 3845.5,312.5C 3853.15,311.669 3860.81,311.169 3868.5,311C 3869.48,303.587 3869.81,296.087 3869.5,288.5C 3852.5,288.5 3835.5,288.5 3818.5,288.5C 3815.9,302.035 3809.4,313.368 3799,322.5C 3797.33,319.663 3795.16,317.33 3792.5,315.5C 3804.4,303.316 3810.57,288.649 3811,271.5C 3811.5,256.504 3811.67,241.504 3811.5,226.5 Z M 3820.5,236.5 C 3836.66,235.504 3852.99,235.17 3869.5,235.5C 3869.5,241.167 3869.5,246.833 3869.5,252.5C 3853.16,252.667 3836.83,252.5 3820.5,252C 3821.82,246.734 3821.82,241.567 3820.5,236.5 Z M 3820.5,261.5 C 3836.83,261.5 3853.17,261.5 3869.5,261.5C 3869.5,267.167 3869.5,272.833 3869.5,278.5C 3852.83,278.667 3836.16,278.5 3819.5,278C 3820.98,272.544 3821.31,267.044 3820.5,261.5 Z"/></g>
<g><path style="opacity:0.861" fill="#000000" d="M 1272.5,230.5 C 1276.83,230.5 1281.17,230.5 1285.5,230.5C 1276.64,259.906 1267.48,289.24 1258,318.5C 1253.82,320.399 1249.32,321.065 1244.5,320.5C 1244.34,318.801 1244.51,317.134 1245,315.5C 1254.61,287.29 1263.77,258.957 1272.5,230.5 Z"/></g>
<g><path style="opacity:0.885" fill="#000000" d="M 1790.5,231.5 C 1797.17,231.334 1803.84,231.5 1810.5,232C 1827.09,239.116 1830.93,250.616 1822,266.5C 1820.42,268.041 1818.59,269.208 1816.5,270C 1826.67,275.518 1830.51,284.018 1828,295.5C 1825.86,302.974 1821.03,307.807 1813.5,310C 1799.08,313.804 1785.58,311.637 1773,303.5C 1773.47,299.373 1774.97,295.539 1777.5,292C 1781.14,293.314 1784.81,294.981 1788.5,297C 1795.53,300.232 1802.53,300.232 1809.5,297C 1813.26,293.257 1814.43,288.757 1813,283.5C 1811.83,281.667 1810.33,280.167 1808.5,279C 1801.91,277.671 1795.24,277.171 1788.5,277.5C 1788.5,273.167 1788.5,268.833 1788.5,264.5C 1794.59,264.861 1800.59,264.361 1806.5,263C 1811.15,260.103 1812.65,255.937 1811,250.5C 1808.67,246.163 1805,243.829 1800,243.5C 1792.03,244.321 1785.03,247.321 1779,252.5C 1777.03,248.727 1775.2,244.894 1773.5,241C 1778.34,236.25 1784.01,233.083 1790.5,231.5 Z"/></g>
<g><path style="opacity:0.869" fill="#000000" d="M 2317.5,231.5 C 2321.77,231.203 2325.93,231.536 2330,232.5C 2330.5,249.497 2330.67,266.497 2330.5,283.5C 2334.17,283.5 2337.83,283.5 2341.5,283.5C 2341.67,287.514 2341.5,291.514 2341,295.5C 2337.67,296.833 2334.33,296.833 2331,295.5C 2330.5,300.823 2330.33,306.156 2330.5,311.5C 2325.17,311.5 2319.83,311.5 2314.5,311.5C 2314.67,306.156 2314.5,300.823 2314,295.5C 2303.25,296.487 2292.41,296.82 2281.5,296.5C 2281.11,291.372 2281.61,286.372 2283,281.5C 2294.76,264.978 2306.26,248.312 2317.5,231.5 Z M 2313.5,258.5 C 2314.49,266.65 2314.83,274.983 2314.5,283.5C 2308.49,283.666 2302.49,283.499 2296.5,283C 2302.78,275.229 2308.44,267.062 2313.5,258.5 Z"/></g>
<g><path style="opacity:0.874" fill="#000000" d="M 2831.5,231.5 C 2847.84,231.333 2864.17,231.5 2880.5,232C 2881.46,236.066 2881.8,240.233 2881.5,244.5C 2869.5,244.333 2857.5,244.5 2845.5,245C 2846.47,250.741 2846.81,256.575 2846.5,262.5C 2859.23,257.345 2870.39,259.679 2880,269.5C 2885.87,280.867 2885.87,291.534 2880,301.5C 2873.26,308.284 2865.1,311.951 2855.5,312.5C 2846.67,311.707 2838.33,309.207 2830.5,305C 2829.2,304.196 2828.53,303.029 2828.5,301.5C 2830,297.838 2831.5,294.172 2833,290.5C 2842.4,298.445 2852.9,300.612 2864.5,297C 2871.17,289.667 2871.17,282.333 2864.5,275C 2855.61,270.951 2847.61,272.284 2840.5,279C 2837.18,279.498 2833.85,279.665 2830.5,279.5C 2830.18,263.422 2830.52,247.422 2831.5,231.5 Z"/></g>
<g><path style="opacity:0.884" fill="#000000" d="M 979.5,233.5 C 992.792,230.541 1003.63,234.207 1012,244.5C 1016.18,255.23 1014.84,265.23 1008,274.5C 1000.85,283.653 993.013,292.153 984.5,300C 995.495,300.5 1006.49,300.667 1017.5,300.5C 1017.5,304.833 1017.5,309.167 1017.5,313.5C 999.5,313.5 981.5,313.5 963.5,313.5C 963.334,309.486 963.501,305.486 964,301.5C 973.667,291.167 983.333,280.833 993,270.5C 996.041,266.791 998.208,262.624 999.5,258C 998.806,248.594 993.473,244.927 983.5,247C 977.512,248.161 972.179,250.661 967.5,254.5C 964.287,251.078 962.454,247.078 962,242.5C 967.295,238.27 973.128,235.27 979.5,233.5 Z"/></g>
<g><path style="opacity:0.886" fill="#000000" d="M 1047.5,233.5 C 1067.98,231.809 1079.81,241.142 1083,261.5C 1084.06,273.279 1083.4,284.946 1081,296.5C 1074.58,310.296 1063.75,316.13 1048.5,314C 1034.4,309.35 1026.9,299.516 1026,284.5C 1023.51,269.42 1026.18,255.42 1034,242.5C 1037.88,238.429 1042.38,235.429 1047.5,233.5 Z M 1051.5,246.5 C 1061.04,245.537 1066.21,249.87 1067,259.5C 1069.58,272.475 1068.58,285.142 1064,297.5C 1057.38,303.062 1051.05,302.728 1045,296.5C 1040.05,281.008 1040.38,265.675 1046,250.5C 1047.5,248.531 1049.33,247.198 1051.5,246.5 Z"/></g>
<g><path style="opacity:0.887" fill="#000000" d="M 1110.5,233.5 C 1123.02,230.952 1133.52,234.285 1142,243.5C 1146.87,253.526 1146.21,263.193 1140,272.5C 1132.2,281.964 1124.04,291.131 1115.5,300C 1126.49,300.5 1137.49,300.667 1148.5,300.5C 1148.5,304.833 1148.5,309.167 1148.5,313.5C 1130.5,313.5 1112.5,313.5 1094.5,313.5C 1094.33,309.486 1094.5,305.486 1095,301.5C 1103.43,291.951 1112.09,282.618 1121,273.5C 1124.45,270.044 1127.12,266.044 1129,261.5C 1131.35,254.414 1129.19,249.581 1122.5,247C 1113.36,246.268 1105.19,248.768 1098,254.5C 1095.2,250.907 1093.53,246.907 1093,242.5C 1098.29,238.27 1104.13,235.27 1110.5,233.5 Z"/></g>
<g><path style="opacity:0.881" fill="#000000" d="M 1175.5,233.5 C 1182.59,233.116 1189.59,233.616 1196.5,235C 1211.21,242.795 1214.37,253.962 1206,268.5C 1204.07,269.88 1202.24,271.38 1200.5,273C 1210.06,277.961 1213.9,285.794 1212,296.5C 1209.86,305.307 1204.36,310.807 1195.5,313C 1180.98,316.465 1167.98,313.631 1156.5,304.5C 1158.13,300.915 1159.46,297.248 1160.5,293.5C 1165.59,297.028 1171.25,299.528 1177.5,301C 1181.5,301.667 1185.5,301.667 1189.5,301C 1197.85,296.952 1199.51,290.952 1194.5,283C 1187.15,280.034 1179.49,278.867 1171.5,279.5C 1171.5,275.5 1171.5,271.5 1171.5,267.5C 1178.34,267.961 1185.01,267.128 1191.5,265C 1196.1,260.229 1196.6,255.062 1193,249.5C 1188.86,246.835 1184.36,246.002 1179.5,247C 1173.07,248.721 1167.07,251.221 1161.5,254.5C 1160,250.522 1158.83,246.522 1158,242.5C 1163.29,238.27 1169.13,235.27 1175.5,233.5 Z"/></g>
<g><path style="opacity:0.877" fill="#000000" d="M 1334.5,233.5 C 1348.37,230.508 1359.54,234.508 1368,245.5C 1371.45,255.477 1370.12,264.811 1364,273.5C 1356.57,282.934 1348.4,291.768 1339.5,300C 1350.49,300.5 1361.49,300.667 1372.5,300.5C 1372.5,304.833 1372.5,309.167 1372.5,313.5C 1354.5,313.5 1336.5,313.5 1318.5,313.5C 1318.33,309.486 1318.5,305.486 1319,301.5C 1328.67,291.167 1338.33,280.833 1348,270.5C 1351.13,266.071 1353.3,261.238 1354.5,256C 1353.56,249.436 1349.73,246.269 1343,246.5C 1339.05,246.78 1335.21,247.613 1331.5,249C 1328.05,251.393 1324.38,253.226 1320.5,254.5C 1319,250.522 1317.83,246.522 1317,242.5C 1322.29,238.27 1328.13,235.27 1334.5,233.5 Z"/></g>
<g><path style="opacity:0.885" fill="#000000" d="M 3752.5,233.5 C 3765.53,231.584 3776.86,234.917 3786.5,243.5C 3784.86,247.46 3782.86,251.126 3780.5,254.5C 3772.87,247.895 3764.2,245.729 3754.5,248C 3747.49,253.007 3744.33,259.84 3745,268.5C 3756.63,260.369 3768.13,260.536 3779.5,269C 3786.13,278.419 3787.63,288.585 3784,299.5C 3776.98,311.629 3766.48,316.462 3752.5,314C 3739.55,310.721 3731.72,302.554 3729,289.5C 3726.42,276.525 3727.42,263.858 3732,251.5C 3736.54,242.823 3743.38,236.823 3752.5,233.5 Z M 3757.5,274.5 C 3766.45,274.784 3771.12,279.451 3771.5,288.5C 3770.2,299.322 3764.2,303.489 3753.5,301C 3750.67,299.5 3748.5,297.333 3747,294.5C 3744.05,284.046 3747.55,277.379 3757.5,274.5 Z"/></g>
<g><path style="opacity:0.994" fill="#4fbafe" d="M 1302.5,473.5 C 1304.28,475.344 1306.61,476.01 1309.5,475.5C 1352.64,483.474 1379.48,508.807 1390,551.5C 1395.24,594.172 1380.08,627.338 1344.5,651C 1334.61,656.13 1324.27,659.963 1313.5,662.5C 1225.68,663.146 1138.01,663.812 1050.5,664.5C 999.828,660.663 968.661,633.996 957,584.5C 952.46,541.082 968.627,507.915 1005.5,485C 1017.84,478.998 1030.84,475.332 1044.5,474C 1130.5,473.5 1216.5,473.333 1302.5,473.5 Z"/></g>
<g><path style="opacity:0.99" fill="#d8d8d9" d="M 1305.5,473.5 C 2140.5,473.333 2975.5,473.5 3810.5,474C 3857.03,480.255 3886.2,505.755 3898,550.5C 3903.71,603.108 3882.21,639.608 3833.5,660C 3827.62,661.843 3821.62,663.177 3815.5,664C 2979.17,664.5 2142.83,664.667 1306.5,664.5C 1308.83,663.833 1311.17,663.167 1313.5,662.5C 1324.27,659.963 1334.61,656.13 1344.5,651C 1380.08,627.338 1395.24,594.172 1390,551.5C 1379.48,508.807 1352.64,483.474 1309.5,475.5C 1308.17,474.833 1306.83,474.167 1305.5,473.5 Z"/></g>
<g><path style="opacity:0.796" fill="#9bcaea" d="M 1302.5,473.5 C 1303.5,473.5 1304.5,473.5 1305.5,473.5C 1306.83,474.167 1308.17,474.833 1309.5,475.5C 1306.61,476.01 1304.28,475.344 1302.5,473.5 Z"/></g>
<g><path style="opacity:0.853" fill="#000000" d="M 215.5,518.5 C 218.833,518.5 222.167,518.5 225.5,518.5C 225.5,524.5 225.5,530.5 225.5,536.5C 234.173,536.666 242.84,536.5 251.5,536C 246.254,532.125 240.754,528.625 235,525.5C 235.504,522.487 237.337,520.487 240.5,519.5C 247.287,522.393 253.62,526.06 259.5,530.5C 260.725,532.843 260.059,534.677 257.5,536C 261.486,536.499 265.486,536.666 269.5,536.5C 269.5,539.5 269.5,542.5 269.5,545.5C 254.83,545.333 240.163,545.5 225.5,546C 228.943,554.32 232.777,562.487 237,570.5C 244.054,563.781 250.721,556.781 257,549.5C 260.842,550.672 263.175,553.006 264,556.5C 256.986,563.681 249.819,570.681 242.5,577.5C 250.673,588.004 260.673,596.338 272.5,602.5C 270.177,605.126 267.843,607.793 265.5,610.5C 247.303,600.803 234.137,586.469 226,567.5C 225.97,583.592 225.304,599.592 224,615.5C 216.573,619.1 208.74,620.267 200.5,619C 198.695,616.433 197.362,613.599 196.5,610.5C 202.798,609.504 209.132,609.17 215.5,609.5C 215.553,601.222 215.553,593.222 215.5,585.5C 202.833,593.167 190.167,600.833 177.5,608.5C 174.892,606.126 172.892,603.293 171.5,600C 185.773,591.86 200.106,583.693 214.5,575.5C 215.178,565.607 215.845,555.773 216.5,546C 202.171,545.5 187.837,545.333 173.5,545.5C 173.5,542.5 173.5,539.5 173.5,536.5C 187.837,536.667 202.171,536.5 216.5,536C 215.525,530.259 215.192,524.425 215.5,518.5 Z"/></g>
<g><path style="opacity:0.862" fill="#000000" d="M 406.5,518.5 C 409.5,518.5 412.5,518.5 415.5,518.5C 415.5,526.167 415.5,533.833 415.5,541.5C 421.167,541.5 426.833,541.5 432.5,541.5C 432.5,544.5 432.5,547.5 432.5,550.5C 426.833,550.5 421.167,550.5 415.5,550.5C 415.34,552.199 415.506,553.866 416,555.5C 421.358,562.024 426.525,568.69 431.5,575.5C 429.37,578.642 426.703,580.975 423.5,582.5C 421.304,577.768 418.804,573.102 416,568.5C 415.5,585.497 415.333,602.497 415.5,619.5C 412.5,619.5 409.5,619.5 406.5,619.5C 406.667,604.163 406.5,588.83 406,573.5C 402.969,581.896 399.135,589.896 394.5,597.5C 393.5,598.833 392.5,598.833 391.5,597.5C 390.035,595.401 388.701,593.234 387.5,591C 395.231,578.7 401.231,565.533 405.5,551.5C 400.544,550.506 395.544,550.173 390.5,550.5C 390.5,547.5 390.5,544.5 390.5,541.5C 395.833,541.5 401.167,541.5 406.5,541.5C 406.5,533.833 406.5,526.167 406.5,518.5 Z"/></g>
<g><path style="opacity:0.834" fill="#000000" d="M 324.5,519.5 C 333.192,519.169 341.859,519.502 350.5,520.5C 355.972,537.955 366.305,551.622 381.5,561.5C 379.157,564.207 376.823,566.874 374.5,569.5C 370.894,567.397 367.727,564.731 365,561.5C 363.667,576.147 362.334,590.814 361,605.5C 360.49,611.678 357.323,615.845 351.5,618C 344.476,618.831 337.476,618.664 330.5,617.5C 329.642,614.38 328.642,611.38 327.5,608.5C 334.138,609.498 340.805,609.665 347.5,609C 350.377,605.372 351.877,601.206 352,596.5C 352.856,587.152 353.689,577.819 354.5,568.5C 345.5,568.5 336.5,568.5 327.5,568.5C 326.299,593.49 313.799,610.49 290,619.5C 287.602,617.049 285.436,614.382 283.5,611.5C 303.688,604.298 315.021,589.965 317.5,568.5C 310.167,568.5 302.833,568.5 295.5,568.5C 295.663,566.143 295.497,563.81 295,561.5C 292.974,565.026 290.141,567.693 286.5,569.5C 283.217,567.42 281.051,564.753 280,561.5C 293.315,551.112 302.315,538.112 307,522.5C 307.414,522.043 307.914,521.709 308.5,521.5C 311.096,522.482 313.762,523.149 316.5,523.5C 313.541,536.585 307.541,548.085 298.5,558C 319.5,558.667 340.5,558.667 361.5,558C 353.885,549.948 347.885,540.781 343.5,530.5C 336.866,529.503 330.2,529.17 323.5,529.5C 323.253,526.061 323.586,522.728 324.5,519.5 Z"/></g>
<g><path style="opacity:0.85" fill="#000000" d="M 472.5,519.5 C 476.536,520.02 479.703,522.02 482,525.5C 482.688,526.332 482.521,526.998 481.5,527.5C 469.836,532.082 457.836,535.416 445.5,537.5C 445.5,543.5 445.5,549.5 445.5,555.5C 459.833,555.5 474.167,555.5 488.5,555.5C 488.5,558.5 488.5,561.5 488.5,564.5C 483.167,564.5 477.833,564.5 472.5,564.5C 472.5,582.833 472.5,601.167 472.5,619.5C 469.5,619.5 466.5,619.5 463.5,619.5C 463.5,601.167 463.5,582.833 463.5,564.5C 457.5,564.5 451.5,564.5 445.5,564.5C 445.919,580.318 443.419,595.651 438,610.5C 436.401,613.378 434.567,616.044 432.5,618.5C 429.865,617.189 427.531,615.522 425.5,613.5C 430.861,603.558 434.028,592.891 435,581.5C 435.333,564.5 435.667,547.5 436,530.5C 448.646,528.134 460.813,524.468 472.5,519.5 Z"/></g>
<g><path style="opacity:0.796" fill="#000000" d="M 101.5,557.5 C 93.8394,555.502 86.1728,553.502 78.5,551.5C 78.472,549.418 79.1387,547.584 80.5,546C 78.8659,545.506 77.1992,545.34 75.5,545.5C 75.5,550.833 75.5,556.167 75.5,561.5C 72.1667,561.5 68.8333,561.5 65.5,561.5C 65.5,553.5 65.5,545.5 65.5,537.5C 79.5,537.5 93.5,537.5 107.5,537.5C 107.5,535.167 107.5,532.833 107.5,530.5C 95.1667,530.5 82.8333,530.5 70.5,530.5C 70.5,527.833 70.5,525.167 70.5,522.5C 98.5,522.5 126.5,522.5 154.5,522.5C 154.5,525.167 154.5,527.833 154.5,530.5C 141.829,530.333 129.162,530.5 116.5,531C 117.833,533 117.833,535 116.5,537C 130.829,537.5 145.163,537.667 159.5,537.5C 159.5,545.5 159.5,553.5 159.5,561.5C 156.167,561.5 152.833,561.5 149.5,561.5C 149.5,556.167 149.5,550.833 149.5,545.5C 147.473,545.338 145.473,545.505 143.5,546C 146.059,547.323 146.725,549.157 145.5,551.5C 139.557,553.703 133.557,555.703 127.5,557.5C 134.471,559.326 141.471,560.993 148.5,562.5C 148.632,565.855 147.299,568.189 144.5,569.5C 136.197,567.341 127.864,565.341 119.5,563.5C 120.747,561.677 121.414,559.677 121.5,557.5C 122.552,557.649 123.552,557.483 124.5,557C 122.437,555.428 121.771,553.595 122.5,551.5C 128.192,549.769 133.859,547.936 139.5,546C 131.833,545.333 124.167,545.333 116.5,546C 117.813,553.442 117.813,560.942 116.5,568.5C 113.681,568.742 110.681,568.742 107.5,568.5C 107.5,560.833 107.5,553.167 107.5,545.5C 100.159,545.334 92.8258,545.5 85.5,546C 92.0016,547.109 98.0016,549.275 103.5,552.5C 102.544,554.075 101.877,555.742 101.5,557.5 Z M 101.5,557.5 C 93.0613,559.46 84.3946,560.794 75.5,561.5C 75.5,556.167 75.5,550.833 75.5,545.5C 77.1992,545.34 78.8659,545.506 80.5,546C 79.1387,547.584 78.472,549.418 78.5,551.5C 86.1728,553.502 93.8394,555.502 101.5,557.5 Z"/></g>
<g><path style="opacity:0.81" fill="#000000" d="M 185.5,550.5 C 192.833,555.667 199,562 204,569.5C 203.715,573.161 201.715,575.828 198,577.5C 194.425,573.347 191.091,569.014 188,564.5C 185.629,561.794 182.963,559.461 180,557.5C 179.251,556.365 179.417,555.365 180.5,554.5C 182.419,553.388 184.086,552.054 185.5,550.5 Z"/></g>
<g><path style="opacity:0.721" fill="#000000" d="M 101.5,557.5 C 103.369,559.635 104.036,562.302 103.5,565.5C 95.8058,566.572 88.1391,567.905 80.5,569.5C 77.019,568.153 75.3523,565.486 75.5,561.5C 84.3946,560.794 93.0613,559.46 101.5,557.5 Z"/></g>
<g><path style="opacity:0.812" fill="#000000" d="M 64.5,570.5 C 96.8333,570.5 129.167,570.5 161.5,570.5C 161.5,573.167 161.5,575.833 161.5,578.5C 146.496,578.333 131.496,578.5 116.5,579C 115.74,580.441 115.074,581.941 114.5,583.5C 127.817,584.499 141.15,584.833 154.5,584.5C 154.809,594.886 154.476,605.219 153.5,615.5C 148.777,619.088 143.444,620.255 137.5,619C 136.071,616.31 135.071,613.477 134.5,610.5C 137.833,610.5 141.167,610.5 144.5,610.5C 144.5,604.833 144.5,599.167 144.5,593.5C 139.5,593.5 134.5,593.5 129.5,593.5C 129.5,601.833 129.5,610.167 129.5,618.5C 126.5,618.5 123.5,618.5 120.5,618.5C 120.5,610.167 120.5,601.833 120.5,593.5C 115.833,593.5 111.167,593.5 106.5,593.5C 106.5,601.833 106.5,610.167 106.5,618.5C 103.167,618.5 99.8333,618.5 96.5,618.5C 96.5,610.167 96.5,601.833 96.5,593.5C 91.8333,593.5 87.1667,593.5 82.5,593.5C 82.5,602.167 82.5,610.833 82.5,619.5C 79.2234,619.784 76.0567,619.451 73,618.5C 72.5001,607.172 72.3335,595.838 72.5,584.5C 83.5,584.5 94.5,584.5 105.5,584.5C 105.357,582.738 105.691,581.071 106.5,579.5C 92.5159,578.501 78.5159,578.167 64.5,578.5C 64.5,575.833 64.5,573.167 64.5,570.5 Z"/></g>
<g><path style="opacity:0.326" fill="#c9d5dd" d="M 1313.5,662.5 C 1311.17,663.167 1308.83,663.833 1306.5,664.5C 1221.17,664.5 1135.83,664.5 1050.5,664.5C 1138.01,663.812 1225.68,663.146 1313.5,662.5 Z"/></g>
<g><path style="opacity:0.8" fill="#000000" d="M 326.5,769.5 C 329.482,769.963 332.482,770.296 335.5,770.5C 335.643,772.262 335.309,773.929 334.5,775.5C 348.222,776.053 361.889,776.886 375.5,778C 376.517,779.049 376.684,780.216 376,781.5C 373.562,786.267 370.729,790.767 367.5,795C 364.826,794.847 362.16,794.347 359.5,793.5C 360.323,790.649 361.656,787.982 363.5,785.5C 358.544,784.506 353.544,784.173 348.5,784.5C 348.188,787.888 349.521,790.388 352.5,792C 361.401,796.689 370.734,799.855 380.5,801.5C 378.642,803.524 376.975,805.691 375.5,808C 364.364,807.27 354.364,803.437 345.5,796.5C 339.55,801.99 332.55,805.49 324.5,807C 338.496,807.5 352.496,807.667 366.5,807.5C 366.5,822.833 366.5,838.167 366.5,853.5C 361.489,853.334 356.489,853.501 351.5,854C 360.285,856.895 368.952,860.061 377.5,863.5C 378.711,864.274 378.711,865.107 377.5,866C 375.44,867.696 373.107,868.863 370.5,869.5C 360.506,865.835 350.506,862.168 340.5,858.5C 339.812,856.282 340.812,854.782 343.5,854C 334.833,853.333 326.167,853.333 317.5,854C 322.098,855.192 322.431,856.859 318.5,859C 308.774,863.52 298.774,867.354 288.5,870.5C 286.183,868.684 284.016,866.684 282,864.5C 281.383,863.551 281.549,862.718 282.5,862C 292.698,860.6 302.364,857.6 311.5,853C 305.919,853.402 300.253,853.569 294.5,853.5C 294.5,838.167 294.5,822.833 294.5,807.5C 300.509,807.666 306.509,807.499 312.5,807C 311.624,805.414 310.624,803.914 309.5,802.5C 299.856,801.502 290.19,801.168 280.5,801.5C 280.5,798.5 280.5,795.5 280.5,792.5C 291.5,792.5 302.5,792.5 313.5,792.5C 313.768,795.119 313.435,797.619 312.5,800C 322.82,800.227 331.653,796.727 339,789.5C 339.402,788.128 339.902,786.795 340.5,785.5C 336.833,784.167 333.167,784.167 329.5,785.5C 327.303,789.238 324.636,792.571 321.5,795.5C 319.338,793.98 317.005,792.98 314.5,792.5C 316.343,788.472 318.843,784.805 322,781.5C 323.998,777.67 325.498,773.67 326.5,769.5 Z M 303.5,815.5 C 321.326,814.503 339.326,814.17 357.5,814.5C 357.5,816.5 357.5,818.5 357.5,820.5C 339.833,820.5 322.167,820.5 304.5,820.5C 304.784,818.585 304.451,816.919 303.5,815.5 Z M 304.5,827.5 C 322.167,827.5 339.833,827.5 357.5,827.5C 357.5,829.5 357.5,831.5 357.5,833.5C 339.497,833.667 321.497,833.5 303.5,833C 304.406,831.301 304.739,829.467 304.5,827.5 Z M 304.5,840.5 C 322.167,840.5 339.833,840.5 357.5,840.5C 357.5,842.167 357.5,843.833 357.5,845.5C 339.833,845.5 322.167,845.5 304.5,845.5C 304.5,843.833 304.5,842.167 304.5,840.5 Z"/></g>
<g><path style="opacity:0.844" fill="#000000" d="M 406.5,769.5 C 409.5,769.5 412.5,769.5 415.5,769.5C 415.5,781.833 415.5,794.167 415.5,806.5C 421.5,806.5 427.5,806.5 433.5,806.5C 433.5,809.5 433.5,812.5 433.5,815.5C 427.5,815.5 421.5,815.5 415.5,815.5C 415.337,817.857 415.503,820.19 416,822.5C 417.133,820.789 418.633,820.289 420.5,821C 424.22,826.948 428.053,832.782 432,838.5C 443.444,836.121 454.944,834.121 466.5,832.5C 466.5,811.5 466.5,790.5 466.5,769.5C 469.5,769.5 472.5,769.5 475.5,769.5C 475.333,789.836 475.5,810.169 476,830.5C 480.039,829.244 484.206,828.577 488.5,828.5C 489.159,831.455 489.492,834.455 489.5,837.5C 484.853,838.296 480.186,838.963 475.5,839.5C 475.5,849.833 475.5,860.167 475.5,870.5C 472.5,870.5 469.5,870.5 466.5,870.5C 466.666,860.828 466.5,851.161 466,841.5C 454.985,844.197 443.818,846.197 432.5,847.5C 432.657,846.127 432.49,844.793 432,843.5C 430.5,845 429,846.5 427.5,848C 426.365,848.749 425.365,848.583 424.5,847.5C 421.764,840.792 418.931,834.126 416,827.5C 415.5,841.829 415.333,856.163 415.5,870.5C 412.5,870.5 409.5,870.5 406.5,870.5C 406.667,851.83 406.5,833.164 406,814.5C 400.593,815.473 395.093,815.807 389.5,815.5C 389.5,812.5 389.5,809.5 389.5,806.5C 395.167,806.5 400.833,806.5 406.5,806.5C 406.5,794.167 406.5,781.833 406.5,769.5 Z"/></g>
<g><path style="opacity:0.821" fill="#000000" d="M 106.5,770.5 C 110.907,770.413 114.241,772.246 116.5,776C 116.167,776.5 115.833,777 115.5,777.5C 103.377,781.653 91.0438,784.986 78.5,787.5C 78.6666,801.837 78.4999,816.171 78,830.5C 77.3974,844.016 74.564,857.016 69.5,869.5C 69.1667,869.833 68.8333,870.167 68.5,870.5C 65.6443,868.766 63.3109,866.599 61.5,864C 66.0992,855.106 68.5992,845.606 69,835.5C 69.4999,817.17 69.6666,798.836 69.5,780.5C 82.2586,778.352 94.592,775.019 106.5,770.5 Z"/></g>
<g><path style="opacity:0.745" fill="#000000" d="M 282.5,775.5 C 291.833,775.5 301.167,775.5 310.5,775.5C 310.5,778.167 310.5,780.833 310.5,783.5C 301.167,783.5 291.833,783.5 282.5,783.5C 282.5,780.833 282.5,778.167 282.5,775.5 Z"/></g>
<g><path style="opacity:0.747" fill="#000000" d="M 424.5,775.5 C 427.556,776.296 430.556,777.296 433.5,778.5C 431.651,786.529 428.818,794.529 425,802.5C 422.568,803.45 420.068,803.45 417.5,802.5C 420.446,793.662 422.779,784.662 424.5,775.5 Z"/></g>
<g><path style="opacity:0.843" fill="#000000" d="M 171.5,776.5 C 189.5,776.5 207.5,776.5 225.5,776.5C 225.5,779.167 225.5,781.833 225.5,784.5C 238.837,784.333 252.171,784.5 265.5,785C 266.766,785.309 267.933,785.809 269,786.5C 267.102,806.029 261.269,824.363 251.5,841.5C 257.421,849.924 264.755,856.757 273.5,862C 271.672,863.663 270.005,865.496 268.5,867.5C 267.277,868.614 265.944,868.781 264.5,868C 256.903,863.536 250.57,857.702 245.5,850.5C 239.348,857.914 232.015,863.914 223.5,868.5C 221.851,867.352 220.351,866.019 219,864.5C 218.505,866.473 218.338,868.473 218.5,870.5C 215.223,870.784 212.057,870.451 209,869.5C 208.191,863.251 208.358,857.084 209.5,851C 196.552,852.823 183.552,854.657 170.5,856.5C 170.384,853.14 170.051,849.807 169.5,846.5C 172.833,846.167 176.167,845.833 179.5,845.5C 179.174,825.591 179.507,805.757 180.5,786C 177.518,785.502 174.518,785.335 171.5,785.5C 171.5,782.5 171.5,779.5 171.5,776.5 Z M 189.5,785.5 C 196.175,785.334 202.842,785.5 209.5,786C 208.167,790 208.167,794 209.5,798C 202.842,798.5 196.175,798.666 189.5,798.5C 189.5,794.167 189.5,789.833 189.5,785.5 Z M 218.5,785.5 C 219.5,785.5 220.5,785.5 221.5,785.5C 221.5,788.167 221.5,790.833 221.5,793.5C 224.276,793.089 224.943,793.922 223.5,796C 226.775,811.956 232.108,827.122 239.5,841.5C 234.098,849.403 227.265,855.736 219,860.5C 218.5,835.502 218.333,810.502 218.5,785.5 Z M 233.5,793.5 C 241.84,793.334 250.173,793.5 258.5,794C 255.537,806.889 251.37,819.389 246,831.5C 239.243,819.4 235.076,806.734 233.5,793.5 Z M 189.5,807.5 C 195.833,807.5 202.167,807.5 208.5,807.5C 208.203,811.767 208.536,815.934 209.5,820C 202.842,820.5 196.175,820.666 189.5,820.5C 189.5,816.167 189.5,811.833 189.5,807.5 Z M 189.5,829.5 C 195.833,829.5 202.167,829.5 208.5,829.5C 208.824,833.555 208.491,837.555 207.5,841.5C 201.602,842.957 195.602,843.623 189.5,843.5C 189.5,838.833 189.5,834.167 189.5,829.5 Z"/></g>
<g><path style="opacity:0.77" fill="#000000" d="M 393.5,776.5 C 395.451,776.227 396.951,776.893 398,778.5C 400.976,786.255 402.809,794.255 403.5,802.5C 400.833,802.833 398.167,803.167 395.5,803.5C 394.917,794.834 392.917,786.501 389.5,778.5C 390.949,777.828 392.282,777.161 393.5,776.5 Z"/></g>
<g><path style="opacity:0.788" fill="#000000" d="M 443.5,777.5 C 450.085,780.471 456.085,784.471 461.5,789.5C 462.583,790.365 462.749,791.365 462,792.5C 460.667,794.5 459.333,796.5 458,798.5C 451.742,793.62 445.575,788.62 439.5,783.5C 441.252,781.754 442.585,779.754 443.5,777.5 Z"/></g>
<g><path style="opacity:0.77" fill="#000000" d="M 117.5,778.5 C 131.167,778.5 144.833,778.5 158.5,778.5C 158.5,791.5 158.5,804.5 158.5,817.5C 147.495,817.333 136.495,817.5 125.5,818C 126.428,823.787 126.762,829.454 126.5,835C 134.833,835.667 143.167,835.667 151.5,835C 152.338,831.155 153.338,827.322 154.5,823.5C 156.22,824.934 158.22,825.767 160.5,826C 162.562,841.764 155.562,848.264 139.5,845.5C 135.167,845.333 130.833,845.167 126.5,845C 121.124,844.624 117.958,841.79 117,836.5C 116.18,817.093 116.347,797.76 117.5,778.5 Z M 125.5,788.5 C 128.304,787.362 131.304,787.195 134.5,788C 133.182,794.47 133.182,800.97 134.5,807.5C 131.914,808.48 129.247,808.813 126.5,808.5C 126.824,801.646 126.491,794.979 125.5,788.5 Z M 141.5,787.5 C 144.167,787.5 146.833,787.5 149.5,787.5C 149.5,794.5 149.5,801.5 149.5,808.5C 146.833,808.5 144.167,808.5 141.5,808.5C 141.5,801.5 141.5,794.5 141.5,787.5 Z"/></g>
<g><path style="opacity:0.859" fill="#000000" d="M 547.5,778.5 C 551.833,778.5 556.167,778.5 560.5,778.5C 551.645,807.919 542.478,837.252 533,866.5C 528.822,868.399 524.322,869.065 519.5,868.5C 528.832,838.507 538.165,808.507 547.5,778.5 Z"/></g>
<g><path style="opacity:0.822" fill="#000000" d="M 85.5,787.5 C 88.5,787.5 91.5,787.5 94.5,787.5C 94.5,814.833 94.5,842.167 94.5,869.5C 91.5,869.5 88.5,869.5 85.5,869.5C 85.5,842.167 85.5,814.833 85.5,787.5 Z"/></g>
<g><path style="opacity:0.829" fill="#000000" d="M 102.5,788.5 C 104.92,788.292 107.253,788.626 109.5,789.5C 110.146,802.521 110.98,815.521 112,828.5C 114.108,843.894 122.608,853.728 137.5,858C 146.044,860.079 154.711,861.246 163.5,861.5C 163.161,865.528 161.328,868.528 158,870.5C 145.713,869.47 133.88,866.636 122.5,862C 109.616,853.407 103.116,841.24 103,825.5C 101.655,813.139 101.488,800.806 102.5,788.5 Z"/></g>
<g><path style="opacity:0.992" fill="#d8d8d9" d="M 1049.5,795.5 C 1968.5,795.333 2887.5,795.5 3806.5,796C 3845.5,800.066 3873.67,819.566 3891,854.5C 3907.12,897.84 3898.96,936.007 3866.5,969C 3851.22,982.137 3833.55,990.137 3813.5,993C 2889.83,993.667 1966.17,993.667 1042.5,993C 1005.32,986.811 978.817,966.644 963,932.5C 947.206,884.896 958.706,845.396 997.5,814C 1013.41,803.529 1030.75,797.363 1049.5,795.5 Z"/></g>
<g><path style="opacity:1" fill="#4fbafe" d="M 1409.5,797.5 C 1590.83,797.333 1772.17,797.5 1953.5,798C 1997.55,808.053 2024.05,835.219 2033,879.5C 2036.67,932.035 2014.17,967.869 1965.5,987C 1961.13,987.842 1956.8,988.842 1952.5,990C 1862.19,991.155 1771.85,991.655 1681.5,991.5C 1591.48,991.657 1501.48,991.157 1411.5,990C 1368.46,979.625 1342.29,952.791 1333,909.5C 1329.12,851.912 1354.62,814.579 1409.5,797.5 Z"/></g>
<g><path style="opacity:0.792" fill="#000000" d="M 437.5,804.5 C 444.953,806.817 451.453,810.817 457,816.5C 456.828,819.351 455.661,821.851 453.5,824C 452.833,824.667 452.167,824.667 451.5,824C 446.568,819.065 441.068,814.899 435,811.5C 434.333,810.5 434.333,809.5 435,808.5C 436.481,807.529 437.315,806.196 437.5,804.5 Z"/></g>
<g><path style="opacity:0.783" fill="#000000" d="M 397.5,819.5 C 401.486,819.352 404.153,821.019 405.5,824.5C 403.505,836.831 399.172,848.165 392.5,858.5C 390.838,855.176 389.171,851.842 387.5,848.5C 393.439,839.752 396.772,830.085 397.5,819.5 Z"/></g>
<g><path style="opacity:0.74" fill="#000000" d="M 407.5,917.5 C 410.807,921.426 413.64,925.76 416,930.5C 417.206,933.838 416.04,935.671 412.5,936C 418.833,936.333 425.167,936.667 431.5,937C 432.444,939.719 432.777,942.552 432.5,945.5C 417.833,945.5 403.167,945.5 388.5,945.5C 388.5,942.5 388.5,939.5 388.5,936.5C 395.175,936.666 401.842,936.5 408.5,936C 405.659,930.816 402.993,925.649 400.5,920.5C 403.241,920.293 405.574,919.293 407.5,917.5 Z"/></g>
<g><path style="opacity:0.765" fill="#000000" d="M 518.5,917.5 C 522.687,922.023 526.021,927.189 528.5,933C 527.556,934.477 526.223,935.477 524.5,936C 531.492,936.5 538.492,936.666 545.5,936.5C 545.5,939.5 545.5,942.5 545.5,945.5C 530.167,945.5 514.833,945.5 499.5,945.5C 499.5,942.5 499.5,939.5 499.5,936.5C 506.508,936.666 513.508,936.5 520.5,936C 518.032,931.37 515.366,926.87 512.5,922.5C 514.531,920.825 516.531,919.159 518.5,917.5 Z"/></g>
<g><path style="opacity:0.797" fill="#000000" d="M 108.5,918.5 C 111.86,918.616 115.193,918.949 118.5,919.5C 117.937,921.91 117.437,924.243 117,926.5C 129.087,925.549 141.087,925.216 153,925.5C 155.235,926.368 157.402,927.368 159.5,928.5C 156.795,934.604 153.128,939.937 148.5,944.5C 141.827,943.334 140.827,940.334 145.5,935.5C 140.88,934.507 136.214,934.173 131.5,934.5C 131.081,937.325 132.081,939.491 134.5,941C 143.533,946.009 153.199,949.009 163.5,950C 161.678,952.821 159.511,955.321 157,957.5C 146.274,956.386 136.774,952.386 128.5,945.5C 122.114,951.691 114.448,955.191 105.5,956C 120.163,956.5 134.83,956.667 149.5,956.5C 149.5,971.833 149.5,987.167 149.5,1002.5C 144.156,1002.33 138.823,1002.5 133.5,1003C 143.258,1005.42 152.592,1008.92 161.5,1013.5C 158.872,1015.49 156.205,1017.49 153.5,1019.5C 143.069,1014.94 132.736,1010.44 122.5,1006C 123.272,1004.78 124.272,1003.78 125.5,1003C 116.833,1002.33 108.167,1002.33 99.5,1003C 100.872,1003.4 102.205,1003.9 103.5,1004.5C 104.711,1005.27 104.711,1006.11 103.5,1007C 92.9018,1011.76 82.0684,1015.92 71,1019.5C 68.0341,1017.7 65.5341,1015.37 63.5,1012.5C 73.4845,1009.34 83.4845,1006.17 93.5,1003C 88.1771,1002.5 82.8437,1002.33 77.5,1002.5C 77.5,987.167 77.5,971.833 77.5,956.5C 83.5092,956.666 89.5092,956.499 95.5,956C 93.981,954.649 92.6477,953.149 91.5,951.5C 81.8563,950.502 72.1896,950.168 62.5,950.5C 62.2229,947.552 62.5562,944.719 63.5,942C 74.1615,941.5 84.8281,941.333 95.5,941.5C 95.5,944.167 95.5,946.833 95.5,949.5C 105.249,949.198 113.749,945.864 121,939.5C 122.009,937.975 122.509,936.308 122.5,934.5C 118.774,934.177 115.107,934.511 111.5,935.5C 109.468,938.902 106.968,941.902 104,944.5C 101.845,943.421 99.8448,942.087 98,940.5C 97.3333,939.833 97.3333,939.167 98,938.5C 103.878,933.078 107.378,926.411 108.5,918.5 Z M 86.5,964.5 C 104.167,964.5 121.833,964.5 139.5,964.5C 139.5,966.167 139.5,967.833 139.5,969.5C 121.833,969.5 104.167,969.5 86.5,969.5C 86.5,967.833 86.5,966.167 86.5,964.5 Z M 86.5,976.5 C 104.167,976.5 121.833,976.5 139.5,976.5C 139.5,978.5 139.5,980.5 139.5,982.5C 121.833,982.5 104.167,982.5 86.5,982.5C 86.5,980.5 86.5,978.5 86.5,976.5 Z M 86.5,989.5 C 104.167,989.5 121.833,989.5 139.5,989.5C 139.5,991.5 139.5,993.5 139.5,995.5C 121.833,995.5 104.167,995.5 86.5,995.5C 86.5,993.5 86.5,991.5 86.5,989.5 Z"/></g>
<g><path style="opacity:0.815" fill="#000000" d="M 188.5,973.5 C 189.833,972.5 189.833,971.5 188.5,970.5C 188.261,968.533 188.594,966.699 189.5,965C 183.509,964.501 177.509,964.334 171.5,964.5C 171.5,961.167 171.5,957.833 171.5,954.5C 177.509,954.666 183.509,954.499 189.5,954C 188.512,942.247 188.179,930.414 188.5,918.5C 191.833,918.5 195.167,918.5 198.5,918.5C 198.5,930.5 198.5,942.5 198.5,954.5C 204.176,954.334 209.843,954.501 215.5,955C 216.694,959.404 218.027,959.237 219.5,954.5C 220.723,953.386 222.056,953.219 223.5,954C 229.612,957.619 235.279,961.786 240.5,966.5C 239.14,969.228 237.307,971.561 235,973.5C 229.275,968.773 223.275,964.44 217,960.5C 216.691,961.766 216.191,962.933 215.5,964C 209.843,964.499 204.176,964.666 198.5,964.5C 198.201,966.604 198.534,968.604 199.5,970.5C 201.042,969.253 202.542,969.253 204,970.5C 207.333,976.5 210.667,982.5 214,988.5C 225.617,985.343 237.45,983.01 249.5,981.5C 249.5,960.5 249.5,939.5 249.5,918.5C 252.5,918.5 255.5,918.5 258.5,918.5C 258.167,938.844 258.5,959.178 259.5,979.5C 263.11,978.342 266.777,977.842 270.5,978C 271.218,980.461 271.885,982.961 272.5,985.5C 268.193,987.397 263.693,988.73 259,989.5C 258.5,999.494 258.334,1009.49 258.5,1019.5C 255.5,1019.5 252.5,1019.5 249.5,1019.5C 249.5,1009.83 249.5,1000.17 249.5,990.5C 237.832,992.5 226.165,994.5 214.5,996.5C 214.657,995.127 214.49,993.793 214,992.5C 212.5,994 211,995.5 209.5,997C 208.551,997.617 207.718,997.451 207,996.5C 204.058,990.282 201.391,983.949 199,977.5C 198.5,991.496 198.333,1005.5 198.5,1019.5C 195.167,1019.5 191.833,1019.5 188.5,1019.5C 188.5,1004.17 188.5,988.833 188.5,973.5 Z"/></g>
<g><path style="opacity:0.847" fill="#000000" d="M 331.5,918.5 C 332.873,918.343 334.207,918.51 335.5,919C 337.545,921.586 339.211,924.42 340.5,927.5C 353.483,928.499 366.483,928.832 379.5,928.5C 379.5,931.167 379.5,933.833 379.5,936.5C 352.167,936.5 324.833,936.5 297.5,936.5C 297.667,950.171 297.5,963.837 297,977.5C 296.412,986.284 295.078,994.951 293,1003.5C 291.601,1009.04 289.434,1014.21 286.5,1019C 284.156,1018.23 281.823,1017.07 279.5,1015.5C 279.167,1015 278.833,1014.5 278.5,1014C 282.382,1007.36 284.882,1000.19 286,992.5C 287.33,971.19 287.83,949.857 287.5,928.5C 301.837,928.667 316.171,928.5 330.5,928C 328.47,926.104 326.803,923.937 325.5,921.5C 327.594,920.482 329.594,919.482 331.5,918.5 Z"/></g>
<g><path style="opacity:0.821" fill="#000000" d="M 565.5,920.5 C 568.833,920.5 572.167,920.5 575.5,920.5C 575.5,932.167 575.5,943.833 575.5,955.5C 582.833,955.5 590.167,955.5 597.5,955.5C 597.5,958.833 597.5,962.167 597.5,965.5C 590.167,965.5 582.833,965.5 575.5,965.5C 575.5,983.5 575.5,1001.5 575.5,1019.5C 572.167,1019.5 568.833,1019.5 565.5,1019.5C 565.5,1001.5 565.5,983.5 565.5,965.5C 558.167,965.5 550.833,965.5 543.5,965.5C 543.5,962.167 543.5,958.833 543.5,955.5C 550.833,955.5 558.167,955.5 565.5,955.5C 565.5,943.833 565.5,932.167 565.5,920.5 Z"/></g>
<g><path style="opacity:0.826" fill="#000000" d="M 439.5,922.5 C 451.167,922.5 462.833,922.5 474.5,922.5C 474.5,932.167 474.5,941.833 474.5,951.5C 478.833,951.5 483.167,951.5 487.5,951.5C 487.777,954.448 487.444,957.281 486.5,960C 480.388,960.909 474.388,960.576 468.5,959C 467.299,958.097 466.465,956.931 466,955.5C 465.5,947.507 465.334,939.507 465.5,931.5C 459.833,931.5 454.167,931.5 448.5,931.5C 450.196,946.439 444.696,957.772 432,965.5C 430.38,963.759 428.88,961.925 427.5,960C 416.172,959.5 404.838,959.333 393.5,959.5C 393.5,956.833 393.5,954.167 393.5,951.5C 404.833,951.5 416.167,951.5 427.5,951.5C 427.34,953.199 427.506,954.866 428,956.5C 432.781,953.718 436.114,949.718 438,944.5C 439.348,937.239 439.848,929.906 439.5,922.5 Z"/></g>
<g><path style="opacity:0.717" fill="#000000" d="M 66.5,924.5 C 75.1667,924.5 83.8333,924.5 92.5,924.5C 92.5,927.5 92.5,930.5 92.5,933.5C 83.5,933.5 74.5,933.5 65.5,933.5C 65.2641,930.391 65.5975,927.391 66.5,924.5 Z"/></g>
<g><path style="opacity:0.78" fill="#000000" d="M 177.5,925.5 C 178.496,925.414 179.329,925.748 180,926.5C 183.246,934.566 185.412,942.899 186.5,951.5C 183.882,951.779 181.382,952.446 179,953.5C 177.3,944.366 175.133,935.366 172.5,926.5C 174.415,926.784 176.081,926.451 177.5,925.5 Z"/></g>
<g><path style="opacity:0.734" fill="#000000" d="M 207.5,925.5 C 210.962,925.441 213.962,926.441 216.5,928.5C 213.902,935.128 211.402,941.795 209,948.5C 207.116,954.363 203.95,955.03 199.5,950.5C 202.58,942.262 205.246,933.929 207.5,925.5 Z"/></g>
<g><path style="opacity:0.794" fill="#000000" d="M 226.5,926.5 C 232.71,929.862 238.543,933.862 244,938.5C 244.357,941.856 243.191,944.689 240.5,947C 235.424,942.418 229.757,938.252 223.5,934.5C 222.417,933.635 222.251,932.635 223,931.5C 223.997,929.677 225.164,928.01 226.5,926.5 Z"/></g>
<g><path style="opacity:0.829" fill="#000000" d="M 332.5,937.5 C 335.833,937.5 339.167,937.5 342.5,937.5C 342.756,939.792 342.423,941.959 341.5,944C 353.162,944.5 364.829,944.667 376.5,944.5C 376.5,947.167 376.5,949.833 376.5,952.5C 365.167,952.5 353.833,952.5 342.5,952.5C 342.714,954.144 342.38,955.644 341.5,957C 351.161,957.5 360.828,957.666 370.5,957.5C 370.5,969.167 370.5,980.833 370.5,992.5C 361.167,992.5 351.833,992.5 342.5,992.5C 342.739,994.467 342.406,996.301 341.5,998C 354.162,998.5 366.829,998.667 379.5,998.5C 379.5,1001.17 379.5,1003.83 379.5,1006.5C 367.167,1006.5 354.833,1006.5 342.5,1006.5C 342.5,1010.83 342.5,1015.17 342.5,1019.5C 339.223,1019.78 336.057,1019.45 333,1018.5C 332.501,1014.51 332.334,1010.51 332.5,1006.5C 320.5,1006.5 308.5,1006.5 296.5,1006.5C 296.5,1003.83 296.5,1001.17 296.5,998.5C 308.838,998.667 321.171,998.5 333.5,998C 332.167,996.333 332.167,994.667 333.5,993C 324.173,992.5 314.839,992.334 305.5,992.5C 305.5,980.833 305.5,969.167 305.5,957.5C 314.839,957.666 324.173,957.5 333.5,957C 332.62,955.644 332.286,954.144 332.5,952.5C 322.167,952.5 311.833,952.5 301.5,952.5C 301.5,949.833 301.5,947.167 301.5,944.5C 312.172,944.667 322.839,944.5 333.5,944C 332.577,941.959 332.244,939.792 332.5,937.5 Z M 314.5,964.5 C 320.509,964.334 326.509,964.501 332.5,965C 332.784,966.956 332.784,969.123 332.5,971.5C 326.5,971.5 320.5,971.5 314.5,971.5C 314.5,969.167 314.5,966.833 314.5,964.5 Z M 342.5,964.5 C 348.833,964.5 355.167,964.5 361.5,964.5C 361.5,966.833 361.5,969.167 361.5,971.5C 355.167,971.5 348.833,971.5 342.5,971.5C 342.5,969.167 342.5,966.833 342.5,964.5 Z M 314.5,978.5 C 320.842,978.334 327.175,978.5 333.5,979C 332.167,981 332.167,983 333.5,985C 327.175,985.5 320.842,985.666 314.5,985.5C 314.5,983.167 314.5,980.833 314.5,978.5 Z M 341.5,979.5 C 347.979,978.509 354.646,978.176 361.5,978.5C 361.5,980.833 361.5,983.167 361.5,985.5C 355.167,985.5 348.833,985.5 342.5,985.5C 342.795,983.265 342.461,981.265 341.5,979.5 Z"/></g>
<g><path style="opacity:0.779" fill="#000000" d="M 503.5,951.5 C 516.167,951.5 528.833,951.5 541.5,951.5C 541.5,954.167 541.5,956.833 541.5,959.5C 528.833,959.5 516.167,959.5 503.5,959.5C 503.5,956.833 503.5,954.167 503.5,951.5 Z"/></g>
<g><path style="opacity:0.785" fill="#000000" d="M 393.5,965.5 C 404.833,965.5 416.167,965.5 427.5,965.5C 427.5,968.167 427.5,970.833 427.5,973.5C 416.167,973.5 404.833,973.5 393.5,973.5C 393.5,970.833 393.5,968.167 393.5,965.5 Z"/></g>
<g><path style="opacity:0.767" fill="#000000" d="M 503.5,965.5 C 516.167,965.5 528.833,965.5 541.5,965.5C 541.5,968.167 541.5,970.833 541.5,973.5C 528.833,973.5 516.167,973.5 503.5,973.5C 503.5,970.833 503.5,968.167 503.5,965.5 Z"/></g>
<g><path style="opacity:0.835" fill="#000000" d="M 429.5,966.5 C 446.17,966.333 462.837,966.5 479.5,967C 483.853,968.288 484.686,970.788 482,974.5C 478.51,984.649 472.676,993.149 464.5,1000C 466.901,1002.06 469.567,1003.73 472.5,1005C 477.991,1007.22 483.658,1008.72 489.5,1009.5C 489.649,1010.55 489.483,1011.55 489,1012.5C 487.212,1015.12 485.212,1017.45 483,1019.5C 473.943,1016.3 465.277,1012.3 457,1007.5C 448.723,1012.3 440.057,1016.3 431,1019.5C 428.836,1017.71 427.002,1015.54 425.5,1013C 417.5,1012.33 409.5,1012.33 401.5,1013C 402.406,1014.7 402.739,1016.53 402.5,1018.5C 399.5,1018.5 396.5,1018.5 393.5,1018.5C 393.5,1005.5 393.5,992.5 393.5,979.5C 404.833,979.5 416.167,979.5 427.5,979.5C 427.5,989.5 427.5,999.5 427.5,1009.5C 435.483,1007.79 442.816,1004.62 449.5,1000C 442.816,993.467 437.483,985.967 433.5,977.5C 433.709,976.914 434.043,976.414 434.5,976C 432.866,975.506 431.199,975.34 429.5,975.5C 429.5,972.5 429.5,969.5 429.5,966.5 Z M 442.5,976.5 C 451.675,975.178 461.008,975.178 470.5,976.5C 466.962,983.207 462.462,989.207 457,994.5C 451.544,988.89 446.71,982.89 442.5,976.5 Z M 402.5,988.5 C 407.833,988.5 413.167,988.5 418.5,988.5C 418.5,993.833 418.5,999.167 418.5,1004.5C 413.167,1004.5 407.833,1004.5 402.5,1004.5C 402.5,999.167 402.5,993.833 402.5,988.5 Z"/></g>
<g><path style="opacity:0.797" fill="#000000" d="M 188.5,970.5 C 188.5,971.5 188.5,972.5 188.5,973.5C 185.897,985.394 181.563,996.727 175.5,1007.5C 173.336,1004.51 171.67,1001.17 170.5,997.5C 175.614,988.827 178.947,979.494 180.5,969.5C 183.237,969.401 185.904,969.735 188.5,970.5 Z"/></g>
<g><path style="opacity:0.789" fill="#000000" d="M 505.5,979.5 C 517.5,979.5 529.5,979.5 541.5,979.5C 541.5,990.5 541.5,1001.5 541.5,1012.5C 532.161,1012.33 522.827,1012.5 513.5,1013C 514.747,1014.46 514.747,1015.96 513.5,1017.5C 510.572,1018.48 507.572,1018.82 504.5,1018.5C 504.186,1005.42 504.52,992.421 505.5,979.5 Z M 513.5,989.5 C 519.645,988.51 525.978,988.177 532.5,988.5C 532.5,993.833 532.5,999.167 532.5,1004.5C 526.158,1004.67 519.825,1004.5 513.5,1004C 514.824,999.067 514.824,994.234 513.5,989.5 Z"/></g>
<g><path style="opacity:0.991" fill="#d8d8d9" d="M 1617.5,1145.5 C 1570.57,1154.26 1541.73,1181.93 1531,1228.5C 1526.43,1273.53 1543.27,1307.7 1581.5,1331C 1586.53,1334.02 1591.86,1336.18 1597.5,1337.5C 1601.8,1339.75 1606.47,1341.08 1611.5,1341.5C 1612.17,1341.5 1612.83,1341.5 1613.5,1341.5C 1614.83,1342.17 1616.17,1342.83 1617.5,1343.5C 1424.48,1343.99 1231.48,1343.49 1038.5,1342C 996.132,1332.89 969.299,1307.39 958,1265.5C 951.143,1226.73 962.309,1194.23 991.5,1168C 1006.62,1155.62 1023.95,1148.29 1043.5,1146C 1234.83,1145.5 1426.17,1145.33 1617.5,1145.5 Z"/></g>
<g><path style="opacity:0.994" fill="#4fbafe" d="M 1617.5,1145.5 C 1972.83,1145.5 2328.17,1145.5 2683.5,1145.5C 2729.76,1152.88 2758.93,1179.22 2771,1224.5C 2777.49,1268.41 2762.66,1302.91 2726.5,1328C 2712.61,1335.8 2697.95,1340.96 2682.5,1343.5C 2329.5,1343.5 1976.5,1343.5 1623.5,1343.5C 1620.49,1341.83 1617.16,1341.16 1613.5,1341.5C 1612.83,1341.5 1612.17,1341.5 1611.5,1341.5C 1607.11,1339.56 1602.44,1338.23 1597.5,1337.5C 1591.86,1336.18 1586.53,1334.02 1581.5,1331C 1543.27,1307.7 1526.43,1273.53 1531,1228.5C 1541.73,1181.93 1570.57,1154.26 1617.5,1145.5 Z"/></g>
<g><path style="opacity:0.992" fill="#d8d8d9" d="M 2683.5,1145.5 C 3059.5,1145.33 3435.5,1145.5 3811.5,1146C 3846.85,1151.59 3873.02,1170.09 3890,1201.5C 3907.95,1245.75 3900.12,1284.58 3866.5,1318C 3849.86,1332.31 3830.52,1340.65 3808.5,1343C 3433.17,1343.5 3057.83,1343.67 2682.5,1343.5C 2697.95,1340.96 2712.61,1335.8 2726.5,1328C 2762.66,1302.91 2777.49,1268.41 2771,1224.5C 2758.93,1179.22 2729.76,1152.88 2683.5,1145.5 Z"/></g>
<g><path style="opacity:0.816" fill="#000000" d="M 468.5,1191.5 C 470.017,1191.51 471.184,1192.18 472,1193.5C 474.25,1197.67 476.75,1201.67 479.5,1205.5C 477.543,1207.48 475.21,1208.98 472.5,1210C 479.492,1210.5 486.492,1210.67 493.5,1210.5C 493.5,1213.17 493.5,1215.83 493.5,1218.5C 479.167,1218.5 464.833,1218.5 450.5,1218.5C 450.5,1215.83 450.5,1213.17 450.5,1210.5C 457.508,1210.67 464.508,1210.5 471.5,1210C 468.573,1205.48 465.907,1200.81 463.5,1196C 464.761,1194.04 466.428,1192.54 468.5,1191.5 Z"/></g>
<g><path style="opacity:0.805" fill="#000000" d="M 580.5,1191.5 C 581.496,1191.41 582.329,1191.75 583,1192.5C 586.021,1196.54 588.521,1200.88 590.5,1205.5C 589.115,1207.71 587.115,1209.21 584.5,1210C 592.493,1210.5 600.493,1210.67 608.5,1210.5C 608.5,1213.17 608.5,1215.83 608.5,1218.5C 592.833,1218.5 577.167,1218.5 561.5,1218.5C 561.5,1215.83 561.5,1213.17 561.5,1210.5C 568.508,1210.67 575.508,1210.5 582.5,1210C 579.96,1205.09 577.294,1200.25 574.5,1195.5C 576.565,1194.14 578.565,1192.81 580.5,1191.5 Z"/></g>
<g><path style="opacity:0.835" fill="#000000" d="M 627.5,1193.5 C 630.833,1193.5 634.167,1193.5 637.5,1193.5C 637.5,1205.5 637.5,1217.5 637.5,1229.5C 644.833,1229.5 652.167,1229.5 659.5,1229.5C 659.5,1232.83 659.5,1236.17 659.5,1239.5C 652.167,1239.5 644.833,1239.5 637.5,1239.5C 637.5,1257.5 637.5,1275.5 637.5,1293.5C 634.167,1293.5 630.833,1293.5 627.5,1293.5C 627.5,1275.5 627.5,1257.5 627.5,1239.5C 620.5,1239.5 613.5,1239.5 606.5,1239.5C 606.5,1236.17 606.5,1232.83 606.5,1229.5C 613.5,1229.5 620.5,1229.5 627.5,1229.5C 627.5,1217.5 627.5,1205.5 627.5,1193.5 Z"/></g>
<g><path style="opacity:0.807" fill="#000000" d="M 501.5,1195.5 C 513.167,1195.5 524.833,1195.5 536.5,1195.5C 536.5,1205.17 536.5,1214.83 536.5,1224.5C 540.767,1224.8 544.934,1224.46 549,1223.5C 549.498,1226.82 549.665,1230.15 549.5,1233.5C 543.491,1233.67 537.491,1233.5 531.5,1233C 528.311,1231.11 526.811,1228.28 527,1224.5C 526.5,1218.18 526.334,1211.84 526.5,1205.5C 521.167,1205.5 515.833,1205.5 510.5,1205.5C 511.822,1219.35 506.822,1230.18 495.5,1238C 492.765,1237.32 490.432,1235.66 488.5,1233C 477.505,1232.5 466.505,1232.33 455.5,1232.5C 455.5,1229.83 455.5,1227.17 455.5,1224.5C 466.833,1224.5 478.167,1224.5 489.5,1224.5C 489.338,1226.53 489.505,1228.53 490,1230.5C 494.265,1227.32 497.599,1223.32 500,1218.5C 501.396,1210.92 501.896,1203.25 501.5,1195.5 Z"/></g>
<g><path style="opacity:0.857" fill="#000000" d="M 223.5,1201.5 C 227.833,1201.5 232.167,1201.5 236.5,1201.5C 235.778,1205.51 234.945,1209.51 234,1213.5C 225.07,1238.62 216.736,1263.96 209,1289.5C 204.822,1291.4 200.322,1292.07 195.5,1291.5C 204.725,1261.18 214.058,1231.18 223.5,1201.5 Z"/></g>
<g><path style="opacity:0.892" fill="#000000" d="M 343.5,1204.5 C 349.448,1205.13 355.448,1205.79 361.5,1206.5C 367.861,1215.03 374.027,1223.69 380,1232.5C 386.866,1223.93 393.366,1215.1 399.5,1206C 405.416,1205.81 411.249,1205.31 417,1204.5C 417.667,1205.5 417.667,1206.5 417,1207.5C 407.255,1219.41 398.089,1231.74 389.5,1244.5C 398.923,1257.68 408.59,1270.68 418.5,1283.5C 412.528,1284.66 406.528,1284.83 400.5,1284C 393.788,1274.74 386.955,1265.58 380,1256.5C 373.532,1265.93 366.699,1275.1 359.5,1284C 353.472,1284.83 347.472,1284.66 341.5,1283.5C 351.692,1270.48 361.692,1257.31 371.5,1244C 362,1231.83 352.5,1219.67 343,1207.5C 342.53,1206.42 342.697,1205.42 343.5,1204.5 Z"/></g>
<g><path style="opacity:0.899" fill="#000000" d="M 65.5,1205.5 C 70.5,1205.5 75.5,1205.5 80.5,1205.5C 80.0521,1224.22 80.5521,1242.89 82,1261.5C 84.5163,1269.52 90.0163,1273.18 98.5,1272.5C 107.499,1273.26 112.999,1269.26 115,1260.5C 115.333,1242.5 115.667,1224.5 116,1206.5C 121.072,1205.53 126.238,1205.2 131.5,1205.5C 131.667,1223.5 131.5,1241.5 131,1259.5C 127.531,1277.12 116.698,1285.78 98.5,1285.5C 87.6564,1285.83 78.4897,1282.17 71,1274.5C 68.5452,1270.47 66.8786,1266.14 66,1261.5C 65.5001,1242.84 65.3334,1224.17 65.5,1205.5 Z"/></g>
<g><path style="opacity:0.824" fill="#000000" d="M 145.5,1205.5 C 151.167,1205.5 156.833,1205.5 162.5,1205.5C 162.5,1231.83 162.5,1258.17 162.5,1284.5C 156.833,1284.5 151.167,1284.5 145.5,1284.5C 145.5,1258.17 145.5,1231.83 145.5,1205.5 Z"/></g>
<g><path style="opacity:0.894" fill="#000000" d="M 270.5,1205.5 C 275.833,1205.5 281.167,1205.5 286.5,1205.5C 286.049,1225.22 286.549,1244.89 288,1264.5C 291.402,1270.45 296.569,1273.12 303.5,1272.5C 311.984,1273.18 317.484,1269.52 320,1261.5C 321.448,1242.89 321.948,1224.22 321.5,1205.5C 326.5,1205.5 331.5,1205.5 336.5,1205.5C 336.667,1224.17 336.5,1242.84 336,1261.5C 334.054,1273.45 327.22,1280.95 315.5,1284C 300.483,1287.93 287.316,1284.77 276,1274.5C 274.667,1271.83 273.333,1269.17 272,1266.5C 270.548,1246.22 270.048,1225.89 270.5,1205.5 Z"/></g>
<g><path style="opacity:0.802" fill="#000000" d="M 566.5,1224.5 C 578.833,1224.5 591.167,1224.5 603.5,1224.5C 603.5,1227.17 603.5,1229.83 603.5,1232.5C 591.167,1232.5 578.833,1232.5 566.5,1232.5C 566.5,1229.83 566.5,1227.17 566.5,1224.5 Z"/></g>
<g><path style="opacity:0.79" fill="#000000" d="M 455.5,1238.5 C 466.833,1238.5 478.167,1238.5 489.5,1238.5C 489.5,1241.17 489.5,1243.83 489.5,1246.5C 478.167,1246.5 466.833,1246.5 455.5,1246.5C 455.5,1243.83 455.5,1241.17 455.5,1238.5 Z"/></g>
<g><path style="opacity:0.785" fill="#000000" d="M 566.5,1238.5 C 578.505,1238.33 590.505,1238.5 602.5,1239C 603.435,1241.38 603.768,1243.88 603.5,1246.5C 591.167,1246.5 578.833,1246.5 566.5,1246.5C 566.5,1243.83 566.5,1241.17 566.5,1238.5 Z"/></g>
<g><path style="opacity:0.835" fill="#000000" d="M 490.5,1239.5 C 508.594,1239.03 526.594,1239.53 544.5,1241C 542.595,1253.99 536.595,1264.99 526.5,1274C 534.622,1278.06 542.955,1281.56 551.5,1284.5C 550.068,1288.08 547.734,1290.75 544.5,1292.5C 535.084,1289.88 526.584,1285.54 519,1279.5C 510.498,1286.17 500.998,1290.83 490.5,1293.5C 490.335,1291.17 489.669,1289.01 488.5,1287C 480.507,1286.5 472.507,1286.33 464.5,1286.5C 464.5,1288.17 464.5,1289.83 464.5,1291.5C 461.5,1291.5 458.5,1291.5 455.5,1291.5C 455.5,1278.83 455.5,1266.17 455.5,1253.5C 466.833,1253.5 478.167,1253.5 489.5,1253.5C 489.168,1263.52 489.501,1273.52 490.5,1283.5C 497.768,1280.86 504.768,1277.7 511.5,1274C 504.334,1266.62 499.334,1258.29 496.5,1249C 494.527,1248.5 492.527,1248.34 490.5,1248.5C 490.5,1245.5 490.5,1242.5 490.5,1239.5 Z M 504.5,1249.5 C 513.991,1248.34 523.658,1248.18 533.5,1249C 529.511,1255.8 524.678,1261.97 519,1267.5C 513.544,1261.89 508.71,1255.89 504.5,1249.5 Z M 464.5,1261.5 C 469.833,1261.5 475.167,1261.5 480.5,1261.5C 480.5,1266.83 480.5,1272.17 480.5,1277.5C 475.167,1277.5 469.833,1277.5 464.5,1277.5C 464.5,1272.17 464.5,1266.83 464.5,1261.5 Z"/></g>
<g><path style="opacity:0.828" fill="#000000" d="M 567.5,1253.5 C 579.5,1253.5 591.5,1253.5 603.5,1253.5C 603.5,1264.5 603.5,1275.5 603.5,1286.5C 594.161,1286.33 584.827,1286.5 575.5,1287C 576.38,1288.36 576.714,1289.86 576.5,1291.5C 573.5,1291.5 570.5,1291.5 567.5,1291.5C 567.5,1278.83 567.5,1266.17 567.5,1253.5 Z M 576.5,1261.5 C 582.5,1261.5 588.5,1261.5 594.5,1261.5C 594.5,1266.83 594.5,1272.17 594.5,1277.5C 588.5,1277.5 582.5,1277.5 576.5,1277.5C 576.5,1272.17 576.5,1266.83 576.5,1261.5 Z"/></g>
<g><path style="opacity:1" fill="#89c6f0" d="M 1597.5,1337.5 C 1602.44,1338.23 1607.11,1339.56 1611.5,1341.5C 1606.47,1341.08 1601.8,1339.75 1597.5,1337.5 Z"/></g>
<g><path style="opacity:0.941" fill="#98caea" d="M 1613.5,1341.5 C 1617.16,1341.16 1620.49,1341.83 1623.5,1343.5C 1621.5,1343.5 1619.5,1343.5 1617.5,1343.5C 1616.17,1342.83 1614.83,1342.17 1613.5,1341.5 Z"/></g>
<g><path style="opacity:0.99" fill="#d9d9d8" d="M 3565.5,1693.5 C 3617.51,1672.85 3640.34,1634.51 3634,1578.5C 3624.51,1541.34 3601.68,1516.5 3565.5,1504C 3559.59,1502.29 3553.59,1501.13 3547.5,1500.5C 3293.33,1499.33 3039,1499.17 2784.5,1500C 2780.87,1500.15 2777.53,1500.98 2774.5,1502.5C 2731.53,1512.97 2705.69,1539.97 2697,1583.5C 2693.18,1637.58 2716.35,1674.25 2766.5,1693.5C 2193.17,1693.67 1619.83,1693.5 1046.5,1693C 997.848,1686.02 968.015,1658.52 957,1610.5C 952.329,1570.02 966.163,1537.52 998.5,1513C 1012.09,1503.8 1027.09,1498.13 1043.5,1496C 1504.83,1495.83 1966.17,1495.67 2427.5,1495.5C 2891.19,1495.34 3354.86,1495.84 3818.5,1497C 3860.59,1507.43 3887.09,1533.59 3898,1575.5C 3903.58,1633.24 3879.08,1671.74 3824.5,1691C 3819.17,1691.67 3813.83,1692.33 3808.5,1693C 3727.5,1693.5 3646.5,1693.67 3565.5,1693.5 Z"/></g>
<g><path style="opacity:1" fill="#9ccbe9" d="M 3547.5,1500.5 C 3294.17,1500.33 3040.83,1500.5 2787.5,1501C 2783.15,1501.46 2778.82,1501.96 2774.5,1502.5C 2777.53,1500.98 2780.87,1500.15 2784.5,1500C 3039,1499.17 3293.33,1499.33 3547.5,1500.5 Z"/></g>
<g><path style="opacity:0.997" fill="#4eb9fe" d="M 3547.5,1500.5 C 3553.59,1501.13 3559.59,1502.29 3565.5,1504C 3601.68,1516.5 3624.51,1541.34 3634,1578.5C 3640.34,1634.51 3617.51,1672.85 3565.5,1693.5C 3559.56,1694.86 3553.56,1696.02 3547.5,1697C 3293.17,1697.67 3038.83,1697.67 2784.5,1697C 2778.39,1696.28 2772.39,1695.11 2766.5,1693.5C 2716.35,1674.25 2693.18,1637.58 2697,1583.5C 2705.69,1539.97 2731.53,1512.97 2774.5,1502.5C 2778.82,1501.96 2783.15,1501.46 2787.5,1501C 3040.83,1500.5 3294.17,1500.33 3547.5,1500.5 Z"/></g>
<g><path style="opacity:0.812" fill="#000000" d="M 81.5,1545.5 C 85.0528,1545.94 88.0528,1547.44 90.5,1550C 86.181,1559.64 80.8477,1568.64 74.5,1577C 77.9283,1577.7 81.2617,1577.37 84.5,1576C 87.4767,1571.55 89.4767,1566.72 90.5,1561.5C 94.2259,1561.9 97.2259,1563.57 99.5,1566.5C 93.5425,1578.61 86.2092,1589.78 77.5,1600C 82.1064,1600.34 86.6064,1599.84 91,1598.5C 90.5008,1595.15 89.6675,1591.82 88.5,1588.5C 90.9372,1588.24 93.2706,1587.58 95.5,1586.5C 98.5489,1592.6 101.049,1598.93 103,1605.5C 103.5,1587.17 103.667,1568.84 103.5,1550.5C 122.5,1550.5 141.5,1550.5 160.5,1550.5C 160.667,1580.84 160.5,1611.17 160,1641.5C 158.387,1643.78 156.22,1645.28 153.5,1646C 149.514,1646.5 145.514,1646.67 141.5,1646.5C 140.833,1643.5 140.167,1640.5 139.5,1637.5C 143.5,1637.5 147.5,1637.5 151.5,1637.5C 151.5,1611.5 151.5,1585.5 151.5,1559.5C 138.5,1559.5 125.5,1559.5 112.5,1559.5C 112.5,1588.5 112.5,1617.5 112.5,1646.5C 109.5,1646.5 106.5,1646.5 103.5,1646.5C 103.666,1642.49 103.499,1638.49 103,1634.5C 100.699,1635.87 98.1985,1636.53 95.5,1636.5C 93.9666,1628.7 91.9666,1621.03 89.5,1613.5C 92.1667,1613.17 94.8333,1612.83 97.5,1612.5C 99.4823,1618.76 101.316,1625.09 103,1631.5C 103.831,1624.14 103.665,1616.81 102.5,1609.5C 100.271,1610.58 97.9372,1611.24 95.5,1611.5C 95.6168,1609.52 94.9501,1607.85 93.5,1606.5C 84.0725,1608.07 74.7392,1610.07 65.5,1612.5C 65.0161,1609.37 63.6827,1606.71 61.5,1604.5C 68.6528,1599.69 74.3195,1593.52 78.5,1586C 74.0531,1585.42 69.7198,1585.92 65.5,1587.5C 64.2617,1585.3 62.9284,1583.14 61.5,1581C 64.3487,1578.48 66.8487,1575.65 69,1572.5C 73.7479,1563.68 77.9145,1554.68 81.5,1545.5 Z"/></g>
<g><path style="opacity:0.759" fill="#000000" d="M 192.5,1545.5 C 197.208,1550.93 200.208,1557.26 201.5,1564.5C 203.743,1565.61 208.743,1565.94 216.5,1565.5C 216.5,1568.83 216.5,1572.17 216.5,1575.5C 201.833,1575.5 187.167,1575.5 172.5,1575.5C 172.5,1572.17 172.5,1568.83 172.5,1565.5C 179.175,1565.67 185.842,1565.5 192.5,1565C 190.018,1559.21 187.685,1553.37 185.5,1547.5C 188.152,1547.59 190.485,1546.92 192.5,1545.5 Z"/></g>
<g><path style="opacity:0.838" fill="#000000" d="M 234.5,1545.5 C 237.833,1545.5 241.167,1545.5 244.5,1545.5C 244.5,1552.83 244.5,1560.17 244.5,1567.5C 253.5,1567.5 262.5,1567.5 271.5,1567.5C 271.5,1570.83 271.5,1574.17 271.5,1577.5C 262.5,1577.5 253.5,1577.5 244.5,1577.5C 244.5,1584.17 244.5,1590.83 244.5,1597.5C 252.167,1597.5 259.833,1597.5 267.5,1597.5C 267.5,1613.83 267.5,1630.17 267.5,1646.5C 264.167,1646.5 260.833,1646.5 257.5,1646.5C 257.5,1644.83 257.5,1643.17 257.5,1641.5C 247.167,1641.5 236.833,1641.5 226.5,1641.5C 226.5,1643.17 226.5,1644.83 226.5,1646.5C 223.167,1646.5 219.833,1646.5 216.5,1646.5C 216.5,1630.17 216.5,1613.83 216.5,1597.5C 222.5,1597.5 228.5,1597.5 234.5,1597.5C 234.5,1580.17 234.5,1562.83 234.5,1545.5 Z M 226.5,1606.5 C 236.833,1606.5 247.167,1606.5 257.5,1606.5C 257.5,1615.17 257.5,1623.83 257.5,1632.5C 247.167,1632.5 236.833,1632.5 226.5,1632.5C 226.5,1623.83 226.5,1615.17 226.5,1606.5 Z"/></g>
<g><path style="opacity:0.814" fill="#000000" d="M 338.5,1545.5 C 341.5,1545.5 344.5,1545.5 347.5,1545.5C 347.335,1548.85 347.502,1552.18 348,1555.5C 355.747,1554.52 363.58,1554.18 371.5,1554.5C 371.5,1559.5 371.5,1564.5 371.5,1569.5C 374.167,1569.5 376.833,1569.5 379.5,1569.5C 379.5,1572.17 379.5,1574.83 379.5,1577.5C 376.833,1577.5 374.167,1577.5 371.5,1577.5C 371.5,1582.5 371.5,1587.5 371.5,1592.5C 363.5,1592.5 355.5,1592.5 347.5,1592.5C 347.5,1594.5 347.5,1596.5 347.5,1598.5C 356.167,1598.5 364.833,1598.5 373.5,1598.5C 373.5,1601.17 373.5,1603.83 373.5,1606.5C 364.833,1606.5 356.167,1606.5 347.5,1606.5C 347.5,1608.83 347.5,1611.17 347.5,1613.5C 357.5,1613.5 367.5,1613.5 377.5,1613.5C 377.5,1616.17 377.5,1618.83 377.5,1621.5C 367.5,1621.5 357.5,1621.5 347.5,1621.5C 347.5,1625.5 347.5,1629.5 347.5,1633.5C 344.5,1633.5 341.5,1633.5 338.5,1633.5C 338.5,1629.5 338.5,1625.5 338.5,1621.5C 329.5,1621.5 320.5,1621.5 311.5,1621.5C 311.5,1618.83 311.5,1616.17 311.5,1613.5C 320.5,1613.5 329.5,1613.5 338.5,1613.5C 338.5,1611.17 338.5,1608.83 338.5,1606.5C 331.167,1606.5 323.833,1606.5 316.5,1606.5C 316.5,1603.83 316.5,1601.17 316.5,1598.5C 323.833,1598.5 331.167,1598.5 338.5,1598.5C 338.5,1596.5 338.5,1594.5 338.5,1592.5C 331.167,1592.5 323.833,1592.5 316.5,1592.5C 316.223,1589.55 316.556,1586.72 317.5,1584C 324.492,1583.5 331.492,1583.33 338.5,1583.5C 338.5,1581.5 338.5,1579.5 338.5,1577.5C 329.167,1577.5 319.833,1577.5 310.5,1577.5C 310.5,1574.83 310.5,1572.17 310.5,1569.5C 319.833,1569.5 329.167,1569.5 338.5,1569.5C 338.5,1567.5 338.5,1565.5 338.5,1563.5C 331.5,1563.5 324.5,1563.5 317.5,1563.5C 317.223,1560.55 317.556,1557.72 318.5,1555C 325.082,1554.19 331.582,1554.36 338,1555.5C 338.498,1552.18 338.665,1548.85 338.5,1545.5 Z M 347.5,1563.5 C 352.5,1563.5 357.5,1563.5 362.5,1563.5C 362.5,1565.5 362.5,1567.5 362.5,1569.5C 357.5,1569.5 352.5,1569.5 347.5,1569.5C 347.5,1567.5 347.5,1565.5 347.5,1563.5 Z M 347.5,1577.5 C 352.5,1577.5 357.5,1577.5 362.5,1577.5C 362.5,1579.5 362.5,1581.5 362.5,1583.5C 357.5,1583.5 352.5,1583.5 347.5,1583.5C 347.5,1581.5 347.5,1579.5 347.5,1577.5 Z"/></g>
<g><path style="opacity:0.825" fill="#000000" d="M 554.5,1545.5 C 556.017,1545.51 557.184,1546.18 558,1547.5C 560.333,1551.17 562.667,1554.83 565,1558.5C 565.757,1561.48 564.591,1563.31 561.5,1564C 565.167,1564.33 568.833,1564.67 572.5,1565C 573.868,1566.34 575.201,1567.67 576.5,1569C 573.102,1577.8 568.435,1585.8 562.5,1593C 563.466,1594.68 564.799,1595.34 566.5,1595C 569.008,1591.66 571.675,1588.5 574.5,1585.5C 576.671,1587.17 578.671,1589.01 580.5,1591C 577.846,1594.99 574.512,1598.32 570.5,1601C 573.941,1603.77 576.607,1607.1 578.5,1611C 577.283,1613.93 575.45,1616.43 573,1618.5C 569.667,1613.83 566.333,1609.17 563,1604.5C 562.5,1618.5 562.333,1632.5 562.5,1646.5C 559.167,1646.5 555.833,1646.5 552.5,1646.5C 552.667,1633.16 552.5,1619.83 552,1606.5C 548.5,1610 545,1613.5 541.5,1617C 540.552,1617.48 539.552,1617.65 538.5,1617.5C 537.609,1614.42 536.776,1611.42 536,1608.5C 541.333,1603.17 546.667,1597.83 552,1592.5C 556.083,1586.67 559.916,1580.67 563.5,1574.5C 555.111,1574.45 546.445,1574.45 537.5,1574.5C 537.5,1571.17 537.5,1567.83 537.5,1564.5C 544.175,1564.67 550.842,1564.5 557.5,1564C 554.625,1559.08 551.625,1554.25 548.5,1549.5C 550.565,1548.14 552.565,1546.81 554.5,1545.5 Z"/></g>
<g><path style="opacity:0.822" fill="#000000" d="M 651.5,1545.5 C 654.5,1545.5 657.5,1545.5 660.5,1545.5C 660.5,1556.5 660.5,1567.5 660.5,1578.5C 664.833,1578.5 669.167,1578.5 673.5,1578.5C 673.5,1568.5 673.5,1558.5 673.5,1548.5C 676.833,1548.5 680.167,1548.5 683.5,1548.5C 683.5,1561.5 683.5,1574.5 683.5,1587.5C 675.833,1587.5 668.167,1587.5 660.5,1587.5C 660.5,1591.17 660.5,1594.83 660.5,1598.5C 667.833,1598.5 675.167,1598.5 682.5,1598.5C 682.5,1614.5 682.5,1630.5 682.5,1646.5C 679.5,1646.5 676.5,1646.5 673.5,1646.5C 673.5,1633.5 673.5,1620.5 673.5,1607.5C 668.833,1607.5 664.167,1607.5 659.5,1607.5C 659.918,1621.58 657.084,1634.92 651,1647.5C 648.767,1645.27 646.6,1643.1 644.5,1641C 647.197,1633.05 649.03,1624.88 650,1616.5C 651.321,1592.85 651.821,1569.19 651.5,1545.5 Z"/></g>
<g><path style="opacity:0.808" fill="#000000" d="M 396.5,1549.5 C 425.167,1549.5 453.833,1549.5 482.5,1549.5C 482.815,1557.42 482.482,1565.25 481.5,1573C 468.591,1573.82 455.758,1573.66 443,1572.5C 442.727,1574.1 442.227,1575.6 441.5,1577C 456.163,1577.5 470.83,1577.67 485.5,1577.5C 485.5,1580.17 485.5,1582.83 485.5,1585.5C 470.496,1585.33 455.496,1585.5 440.5,1586C 439.833,1587.33 439.167,1588.67 438.5,1590C 449.828,1590.5 461.162,1590.67 472.5,1590.5C 472.5,1605.5 472.5,1620.5 472.5,1635.5C 477.5,1635.5 482.5,1635.5 487.5,1635.5C 487.5,1638.17 487.5,1640.83 487.5,1643.5C 455.167,1643.5 422.833,1643.5 390.5,1643.5C 390.5,1640.83 390.5,1638.17 390.5,1635.5C 395.167,1635.5 399.833,1635.5 404.5,1635.5C 404.5,1620.5 404.5,1605.5 404.5,1590.5C 413.167,1590.5 421.833,1590.5 430.5,1590.5C 430.5,1588.83 430.5,1587.17 430.5,1585.5C 417.5,1585.5 404.5,1585.5 391.5,1585.5C 391.5,1582.83 391.5,1580.17 391.5,1577.5C 405.167,1577.5 418.833,1577.5 432.5,1577.5C 432.5,1576.17 432.5,1574.83 432.5,1573.5C 420.5,1573.5 408.5,1573.5 396.5,1573.5C 396.5,1565.5 396.5,1557.5 396.5,1549.5 Z M 405.5,1558.5 C 410.64,1557.51 415.974,1557.18 421.5,1557.5C 421.5,1560.17 421.5,1562.83 421.5,1565.5C 416.125,1565.83 410.792,1565.49 405.5,1564.5C 406.754,1562.36 406.754,1560.36 405.5,1558.5 Z M 430.5,1557.5 C 436.167,1557.5 441.833,1557.5 447.5,1557.5C 447.5,1560.17 447.5,1562.83 447.5,1565.5C 441.833,1565.5 436.167,1565.5 430.5,1565.5C 430.5,1562.83 430.5,1560.17 430.5,1557.5 Z M 455.5,1557.5 C 461.167,1557.5 466.833,1557.5 472.5,1557.5C 472.5,1560.17 472.5,1562.83 472.5,1565.5C 466.833,1565.5 461.167,1565.5 455.5,1565.5C 455.5,1562.83 455.5,1560.17 455.5,1557.5 Z M 413.5,1598.5 C 429.992,1597.5 446.658,1597.17 463.5,1597.5C 463.5,1598.83 463.5,1600.17 463.5,1601.5C 446.83,1601.67 430.163,1601.5 413.5,1601C 414.774,1600.02 414.774,1599.19 413.5,1598.5 Z M 413.5,1609.5 C 429.992,1608.5 446.658,1608.17 463.5,1608.5C 463.5,1609.83 463.5,1611.17 463.5,1612.5C 446.83,1612.67 430.163,1612.5 413.5,1612C 414.774,1611.02 414.774,1610.19 413.5,1609.5 Z M 414.5,1619.5 C 430.833,1619.5 447.167,1619.5 463.5,1619.5C 463.5,1621.17 463.5,1622.83 463.5,1624.5C 447.163,1624.67 430.83,1624.5 414.5,1624C 414.034,1622.7 414.034,1621.2 414.5,1619.5 Z M 413.5,1631.5 C 429.992,1630.5 446.658,1630.17 463.5,1630.5C 463.5,1632.17 463.5,1633.83 463.5,1635.5C 447.167,1635.5 430.833,1635.5 414.5,1635.5C 414.768,1633.9 414.434,1632.57 413.5,1631.5 Z"/></g>
<g><path style="opacity:0.829" fill="#000000" d="M 693.5,1551.5 C 709.422,1552.48 725.422,1552.82 741.5,1552.5C 741.5,1555.5 741.5,1558.5 741.5,1561.5C 728.167,1561.5 714.833,1561.5 701.5,1561.5C 701.5,1567.17 701.5,1572.83 701.5,1578.5C 713.838,1578.33 726.171,1578.5 738.5,1579C 740.286,1579.2 741.619,1580.03 742.5,1581.5C 740.6,1596.71 735.267,1610.54 726.5,1623C 731.316,1629.75 737.65,1634.58 745.5,1637.5C 746.521,1638 746.688,1638.67 746,1639.5C 743.622,1641.71 741.455,1644.04 739.5,1646.5C 732.27,1642.77 726.103,1637.77 721,1631.5C 715.213,1637.46 708.713,1642.46 701.5,1646.5C 699.545,1644.04 697.378,1641.71 695,1639.5C 694.194,1642.45 692.861,1645.11 691,1647.5C 688.591,1645.38 686.091,1643.38 683.5,1641.5C 688.951,1628.87 691.951,1615.7 692.5,1602C 691.342,1585.91 691.176,1569.74 692,1553.5C 692.717,1552.96 693.217,1552.29 693.5,1551.5 Z M 710.5,1587.5 C 717.532,1587.17 724.532,1587.5 731.5,1588.5C 728.883,1597.52 725.383,1606.18 721,1614.5C 716.019,1606.05 712.519,1597.05 710.5,1587.5 Z M 696.5,1637.5 C 700.384,1622.09 702.217,1606.43 702,1590.5C 704.184,1602.36 708.684,1613.19 715.5,1623C 710.408,1629.61 704.075,1634.44 696.5,1637.5 Z"/></g>
<g><path style="opacity:0.833" fill="#000000" d="M 282.5,1552.5 C 293.187,1552.17 303.854,1552.5 314.5,1553.5C 309.833,1562.83 305.167,1572.17 300.5,1581.5C 302.695,1582.77 304.861,1582.77 307,1581.5C 308.667,1582.17 310.333,1582.83 312,1583.5C 311.434,1596.66 308.934,1609.5 304.5,1622C 307.006,1625.6 310.339,1628.27 314.5,1630C 319.375,1631.8 324.375,1633.14 329.5,1634C 346.497,1634.5 363.497,1634.67 380.5,1634.5C 379.833,1637.5 379.167,1640.5 378.5,1643.5C 362.163,1643.67 345.83,1643.5 329.5,1643C 320.714,1641.74 312.381,1639.07 304.5,1635C 303,1633.5 301.5,1632 300,1630.5C 296.581,1635.92 292.415,1640.76 287.5,1645C 283.997,1644.71 281.331,1642.87 279.5,1639.5C 281.522,1636.64 284.022,1634.31 287,1632.5C 289.351,1629.8 291.184,1626.8 292.5,1623.5C 288.694,1616.88 285.694,1609.88 283.5,1602.5C 285.647,1600.34 288.314,1599.34 291.5,1599.5C 292.756,1604.69 294.59,1609.69 297,1614.5C 299.56,1607.09 301.727,1599.59 303.5,1592C 297.472,1591.83 291.472,1591.33 285.5,1590.5C 290.627,1581.08 295.627,1571.58 300.5,1562C 294.509,1561.5 288.509,1561.33 282.5,1561.5C 282.5,1558.5 282.5,1555.5 282.5,1552.5 Z"/></g>
<g><path style="opacity:0.824" fill="#000000" d="M 575.5,1554.5 C 594.5,1554.5 613.5,1554.5 632.5,1554.5C 632.016,1577.18 631.183,1599.85 630,1622.5C 629.526,1643.13 619.36,1650.46 599.5,1644.5C 598.805,1641.72 597.805,1639.05 596.5,1636.5C 602.739,1636.47 609.072,1636.31 615.5,1636C 616,1635.5 616.5,1635 617,1634.5C 619.642,1625.85 620.809,1617.18 620.5,1608.5C 621.143,1603.3 621.81,1598.13 622.5,1593C 622.332,1583.6 622.332,1574.1 622.5,1564.5C 616.167,1564.5 609.833,1564.5 603.5,1564.5C 603.264,1584.32 600.097,1603.66 594,1622.5C 590.29,1632.38 584.124,1640.38 575.5,1646.5C 572.833,1644.5 570.5,1642.17 568.5,1639.5C 580.933,1628.31 588.433,1614.31 591,1597.5C 592.243,1586.53 593.077,1575.53 593.5,1564.5C 587.5,1564.5 581.5,1564.5 575.5,1564.5C 575.5,1561.17 575.5,1557.83 575.5,1554.5 Z"/></g>
<g><path style="opacity:0.869" fill="#000000" d="M 516.5,1559.5 C 520.833,1559.5 525.167,1559.5 529.5,1559.5C 516.218,1591.53 516.218,1623.87 529.5,1656.5C 525.167,1657.83 520.833,1657.83 516.5,1656.5C 497.939,1624.18 497.939,1591.85 516.5,1559.5 Z"/></g>
<g><path style="opacity:0.877" fill="#000000" d="M 751.5,1559.5 C 755.884,1559.17 760.217,1559.51 764.5,1560.5C 781.197,1591.54 781.697,1622.87 766,1654.5C 763.891,1656.62 761.225,1657.62 758,1657.5C 755.833,1657.17 753.667,1656.83 751.5,1656.5C 764.805,1624.16 764.805,1591.83 751.5,1559.5 Z"/></g>
<g><path style="opacity:0.791" fill="#000000" d="M 120.5,1561.5 C 121.978,1561.24 123.311,1561.57 124.5,1562.5C 127.327,1567.48 128.994,1572.82 129.5,1578.5C 128.033,1579.81 129.7,1579.81 134.5,1578.5C 136.476,1573.26 138.143,1567.93 139.5,1562.5C 141.718,1561.94 144.051,1561.94 146.5,1562.5C 145.778,1566.51 144.945,1570.51 144,1574.5C 143.727,1576.33 142.893,1577.83 141.5,1579C 144.482,1579.5 147.482,1579.66 150.5,1579.5C 150.5,1582.17 150.5,1584.83 150.5,1587.5C 144.824,1587.33 139.157,1587.5 133.5,1588C 134.833,1590.67 136.167,1593.33 137.5,1596C 137.167,1596.33 136.833,1596.67 136.5,1597C 140.821,1597.5 145.154,1597.67 149.5,1597.5C 149.5,1600.17 149.5,1602.83 149.5,1605.5C 141.826,1605.33 134.159,1605.5 126.5,1606C 127.46,1609.73 127.793,1613.56 127.5,1617.5C 134.755,1617.81 141.921,1617.48 149,1616.5C 149.498,1619.48 149.665,1622.48 149.5,1625.5C 140.06,1625.95 130.726,1625.45 121.5,1624C 120.107,1622.83 119.273,1621.33 119,1619.5C 118.501,1614.85 118.334,1610.18 118.5,1605.5C 117.167,1605.5 115.833,1605.5 114.5,1605.5C 114.5,1602.83 114.5,1600.17 114.5,1597.5C 119.214,1597.83 123.88,1597.49 128.5,1596.5C 127.443,1593.81 126.11,1591.31 124.5,1589C 124.833,1588.67 125.167,1588.33 125.5,1588C 121.514,1587.5 117.514,1587.33 113.5,1587.5C 113.5,1584.83 113.5,1582.17 113.5,1579.5C 116.5,1579.5 119.5,1579.5 122.5,1579.5C 121.435,1573.64 119.768,1567.97 117.5,1562.5C 118.791,1562.74 119.791,1562.4 120.5,1561.5 Z"/></g>
<g><path style="opacity:0.8" fill="#000000" d="M 201.5,1577.5 C 204.833,1577.83 208.167,1578.17 211.5,1578.5C 209.533,1591.83 206.867,1605 203.5,1618C 207.416,1617.46 211.416,1616.96 215.5,1616.5C 215.5,1619.5 215.5,1622.5 215.5,1625.5C 201.789,1628.96 188.123,1632.63 174.5,1636.5C 172.443,1633.14 171.777,1629.64 172.5,1626C 179.536,1624.49 186.536,1622.82 193.5,1621C 194.428,1620.61 195.095,1619.95 195.5,1619C 198.2,1605.27 200.2,1591.43 201.5,1577.5 Z"/></g>
<g><path style="opacity:0.781" fill="#000000" d="M 181.5,1578.5 C 182.833,1578.5 184.167,1578.5 185.5,1578.5C 188.077,1592.05 189.744,1605.72 190.5,1619.5C 187.5,1619.5 184.5,1619.5 181.5,1619.5C 180.604,1606.12 179.27,1592.79 177.5,1579.5C 179.099,1579.77 180.432,1579.43 181.5,1578.5 Z"/></g>
<g><path style="opacity:0.743" fill="#000000" d="M 83.5,1614.5 C 84.7498,1614.58 85.5831,1615.24 86,1616.5C 87.7248,1624.07 88.5581,1631.74 88.5,1639.5C 85.8333,1639.83 83.1667,1640.17 80.5,1640.5C 80.0806,1632.15 79.414,1623.81 78.5,1615.5C 80.4147,1615.78 82.0813,1615.45 83.5,1614.5 Z"/></g>
<g><path style="opacity:0.765" fill="#000000" d="M 67.5,1615.5 C 69.861,1615.67 72.1944,1616.01 74.5,1616.5C 74.423,1620.79 73.7564,1624.96 72.5,1629C 72.8333,1629.33 73.1667,1629.67 73.5,1630C 72.1062,1634.74 70.9396,1639.58 70,1644.5C 67.5567,1643.41 65.0567,1642.41 62.5,1641.5C 62.1667,1640.83 61.8333,1640.17 61.5,1639.5C 64.3514,1631.74 66.3514,1623.74 67.5,1615.5 Z"/></g>
<g><path style="opacity:0.792" fill="#000000" d="M 110.5,1805.5 C 111.675,1805.28 112.675,1805.61 113.5,1806.5C 115.293,1809.25 116.959,1812.08 118.5,1815C 131.829,1815.5 145.163,1815.67 158.5,1815.5C 158.5,1823.17 158.5,1830.83 158.5,1838.5C 155.167,1838.5 151.833,1838.5 148.5,1838.5C 148.5,1834.17 148.5,1829.83 148.5,1825.5C 124.167,1825.5 99.8333,1825.5 75.5,1825.5C 75.5,1829.83 75.5,1834.17 75.5,1838.5C 72.5,1838.5 69.5,1838.5 66.5,1838.5C 66.5,1830.83 66.5,1823.17 66.5,1815.5C 80.1707,1815.67 93.8374,1815.5 107.5,1815C 105.798,1812.76 104.798,1810.26 104.5,1807.5C 106.786,1807.41 108.786,1806.74 110.5,1805.5 Z"/></g>
<g><path style="opacity:0.826" fill="#000000" d="M 523.5,1805.5 C 526.167,1805.5 528.833,1805.5 531.5,1805.5C 531.5,1808.5 531.5,1811.5 531.5,1814.5C 537.833,1814.5 544.167,1814.5 550.5,1814.5C 550.5,1816.83 550.5,1819.17 550.5,1821.5C 544.167,1821.5 537.833,1821.5 531.5,1821.5C 531.5,1823.17 531.5,1824.83 531.5,1826.5C 539.167,1826.5 546.833,1826.5 554.5,1826.5C 554.5,1829.17 554.5,1831.83 554.5,1834.5C 546.833,1834.5 539.167,1834.5 531.5,1834.5C 531.5,1835.5 531.5,1836.5 531.5,1837.5C 538.167,1837.5 544.833,1837.5 551.5,1837.5C 551.793,1843.89 551.46,1850.23 550.5,1856.5C 551.833,1859.17 553.167,1861.83 554.5,1864.5C 568.484,1865.5 582.484,1865.83 596.5,1865.5C 596.5,1868.17 596.5,1870.83 596.5,1873.5C 593.15,1873.33 589.817,1873.5 586.5,1874C 587.665,1875.08 588.998,1875.92 590.5,1876.5C 591.521,1877 591.688,1877.67 591,1878.5C 585.207,1882.65 579.041,1886.15 572.5,1889C 580.519,1893.06 588.853,1896.23 597.5,1898.5C 595.914,1901.34 594.08,1904.01 592,1906.5C 577.92,1902.96 565.587,1896.3 555,1886.5C 552.333,1882.5 549.667,1878.5 547,1874.5C 541.75,1878.21 536.25,1881.54 530.5,1884.5C 529.167,1888.17 529.167,1891.83 530.5,1895.5C 538.372,1893.2 546.372,1891.53 554.5,1890.5C 554.5,1893.17 554.5,1895.83 554.5,1898.5C 542.639,1900.72 530.973,1903.72 519.5,1907.5C 517.914,1905.33 516.58,1903 515.5,1900.5C 519.519,1897.46 521.019,1893.46 520,1888.5C 514.217,1890.24 508.383,1891.91 502.5,1893.5C 499.98,1891.32 498.313,1888.66 497.5,1885.5C 510.095,1883.58 522.095,1879.75 533.5,1874C 521.838,1873.5 510.171,1873.33 498.5,1873.5C 498.5,1870.83 498.5,1868.17 498.5,1865.5C 513.837,1865.67 529.17,1865.5 544.5,1865C 543.13,1863.56 542.13,1861.89 541.5,1860C 539.899,1859.73 538.399,1859.23 537,1858.5C 536.443,1856.39 535.609,1854.39 534.5,1852.5C 537.002,1852.38 539.668,1852.21 542.5,1852C 543.435,1849.62 543.768,1847.12 543.5,1844.5C 539.5,1844.5 535.5,1844.5 531.5,1844.5C 531.5,1850.5 531.5,1856.5 531.5,1862.5C 528.5,1862.5 525.5,1862.5 522.5,1862.5C 522.5,1856.5 522.5,1850.5 522.5,1844.5C 518.625,1844.08 514.958,1844.58 511.5,1846C 512.467,1850.4 512.8,1854.9 512.5,1859.5C 509.5,1859.5 506.5,1859.5 503.5,1859.5C 503.5,1852.17 503.5,1844.83 503.5,1837.5C 509.833,1837.5 516.167,1837.5 522.5,1837.5C 522.5,1836.5 522.5,1835.5 522.5,1834.5C 514.5,1834.5 506.5,1834.5 498.5,1834.5C 498.5,1831.83 498.5,1829.17 498.5,1826.5C 500.199,1826.66 501.866,1826.49 503.5,1826C 502.09,1825.63 501.09,1824.8 500.5,1823.5C 503.582,1817.72 506.749,1812.05 510,1806.5C 516.306,1806.44 517.806,1808.94 514.5,1814C 517.146,1814.5 519.813,1814.66 522.5,1814.5C 522.264,1811.39 522.597,1808.39 523.5,1805.5 Z M 510.5,1821.5 C 514.5,1821.5 518.5,1821.5 522.5,1821.5C 522.286,1823.14 522.62,1824.64 523.5,1826C 518.167,1826.67 512.833,1826.67 507.5,1826C 509.141,1824.87 510.141,1823.37 510.5,1821.5 Z M 556.5,1874.5 C 564.99,1873.34 573.657,1873.18 582.5,1874C 577.229,1877.55 571.729,1880.72 566,1883.5C 562.318,1880.98 559.152,1877.98 556.5,1874.5 Z"/></g>
<g><path style="opacity:0.798" fill="#000000" d="M 195.5,1806.5 C 198.556,1807.3 201.556,1808.3 204.5,1809.5C 203.926,1811.06 203.26,1812.56 202.5,1814C 211.827,1814.5 221.161,1814.67 230.5,1814.5C 229.405,1806.7 232.572,1804.37 240,1807.5C 240.497,1809.81 240.663,1812.14 240.5,1814.5C 250.506,1814.33 260.506,1814.5 270.5,1815C 271.833,1817.33 271.833,1819.67 270.5,1822C 260.167,1822.33 249.833,1822.67 239.5,1823C 240.337,1824.01 240.67,1825.18 240.5,1826.5C 249.167,1826.5 257.833,1826.5 266.5,1826.5C 266.5,1836.83 266.5,1847.17 266.5,1857.5C 264.473,1857.34 262.473,1857.5 260.5,1858C 265.53,1861.35 269.363,1865.52 272,1870.5C 268.17,1874.47 264.67,1874.31 261.5,1870C 259.866,1869.51 258.199,1869.34 256.5,1869.5C 256.5,1871.17 256.5,1872.83 256.5,1874.5C 261.5,1874.5 266.5,1874.5 271.5,1874.5C 271.5,1877.5 271.5,1880.5 271.5,1883.5C 266.5,1883.5 261.5,1883.5 256.5,1883.5C 256.666,1889.84 256.5,1896.18 256,1902.5C 254.661,1905.09 252.494,1906.59 249.5,1907C 244.136,1907.83 238.802,1907.66 233.5,1906.5C 232.518,1903.9 231.851,1901.24 231.5,1898.5C 236.833,1898.5 242.167,1898.5 247.5,1898.5C 247.5,1893.5 247.5,1888.5 247.5,1883.5C 238.161,1883.33 228.827,1883.5 219.5,1884C 223.861,1887.41 227.528,1891.41 230.5,1896C 228.692,1898.17 226.525,1900 224,1901.5C 220.022,1896.19 215.355,1891.52 210,1887.5C 209.552,1885.59 210.385,1884.42 212.5,1884C 207.511,1883.5 202.511,1883.33 197.5,1883.5C 197.5,1880.5 197.5,1877.5 197.5,1874.5C 214.167,1874.5 230.833,1874.5 247.5,1874.5C 247.5,1872.83 247.5,1871.17 247.5,1869.5C 231.859,1870.35 216.192,1871.02 200.5,1871.5C 200.296,1868.48 199.963,1865.48 199.5,1862.5C 209.833,1862.5 220.167,1862.5 230.5,1862.5C 230.5,1860.83 230.5,1859.17 230.5,1857.5C 222.167,1857.5 213.833,1857.5 205.5,1857.5C 205.5,1847.17 205.5,1836.83 205.5,1826.5C 213.833,1826.5 222.167,1826.5 230.5,1826.5C 230.5,1825.17 230.5,1823.83 230.5,1822.5C 220.5,1822.5 210.5,1822.5 200.5,1822.5C 200.649,1821.45 200.483,1820.45 200,1819.5C 198.527,1823.78 196.527,1827.78 194,1831.5C 193.667,1856.5 193.333,1881.5 193,1906.5C 189.943,1907.45 186.777,1907.78 183.5,1907.5C 183.667,1887.83 183.5,1868.16 183,1848.5C 180.445,1852.31 177.445,1855.65 174,1858.5C 171.56,1856.46 169.727,1853.96 168.5,1851C 179.904,1837.7 188.904,1822.87 195.5,1806.5 Z M 214.5,1834.5 C 219.833,1834.5 225.167,1834.5 230.5,1834.5C 230.5,1835.83 230.5,1837.17 230.5,1838.5C 225.167,1838.5 219.833,1838.5 214.5,1838.5C 214.5,1837.17 214.5,1835.83 214.5,1834.5 Z M 240.5,1834.5 C 245.833,1834.5 251.167,1834.5 256.5,1834.5C 256.5,1835.83 256.5,1837.17 256.5,1838.5C 250.824,1838.67 245.157,1838.5 239.5,1838C 240.337,1836.99 240.67,1835.82 240.5,1834.5 Z M 214.5,1845.5 C 219.833,1845.5 225.167,1845.5 230.5,1845.5C 230.5,1847.17 230.5,1848.83 230.5,1850.5C 225.167,1850.5 219.833,1850.5 214.5,1850.5C 214.5,1848.83 214.5,1847.17 214.5,1845.5 Z M 239.5,1846.5 C 244.975,1845.51 250.642,1845.18 256.5,1845.5C 256.5,1847.17 256.5,1848.83 256.5,1850.5C 251.167,1850.5 245.833,1850.5 240.5,1850.5C 240.768,1848.9 240.434,1847.57 239.5,1846.5 Z M 252.5,1861.5 C 248.107,1861.54 243.774,1861.71 239.5,1862C 240.833,1860.67 240.833,1859.33 239.5,1858C 244.716,1856.54 249.05,1857.71 252.5,1861.5 Z"/></g>
<g><path style="opacity:0.811" fill="#000000" d="M 454.5,1806.5 C 458.167,1806.5 461.833,1806.5 465.5,1806.5C 465.5,1818.5 465.5,1830.5 465.5,1842.5C 448.833,1842.5 432.167,1842.5 415.5,1842.5C 415.5,1847.83 415.5,1853.17 415.5,1858.5C 433.41,1858.17 451.243,1858.51 469,1859.5C 469.667,1875.17 469.667,1890.83 469,1906.5C 465.606,1907.46 462.106,1907.79 458.5,1907.5C 458.5,1894.5 458.5,1881.5 458.5,1868.5C 443.833,1868.5 429.167,1868.5 414.5,1868.5C 413.454,1883.59 407.787,1896.59 397.5,1907.5C 395.643,1905.15 393.643,1902.98 391.5,1901C 397.604,1892.03 401.771,1882.2 404,1871.5C 405.418,1850.2 405.918,1828.87 405.5,1807.5C 408.833,1807.5 412.167,1807.5 415.5,1807.5C 415.5,1815.83 415.5,1824.17 415.5,1832.5C 428.5,1832.5 441.5,1832.5 454.5,1832.5C 454.5,1823.83 454.5,1815.17 454.5,1806.5 Z"/></g>
<g><path style="opacity:0.833" fill="#000000" d="M 631.5,1806.5 C 634.789,1807.37 638.123,1808.04 641.5,1808.5C 638.852,1816.8 635.352,1824.8 631,1832.5C 630.5,1857.5 630.333,1882.5 630.5,1907.5C 627.167,1907.5 623.833,1907.5 620.5,1907.5C 620.667,1888.16 620.5,1868.83 620,1849.5C 617.37,1853.13 614.37,1856.47 611,1859.5C 609.285,1856.56 607.452,1853.73 605.5,1851C 617.635,1838.24 626.301,1823.4 631.5,1806.5 Z"/></g>
<g><path style="opacity:0.816" fill="#000000" d="M 581.5,1807.5 C 584.5,1807.5 587.5,1807.5 590.5,1807.5C 590.819,1824.55 590.486,1841.55 589.5,1858.5C 588.335,1859.58 587.002,1860.42 585.5,1861C 580.545,1862.22 575.545,1862.55 570.5,1862C 569.039,1859.58 567.706,1857.08 566.5,1854.5C 571.456,1853.51 576.456,1853.17 581.5,1853.5C 581.5,1838.17 581.5,1822.83 581.5,1807.5 Z"/></g>
<g><path style="opacity:0.835" fill="#000000" d="M 658.5,1807.5 C 661.461,1808.32 664.461,1808.99 667.5,1809.5C 667.017,1814.97 665.017,1819.8 661.5,1824C 676.496,1824.5 691.496,1824.67 706.5,1824.5C 706.5,1827.83 706.5,1831.17 706.5,1834.5C 695.5,1834.5 684.5,1834.5 673.5,1834.5C 673.5,1838.83 673.5,1843.17 673.5,1847.5C 683.833,1847.5 694.167,1847.5 704.5,1847.5C 704.5,1850.5 704.5,1853.5 704.5,1856.5C 694.167,1856.5 683.833,1856.5 673.5,1856.5C 673.5,1861.5 673.5,1866.5 673.5,1871.5C 684.167,1871.5 694.833,1871.5 705.5,1871.5C 705.5,1874.5 705.5,1877.5 705.5,1880.5C 694.833,1880.5 684.167,1880.5 673.5,1880.5C 673.5,1889.5 673.5,1898.5 673.5,1907.5C 670.167,1907.5 666.833,1907.5 663.5,1907.5C 663.5,1883.17 663.5,1858.83 663.5,1834.5C 661.076,1834.19 658.743,1834.53 656.5,1835.5C 652.297,1843.25 647.131,1850.25 641,1856.5C 638.812,1854.31 636.645,1852.14 634.5,1850C 644.938,1837.3 652.938,1823.13 658.5,1807.5 Z"/></g>
<g><path style="opacity:0.824" fill="#000000" d="M 365.5,1808.5 C 369.583,1809.12 372.75,1810.78 375,1813.5C 367.058,1822.45 358.225,1830.28 348.5,1837C 347.241,1837.98 345.908,1838.32 344.5,1838C 342.046,1836.26 340.546,1834.09 340,1831.5C 350.26,1825.74 358.76,1818.07 365.5,1808.5 Z"/></g>
<g><path style="opacity:0.8" fill="#000000" d="M 286.5,1810.5 C 303.5,1810.5 320.5,1810.5 337.5,1810.5C 337.5,1820.83 337.5,1831.17 337.5,1841.5C 329.826,1841.33 322.159,1841.5 314.5,1842C 315.293,1843.09 315.96,1844.25 316.5,1845.5C 324.807,1846.5 333.14,1846.83 341.5,1846.5C 341.5,1849.17 341.5,1851.83 341.5,1854.5C 321.5,1854.5 301.5,1854.5 281.5,1854.5C 281.5,1851.83 281.5,1849.17 281.5,1846.5C 289.84,1846.67 298.173,1846.5 306.5,1846C 305.707,1844.91 305.04,1843.75 304.5,1842.5C 298.613,1841.81 292.78,1841.15 287,1840.5C 286.5,1830.51 286.334,1820.51 286.5,1810.5 Z M 296.5,1817.5 C 306.833,1817.5 317.167,1817.5 327.5,1817.5C 327.5,1818.83 327.5,1820.17 327.5,1821.5C 317.167,1821.5 306.833,1821.5 296.5,1821.5C 296.5,1820.17 296.5,1818.83 296.5,1817.5 Z M 296.5,1829.5 C 306.833,1829.5 317.167,1829.5 327.5,1829.5C 327.5,1830.83 327.5,1832.17 327.5,1833.5C 317.167,1833.5 306.833,1833.5 296.5,1833.5C 296.5,1832.17 296.5,1830.83 296.5,1829.5 Z"/></g>
<g><path style="opacity:0.729" fill="#000000" d="M 560.5,1811.5 C 563.833,1811.5 567.167,1811.5 570.5,1811.5C 570.5,1823.83 570.5,1836.17 570.5,1848.5C 567.167,1848.5 563.833,1848.5 560.5,1848.5C 560.5,1836.17 560.5,1823.83 560.5,1811.5 Z"/></g>
<g><path style="opacity:0.838" fill="#000000" d="M 765.5,1814.5 C 769.833,1814.5 774.167,1814.5 778.5,1814.5C 777.668,1818.83 776.335,1823 774.5,1827C 774.833,1827.33 775.167,1827.67 775.5,1828C 766.264,1853.54 757.931,1879.37 750.5,1905.5C 745.833,1905.5 741.167,1905.5 736.5,1905.5C 746.321,1875.22 755.988,1844.88 765.5,1814.5 Z"/></g>
<g><path style="opacity:0.75" fill="#000000" d="M 79.5,1832.5 C 101.169,1832.33 122.836,1832.5 144.5,1833C 145.444,1835.72 145.777,1838.55 145.5,1841.5C 123.5,1841.5 101.5,1841.5 79.5,1841.5C 79.5,1838.5 79.5,1835.5 79.5,1832.5 Z"/></g>
<g><path style="opacity:0.827" fill="#000000" d="M 369.5,1837.5 C 372.354,1837.92 375.021,1838.92 377.5,1840.5C 378.521,1841 378.688,1841.67 378,1842.5C 368.821,1853.51 357.988,1862.51 345.5,1869.5C 343.5,1867.17 341.5,1864.83 339.5,1862.5C 346.303,1858.2 352.97,1853.7 359.5,1849C 363.416,1845.59 366.749,1841.76 369.5,1837.5 Z"/></g>
<g><path style="opacity:0.992" fill="#d8d8d9" d="M 2999.5,1840.5 C 2995.5,1841.5 2991.5,1842.5 2987.5,1843.5C 2945.18,1854.65 2919.35,1881.65 2910,1924.5C 2905.85,1968.69 2922.35,2002.52 2959.5,2026C 2968.92,2031.2 2978.92,2034.7 2989.5,2036.5C 2991.83,2037.17 2994.17,2037.83 2996.5,2038.5C 2345.17,2038.67 1693.83,2038.5 1042.5,2038C 1012.61,2033.77 989.114,2019.27 972,1994.5C 947.683,1952.04 950.683,1911.71 981,1873.5C 999.153,1853.88 1021.65,1843.05 1048.5,1841C 1698.83,1840.5 2349.17,1840.33 2999.5,1840.5 Z"/></g>
<g><path style="opacity:0.993" fill="#4fbafe" d="M 3002.5,1840.5 C 3270.5,1840.33 3538.5,1840.5 3806.5,1841C 3854.71,1847.18 3885.21,1873.68 3898,1920.5C 3903.83,1972.01 3883.67,2009.18 3837.5,2032C 3829.36,2034.79 3821.02,2036.79 3812.5,2038C 3542.5,2038.5 3272.5,2038.67 3002.5,2038.5C 3001.74,2037.73 3000.74,2037.23 2999.5,2037C 2996.18,2036.5 2992.85,2036.33 2989.5,2036.5C 2978.92,2034.7 2968.92,2031.2 2959.5,2026C 2922.35,2002.52 2905.85,1968.69 2910,1924.5C 2919.35,1881.65 2945.18,1854.65 2987.5,1843.5C 2991.36,1843.54 2995.2,1843.2 2999,1842.5C 3000.68,1842.39 3001.85,1841.73 3002.5,1840.5 Z"/></g>
<g><path style="opacity:1" fill="#84c5f1" d="M 2999.5,1840.5 C 3000.5,1840.5 3001.5,1840.5 3002.5,1840.5C 3001.85,1841.73 3000.68,1842.39 2999,1842.5C 2995.2,1843.2 2991.36,1843.54 2987.5,1843.5C 2991.5,1842.5 2995.5,1841.5 2999.5,1840.5 Z"/></g>
<g><path style="opacity:0.853" fill="#000000" d="M 81.5,1848.5 C 102.167,1848.5 122.833,1848.5 143.5,1848.5C 143.5,1862.17 143.5,1875.83 143.5,1889.5C 122.833,1889.5 102.167,1889.5 81.5,1889.5C 81.5,1875.83 81.5,1862.17 81.5,1848.5 Z M 90.5,1856.5 C 104.657,1855.5 118.99,1855.17 133.5,1855.5C 133.5,1858.5 133.5,1861.5 133.5,1864.5C 119.163,1864.67 104.829,1864.5 90.5,1864C 91.8143,1861.4 91.8143,1858.9 90.5,1856.5 Z M 90.5,1873.5 C 104.657,1872.5 118.99,1872.17 133.5,1872.5C 133.5,1875.5 133.5,1878.5 133.5,1881.5C 119.163,1881.67 104.829,1881.5 90.5,1881C 91.8143,1878.4 91.8143,1875.9 90.5,1873.5 Z"/></g>
<g><path style="opacity:0.842" fill="#000000" d="M 287.5,1858.5 C 303.5,1858.5 319.5,1858.5 335.5,1858.5C 335.5,1865.83 335.5,1873.17 335.5,1880.5C 329.167,1880.5 322.833,1880.5 316.5,1880.5C 316.666,1887.51 316.5,1894.51 316,1901.5C 313.647,1905.84 309.98,1907.51 305,1906.5C 298.915,1907.35 296.082,1904.68 296.5,1898.5C 299.833,1898.5 303.167,1898.5 306.5,1898.5C 306.192,1892.57 306.525,1886.74 307.5,1881C 300.842,1880.5 294.175,1880.33 287.5,1880.5C 287.5,1873.17 287.5,1865.83 287.5,1858.5 Z M 297.5,1865.5 C 307.167,1865.5 316.833,1865.5 326.5,1865.5C 326.5,1868.17 326.5,1870.83 326.5,1873.5C 316.828,1873.67 307.161,1873.5 297.5,1873C 297.419,1870.5 297.419,1868 297.5,1865.5 Z"/></g>
<g><path style="opacity:0.804" fill="#000000" d="M 371.5,1868.5 C 380.422,1868.52 382.256,1871.85 377,1878.5C 367.451,1890.05 356.118,1899.39 343,1906.5C 340.073,1904.67 337.573,1902.33 335.5,1899.5C 333.588,1901.16 331.588,1901.49 329.5,1900.5C 325.994,1895.02 322.994,1889.36 320.5,1883.5C 322.91,1882.94 325.243,1882.44 327.5,1882C 332.136,1886.77 335.636,1892.27 338,1898.5C 345.44,1894.06 352.606,1889.22 359.5,1884C 364.122,1879.22 368.122,1874.06 371.5,1868.5 Z"/></g>
<g><path style="opacity:0.791" fill="#000000" d="M 291.5,1881.5 C 294.5,1882.17 297.5,1882.83 300.5,1883.5C 297.851,1890.79 293.685,1897.12 288,1902.5C 285.361,1901.43 283.195,1899.77 281.5,1897.5C 285.856,1892.78 289.19,1887.45 291.5,1881.5 Z"/></g>
<g><path style="opacity:0.83" fill="#000000" d="M 65.5,1894.5 C 97.0933,1895.49 128.76,1895.83 160.5,1895.5C 160.5,1898.5 160.5,1901.5 160.5,1904.5C 128.5,1904.5 96.5,1904.5 64.5,1904.5C 64.2529,1901.06 64.5863,1897.73 65.5,1894.5 Z"/></g>
<g><path style="opacity:0.823" fill="#000000" d="M 78.5,1955.5 C 81.5,1956.17 84.5,1956.83 87.5,1957.5C 87.528,1959.58 86.8613,1961.42 85.5,1963C 94.4938,1963.5 103.494,1963.67 112.5,1963.5C 112.5,1966.17 112.5,1968.83 112.5,1971.5C 106.158,1971.33 99.8246,1971.5 93.5,1972C 95.8997,1974.4 98.2331,1976.73 100.5,1979C 99.8464,1980.99 98.513,1982.32 96.5,1983C 100.486,1983.5 104.486,1983.67 108.5,1983.5C 108.5,1993.5 108.5,2003.5 108.5,2013.5C 98.1667,2013.5 87.8333,2013.5 77.5,2013.5C 77.5,2028.17 77.5,2042.83 77.5,2057.5C 74.5,2057.5 71.5,2057.5 68.5,2057.5C 68.6666,2033.16 68.5,2008.83 68,1984.5C 66.8088,1981.47 64.6421,1979.8 61.5,1979.5C 61.5,1978.5 61.5,1977.5 61.5,1976.5C 65.302,1975.22 68.4687,1972.89 71,1969.5C 74.2885,1965.26 76.7885,1960.59 78.5,1955.5 Z M 79.5,1971.5 C 81.8568,1971.34 84.1902,1971.5 86.5,1972C 84.842,1972.73 84.342,1973.89 85,1975.5C 87.5,1978 90,1980.5 92.5,1983C 85.1667,1983.67 77.8333,1983.67 70.5,1983C 74.5025,1979.84 77.5025,1976.01 79.5,1971.5 Z M 77.5,1990.5 C 84.8409,1990.33 92.1742,1990.5 99.5,1991C 98.6634,1992.01 98.33,1993.18 98.5,1994.5C 91.5,1994.5 84.5,1994.5 77.5,1994.5C 77.5,1993.17 77.5,1991.83 77.5,1990.5 Z M 77.5,2001.5 C 84.8409,2001.33 92.1742,2001.5 99.5,2002C 98.1667,2003.33 98.1667,2004.67 99.5,2006C 92.1742,2006.5 84.8409,2006.67 77.5,2006.5C 77.5,2004.83 77.5,2003.17 77.5,2001.5 Z"/></g>
<g><path style="opacity:0.813" fill="#000000" d="M 116.5,1983.5 C 113.687,1981.92 111.021,1980.09 108.5,1978C 110.978,1975.52 113.478,1973.02 116,1970.5C 118.76,1965.31 121.76,1960.31 125,1955.5C 127.749,1955.97 130.249,1956.97 132.5,1958.5C 131.833,1959.83 131.167,1961.17 130.5,1962.5C 141.146,1963.5 151.813,1963.83 162.5,1963.5C 162.5,1966.17 162.5,1968.83 162.5,1971.5C 155.159,1971.33 147.826,1971.5 140.5,1972C 143.645,1973.98 146.312,1976.48 148.5,1979.5C 147.636,1981.2 146.303,1982.36 144.5,1983C 148.486,1983.5 152.486,1983.67 156.5,1983.5C 156.667,2006.17 156.5,2028.84 156,2051.5C 154.723,2053.73 152.889,2055.4 150.5,2056.5C 144.872,2057.5 139.206,2057.83 133.5,2057.5C 133.452,2054.69 132.785,2052.02 131.5,2049.5C 121.188,2048.5 110.855,2048.17 100.5,2048.5C 100.5,2049.5 100.5,2050.5 100.5,2051.5C 97.5,2051.5 94.5,2051.5 91.5,2051.5C 91.5,2039.83 91.5,2028.17 91.5,2016.5C 105.5,2016.5 119.5,2016.5 133.5,2016.5C 133.5,2027.17 133.5,2037.83 133.5,2048.5C 138.322,2049.07 142.822,2048.4 147,2046.5C 147.5,2035.51 147.667,2024.51 147.5,2013.5C 136.833,2013.5 126.167,2013.5 115.5,2013.5C 115.193,2003.42 115.526,1993.42 116.5,1983.5 Z M 116.5,1983.5 C 119.825,1980.17 122.825,1976.5 125.5,1972.5C 128.446,1971.35 131.446,1971.18 134.5,1972C 132.82,1972.35 131.82,1973.35 131.5,1975C 134.279,1977.89 137.279,1980.56 140.5,1983C 132.507,1983.5 124.507,1983.67 116.5,1983.5 Z M 124.5,1990.5 C 132.167,1990.5 139.833,1990.5 147.5,1990.5C 147.5,1991.83 147.5,1993.17 147.5,1994.5C 139.833,1994.5 132.167,1994.5 124.5,1994.5C 124.5,1993.17 124.5,1991.83 124.5,1990.5 Z M 124.5,2001.5 C 132.167,2001.5 139.833,2001.5 147.5,2001.5C 147.5,2003.17 147.5,2004.83 147.5,2006.5C 139.833,2006.5 132.167,2006.5 124.5,2006.5C 124.5,2004.83 124.5,2003.17 124.5,2001.5 Z M 100.5,2023.5 C 108.5,2023.5 116.5,2023.5 124.5,2023.5C 124.5,2025.5 124.5,2027.5 124.5,2029.5C 116.5,2029.5 108.5,2029.5 100.5,2029.5C 100.5,2027.5 100.5,2025.5 100.5,2023.5 Z M 100.5,2035.5 C 108.5,2035.5 116.5,2035.5 124.5,2035.5C 124.5,2037.5 124.5,2039.5 124.5,2041.5C 116.5,2041.5 108.5,2041.5 100.5,2041.5C 100.5,2039.5 100.5,2037.5 100.5,2035.5 Z"/></g>
<g><path style="opacity:0.83" fill="#000000" d="M 191.5,1956.5 C 194.5,1956.5 197.5,1956.5 200.5,1956.5C 200.5,1960.17 200.5,1963.83 200.5,1967.5C 206.167,1967.5 211.833,1967.5 217.5,1967.5C 217.5,1970.5 217.5,1973.5 217.5,1976.5C 211.833,1976.5 206.167,1976.5 200.5,1976.5C 200.5,1979.5 200.5,1982.5 200.5,1985.5C 206.425,1985.81 212.259,1985.47 218,1984.5C 219.405,1987.62 219.905,1990.95 219.5,1994.5C 217.712,1994.21 216.045,1994.55 214.5,1995.5C 212.754,1999.33 210.754,2002.99 208.5,2006.5C 211.428,2007.48 214.428,2007.82 217.5,2007.5C 217.5,2010.5 217.5,2013.5 217.5,2016.5C 211.833,2016.5 206.167,2016.5 200.5,2016.5C 200.5,2019.83 200.5,2023.17 200.5,2026.5C 207.167,2026.5 213.833,2026.5 220.5,2026.5C 220.5,2029.17 220.5,2031.83 220.5,2034.5C 213.833,2034.5 207.167,2034.5 200.5,2034.5C 200.5,2042.17 200.5,2049.83 200.5,2057.5C 197.5,2057.5 194.5,2057.5 191.5,2057.5C 191.5,2049.83 191.5,2042.17 191.5,2034.5C 184.833,2034.5 178.167,2034.5 171.5,2034.5C 171.5,2031.83 171.5,2029.17 171.5,2026.5C 178.508,2026.67 185.508,2026.5 192.5,2026C 191.549,2022.94 191.216,2019.78 191.5,2016.5C 185.5,2016.5 179.5,2016.5 173.5,2016.5C 173.5,2013.5 173.5,2010.5 173.5,2007.5C 176.898,2007.82 180.232,2007.49 183.5,2006.5C 182.234,2002.8 180.568,1999.3 178.5,1996C 178.833,1995.67 179.167,1995.33 179.5,1995C 176.854,1994.5 174.187,1994.34 171.5,1994.5C 170.918,1990.68 171.752,1987.35 174,1984.5C 179.741,1985.47 185.575,1985.81 191.5,1985.5C 191.5,1982.5 191.5,1979.5 191.5,1976.5C 185.833,1976.5 180.167,1976.5 174.5,1976.5C 174.5,1973.5 174.5,1970.5 174.5,1967.5C 180.509,1967.67 186.509,1967.5 192.5,1967C 191.544,1963.61 191.211,1960.11 191.5,1956.5 Z M 187.5,1995.5 C 193.319,1994.35 199.319,1994.18 205.5,1995C 203.388,1998.72 201.388,2002.56 199.5,2006.5C 196.894,2007.65 194.227,2007.82 191.5,2007C 191.957,2006.59 192.291,2006.09 192.5,2005.5C 191.198,2001.89 189.531,1998.55 187.5,1995.5 Z"/></g>
<g><path style="opacity:0.825" fill="#000000" d="M 222.5,1960.5 C 237.167,1960.5 251.833,1960.5 266.5,1960.5C 266.666,1969.51 266.5,1978.51 266,1987.5C 264.238,1990.27 261.738,1991.77 258.5,1992C 253.511,1992.5 248.511,1992.67 243.5,1992.5C 242.833,1989.5 242.167,1986.5 241.5,1983.5C 246.833,1983.5 252.167,1983.5 257.5,1983.5C 257.5,1979.17 257.5,1974.83 257.5,1970.5C 248.833,1970.5 240.167,1970.5 231.5,1970.5C 231.5,1979.5 231.5,1988.5 231.5,1997.5C 242.838,1997.33 254.172,1997.5 265.5,1998C 266.766,1998.31 267.933,1998.81 269,1999.5C 267.173,2012.33 262.673,2024.16 255.5,2035C 259.97,2040.99 265.636,2045.16 272.5,2047.5C 271.344,2051 269.344,2054 266.5,2056.5C 260.354,2053.1 255.021,2048.77 250.5,2043.5C 246.461,2048.54 241.794,2052.87 236.5,2056.5C 236,2056.83 235.5,2057.17 235,2057.5C 233.779,2056.73 232.779,2055.73 232,2054.5C 231.517,2055.45 231.351,2056.45 231.5,2057.5C 228.5,2057.5 225.5,2057.5 222.5,2057.5C 222.5,2025.17 222.5,1992.83 222.5,1960.5 Z M 240.5,2006.5 C 246.167,2006.5 251.833,2006.5 257.5,2006.5C 255.571,2013.69 253.071,2020.69 250,2027.5C 245.736,2020.97 242.569,2013.97 240.5,2006.5 Z M 231.5,2008.5 C 234.325,2017.98 238.658,2026.82 244.5,2035C 240.701,2039.8 236.534,2044.3 232,2048.5C 231.5,2035.17 231.333,2021.84 231.5,2008.5 Z"/></g>
<g><path style="opacity:0.881" fill="#000000" d="M 312.5,1969.5 C 327.55,1969.08 342.55,1969.58 357.5,1971C 374.766,1977.78 379.266,1989.62 371,2006.5C 366.259,2012.45 360.092,2015.62 352.5,2016C 344.507,2016.5 336.507,2016.67 328.5,2016.5C 328.5,2027.5 328.5,2038.5 328.5,2049.5C 323.167,2049.5 317.833,2049.5 312.5,2049.5C 312.5,2022.83 312.5,1996.17 312.5,1969.5 Z M 328.5,1982.5 C 336.507,1982.33 344.507,1982.5 352.5,1983C 357.34,1984.34 359.673,1987.5 359.5,1992.5C 359.978,1997.93 357.645,2001.43 352.5,2003C 344.588,2003.18 336.754,2003.68 329,2004.5C 328.5,1997.17 328.334,1989.84 328.5,1982.5 Z"/></g>
<g><path style="opacity:0.896" fill="#000000" d="M 385.5,1969.5 C 400.217,1969.09 414.884,1969.59 429.5,1971C 442.94,1974.69 448.773,1983.53 447,1997.5C 444.466,2009.03 437.299,2015.2 425.5,2016C 417.173,2016.5 408.84,2016.67 400.5,2016.5C 400.5,2027.5 400.5,2038.5 400.5,2049.5C 395.5,2049.5 390.5,2049.5 385.5,2049.5C 385.5,2022.83 385.5,1996.17 385.5,1969.5 Z M 400.5,1982.5 C 409.582,1982.09 418.582,1982.59 427.5,1984C 428.667,1985.17 429.833,1986.33 431,1987.5C 433.5,1998.34 429.167,2004 418,2004.5C 412.333,2003.17 406.667,2003.17 401,2004.5C 400.5,1997.17 400.334,1989.84 400.5,1982.5 Z"/></g>
<g><path style="opacity:0.877" fill="#000000" d="M 450.5,1969.5 C 472.833,1969.5 495.167,1969.5 517.5,1969.5C 517.5,1973.83 517.5,1978.17 517.5,1982.5C 508.833,1982.5 500.167,1982.5 491.5,1982.5C 491.5,2004.83 491.5,2027.17 491.5,2049.5C 486.025,2050.08 480.858,2049.41 476,2047.5C 475.174,2025.93 475.34,2004.43 476.5,1983C 467.84,1982.5 459.173,1982.33 450.5,1982.5C 450.5,1978.17 450.5,1973.83 450.5,1969.5 Z"/></g>
<g><path style="opacity:1" fill="#7ec4f2" d="M 2989.5,2036.5 C 2992.85,2036.33 2996.18,2036.5 2999.5,2037C 3000.74,2037.23 3001.74,2037.73 3002.5,2038.5C 3000.5,2038.5 2998.5,2038.5 2996.5,2038.5C 2994.17,2037.83 2991.83,2037.17 2989.5,2036.5 Z"/></g>
</svg>
