<svg xmlns="http://www.w3.org/2000/svg" xmlns:xlink="http://www.w3.org/1999/xlink" width="1024" zoomAndPan="magnify" viewBox="0 0 768 576" height="768" preserveAspectRatio="xMidYMid meet" version="1.0"><defs><g/><clipPath id="116869f3fd"><path d="M 187.59375 146.496094 L 746.839844 146.496094 L 746.839844 182.640625 L 187.59375 182.640625 Z M 187.59375 146.496094 " clip-rule="nonzero"/></clipPath><clipPath id="13e542a9d5"><path d="M 187.59375 164.691406 C 187.59375 159.929688 189.484375 155.363281 192.847656 152 C 196.214844 148.632812 200.78125 146.742188 205.542969 146.742188 L 728.425781 146.742188 C 733.183594 146.742188 737.75 148.632812 741.117188 152 C 744.480469 155.363281 746.375 159.929688 746.375 164.691406 C 746.375 169.449219 744.480469 174.015625 741.117188 177.382812 C 737.75 180.75 733.183594 182.640625 728.425781 182.640625 L 205.542969 182.640625 C 200.78125 182.640625 196.214844 180.75 192.847656 177.382812 C 189.484375 174.015625 187.59375 169.449219 187.59375 164.691406 " clip-rule="nonzero"/></clipPath><clipPath id="ffe01fd270"><path d="M 186.328125 205.285156 L 746.84375 205.285156 L 746.84375 242.0625 L 186.328125 242.0625 Z M 186.328125 205.285156 " clip-rule="nonzero"/></clipPath><clipPath id="c7e7e151f8"><path d="M 186.328125 223.878906 C 186.328125 219.058594 188.242188 214.433594 191.652344 211.023438 C 195.0625 207.613281 199.6875 205.699219 204.507812 205.699219 L 728.191406 205.699219 C 733.015625 205.699219 737.640625 207.613281 741.050781 211.023438 C 744.460938 214.433594 746.375 219.058594 746.375 223.878906 C 746.375 228.703125 744.460938 233.328125 741.050781 236.738281 C 737.640625 240.144531 733.015625 242.0625 728.191406 242.0625 L 204.507812 242.0625 C 199.6875 242.0625 195.0625 240.144531 191.652344 236.738281 C 188.242188 233.328125 186.328125 228.703125 186.328125 223.878906 " clip-rule="nonzero"/></clipPath><clipPath id="a12479b9bf"><path d="M 185.691406 395.234375 L 746 395.234375 L 746 432.644531 L 185.691406 432.644531 Z M 185.691406 395.234375 " clip-rule="nonzero"/></clipPath><clipPath id="c8be91658d"><path d="M 185.691406 413.992188 C 185.691406 403.691406 194.042969 395.339844 204.34375 395.339844 L 727.085938 395.339844 C 737.386719 395.339844 745.738281 403.691406 745.738281 413.992188 C 745.738281 424.292969 737.386719 432.644531 727.085938 432.644531 L 204.34375 432.644531 C 194.042969 432.644531 185.691406 424.292969 185.691406 413.992188 " clip-rule="nonzero"/></clipPath><clipPath id="22bab91f59"><path d="M 188.429688 146.351562 L 248 146.351562 L 248 181.859375 L 188.429688 181.859375 Z M 188.429688 146.351562 " clip-rule="nonzero"/></clipPath><clipPath id="f960381cd7"><path d="M 188.429688 164.296875 C 188.429688 159.640625 190.28125 155.175781 193.574219 151.882812 C 196.867188 148.589844 201.332031 146.738281 205.988281 146.738281 L 230.152344 146.738281 C 234.808594 146.738281 239.277344 148.589844 242.570312 151.882812 C 245.863281 155.175781 247.710938 159.640625 247.710938 164.296875 C 247.710938 168.957031 245.863281 173.421875 242.570312 176.714844 C 239.277344 180.007812 234.808594 181.859375 230.152344 181.859375 L 205.988281 181.859375 C 201.332031 181.859375 196.867188 180.007812 193.574219 176.714844 C 190.28125 173.421875 188.429688 168.957031 188.429688 164.296875 " clip-rule="nonzero"/></clipPath><clipPath id="b6cb02f859"><path d="M 188.035156 207 L 376.988281 207 L 376.988281 242.058594 L 188.035156 242.058594 Z M 188.035156 207 " clip-rule="nonzero"/></clipPath><clipPath id="5dd347614d"><path d="M 188.035156 224.5 C 188.035156 219.84375 189.886719 215.375 193.179688 212.082031 C 196.472656 208.789062 200.9375 206.941406 205.597656 206.941406 L 359.378906 206.941406 C 364.039062 206.941406 368.503906 208.789062 371.796875 212.082031 C 375.089844 215.375 376.9375 219.84375 376.9375 224.5 C 376.9375 229.15625 375.089844 233.621094 371.796875 236.914062 C 368.503906 240.207031 364.039062 242.058594 359.378906 242.058594 L 205.597656 242.058594 C 200.9375 242.058594 196.472656 240.207031 193.179688 236.914062 C 189.886719 233.621094 188.035156 229.15625 188.035156 224.5 " clip-rule="nonzero"/></clipPath><clipPath id="83a3f5697c"><path d="M 186.324219 271 L 745 271 L 745 307.125 L 186.324219 307.125 Z M 186.324219 271 " clip-rule="nonzero"/></clipPath><clipPath id="6ec55354fd"><path d="M 186.324219 289.175781 C 186.324219 284.414062 188.214844 279.847656 191.582031 276.480469 C 194.949219 273.117188 199.515625 271.226562 204.273438 271.226562 L 727.15625 271.226562 C 731.917969 271.226562 736.484375 273.117188 739.847656 276.480469 C 743.214844 279.847656 745.105469 284.414062 745.105469 289.175781 C 745.105469 293.933594 743.214844 298.5 739.847656 301.867188 C 736.484375 305.230469 731.917969 307.125 727.15625 307.125 L 204.273438 307.125 C 199.515625 307.125 194.949219 305.230469 191.582031 301.867188 C 188.214844 298.5 186.324219 293.933594 186.324219 289.175781 " clip-rule="nonzero"/></clipPath><clipPath id="e2704c4953"><path d="M 184.609375 331 L 743.859375 331 L 743.859375 367.023438 L 184.609375 367.023438 Z M 184.609375 331 " clip-rule="nonzero"/></clipPath><clipPath id="3f29d179e2"><path d="M 184.609375 349.074219 C 184.609375 344.3125 186.503906 339.746094 189.867188 336.378906 C 193.234375 333.015625 197.800781 331.125 202.558594 331.125 L 725.441406 331.125 C 730.203125 331.125 734.769531 333.015625 738.136719 336.378906 C 741.5 339.746094 743.390625 344.3125 743.390625 349.074219 C 743.390625 353.832031 741.5 358.398438 738.136719 361.765625 C 734.769531 365.128906 730.203125 367.023438 725.441406 367.023438 L 202.558594 367.023438 C 197.800781 367.023438 193.234375 365.128906 189.867188 361.765625 C 186.503906 358.398438 184.609375 353.832031 184.609375 349.074219 " clip-rule="nonzero"/></clipPath><clipPath id="e309b33d75"><path d="M 184.609375 461.652344 L 743.859375 461.652344 L 743.859375 497.796875 L 184.609375 497.796875 Z M 184.609375 461.652344 " clip-rule="nonzero"/></clipPath><clipPath id="e075979e6a"><path d="M 184.609375 479.847656 C 184.609375 475.085938 186.503906 470.519531 189.867188 467.15625 C 193.234375 463.789062 197.800781 461.898438 202.558594 461.898438 L 725.441406 461.898438 C 730.203125 461.898438 734.769531 463.789062 738.136719 467.15625 C 741.5 470.519531 743.390625 475.085938 743.390625 479.847656 C 743.390625 484.605469 741.5 489.171875 738.136719 492.539062 C 734.769531 495.90625 730.203125 497.796875 725.441406 497.796875 L 202.558594 497.796875 C 197.800781 497.796875 193.234375 495.90625 189.867188 492.539062 C 186.503906 489.171875 184.609375 484.605469 184.609375 479.847656 " clip-rule="nonzero"/></clipPath><clipPath id="36e9ca4973"><path d="M 303.460938 270.042969 L 417.589844 270.042969 L 417.589844 305.550781 L 303.460938 305.550781 Z M 303.460938 270.042969 " clip-rule="nonzero"/></clipPath><clipPath id="2ab87c472c"><path d="M 303.460938 287.992188 C 303.460938 283.335938 305.308594 278.871094 308.601562 275.578125 C 311.894531 272.285156 316.363281 270.433594 321.019531 270.433594 L 399.917969 270.433594 C 404.574219 270.433594 409.039062 272.285156 412.332031 275.578125 C 415.625 278.871094 417.476562 283.335938 417.476562 287.992188 C 417.476562 292.648438 415.625 297.117188 412.332031 300.410156 C 409.039062 303.703125 404.574219 305.550781 399.917969 305.550781 L 321.019531 305.550781 C 316.363281 305.550781 311.894531 303.703125 308.601562 300.410156 C 305.308594 297.117188 303.460938 292.648438 303.460938 287.992188 " clip-rule="nonzero"/></clipPath><clipPath id="5fc8117140"><path d="M 376.9375 332 L 557 332 L 557 367.019531 L 376.9375 367.019531 Z M 376.9375 332 " clip-rule="nonzero"/></clipPath><clipPath id="6eb4204d09"><path d="M 376.9375 349.460938 C 376.9375 344.804688 378.789062 340.335938 382.082031 337.042969 C 385.375 333.75 389.839844 331.902344 394.5 331.902344 L 539.410156 331.902344 C 544.066406 331.902344 548.53125 333.75 551.824219 337.042969 C 555.117188 340.335938 556.96875 344.804688 556.96875 349.460938 C 556.96875 354.117188 555.117188 358.582031 551.824219 361.875 C 548.53125 365.167969 544.066406 367.019531 539.410156 367.019531 L 394.5 367.019531 C 389.839844 367.019531 385.375 365.167969 382.082031 361.875 C 378.789062 358.582031 376.9375 354.117188 376.9375 349.460938 " clip-rule="nonzero"/></clipPath><clipPath id="cb0daed7bb"><path d="M 516.480469 397 L 665 397 L 665 432.007812 L 516.480469 432.007812 Z M 516.480469 397 " clip-rule="nonzero"/></clipPath><clipPath id="e6b80d2bca"><path d="M 516.480469 414.449219 C 516.480469 409.792969 518.332031 405.324219 521.625 402.03125 C 524.917969 398.738281 529.382812 396.890625 534.039062 396.890625 L 647.449219 396.890625 C 652.105469 396.890625 656.574219 398.738281 659.867188 402.03125 C 663.160156 405.324219 665.007812 409.792969 665.007812 414.449219 C 665.007812 419.105469 663.160156 423.570312 659.867188 426.863281 C 656.574219 430.15625 652.105469 432.007812 647.449219 432.007812 L 534.039062 432.007812 C 529.382812 432.007812 524.917969 430.15625 521.625 426.863281 C 518.332031 423.570312 516.480469 419.105469 516.480469 414.449219 " clip-rule="nonzero"/></clipPath><clipPath id="3d6159bb9a"><path d="M 653.347656 462 L 744 462 L 744 496.992188 L 653.347656 496.992188 Z M 653.347656 462 " clip-rule="nonzero"/></clipPath><clipPath id="617372973f"><path d="M 653.347656 479.433594 C 653.347656 474.777344 655.199219 470.3125 658.492188 467.019531 C 661.785156 463.726562 666.25 461.875 670.90625 461.875 L 725.828125 461.875 C 730.484375 461.875 734.953125 463.726562 738.246094 467.019531 C 741.539062 470.3125 743.386719 474.777344 743.386719 479.433594 C 743.386719 484.089844 741.539062 488.558594 738.246094 491.851562 C 734.953125 495.144531 730.484375 496.992188 725.828125 496.992188 L 670.90625 496.992188 C 666.25 496.992188 661.785156 495.144531 658.492188 491.851562 C 655.199219 488.558594 653.347656 484.089844 653.347656 479.433594 " clip-rule="nonzero"/></clipPath></defs><g fill="#000000" fill-opacity="1"><g transform="translate(188.43197, 109.383121)"><g><path d="M 1.078125 -14.703125 L 11.3125 -14.703125 L 11.3125 -12.71875 L 4.640625 0 L 1.796875 0 L 8.453125 -12.53125 L 1.078125 -12.53125 Z M 1.078125 -14.703125 "/></g></g></g><g fill="#000000" fill-opacity="1"><g transform="translate(200.828072, 109.383121)"><g><path d="M 5.640625 -6.324219 C 5.804688 -7.542969 5.867188 -8.71875 5.867188 -9.792969 L 15.3125 -9.792969 L 15.3125 -6.324219 Z M 15.3125 -14.691406 L 15.3125 -11.261719 L 5.867188 -11.261719 L 5.867188 -14.691406 Z M 16.902344 -16.199219 L 4.320312 -16.199219 L 4.320312 -9.875 C 4.320312 -6.589844 3.988281 -2.398438 0.703125 0.496094 C 1.011719 0.722656 1.632812 1.28125 1.839844 1.613281 C 3.84375 -0.144531 4.875 -2.480469 5.394531 -4.8125 L 15.3125 -4.8125 L 15.3125 -0.683594 C 15.3125 -0.226562 15.144531 -0.0820312 14.671875 -0.0625 C 14.195312 -0.0625 12.542969 -0.0429688 10.804688 -0.101562 C 11.074219 0.332031 11.363281 1.054688 11.46875 1.488281 C 13.679688 1.488281 15.042969 1.46875 15.828125 1.199219 C 16.59375 0.949219 16.902344 0.414062 16.902344 -0.660156 Z M 16.902344 -16.199219 "/></g></g></g><g clip-path="url(#116869f3fd)"><g clip-path="url(#13e542a9d5)"><path fill="#d9d9d9" d="M 187.59375 182.640625 L 187.59375 146.496094 L 746.203125 146.496094 L 746.203125 182.640625 Z M 187.59375 182.640625 " fill-opacity="1" fill-rule="nonzero"/></g></g><g fill="#000000" fill-opacity="1"><g transform="translate(18.698263, 356.323389)"><g><path d="M 1.839844 -4.070312 C 1.632812 -2.417969 1.320312 -0.597656 0.867188 0.683594 C 1.15625 0.765625 1.757812 0.949219 2.003906 1.09375 C 2.417969 -0.1875 2.808594 -2.085938 3.015625 -3.882812 Z M 3.964844 -3.945312 C 4.195312 -2.542969 4.421875 -0.742188 4.460938 0.476562 L 5.621094 0.1875 C 5.558594 -1.011719 5.332031 -2.789062 5.039062 -4.152344 Z M 6.199219 -4.339844 C 6.652344 -3.078125 7.148438 -1.425781 7.355469 -0.332031 L 8.429688 -0.722656 C 8.222656 -1.777344 7.683594 -3.410156 7.210938 -4.691406 Z M 6.011719 -9.070312 C 6.238281 -8.46875 6.507812 -7.808594 6.734375 -7.148438 L 3.179688 -6.652344 C 4.8125 -8.613281 6.40625 -11.074219 7.707031 -13.511719 L 6.507812 -14.234375 C 6.074219 -13.261719 5.515625 -12.273438 5 -11.382812 L 2.832031 -11.175781 C 3.964844 -12.746094 5.082031 -14.773438 5.949219 -16.714844 L 4.648438 -17.269531 C 3.84375 -15.039062 2.4375 -12.683594 2.003906 -12.066406 C 1.589844 -11.445312 1.238281 -11.011719 0.910156 -10.929688 C 1.054688 -10.578125 1.261719 -9.894531 1.34375 -9.605469 C 1.613281 -9.75 2.046875 -9.855469 4.195312 -10.101562 C 3.472656 -8.964844 2.832031 -8.078125 2.5 -7.683594 C 1.902344 -6.898438 1.445312 -6.382812 1.03125 -6.300781 C 1.199219 -5.929688 1.425781 -5.269531 1.46875 -4.957031 C 1.859375 -5.164062 2.480469 -5.308594 7.085938 -6.03125 C 7.167969 -5.679688 7.273438 -5.332031 7.335938 -5.039062 L 8.492188 -5.496094 C 8.242188 -6.488281 7.644531 -8.140625 7.105469 -9.441406 Z M 13.429688 -3.554688 C 12.996094 -3.554688 12.933594 -3.71875 12.933594 -4.257812 L 12.933594 -6.28125 L 17.1875 -6.28125 L 17.1875 -7.5 L 14.132812 -7.5 L 14.875 -7.828125 C 14.6875 -8.285156 14.316406 -9.089844 13.964844 -9.6875 L 17.4375 -9.6875 L 17.4375 -10.910156 L 15.679688 -10.910156 C 16.011719 -11.796875 16.382812 -12.972656 16.691406 -13.988281 L 15.578125 -14.316406 C 15.390625 -13.324219 14.976562 -11.878906 14.605469 -10.910156 L 10.679688 -10.910156 L 10.679688 -9.6875 L 13.84375 -9.6875 L 12.890625 -9.316406 C 13.179688 -8.78125 13.511719 -8.058594 13.699219 -7.5 L 10.886719 -7.5 L 10.886719 -6.28125 L 11.652344 -6.28125 L 11.652344 -4.277344 C 11.652344 -2.914062 11.960938 -2.417969 13.324219 -2.417969 L 15.96875 -2.417969 C 16.488281 -2.417969 17.023438 -2.4375 17.292969 -2.519531 C 17.25 -2.832031 17.210938 -3.304688 17.167969 -3.65625 C 16.859375 -3.574219 16.28125 -3.554688 15.949219 -3.554688 Z M 11.382812 -14.027344 C 11.878906 -13.117188 12.3125 -11.878906 12.457031 -11.074219 L 13.449219 -11.425781 C 13.324219 -12.230469 12.851562 -13.449219 12.332031 -14.359375 Z M 19.273438 -16.300781 L 8.757812 -16.300781 L 8.757812 1.613281 L 10.144531 1.613281 L 10.144531 -14.9375 L 17.871094 -14.9375 L 17.871094 -0.144531 C 17.871094 0.144531 17.789062 0.226562 17.519531 0.246094 C 17.269531 0.246094 16.445312 0.269531 15.578125 0.226562 C 15.742188 0.597656 15.929688 1.21875 15.96875 1.589844 C 17.230469 1.589844 18.078125 1.570312 18.574219 1.320312 C 19.109375 1.074219 19.273438 0.703125 19.273438 -0.144531 Z M 19.273438 -16.300781 "/></g></g></g><g fill="#000000" fill-opacity="1"><g transform="translate(39.357354, 356.323389)"><g><path d="M 6.445312 -14.109375 C 6.199219 -14.957031 5.597656 -16.21875 4.980469 -17.167969 L 3.699219 -16.777344 C 4.234375 -15.804688 4.8125 -14.480469 5.0625 -13.636719 Z M 6.777344 -3.304688 C 7.3125 -5.476562 7.871094 -8.613281 8.285156 -11.03125 L 6.839844 -11.300781 C 6.570312 -8.800781 6.03125 -5.1875 5.496094 -2.996094 C 3.800781 -2.582031 2.230469 -2.25 1.03125 -1.984375 L 1.40625 -0.476562 C 3.554688 -1.011719 6.425781 -1.734375 9.152344 -2.4375 L 9.007812 -3.84375 Z M 2.085938 -10.824219 C 2.5625 -8.492188 2.996094 -5.476562 3.078125 -3.449219 L 4.378906 -3.699219 C 4.257812 -5.722656 3.800781 -8.699219 3.328125 -11.054688 Z M 1.28125 -12.003906 L 9.253906 -12.003906 L 9.253906 -13.429688 L 1.28125 -13.429688 Z M 17.332031 -0.847656 L 11.136719 -0.847656 L 11.136719 -6.03125 L 17.332031 -6.03125 Z M 19.75 -11.546875 L 19.75 -13.015625 L 14.542969 -13.015625 L 14.542969 -17.292969 L 12.996094 -17.292969 L 12.996094 -7.480469 L 9.648438 -7.480469 L 9.648438 1.570312 L 11.136719 1.570312 L 11.136719 0.597656 L 17.332031 0.597656 L 17.332031 1.488281 L 18.882812 1.488281 L 18.882812 -7.480469 L 14.542969 -7.480469 L 14.542969 -11.546875 Z M 19.75 -11.546875 "/></g></g></g><g fill="#000000" fill-opacity="1"><g transform="translate(60.016445, 356.323389)"><g><path d="M 16.671875 -14.277344 L 16.671875 -12.769531 L 13.574219 -12.769531 L 13.574219 -14.277344 Z M 16.671875 -9.980469 L 13.574219 -9.980469 L 13.574219 -11.507812 L 16.671875 -11.507812 Z M 12.128906 -12.769531 L 6.816406 -12.769531 L 6.816406 -11.507812 L 12.128906 -11.507812 L 12.128906 -9.980469 L 8.015625 -9.980469 L 8.015625 -8.738281 L 12.128906 -8.738281 L 12.128906 -7.191406 L 7.871094 -7.191406 L 7.871094 -6.011719 L 12.128906 -6.011719 L 12.128906 -4.339844 L 7.003906 -4.339844 L 7.003906 -3.078125 L 12.128906 -3.078125 L 12.128906 -1.03125 L 13.574219 -1.03125 L 13.574219 -3.078125 L 19.214844 -3.078125 L 19.214844 -4.339844 L 13.574219 -4.339844 L 13.574219 -6.011719 L 18.449219 -6.011719 L 18.449219 -7.191406 L 13.574219 -7.191406 L 13.574219 -8.738281 L 18.054688 -8.738281 L 18.054688 -11.507812 L 19.480469 -11.507812 L 19.480469 -12.769531 L 18.054688 -12.769531 L 18.054688 -15.496094 L 13.574219 -15.496094 L 13.574219 -17.1875 L 12.128906 -17.1875 L 12.128906 -15.496094 L 8.160156 -15.496094 L 8.160156 -14.277344 L 12.128906 -14.277344 Z M 6.054688 -10.308594 L 5.785156 -10.269531 L 4.316406 -10.269531 C 5.226562 -11.984375 6.320312 -14.171875 7.191406 -15.992188 L 1.382812 -15.992188 L 1.382812 -14.628906 L 5 -14.628906 C 4.070312 -12.644531 2.933594 -10.414062 2.046875 -8.902344 L 5.390625 -8.902344 C 5.125 -7.042969 4.710938 -5.433594 4.152344 -4.050781 C 3.617188 -4.875 3.160156 -5.886719 2.808594 -7.105469 L 1.671875 -6.652344 C 2.167969 -5.019531 2.769531 -3.71875 3.53125 -2.6875 C 2.789062 -1.382812 1.878906 -0.332031 0.828125 0.414062 C 1.175781 0.621094 1.714844 1.15625 1.960938 1.46875 C 2.933594 0.703125 3.78125 -0.289062 4.523438 -1.550781 C 6.652344 0.539062 9.648438 1.074219 13.46875 1.074219 L 19.234375 1.074219 C 19.316406 0.660156 19.585938 0 19.8125 -0.351562 C 18.757812 -0.332031 14.316406 -0.332031 13.511719 -0.332031 C 10 -0.332031 7.148438 -0.785156 5.144531 -2.808594 C 5.992188 -4.730469 6.589844 -7.128906 6.921875 -10.0625 Z M 6.054688 -10.308594 "/></g></g></g><g fill="#000000" fill-opacity="1"><g transform="translate(80.675536, 356.323389)"><g><path d="M 5.433594 -1.445312 L 15.121094 -1.445312 L 15.121094 -0.1875 L 5.433594 -0.1875 Z M 15.121094 -7.769531 L 15.121094 -6.609375 L 5.433594 -6.609375 L 5.433594 -7.769531 Z M 5.433594 -3.59375 L 15.121094 -3.59375 L 15.121094 -2.355469 L 5.433594 -2.355469 Z M 15.121094 -4.503906 L 5.433594 -4.503906 L 5.433594 -5.679688 L 15.121094 -5.679688 Z M 8.636719 -15.390625 L 12.023438 -15.390625 L 12.023438 -13.53125 L 8.636719 -13.53125 Z M 7.210938 -13.53125 L 3.945312 -13.53125 L 3.945312 -15.390625 L 7.210938 -15.390625 Z M 13.429688 -15.390625 L 16.898438 -15.390625 L 16.898438 -13.53125 L 13.429688 -13.53125 Z M 16.632812 -0.1875 L 16.632812 -8.800781 L 10.207031 -8.800781 C 10.308594 -9.195312 10.390625 -9.585938 10.496094 -10.039062 L 19.007812 -10.039062 L 19.007812 -11.238281 L 10.722656 -11.238281 C 10.804688 -11.632812 10.886719 -12.042969 10.949219 -12.417969 L 18.40625 -12.417969 L 18.40625 -16.507812 L 2.480469 -16.507812 L 2.480469 -12.417969 L 9.398438 -12.417969 C 9.359375 -12.042969 9.296875 -11.632812 9.234375 -11.238281 L 1.46875 -11.238281 L 1.46875 -10.039062 L 9.027344 -10.039062 C 8.945312 -9.585938 8.863281 -9.195312 8.78125 -8.800781 L 3.988281 -8.800781 L 3.988281 -0.1875 L 1.261719 -0.1875 L 1.261719 0.972656 L 19.460938 0.972656 L 19.460938 -0.1875 Z M 16.632812 -0.1875 "/></g></g></g><g fill="#000000" fill-opacity="1"><g transform="translate(101.334625, 356.323389)"><g><path d="M 4.671875 3.765625 C 3.742188 2.117188 3.082031 0.566406 2.6875 -0.890625 C 2.300781 -2.347656 2.109375 -3.882812 2.109375 -5.5 C 2.109375 -7.101562 2.304688 -8.644531 2.703125 -10.125 C 3.109375 -11.613281 3.765625 -13.140625 4.671875 -14.703125 L 6.78125 -14.703125 C 6.019531 -12.867188 5.492188 -11.242188 5.203125 -9.828125 C 4.910156 -8.410156 4.765625 -6.96875 4.765625 -5.5 C 4.765625 -4.039062 4.910156 -2.597656 5.203125 -1.171875 C 5.492188 0.253906 6.003906 1.898438 6.734375 3.765625 Z M 4.671875 3.765625 "/></g></g></g><g fill="#000000" fill-opacity="1"><g transform="translate(108.668608, 356.323389)"><g><path d="M 3.285156 -13.449219 L 17.269531 -13.449219 L 17.269531 -10.390625 L 18.839844 -10.390625 L 18.839844 -14.917969 L 11.570312 -14.917969 C 11.28125 -15.660156 10.742188 -16.671875 10.246094 -17.457031 L 8.71875 -17.023438 C 9.070312 -16.402344 9.460938 -15.597656 9.75 -14.917969 L 1.777344 -14.917969 L 1.777344 -10.390625 L 3.285156 -10.390625 Z M 15.867188 -9.832031 L 15.867188 -11.257812 L 4.730469 -11.257812 L 4.730469 -9.832031 Z M 14.460938 -0.164062 C 13.613281 -0.164062 13.46875 -0.269531 13.46875 -0.867188 L 13.46875 -5.992188 L 19.398438 -5.992188 L 19.398438 -7.457031 L 1.261719 -7.457031 L 1.261719 -5.992188 L 6.753906 -5.992188 C 6.507812 -2.335938 5.640625 -0.578125 0.992188 0.332031 C 1.28125 0.621094 1.671875 1.21875 1.796875 1.613281 C 6.921875 0.515625 7.996094 -1.714844 8.304688 -5.992188 L 11.941406 -5.992188 L 11.941406 -0.847656 C 11.941406 0.785156 12.417969 1.261719 14.296875 1.261719 L 17.457031 1.261719 C 19.089844 1.261719 19.523438 0.558594 19.710938 -2.292969 C 19.273438 -2.398438 18.65625 -2.625 18.304688 -2.890625 C 18.222656 -0.539062 18.097656 -0.164062 17.3125 -0.164062 Z M 14.460938 -0.164062 "/></g></g></g><g fill="#000000" fill-opacity="1"><g transform="translate(129.327699, 356.323389)"><g><path d="M 3.097656 -12.746094 L 5.332031 -12.746094 L 5.332031 -11.238281 L 3.097656 -11.238281 Z M 8.738281 -12.746094 L 8.738281 -11.238281 L 6.695312 -11.238281 L 6.695312 -12.746094 Z M 5.332031 -6.652344 L 6.695312 -6.652344 L 6.695312 -9.296875 C 7.664062 -8.78125 8.800781 -8.035156 9.398438 -7.5 L 10.082031 -8.410156 C 9.441406 -8.945312 8.265625 -9.6875 7.273438 -10.144531 L 6.695312 -9.441406 L 6.695312 -10.207031 L 10.0625 -10.207031 L 10.0625 -13.757812 L 6.695312 -13.757812 L 6.695312 -14.8125 L 10.578125 -14.8125 L 10.578125 -15.992188 L 6.695312 -15.992188 L 6.695312 -17.292969 L 5.332031 -17.292969 L 5.332031 -15.992188 L 1.238281 -15.992188 L 1.238281 -14.8125 L 5.332031 -14.8125 L 5.332031 -13.757812 L 1.839844 -13.757812 L 1.839844 -10.207031 L 4.835938 -10.207031 C 3.863281 -9.089844 2.292969 -8.015625 0.886719 -7.5 C 1.175781 -7.25 1.570312 -6.777344 1.777344 -6.488281 C 2.996094 -7.042969 4.339844 -8.058594 5.332031 -9.132812 Z M 11.074219 -1.984375 L 16.980469 -1.984375 L 16.980469 -3.179688 L 11.074219 -3.179688 L 11.074219 -4.792969 L 18.347656 -4.792969 L 18.347656 -6.074219 L 2.417969 -6.074219 L 2.417969 -4.792969 L 9.566406 -4.792969 L 9.566406 -0.289062 L 5.910156 -0.289062 L 5.910156 -3.699219 L 4.441406 -3.699219 L 4.441406 -0.289062 L 1.054688 -0.289062 L 1.054688 1.03125 L 19.667969 1.03125 L 19.667969 -0.289062 L 11.074219 -0.289062 Z M 13.242188 -13.675781 L 16.816406 -13.699219 C 16.464844 -12.476562 15.886719 -11.425781 15.164062 -10.558594 C 14.296875 -11.546875 13.65625 -12.621094 13.242188 -13.675781 Z M 19.605469 -13.699219 L 19.605469 -14.976562 L 13.863281 -14.976562 C 14.152344 -15.617188 14.378906 -16.28125 14.585938 -16.960938 L 13.179688 -17.269531 C 12.621094 -15.207031 11.589844 -13.261719 10.246094 -12.042969 C 10.535156 -11.796875 11.074219 -11.28125 11.28125 -11.011719 C 11.691406 -11.425781 12.105469 -11.921875 12.5 -12.4375 C 12.914062 -11.507812 13.511719 -10.558594 14.277344 -9.667969 C 13.203125 -8.738281 11.859375 -8.035156 10.269531 -7.519531 C 10.535156 -7.273438 10.992188 -6.695312 11.15625 -6.425781 C 12.707031 -7.003906 14.070312 -7.726562 15.183594 -8.699219 C 16.195312 -7.746094 17.457031 -6.921875 18.945312 -6.363281 C 19.109375 -6.695312 19.523438 -7.273438 19.8125 -7.539062 C 18.347656 -8.035156 17.105469 -8.757812 16.113281 -9.628906 C 17.066406 -10.722656 17.789062 -12.066406 18.285156 -13.699219 Z M 19.605469 -13.699219 "/></g></g></g><g fill="#000000" fill-opacity="1"><g transform="translate(149.98679, 356.323389)"><g><path d="M 6.488281 -11.03125 L 3.617188 -11.03125 L 3.617188 -17.210938 L 2.230469 -17.210938 L 2.230469 -8.820312 C 2.230469 -5.640625 2.085938 -1.902344 0.910156 0.804688 C 1.261719 1.011719 1.777344 1.445312 2.023438 1.714844 C 3.058594 -0.390625 3.429688 -3.140625 3.554688 -5.867188 L 6.425781 -5.867188 L 6.425781 1.570312 L 7.851562 1.570312 L 7.851562 -7.25 L 3.59375 -7.25 C 3.617188 -7.769531 3.617188 -8.304688 3.617188 -8.820312 L 3.617188 -9.648438 L 7.890625 -9.648438 L 7.890625 -16.714844 L 6.488281 -16.714844 Z M 17.5 -9.628906 C 17.042969 -7.457031 16.257812 -5.515625 15.265625 -3.945312 C 14.277344 -5.578125 13.574219 -7.519531 13.058594 -9.628906 Z M 18.242188 -11.09375 L 17.996094 -11.03125 L 11.425781 -11.03125 L 11.425781 -14.648438 L 19.070312 -14.648438 L 19.070312 -16.050781 L 9.980469 -16.050781 L 9.980469 -8.613281 C 9.980469 -5.640625 9.8125 -1.859375 8.367188 0.828125 C 8.757812 1.011719 9.296875 1.40625 9.585938 1.671875 C 11.199219 -1.21875 11.425781 -5.269531 11.425781 -8.613281 L 11.425781 -9.628906 L 11.753906 -9.628906 C 12.332031 -6.960938 13.160156 -4.605469 14.378906 -2.6875 C 13.261719 -1.320312 11.984375 -0.289062 10.597656 0.371094 C 10.910156 0.660156 11.34375 1.238281 11.546875 1.632812 C 12.933594 0.886719 14.171875 -0.125 15.265625 -1.425781 C 16.257812 -0.164062 17.457031 0.847656 18.902344 1.550781 C 19.128906 1.15625 19.625 0.578125 19.957031 0.269531 C 18.449219 -0.371094 17.210938 -1.363281 16.175781 -2.644531 C 17.601562 -4.75 18.65625 -7.457031 19.171875 -10.785156 Z M 18.242188 -11.09375 "/></g></g></g><g fill="#000000" fill-opacity="1"><g transform="translate(170.64588, 356.323389)"><g><path d="M 0.59375 3.765625 C 1.320312 1.898438 1.832031 0.253906 2.125 -1.171875 C 2.414062 -2.597656 2.5625 -4.039062 2.5625 -5.5 C 2.5625 -6.96875 2.414062 -8.410156 2.125 -9.828125 C 1.832031 -11.242188 1.316406 -12.867188 0.578125 -14.703125 L 2.640625 -14.703125 C 3.546875 -13.140625 4.203125 -11.613281 4.609375 -10.125 C 5.015625 -8.644531 5.21875 -7.101562 5.21875 -5.5 C 5.21875 -3.894531 5.019531 -2.359375 4.625 -0.890625 C 4.226562 0.566406 3.578125 2.117188 2.671875 3.765625 Z M 0.59375 3.765625 "/></g></g></g><g clip-path="url(#ffe01fd270)"><g clip-path="url(#c7e7e151f8)"><path fill="#d9d9d9" d="M 186.328125 242.0625 L 186.328125 205.921875 L 746.207031 205.921875 L 746.207031 242.0625 Z M 186.328125 242.0625 " fill-opacity="1" fill-rule="nonzero"/></g></g><g clip-path="url(#a12479b9bf)"><g clip-path="url(#c8be91658d)"><path fill="#d9d9d9" d="M 185.691406 432.644531 L 185.691406 395.234375 L 745.570312 395.234375 L 745.570312 432.644531 Z M 185.691406 432.644531 " fill-opacity="1" fill-rule="nonzero"/></g></g><g clip-path="url(#22bab91f59)"><g clip-path="url(#f960381cd7)"><path fill="#4fbaff" d="M 188.429688 181.859375 L 188.429688 146.984375 L 247.398438 146.984375 L 247.398438 181.859375 Z M 188.429688 181.859375 " fill-opacity="1" fill-rule="nonzero"/></g></g><g clip-path="url(#b6cb02f859)"><g clip-path="url(#5dd347614d)"><path fill="#4fbaff" d="M 188.035156 242.058594 L 188.035156 207.183594 L 376.988281 207.183594 L 376.988281 242.058594 Z M 188.035156 242.058594 " fill-opacity="1" fill-rule="nonzero"/></g></g><g fill="#000000" fill-opacity="1"><g transform="translate(18.698263, 296.946887)"><g><path d="M 3.882812 -4.171875 C 3.925781 -4.773438 3.945312 -5.332031 3.945312 -5.886719 L 3.945312 -6.238281 L 8.492188 -6.238281 L 8.492188 -4.171875 Z M 8.492188 -9.523438 L 8.492188 -7.4375 L 3.945312 -7.4375 L 3.945312 -9.523438 Z M 9.980469 -10.785156 L 2.542969 -10.785156 L 2.542969 -5.886719 C 2.542969 -3.820312 2.398438 -1.175781 1.011719 0.765625 C 1.363281 0.910156 1.960938 1.382812 2.167969 1.652344 C 3.121094 0.371094 3.554688 -1.320312 3.78125 -2.953125 L 8.492188 -2.953125 L 8.492188 -0.207031 C 8.492188 0.0625 8.410156 0.144531 8.097656 0.164062 C 7.828125 0.1875 6.898438 0.1875 5.867188 0.144531 C 6.054688 0.539062 6.28125 1.09375 6.363281 1.488281 C 7.769531 1.488281 8.65625 1.488281 9.234375 1.238281 C 9.792969 0.992188 9.980469 0.597656 9.980469 -0.1875 Z M 16.632812 -0.351562 C 16.632812 -0.0429688 16.527344 0.0429688 16.175781 0.0625 C 15.867188 0.0820312 14.75 0.0820312 13.492188 0.0429688 C 13.71875 0.453125 13.964844 1.09375 14.046875 1.507812 C 15.617188 1.527344 16.652344 1.488281 17.3125 1.238281 C 17.933594 0.992188 18.140625 0.578125 18.140625 -0.351562 L 18.140625 -11.199219 L 16.632812 -11.199219 Z M 13.902344 -10.578125 L 12.476562 -10.578125 L 12.476562 -2.191406 L 13.902344 -2.191406 Z M 14.6875 -14.027344 C 15.289062 -14.875 15.96875 -15.886719 16.527344 -16.835938 L 14.917969 -17.375 C 14.460938 -16.382812 13.675781 -15.019531 12.972656 -14.027344 L 6.816406 -14.027344 L 7.828125 -14.421875 C 7.4375 -15.226562 6.570312 -16.445312 5.765625 -17.3125 L 4.359375 -16.777344 C 5.0625 -15.949219 5.867188 -14.832031 6.238281 -14.027344 L 1.175781 -14.027344 L 1.175781 -12.621094 L 19.523438 -12.621094 L 19.523438 -14.027344 Z M 14.6875 -14.027344 "/></g></g></g><g fill="#000000" fill-opacity="1"><g transform="translate(39.357354, 296.946887)"><g><path d="M 5.082031 -17.269531 C 4.234375 -15.824219 2.542969 -14.070312 1.03125 -12.972656 C 1.261719 -12.683594 1.671875 -12.167969 1.859375 -11.859375 C 3.511719 -13.117188 5.351562 -15.019531 6.488281 -16.753906 Z M 5.578125 -13.097656 C 4.441406 -10.929688 2.601562 -8.78125 0.828125 -7.375 C 1.117188 -7.066406 1.550781 -6.320312 1.714844 -6.03125 C 2.355469 -6.570312 3.015625 -7.210938 3.65625 -7.953125 L 3.65625 1.652344 L 5.125 1.652344 L 5.125 -9.75 C 5.804688 -10.679688 6.425781 -11.652344 6.941406 -12.621094 Z M 15.867188 -5.433594 C 15.101562 -4.195312 13.988281 -3.140625 12.707031 -2.292969 C 11.671875 -2.933594 10.761719 -3.699219 10 -4.546875 C 10.269531 -4.835938 10.515625 -5.125 10.761719 -5.433594 Z M 17.003906 -6.777344 L 16.753906 -6.714844 L 11.691406 -6.714844 C 12.066406 -7.230469 12.394531 -7.808594 12.683594 -8.367188 L 17.269531 -8.65625 C 17.726562 -8.035156 18.078125 -7.4375 18.347656 -6.960938 L 19.605469 -7.683594 C 18.902344 -8.882812 17.4375 -10.785156 16.21875 -12.148438 L 15.019531 -11.527344 C 15.472656 -11.011719 15.949219 -10.414062 16.425781 -9.8125 L 9.957031 -9.460938 C 12.476562 -10.804688 15.019531 -12.519531 17.457031 -14.523438 L 16.050781 -15.308594 C 15.207031 -14.542969 14.253906 -13.78125 13.324219 -13.097656 L 9.648438 -12.972656 C 10.96875 -13.902344 12.332031 -15.121094 13.574219 -16.402344 L 12.066406 -17.066406 C 10.804688 -15.558594 8.988281 -14.070312 8.449219 -13.675781 C 7.914062 -13.304688 7.480469 -13.015625 7.085938 -12.953125 C 7.273438 -12.539062 7.519531 -11.796875 7.582031 -11.464844 C 7.890625 -11.589844 8.449219 -11.691406 11.527344 -11.839844 C 10.371094 -11.09375 9.421875 -10.496094 8.945312 -10.246094 C 7.972656 -9.6875 7.25 -9.339844 6.652344 -9.253906 C 6.816406 -8.863281 7.066406 -8.121094 7.128906 -7.828125 C 7.519531 -7.972656 8.058594 -8.058594 11.011719 -8.242188 C 10.496094 -7.335938 9.8125 -6.445312 9.089844 -5.660156 C 8.84375 -6.011719 8.636719 -6.363281 8.429688 -6.734375 L 7.167969 -6.300781 C 7.480469 -5.765625 7.789062 -5.226562 8.160156 -4.75 C 7.601562 -4.234375 6.984375 -3.78125 6.382812 -3.386719 C 6.695312 -3.121094 7.230469 -2.542969 7.4375 -2.25 C 7.972656 -2.664062 8.53125 -3.097656 9.070312 -3.617188 C 9.730469 -2.851562 10.535156 -2.128906 11.363281 -1.507812 C 9.6875 -0.640625 7.789062 -0.0195312 5.910156 0.332031 C 6.199219 0.660156 6.527344 1.261719 6.652344 1.652344 C 8.757812 1.15625 10.847656 0.433594 12.707031 -0.640625 C 14.421875 0.371094 16.382812 1.136719 18.550781 1.613281 C 18.757812 1.199219 19.152344 0.621094 19.480469 0.289062 C 17.5 -0.0625 15.660156 -0.703125 14.027344 -1.507812 C 15.742188 -2.746094 17.105469 -4.316406 17.953125 -6.300781 Z M 17.003906 -6.777344 "/></g></g></g><g fill="#000000" fill-opacity="1"><g transform="translate(60.016445, 296.946887)"><g><path d="M 18.984375 -16.257812 L 17.519531 -16.257812 L 17.519531 -12.726562 L 14.398438 -12.726562 L 14.398438 -17.25 L 12.933594 -17.25 L 12.933594 -12.726562 L 10.082031 -12.726562 L 10.082031 -16.257812 L 8.65625 -16.257812 L 8.65625 -11.363281 L 18.984375 -11.363281 Z M 5.867188 -14.089844 C 5.597656 -14.894531 5 -16.136719 4.421875 -17.066406 L 3.140625 -16.652344 C 3.65625 -15.703125 4.257812 -14.421875 4.503906 -13.59375 Z M 7.996094 -13.429688 L 1.117188 -13.429688 L 1.117188 -12.003906 L 7.996094 -12.003906 Z M 3.882812 -3.636719 C 3.800781 -5.679688 3.410156 -8.65625 2.933594 -11.011719 L 1.757812 -10.804688 C 2.191406 -8.46875 2.582031 -5.453125 2.644531 -3.429688 Z M 5.992188 -3.140625 C 6.488281 -5.332031 7.003906 -8.492188 7.355469 -10.949219 L 6.011719 -11.199219 C 5.785156 -8.699219 5.289062 -5.0625 4.792969 -2.851562 C 3.328125 -2.519531 2.003906 -2.191406 0.972656 -1.960938 L 1.300781 -0.476562 C 3.242188 -0.929688 5.742188 -1.589844 8.140625 -2.210938 L 7.972656 -3.636719 Z M 19.667969 -8.492188 L 19.667969 -9.855469 L 7.769531 -9.855469 L 7.769531 -8.492188 L 12.789062 -8.492188 C 12.664062 -7.871094 12.539062 -7.191406 12.417969 -6.609375 L 8.429688 -6.609375 L 8.429688 1.570312 L 9.8125 1.570312 L 9.8125 -5.289062 L 11.632812 -5.289062 L 11.632812 1.382812 L 12.851562 1.382812 L 12.851562 -5.289062 L 14.75 -5.289062 L 14.75 1.320312 L 15.96875 1.320312 L 15.96875 -5.289062 L 17.851562 -5.289062 L 17.851562 0.164062 C 17.851562 0.332031 17.808594 0.390625 17.621094 0.390625 C 17.476562 0.414062 16.941406 0.414062 16.363281 0.390625 C 16.546875 0.742188 16.753906 1.238281 16.816406 1.632812 C 17.707031 1.632812 18.285156 1.613281 18.695312 1.382812 C 19.128906 1.15625 19.234375 0.828125 19.234375 0.1875 L 19.234375 -6.609375 L 13.925781 -6.609375 C 14.132812 -7.191406 14.316406 -7.851562 14.523438 -8.492188 Z M 19.667969 -8.492188 "/></g></g></g><g fill="#000000" fill-opacity="1"><g transform="translate(80.675536, 296.946887)"><g><path d="M 11.074219 -3.203125 L 11.074219 -6.175781 L 16.898438 -6.175781 L 16.898438 -3.203125 Z M 3.78125 -3.203125 L 3.78125 -6.175781 L 9.460938 -6.175781 L 9.460938 -3.203125 Z M 4.585938 -10.679688 L 4.585938 -13.53125 L 9.460938 -13.53125 L 9.460938 -10.679688 Z M 15.992188 -13.53125 L 15.992188 -10.679688 L 11.074219 -10.679688 L 11.074219 -13.53125 Z M 11.074219 -7.601562 L 11.074219 -9.316406 L 17.621094 -9.316406 L 17.621094 -14.894531 L 11.074219 -14.894531 L 11.074219 -17.269531 L 9.460938 -17.269531 L 9.460938 -14.894531 L 3.035156 -14.894531 L 3.035156 -9.316406 L 9.460938 -9.316406 L 9.460938 -7.601562 L 2.230469 -7.601562 L 2.230469 -0.949219 L 3.78125 -0.949219 L 3.78125 -1.816406 L 9.460938 -1.816406 L 9.460938 1.570312 L 11.074219 1.570312 L 11.074219 -1.816406 L 16.898438 -1.816406 L 16.898438 -0.992188 L 18.53125 -0.992188 L 18.53125 -7.601562 Z M 11.074219 -7.601562 "/></g></g></g><g fill="#000000" fill-opacity="1"><g transform="translate(101.334627, 296.946887)"><g><path d="M 19.171875 -15.121094 L 15.039062 -15.121094 C 14.773438 -15.804688 14.335938 -16.671875 13.945312 -17.375 L 12.292969 -17.085938 C 12.621094 -16.507812 12.953125 -15.761719 13.203125 -15.121094 L 8.160156 -15.121094 L 8.160156 -13.800781 L 19.171875 -13.800781 Z M 12.5 -11.03125 C 12.230469 -11.714844 11.589844 -12.769531 10.96875 -13.574219 L 9.710938 -13.078125 C 10.308594 -12.273438 10.929688 -11.136719 11.175781 -10.453125 Z M 19.566406 -10.328125 L 16.09375 -10.328125 C 16.589844 -11.15625 17.148438 -12.1875 17.621094 -13.117188 L 16.15625 -13.53125 C 15.824219 -12.582031 15.121094 -11.21875 14.585938 -10.328125 L 7.644531 -10.328125 L 7.644531 -8.988281 L 19.566406 -8.988281 Z M 4.980469 -17.269531 L 3.554688 -17.269531 L 3.554688 -13.140625 L 0.929688 -13.140625 L 0.929688 -11.714844 L 3.554688 -11.714844 L 3.554688 -7.25 C 2.4375 -6.898438 1.445312 -6.589844 0.640625 -6.363281 L 1.03125 -4.894531 C 1.796875 -5.125 2.644531 -5.414062 3.554688 -5.703125 L 3.554688 -0.246094 C 3.554688 0.0195312 3.449219 0.101562 3.203125 0.101562 C 2.976562 0.125 2.167969 0.125 1.300781 0.0820312 C 1.507812 0.515625 1.695312 1.136719 1.757812 1.527344 C 3.035156 1.550781 3.800781 1.488281 4.296875 1.238281 C 4.792969 0.992188 4.980469 0.578125 4.980469 -0.269531 L 4.980469 -6.15625 L 7.167969 -6.898438 L 6.941406 -8.304688 C 6.300781 -8.097656 5.621094 -7.871094 4.980469 -7.664062 L 4.980469 -11.714844 L 7.273438 -11.714844 L 7.273438 -13.140625 L 4.980469 -13.140625 Z M 16.03125 -5.390625 C 15.535156 -4.109375 14.875 -3.097656 13.964844 -2.273438 C 12.851562 -2.746094 11.734375 -3.179688 10.679688 -3.554688 C 11.054688 -4.089844 11.464844 -4.730469 11.878906 -5.390625 Z M 19.8125 -5.390625 L 19.8125 -6.714844 L 17.972656 -6.714844 C 18.035156 -7.023438 18.097656 -7.335938 18.160156 -7.664062 L 16.671875 -7.933594 C 16.589844 -7.5 16.507812 -7.105469 16.425781 -6.714844 L 12.644531 -6.714844 C 12.953125 -7.3125 13.261719 -7.933594 13.511719 -8.492188 L 12.066406 -8.78125 C 11.796875 -8.140625 11.445312 -7.417969 11.03125 -6.714844 L 7.394531 -6.714844 L 7.394531 -5.390625 L 10.269531 -5.390625 C 9.710938 -4.503906 9.109375 -3.65625 8.59375 -2.996094 C 9.875 -2.542969 11.300781 -1.984375 12.683594 -1.382812 C 11.34375 -0.597656 9.605469 -0.101562 7.375 0.226562 C 7.644531 0.578125 7.953125 1.117188 8.058594 1.550781 C 10.722656 1.074219 12.746094 0.371094 14.234375 -0.683594 C 15.886719 0.0820312 17.332031 0.867188 18.324219 1.527344 L 19.421875 0.414062 C 18.386719 -0.226562 16.980469 -0.949219 15.410156 -1.632812 C 16.402344 -2.644531 17.125 -3.882812 17.601562 -5.390625 Z M 19.8125 -5.390625 "/></g></g></g><g fill="#000000" fill-opacity="1"><g transform="translate(18.698263, 421.766041)"><g><path d="M 1.839844 -4.070312 C 1.632812 -2.417969 1.320312 -0.597656 0.867188 0.683594 C 1.15625 0.765625 1.757812 0.949219 2.003906 1.09375 C 2.417969 -0.1875 2.808594 -2.085938 3.015625 -3.882812 Z M 3.964844 -3.945312 C 4.195312 -2.542969 4.421875 -0.742188 4.460938 0.476562 L 5.621094 0.1875 C 5.558594 -1.011719 5.332031 -2.789062 5.039062 -4.152344 Z M 6.199219 -4.339844 C 6.652344 -3.078125 7.148438 -1.425781 7.355469 -0.332031 L 8.429688 -0.722656 C 8.222656 -1.777344 7.683594 -3.410156 7.210938 -4.691406 Z M 6.011719 -9.070312 C 6.238281 -8.46875 6.507812 -7.808594 6.734375 -7.148438 L 3.179688 -6.652344 C 4.8125 -8.613281 6.40625 -11.074219 7.707031 -13.511719 L 6.507812 -14.234375 C 6.074219 -13.261719 5.515625 -12.273438 5 -11.382812 L 2.832031 -11.175781 C 3.964844 -12.746094 5.082031 -14.773438 5.949219 -16.714844 L 4.648438 -17.269531 C 3.84375 -15.039062 2.4375 -12.683594 2.003906 -12.066406 C 1.589844 -11.445312 1.238281 -11.011719 0.910156 -10.929688 C 1.054688 -10.578125 1.261719 -9.894531 1.34375 -9.605469 C 1.613281 -9.75 2.046875 -9.855469 4.195312 -10.101562 C 3.472656 -8.964844 2.832031 -8.078125 2.5 -7.683594 C 1.902344 -6.898438 1.445312 -6.382812 1.03125 -6.300781 C 1.199219 -5.929688 1.425781 -5.269531 1.46875 -4.957031 C 1.859375 -5.164062 2.480469 -5.308594 7.085938 -6.03125 C 7.167969 -5.679688 7.273438 -5.332031 7.335938 -5.039062 L 8.492188 -5.496094 C 8.242188 -6.488281 7.644531 -8.140625 7.105469 -9.441406 Z M 13.429688 -3.554688 C 12.996094 -3.554688 12.933594 -3.71875 12.933594 -4.257812 L 12.933594 -6.28125 L 17.1875 -6.28125 L 17.1875 -7.5 L 14.132812 -7.5 L 14.875 -7.828125 C 14.6875 -8.285156 14.316406 -9.089844 13.964844 -9.6875 L 17.4375 -9.6875 L 17.4375 -10.910156 L 15.679688 -10.910156 C 16.011719 -11.796875 16.382812 -12.972656 16.691406 -13.988281 L 15.578125 -14.316406 C 15.390625 -13.324219 14.976562 -11.878906 14.605469 -10.910156 L 10.679688 -10.910156 L 10.679688 -9.6875 L 13.84375 -9.6875 L 12.890625 -9.316406 C 13.179688 -8.78125 13.511719 -8.058594 13.699219 -7.5 L 10.886719 -7.5 L 10.886719 -6.28125 L 11.652344 -6.28125 L 11.652344 -4.277344 C 11.652344 -2.914062 11.960938 -2.417969 13.324219 -2.417969 L 15.96875 -2.417969 C 16.488281 -2.417969 17.023438 -2.4375 17.292969 -2.519531 C 17.25 -2.832031 17.210938 -3.304688 17.167969 -3.65625 C 16.859375 -3.574219 16.28125 -3.554688 15.949219 -3.554688 Z M 11.382812 -14.027344 C 11.878906 -13.117188 12.3125 -11.878906 12.457031 -11.074219 L 13.449219 -11.425781 C 13.324219 -12.230469 12.851562 -13.449219 12.332031 -14.359375 Z M 19.273438 -16.300781 L 8.757812 -16.300781 L 8.757812 1.613281 L 10.144531 1.613281 L 10.144531 -14.9375 L 17.871094 -14.9375 L 17.871094 -0.144531 C 17.871094 0.144531 17.789062 0.226562 17.519531 0.246094 C 17.269531 0.246094 16.445312 0.269531 15.578125 0.226562 C 15.742188 0.597656 15.929688 1.21875 15.96875 1.589844 C 17.230469 1.589844 18.078125 1.570312 18.574219 1.320312 C 19.109375 1.074219 19.273438 0.703125 19.273438 -0.144531 Z M 19.273438 -16.300781 "/></g></g></g><g fill="#000000" fill-opacity="1"><g transform="translate(39.357354, 421.766041)"><g><path d="M 6.445312 -14.109375 C 6.199219 -14.957031 5.597656 -16.21875 4.980469 -17.167969 L 3.699219 -16.777344 C 4.234375 -15.804688 4.8125 -14.480469 5.0625 -13.636719 Z M 6.777344 -3.304688 C 7.3125 -5.476562 7.871094 -8.613281 8.285156 -11.03125 L 6.839844 -11.300781 C 6.570312 -8.800781 6.03125 -5.1875 5.496094 -2.996094 C 3.800781 -2.582031 2.230469 -2.25 1.03125 -1.984375 L 1.40625 -0.476562 C 3.554688 -1.011719 6.425781 -1.734375 9.152344 -2.4375 L 9.007812 -3.84375 Z M 2.085938 -10.824219 C 2.5625 -8.492188 2.996094 -5.476562 3.078125 -3.449219 L 4.378906 -3.699219 C 4.257812 -5.722656 3.800781 -8.699219 3.328125 -11.054688 Z M 1.28125 -12.003906 L 9.253906 -12.003906 L 9.253906 -13.429688 L 1.28125 -13.429688 Z M 17.332031 -0.847656 L 11.136719 -0.847656 L 11.136719 -6.03125 L 17.332031 -6.03125 Z M 19.75 -11.546875 L 19.75 -13.015625 L 14.542969 -13.015625 L 14.542969 -17.292969 L 12.996094 -17.292969 L 12.996094 -7.480469 L 9.648438 -7.480469 L 9.648438 1.570312 L 11.136719 1.570312 L 11.136719 0.597656 L 17.332031 0.597656 L 17.332031 1.488281 L 18.882812 1.488281 L 18.882812 -7.480469 L 14.542969 -7.480469 L 14.542969 -11.546875 Z M 19.75 -11.546875 "/></g></g></g><g fill="#000000" fill-opacity="1"><g transform="translate(60.016445, 421.766041)"><g><path d="M 7.808594 -11.199219 L 11.074219 -11.199219 L 11.074219 -8.65625 L 7.808594 -8.65625 Z M 7.808594 -7.375 L 11.074219 -7.375 L 11.074219 -4.792969 L 7.808594 -4.792969 Z M 7.808594 -15 L 11.074219 -15 L 11.074219 -12.476562 L 7.808594 -12.476562 Z M 6.488281 -16.363281 L 6.488281 -3.449219 L 12.457031 -3.449219 L 12.457031 -16.363281 Z M 10.125 -2.4375 C 10.949219 -1.425781 11.960938 -0.0195312 12.417969 0.847656 L 13.636719 0.0820312 C 13.160156 -0.742188 12.128906 -2.105469 11.28125 -3.078125 Z M 7.335938 -3.015625 C 6.734375 -1.613281 5.679688 -0.164062 4.585938 0.785156 C 4.917969 0.992188 5.535156 1.40625 5.785156 1.632812 C 6.878906 0.597656 8.058594 -1.054688 8.757812 -2.644531 Z M 17.601562 -17.269531 L 17.601562 -0.332031 C 17.601562 0.0195312 17.457031 0.125 17.105469 0.125 C 16.796875 0.144531 15.703125 0.164062 14.480469 0.125 C 14.6875 0.515625 14.875 1.175781 14.9375 1.570312 C 16.632812 1.570312 17.601562 1.527344 18.179688 1.28125 C 18.757812 1.03125 18.984375 0.597656 18.984375 -0.351562 L 18.984375 -17.269531 Z M 14.007812 -15.164062 L 14.007812 -3.429688 L 15.371094 -3.429688 L 15.371094 -15.164062 Z M 1.734375 -15.96875 C 2.890625 -15.390625 4.316406 -14.441406 4.980469 -13.757812 L 5.886719 -14.976562 C 5.1875 -15.660156 3.78125 -16.527344 2.625 -17.066406 Z M 0.847656 -10.453125 C 2.066406 -9.917969 3.53125 -9.050781 4.234375 -8.410156 L 5.101562 -9.667969 C 4.378906 -10.308594 2.914062 -11.09375 1.714844 -11.570312 Z M 1.28125 0.496094 L 2.664062 1.320312 C 3.554688 -0.578125 4.585938 -3.097656 5.351562 -5.246094 L 4.132812 -6.054688 C 3.285156 -3.738281 2.105469 -1.09375 1.28125 0.496094 Z M 1.28125 0.496094 "/></g></g></g><g fill="#000000" fill-opacity="1"><g transform="translate(80.675536, 421.766041)"><g><path d="M 19.214844 -14.296875 C 18.863281 -15 18.078125 -16.074219 17.355469 -16.835938 L 16.28125 -16.238281 C 17.003906 -15.410156 17.765625 -14.277344 18.097656 -13.574219 Z M 5.722656 -14.730469 C 5.433594 -15.453125 4.75 -16.527344 4.171875 -17.375 L 2.976562 -16.777344 C 3.53125 -15.90625 4.195312 -14.773438 4.503906 -14.007812 Z M 6.09375 -4.359375 L 6.09375 -0.949219 L 3.222656 -0.949219 L 3.222656 -4.359375 Z M 7.4375 -5.640625 L 1.902344 -5.640625 L 1.902344 1.300781 L 3.222656 1.300781 L 3.222656 0.332031 L 7.4375 0.332031 Z M 1.921875 -7.167969 L 7.394531 -7.167969 L 7.394531 -8.386719 L 1.921875 -8.386719 Z M 7.394531 -11.074219 L 1.921875 -11.074219 L 1.921875 -9.855469 L 7.394531 -9.855469 Z M 1.054688 -12.519531 L 7.789062 -12.519531 L 7.789062 -13.78125 L 1.054688 -13.78125 Z M 11.691406 -7.5 L 13.902344 -7.5 L 13.902344 -8.882812 L 8.121094 -8.882812 L 8.121094 -7.5 L 10.289062 -7.5 L 10.289062 -2.046875 C 9.359375 -1.816406 8.511719 -1.613281 7.789062 -1.445312 L 8.222656 0.0429688 C 10.0625 -0.496094 12.457031 -1.15625 14.730469 -1.859375 L 14.585938 -3.160156 C 13.613281 -2.914062 12.621094 -2.644531 11.691406 -2.398438 Z M 19.8125 -11.796875 L 19.8125 -13.242188 L 15.804688 -13.242188 C 15.761719 -14.523438 15.742188 -15.847656 15.761719 -17.230469 L 14.253906 -17.230469 C 14.277344 -15.867188 14.296875 -14.542969 14.335938 -13.242188 L 8.304688 -13.242188 L 8.304688 -11.796875 L 14.398438 -11.796875 C 14.730469 -4.296875 15.679688 1.613281 17.996094 1.613281 C 19.273438 1.613281 19.6875 0.640625 19.914062 -2.4375 C 19.566406 -2.582031 19.089844 -2.933594 18.757812 -3.265625 C 18.695312 -0.949219 18.511719 0.101562 18.199219 0.101562 C 17.105469 0.101562 16.136719 -4.894531 15.847656 -11.796875 Z M 19.8125 -11.796875 "/></g></g></g><g fill="#000000" fill-opacity="1"><g transform="translate(18.698263, 231.651362)"><g><path d="M 8.738281 -3.636719 C 8.511719 -2.976562 8.035156 -2.230469 7.003906 -1.570312 C 6.15625 -1.921875 5.269531 -2.25 4.421875 -2.519531 C 4.628906 -2.808594 4.855469 -3.121094 5.0625 -3.449219 Z M 3.203125 -8.429688 L 5.785156 -8.429688 L 5.785156 -7.148438 L 3.203125 -7.148438 Z M 9.648438 -8.429688 L 9.648438 -7.148438 L 7.003906 -7.148438 L 7.003906 -8.429688 Z M 3.78125 -11.402344 L 3.78125 -12.644531 L 5.785156 -12.644531 L 5.785156 -11.402344 Z M 5.785156 -14.773438 L 5.785156 -13.675781 L 3.78125 -13.675781 L 3.78125 -14.773438 Z M 9.152344 -14.773438 L 9.152344 -13.675781 L 7.003906 -13.675781 L 7.003906 -14.773438 Z M 7.003906 -11.402344 L 7.003906 -12.644531 L 9.152344 -12.644531 L 9.152344 -11.402344 Z M 11.199219 -3.78125 L 11.21875 -4.855469 L 10.183594 -4.792969 L 10.183594 -5.703125 L 8.925781 -5.703125 L 8.925781 -4.730469 C 7.851562 -4.667969 6.796875 -4.605469 5.785156 -4.566406 C 6.117188 -5.082031 6.40625 -5.597656 6.652344 -6.117188 L 11.011719 -6.117188 L 11.011719 -9.484375 L 7.003906 -9.484375 L 7.003906 -10.328125 L 10.515625 -10.328125 L 10.515625 -12.5625 L 11.921875 -12.5625 L 11.921875 -13.738281 L 10.515625 -13.738281 L 10.515625 -15.847656 L 7.003906 -15.847656 L 7.003906 -17.292969 L 5.785156 -17.292969 L 5.785156 -15.847656 L 2.457031 -15.847656 L 2.457031 -13.738281 L 1.074219 -13.738281 L 1.074219 -12.5625 L 2.457031 -12.5625 L 2.457031 -10.328125 L 5.785156 -10.328125 L 5.785156 -9.484375 L 1.878906 -9.484375 L 1.878906 -6.117188 L 5.246094 -6.117188 C 4.957031 -5.578125 4.628906 -5.039062 4.316406 -4.484375 C 3.058594 -4.441406 1.902344 -4.378906 0.972656 -4.359375 L 1.117188 -3.222656 L 3.554688 -3.347656 C 3.203125 -2.851562 2.832031 -2.398438 2.5 -1.984375 C 3.53125 -1.695312 4.628906 -1.300781 5.679688 -0.847656 C 4.523438 -0.332031 2.890625 0.144531 0.703125 0.515625 C 0.929688 0.785156 1.21875 1.238281 1.34375 1.550781 C 3.945312 1.074219 5.804688 0.453125 7.128906 -0.226562 C 8.121094 0.226562 9.007812 0.703125 9.667969 1.117188 L 10.679688 0.226562 C 10.0625 -0.164062 9.234375 -0.578125 8.304688 -0.992188 C 9.441406 -1.878906 9.894531 -2.808594 10.082031 -3.71875 Z M 16.859375 -11.960938 C 16.609375 -9.667969 16.257812 -7.625 15.660156 -5.847656 C 15.039062 -7.683594 14.585938 -9.773438 14.277344 -11.960938 Z M 19.648438 -11.960938 L 19.648438 -13.347656 L 14.605469 -13.347656 C 14.875 -14.503906 15.101562 -15.722656 15.265625 -16.921875 L 13.964844 -17.125 C 13.492188 -13.738281 12.683594 -10.390625 11.320312 -8.222656 C 11.632812 -8.015625 12.148438 -7.5 12.375 -7.292969 C 12.789062 -7.953125 13.140625 -8.71875 13.46875 -9.566406 C 13.84375 -7.5625 14.316406 -5.722656 14.976562 -4.109375 C 14.089844 -2.167969 12.851562 -0.621094 11.09375 0.539062 C 11.382812 0.804688 11.816406 1.40625 11.941406 1.695312 C 13.550781 0.558594 14.75 -0.867188 15.679688 -2.5625 C 16.507812 -0.929688 17.582031 0.414062 18.925781 1.34375 C 19.128906 0.972656 19.542969 0.515625 19.855469 0.246094 C 18.386719 -0.683594 17.269531 -2.191406 16.363281 -4.050781 C 17.3125 -6.261719 17.851562 -8.882812 18.242188 -11.960938 Z M 19.648438 -11.960938 "/></g></g></g><g fill="#000000" fill-opacity="1"><g transform="translate(39.357354, 231.651362)"><g><path d="M 7.085938 -7.167969 L 6.898438 -8.59375 L 4.855469 -7.953125 L 4.855469 -11.714844 L 6.734375 -11.714844 L 6.734375 -13.140625 L 4.855469 -13.140625 L 4.855469 -17.269531 L 3.449219 -17.269531 L 3.449219 -13.140625 L 0.929688 -13.140625 L 0.929688 -11.714844 L 3.449219 -11.714844 L 3.449219 -7.5 C 2.398438 -7.167969 1.425781 -6.898438 0.640625 -6.671875 L 1.03125 -5.1875 C 1.777344 -5.414062 2.582031 -5.703125 3.449219 -5.992188 L 3.449219 -0.164062 C 3.449219 0.125 3.347656 0.207031 3.097656 0.207031 C 2.871094 0.207031 2.046875 0.207031 1.15625 0.1875 C 1.363281 0.597656 1.550781 1.21875 1.613281 1.589844 C 2.914062 1.613281 3.675781 1.550781 4.152344 1.320312 C 4.667969 1.054688 4.855469 0.660156 4.855469 -0.164062 L 4.855469 -6.445312 Z M 8.84375 -12.5625 L 12.003906 -12.5625 L 12.003906 -11.28125 L 9.316406 -11.03125 L 9.460938 -9.855469 L 12.003906 -10.101562 C 12.023438 -8.988281 12.332031 -8.492188 13.636719 -8.492188 L 16.796875 -8.492188 C 17.355469 -8.492188 17.996094 -8.511719 18.285156 -8.59375 C 18.242188 -8.882812 18.199219 -9.253906 18.179688 -9.585938 C 17.851562 -9.503906 17.105469 -9.503906 16.714844 -9.503906 L 13.84375 -9.503906 C 13.367188 -9.503906 13.285156 -9.648438 13.285156 -10.144531 L 13.285156 -10.414062 L 16.734375 -10.742188 L 16.632812 -11.691406 L 13.285156 -11.382812 L 13.285156 -12.5625 L 17.933594 -12.5625 C 17.765625 -11.984375 17.5625 -11.363281 17.375 -10.949219 L 18.550781 -10.679688 C 18.902344 -11.382812 19.273438 -12.539062 19.542969 -13.53125 L 18.613281 -13.757812 L 18.367188 -13.71875 L 13.636719 -13.71875 L 13.636719 -14.855469 L 18.46875 -14.855469 L 18.46875 -15.992188 L 13.636719 -15.992188 L 13.636719 -17.25 L 12.148438 -17.25 L 12.148438 -13.71875 L 7.5 -13.71875 L 7.5 -7.890625 C 7.5 -5.207031 7.292969 -1.714844 5.453125 0.785156 C 5.785156 0.929688 6.34375 1.34375 6.589844 1.570312 C 8.554688 -1.054688 8.84375 -5 8.84375 -7.890625 Z M 18.550781 -5.992188 C 17.621094 -5.414062 16.074219 -4.628906 14.792969 -4.070312 C 14.503906 -4.628906 14.109375 -5.125 13.613281 -5.578125 C 14.132812 -5.910156 14.628906 -6.238281 15 -6.589844 L 19.503906 -6.589844 L 19.503906 -7.664062 L 9.421875 -7.664062 L 9.421875 -6.589844 L 13.550781 -6.589844 C 12.394531 -5.804688 10.660156 -5.101562 9.171875 -4.691406 C 9.296875 -4.484375 9.542969 -4.070312 9.667969 -3.863281 C 10.640625 -4.132812 11.714844 -4.566406 12.683594 -5.0625 C 12.890625 -4.875 13.058594 -4.667969 13.222656 -4.460938 C 12.128906 -3.636719 10.289062 -2.808594 8.820312 -2.4375 C 9.050781 -2.230469 9.296875 -1.839844 9.421875 -1.570312 C 10.847656 -2.066406 12.539062 -2.933594 13.699219 -3.761719 C 13.820312 -3.511719 13.945312 -3.265625 14.007812 -3.035156 C 12.789062 -1.816406 10.414062 -0.496094 8.53125 0.0820312 C 8.78125 0.308594 9.050781 0.742188 9.195312 1.011719 C 10.867188 0.332031 12.890625 -0.867188 14.277344 -2.023438 C 14.441406 -0.992188 14.234375 -0.0820312 13.925781 0.226562 C 13.71875 0.496094 13.449219 0.515625 13.117188 0.515625 C 12.828125 0.515625 12.394531 0.496094 11.921875 0.453125 C 12.128906 0.765625 12.230469 1.261719 12.25 1.570312 C 12.664062 1.589844 13.035156 1.613281 13.347656 1.613281 C 13.988281 1.613281 14.378906 1.46875 14.8125 1.074219 C 15.535156 0.414062 15.824219 -1.46875 15.144531 -3.265625 C 15.453125 -3.386719 15.785156 -3.511719 16.113281 -3.636719 C 16.652344 -1.671875 17.664062 0.125 19.089844 1.03125 C 19.273438 0.703125 19.6875 0.246094 19.976562 0.0195312 C 18.574219 -0.703125 17.582031 -2.292969 17.066406 -4.050781 C 17.910156 -4.421875 18.738281 -4.855469 19.441406 -5.246094 Z M 18.550781 -5.992188 "/></g></g></g><g fill="#000000" fill-opacity="1"><g transform="translate(60.016445, 231.651362)"><g><path d="M 6.117188 -16.589844 C 5.125 -13.367188 3.242188 -10.640625 0.804688 -8.945312 C 1.175781 -8.699219 1.816406 -8.121094 2.085938 -7.808594 C 4.503906 -9.75 6.550781 -12.683594 7.707031 -16.195312 Z M 3.90625 -9.523438 L 3.90625 -8.035156 L 8.121094 -8.035156 C 7.644531 -4.523438 6.507812 -1.28125 1.632812 0.351562 C 2.003906 0.683594 2.4375 1.28125 2.625 1.695312 C 7.871094 -0.226562 9.214844 -3.945312 9.75 -8.035156 L 15.082031 -8.035156 C 14.832031 -2.832031 14.542969 -0.765625 14.007812 -0.246094 C 13.800781 -0.0195312 13.574219 0.0195312 13.140625 0.0195312 C 12.644531 0.0195312 11.382812 0 10.039062 -0.125 C 10.328125 0.332031 10.515625 0.949219 10.535156 1.425781 C 11.816406 1.488281 13.117188 1.527344 13.78125 1.46875 C 14.523438 1.382812 14.957031 1.238281 15.390625 0.722656 C 16.09375 -0.0625 16.382812 -2.4375 16.671875 -8.78125 C 16.691406 -8.988281 16.714844 -9.523438 16.714844 -9.523438 Z M 9.339844 -16.921875 L 9.339844 -15.472656 L 12.996094 -15.472656 C 14.171875 -12.394531 16.300781 -9.503906 18.863281 -7.851562 C 19.128906 -8.285156 19.625 -8.902344 19.957031 -9.234375 C 17.332031 -10.722656 15.121094 -13.675781 14.089844 -16.921875 Z M 9.339844 -16.921875 "/></g></g></g><g fill="#000000" fill-opacity="1"><g transform="translate(80.675536, 231.651362)"><g><path d="M 8.71875 -6.550781 C 8.304688 -7.167969 6.589844 -9.484375 5.867188 -10.351562 L 5.867188 -11.402344 L 8.882812 -11.402344 L 8.882812 -12.871094 L 5.867188 -12.871094 L 5.867188 -17.292969 L 4.378906 -17.292969 L 4.378906 -12.871094 L 1.300781 -12.871094 L 1.300781 -11.402344 L 4.214844 -11.402344 C 3.53125 -8.574219 2.105469 -5.351562 0.742188 -3.636719 C 0.992188 -3.265625 1.382812 -2.664062 1.550781 -2.25 C 2.601562 -3.636719 3.617188 -5.867188 4.378906 -8.179688 L 4.378906 1.570312 L 5.867188 1.570312 L 5.867188 -8.449219 C 6.570312 -7.355469 7.375 -6.054688 7.726562 -5.332031 Z M 19.667969 -10.269531 L 11.402344 -10.269531 L 11.402344 -13.945312 C 13.882812 -14.398438 16.570312 -15.0625 18.492188 -15.847656 L 17.1875 -17.042969 C 15.515625 -16.28125 12.5625 -15.496094 9.957031 -15.019531 L 9.957031 -8.699219 C 9.957031 -5.824219 9.773438 -1.984375 7.914062 0.765625 C 8.265625 0.886719 8.902344 1.300781 9.171875 1.550781 C 11.113281 -1.300781 11.402344 -5.621094 11.402344 -8.699219 L 11.402344 -8.800781 L 15.164062 -8.800781 L 15.164062 1.589844 L 16.671875 1.589844 L 16.671875 -8.800781 L 19.667969 -8.800781 Z M 19.667969 -10.269531 "/></g></g></g><g fill="#000000" fill-opacity="1"><g transform="translate(18.698263, 172.463181)"><g><path d="M 5.082031 -17.269531 C 4.234375 -15.824219 2.542969 -14.070312 1.03125 -12.972656 C 1.261719 -12.683594 1.671875 -12.167969 1.859375 -11.859375 C 3.511719 -13.117188 5.351562 -15.019531 6.488281 -16.753906 Z M 5.578125 -13.097656 C 4.441406 -10.929688 2.601562 -8.78125 0.828125 -7.375 C 1.117188 -7.066406 1.550781 -6.320312 1.714844 -6.03125 C 2.355469 -6.570312 3.015625 -7.210938 3.65625 -7.953125 L 3.65625 1.652344 L 5.125 1.652344 L 5.125 -9.75 C 5.804688 -10.679688 6.425781 -11.652344 6.941406 -12.621094 Z M 15.867188 -5.433594 C 15.101562 -4.195312 13.988281 -3.140625 12.707031 -2.292969 C 11.671875 -2.933594 10.761719 -3.699219 10 -4.546875 C 10.269531 -4.835938 10.515625 -5.125 10.761719 -5.433594 Z M 17.003906 -6.777344 L 16.753906 -6.714844 L 11.691406 -6.714844 C 12.066406 -7.230469 12.394531 -7.808594 12.683594 -8.367188 L 17.269531 -8.65625 C 17.726562 -8.035156 18.078125 -7.4375 18.347656 -6.960938 L 19.605469 -7.683594 C 18.902344 -8.882812 17.4375 -10.785156 16.21875 -12.148438 L 15.019531 -11.527344 C 15.472656 -11.011719 15.949219 -10.414062 16.425781 -9.8125 L 9.957031 -9.460938 C 12.476562 -10.804688 15.019531 -12.519531 17.457031 -14.523438 L 16.050781 -15.308594 C 15.207031 -14.542969 14.253906 -13.78125 13.324219 -13.097656 L 9.648438 -12.972656 C 10.96875 -13.902344 12.332031 -15.121094 13.574219 -16.402344 L 12.066406 -17.066406 C 10.804688 -15.558594 8.988281 -14.070312 8.449219 -13.675781 C 7.914062 -13.304688 7.480469 -13.015625 7.085938 -12.953125 C 7.273438 -12.539062 7.519531 -11.796875 7.582031 -11.464844 C 7.890625 -11.589844 8.449219 -11.691406 11.527344 -11.839844 C 10.371094 -11.09375 9.421875 -10.496094 8.945312 -10.246094 C 7.972656 -9.6875 7.25 -9.339844 6.652344 -9.253906 C 6.816406 -8.863281 7.066406 -8.121094 7.128906 -7.828125 C 7.519531 -7.972656 8.058594 -8.058594 11.011719 -8.242188 C 10.496094 -7.335938 9.8125 -6.445312 9.089844 -5.660156 C 8.84375 -6.011719 8.636719 -6.363281 8.429688 -6.734375 L 7.167969 -6.300781 C 7.480469 -5.765625 7.789062 -5.226562 8.160156 -4.75 C 7.601562 -4.234375 6.984375 -3.78125 6.382812 -3.386719 C 6.695312 -3.121094 7.230469 -2.542969 7.4375 -2.25 C 7.972656 -2.664062 8.53125 -3.097656 9.070312 -3.617188 C 9.730469 -2.851562 10.535156 -2.128906 11.363281 -1.507812 C 9.6875 -0.640625 7.789062 -0.0195312 5.910156 0.332031 C 6.199219 0.660156 6.527344 1.261719 6.652344 1.652344 C 8.757812 1.15625 10.847656 0.433594 12.707031 -0.640625 C 14.421875 0.371094 16.382812 1.136719 18.550781 1.613281 C 18.757812 1.199219 19.152344 0.621094 19.480469 0.289062 C 17.5 -0.0625 15.660156 -0.703125 14.027344 -1.507812 C 15.742188 -2.746094 17.105469 -4.316406 17.953125 -6.300781 Z M 17.003906 -6.777344 "/></g></g></g><g fill="#000000" fill-opacity="1"><g transform="translate(39.357354, 172.463181)"><g><path d="M 18.984375 -16.257812 L 17.519531 -16.257812 L 17.519531 -12.726562 L 14.398438 -12.726562 L 14.398438 -17.25 L 12.933594 -17.25 L 12.933594 -12.726562 L 10.082031 -12.726562 L 10.082031 -16.257812 L 8.65625 -16.257812 L 8.65625 -11.363281 L 18.984375 -11.363281 Z M 5.867188 -14.089844 C 5.597656 -14.894531 5 -16.136719 4.421875 -17.066406 L 3.140625 -16.652344 C 3.65625 -15.703125 4.257812 -14.421875 4.503906 -13.59375 Z M 7.996094 -13.429688 L 1.117188 -13.429688 L 1.117188 -12.003906 L 7.996094 -12.003906 Z M 3.882812 -3.636719 C 3.800781 -5.679688 3.410156 -8.65625 2.933594 -11.011719 L 1.757812 -10.804688 C 2.191406 -8.46875 2.582031 -5.453125 2.644531 -3.429688 Z M 5.992188 -3.140625 C 6.488281 -5.332031 7.003906 -8.492188 7.355469 -10.949219 L 6.011719 -11.199219 C 5.785156 -8.699219 5.289062 -5.0625 4.792969 -2.851562 C 3.328125 -2.519531 2.003906 -2.191406 0.972656 -1.960938 L 1.300781 -0.476562 C 3.242188 -0.929688 5.742188 -1.589844 8.140625 -2.210938 L 7.972656 -3.636719 Z M 19.667969 -8.492188 L 19.667969 -9.855469 L 7.769531 -9.855469 L 7.769531 -8.492188 L 12.789062 -8.492188 C 12.664062 -7.871094 12.539062 -7.191406 12.417969 -6.609375 L 8.429688 -6.609375 L 8.429688 1.570312 L 9.8125 1.570312 L 9.8125 -5.289062 L 11.632812 -5.289062 L 11.632812 1.382812 L 12.851562 1.382812 L 12.851562 -5.289062 L 14.75 -5.289062 L 14.75 1.320312 L 15.96875 1.320312 L 15.96875 -5.289062 L 17.851562 -5.289062 L 17.851562 0.164062 C 17.851562 0.332031 17.808594 0.390625 17.621094 0.390625 C 17.476562 0.414062 16.941406 0.414062 16.363281 0.390625 C 16.546875 0.742188 16.753906 1.238281 16.816406 1.632812 C 17.707031 1.632812 18.285156 1.613281 18.695312 1.382812 C 19.128906 1.15625 19.234375 0.828125 19.234375 0.1875 L 19.234375 -6.609375 L 13.925781 -6.609375 C 14.132812 -7.191406 14.316406 -7.851562 14.523438 -8.492188 Z M 19.667969 -8.492188 "/></g></g></g><g fill="#000000" fill-opacity="1"><g transform="translate(60.016445, 172.463181)"><g><path d="M 19.171875 -15.121094 L 15.039062 -15.121094 C 14.773438 -15.804688 14.335938 -16.671875 13.945312 -17.375 L 12.292969 -17.085938 C 12.621094 -16.507812 12.953125 -15.761719 13.203125 -15.121094 L 8.160156 -15.121094 L 8.160156 -13.800781 L 19.171875 -13.800781 Z M 12.5 -11.03125 C 12.230469 -11.714844 11.589844 -12.769531 10.96875 -13.574219 L 9.710938 -13.078125 C 10.308594 -12.273438 10.929688 -11.136719 11.175781 -10.453125 Z M 19.566406 -10.328125 L 16.09375 -10.328125 C 16.589844 -11.15625 17.148438 -12.1875 17.621094 -13.117188 L 16.15625 -13.53125 C 15.824219 -12.582031 15.121094 -11.21875 14.585938 -10.328125 L 7.644531 -10.328125 L 7.644531 -8.988281 L 19.566406 -8.988281 Z M 4.980469 -17.269531 L 3.554688 -17.269531 L 3.554688 -13.140625 L 0.929688 -13.140625 L 0.929688 -11.714844 L 3.554688 -11.714844 L 3.554688 -7.25 C 2.4375 -6.898438 1.445312 -6.589844 0.640625 -6.363281 L 1.03125 -4.894531 C 1.796875 -5.125 2.644531 -5.414062 3.554688 -5.703125 L 3.554688 -0.246094 C 3.554688 0.0195312 3.449219 0.101562 3.203125 0.101562 C 2.976562 0.125 2.167969 0.125 1.300781 0.0820312 C 1.507812 0.515625 1.695312 1.136719 1.757812 1.527344 C 3.035156 1.550781 3.800781 1.488281 4.296875 1.238281 C 4.792969 0.992188 4.980469 0.578125 4.980469 -0.269531 L 4.980469 -6.15625 L 7.167969 -6.898438 L 6.941406 -8.304688 C 6.300781 -8.097656 5.621094 -7.871094 4.980469 -7.664062 L 4.980469 -11.714844 L 7.273438 -11.714844 L 7.273438 -13.140625 L 4.980469 -13.140625 Z M 16.03125 -5.390625 C 15.535156 -4.109375 14.875 -3.097656 13.964844 -2.273438 C 12.851562 -2.746094 11.734375 -3.179688 10.679688 -3.554688 C 11.054688 -4.089844 11.464844 -4.730469 11.878906 -5.390625 Z M 19.8125 -5.390625 L 19.8125 -6.714844 L 17.972656 -6.714844 C 18.035156 -7.023438 18.097656 -7.335938 18.160156 -7.664062 L 16.671875 -7.933594 C 16.589844 -7.5 16.507812 -7.105469 16.425781 -6.714844 L 12.644531 -6.714844 C 12.953125 -7.3125 13.261719 -7.933594 13.511719 -8.492188 L 12.066406 -8.78125 C 11.796875 -8.140625 11.445312 -7.417969 11.03125 -6.714844 L 7.394531 -6.714844 L 7.394531 -5.390625 L 10.269531 -5.390625 C 9.710938 -4.503906 9.109375 -3.65625 8.59375 -2.996094 C 9.875 -2.542969 11.300781 -1.984375 12.683594 -1.382812 C 11.34375 -0.597656 9.605469 -0.101562 7.375 0.226562 C 7.644531 0.578125 7.953125 1.117188 8.058594 1.550781 C 10.722656 1.074219 12.746094 0.371094 14.234375 -0.683594 C 15.886719 0.0820312 17.332031 0.867188 18.324219 1.527344 L 19.421875 0.414062 C 18.386719 -0.226562 16.980469 -0.949219 15.410156 -1.632812 C 16.402344 -2.644531 17.125 -3.882812 17.601562 -5.390625 Z M 19.8125 -5.390625 "/></g></g></g><g fill="#000000" fill-opacity="1"><g transform="translate(80.675536, 172.463181)"><g><path d="M 4.257812 -2.230469 L 4.257812 -13.613281 L 16.402344 -13.613281 L 16.402344 -2.230469 Z M 2.707031 -15.144531 L 2.707031 1.074219 L 4.257812 1.074219 L 4.257812 -0.683594 L 16.402344 -0.683594 L 16.402344 0.972656 L 18.035156 0.972656 L 18.035156 -15.144531 Z M 2.707031 -15.144531 "/></g></g></g><g fill="#000000" fill-opacity="1"><g transform="translate(18.698263, 487.208696)"><g><path d="M 1.839844 -4.070312 C 1.632812 -2.417969 1.320312 -0.597656 0.867188 0.683594 C 1.15625 0.765625 1.757812 0.949219 2.003906 1.09375 C 2.417969 -0.1875 2.808594 -2.085938 3.015625 -3.882812 Z M 3.964844 -3.945312 C 4.195312 -2.542969 4.421875 -0.742188 4.460938 0.476562 L 5.621094 0.1875 C 5.558594 -1.011719 5.332031 -2.789062 5.039062 -4.152344 Z M 6.199219 -4.339844 C 6.652344 -3.078125 7.148438 -1.425781 7.355469 -0.332031 L 8.429688 -0.722656 C 8.222656 -1.777344 7.683594 -3.410156 7.210938 -4.691406 Z M 6.011719 -9.070312 C 6.238281 -8.46875 6.507812 -7.808594 6.734375 -7.148438 L 3.179688 -6.652344 C 4.8125 -8.613281 6.40625 -11.074219 7.707031 -13.511719 L 6.507812 -14.234375 C 6.074219 -13.261719 5.515625 -12.273438 5 -11.382812 L 2.832031 -11.175781 C 3.964844 -12.746094 5.082031 -14.773438 5.949219 -16.714844 L 4.648438 -17.269531 C 3.84375 -15.039062 2.4375 -12.683594 2.003906 -12.066406 C 1.589844 -11.445312 1.238281 -11.011719 0.910156 -10.929688 C 1.054688 -10.578125 1.261719 -9.894531 1.34375 -9.605469 C 1.613281 -9.75 2.046875 -9.855469 4.195312 -10.101562 C 3.472656 -8.964844 2.832031 -8.078125 2.5 -7.683594 C 1.902344 -6.898438 1.445312 -6.382812 1.03125 -6.300781 C 1.199219 -5.929688 1.425781 -5.269531 1.46875 -4.957031 C 1.859375 -5.164062 2.480469 -5.308594 7.085938 -6.03125 C 7.167969 -5.679688 7.273438 -5.332031 7.335938 -5.039062 L 8.492188 -5.496094 C 8.242188 -6.488281 7.644531 -8.140625 7.105469 -9.441406 Z M 13.429688 -3.554688 C 12.996094 -3.554688 12.933594 -3.71875 12.933594 -4.257812 L 12.933594 -6.28125 L 17.1875 -6.28125 L 17.1875 -7.5 L 14.132812 -7.5 L 14.875 -7.828125 C 14.6875 -8.285156 14.316406 -9.089844 13.964844 -9.6875 L 17.4375 -9.6875 L 17.4375 -10.910156 L 15.679688 -10.910156 C 16.011719 -11.796875 16.382812 -12.972656 16.691406 -13.988281 L 15.578125 -14.316406 C 15.390625 -13.324219 14.976562 -11.878906 14.605469 -10.910156 L 10.679688 -10.910156 L 10.679688 -9.6875 L 13.84375 -9.6875 L 12.890625 -9.316406 C 13.179688 -8.78125 13.511719 -8.058594 13.699219 -7.5 L 10.886719 -7.5 L 10.886719 -6.28125 L 11.652344 -6.28125 L 11.652344 -4.277344 C 11.652344 -2.914062 11.960938 -2.417969 13.324219 -2.417969 L 15.96875 -2.417969 C 16.488281 -2.417969 17.023438 -2.4375 17.292969 -2.519531 C 17.25 -2.832031 17.210938 -3.304688 17.167969 -3.65625 C 16.859375 -3.574219 16.28125 -3.554688 15.949219 -3.554688 Z M 11.382812 -14.027344 C 11.878906 -13.117188 12.3125 -11.878906 12.457031 -11.074219 L 13.449219 -11.425781 C 13.324219 -12.230469 12.851562 -13.449219 12.332031 -14.359375 Z M 19.273438 -16.300781 L 8.757812 -16.300781 L 8.757812 1.613281 L 10.144531 1.613281 L 10.144531 -14.9375 L 17.871094 -14.9375 L 17.871094 -0.144531 C 17.871094 0.144531 17.789062 0.226562 17.519531 0.246094 C 17.269531 0.246094 16.445312 0.269531 15.578125 0.226562 C 15.742188 0.597656 15.929688 1.21875 15.96875 1.589844 C 17.230469 1.589844 18.078125 1.570312 18.574219 1.320312 C 19.109375 1.074219 19.273438 0.703125 19.273438 -0.144531 Z M 19.273438 -16.300781 "/></g></g></g><g fill="#000000" fill-opacity="1"><g transform="translate(39.357354, 487.208696)"><g><path d="M 6.445312 -14.109375 C 6.199219 -14.957031 5.597656 -16.21875 4.980469 -17.167969 L 3.699219 -16.777344 C 4.234375 -15.804688 4.8125 -14.480469 5.0625 -13.636719 Z M 6.777344 -3.304688 C 7.3125 -5.476562 7.871094 -8.613281 8.285156 -11.03125 L 6.839844 -11.300781 C 6.570312 -8.800781 6.03125 -5.1875 5.496094 -2.996094 C 3.800781 -2.582031 2.230469 -2.25 1.03125 -1.984375 L 1.40625 -0.476562 C 3.554688 -1.011719 6.425781 -1.734375 9.152344 -2.4375 L 9.007812 -3.84375 Z M 2.085938 -10.824219 C 2.5625 -8.492188 2.996094 -5.476562 3.078125 -3.449219 L 4.378906 -3.699219 C 4.257812 -5.722656 3.800781 -8.699219 3.328125 -11.054688 Z M 1.28125 -12.003906 L 9.253906 -12.003906 L 9.253906 -13.429688 L 1.28125 -13.429688 Z M 17.332031 -0.847656 L 11.136719 -0.847656 L 11.136719 -6.03125 L 17.332031 -6.03125 Z M 19.75 -11.546875 L 19.75 -13.015625 L 14.542969 -13.015625 L 14.542969 -17.292969 L 12.996094 -17.292969 L 12.996094 -7.480469 L 9.648438 -7.480469 L 9.648438 1.570312 L 11.136719 1.570312 L 11.136719 0.597656 L 17.332031 0.597656 L 17.332031 1.488281 L 18.882812 1.488281 L 18.882812 -7.480469 L 14.542969 -7.480469 L 14.542969 -11.546875 Z M 19.75 -11.546875 "/></g></g></g><g fill="#000000" fill-opacity="1"><g transform="translate(60.016445, 487.208696)"><g><path d="M 10.453125 -0.929688 L 10.453125 -9.109375 L 18.140625 -9.109375 L 18.140625 -10.640625 L 10.453125 -10.640625 L 10.453125 -16.960938 L 8.84375 -16.960938 L 8.84375 -0.929688 L 1.136719 -0.929688 L 1.136719 0.597656 L 19.542969 0.597656 L 19.542969 -0.929688 Z M 10.453125 -0.929688 "/></g></g></g><g fill="#000000" fill-opacity="1"><g transform="translate(80.675536, 487.208696)"><g><path d="M 17.25 -9.980469 L 13.015625 -9.980469 L 13.015625 -14.253906 L 17.25 -14.253906 Z M 18.757812 -15.617188 L 11.570312 -15.617188 L 11.570312 -8.636719 L 18.757812 -8.636719 Z M 8.554688 -13.757812 C 8.347656 -11.113281 8.140625 -10.039062 7.871094 -9.730469 C 7.707031 -9.542969 7.539062 -9.523438 7.273438 -9.523438 C 6.960938 -9.523438 6.261719 -9.542969 5.453125 -9.605469 C 5.679688 -9.234375 5.824219 -8.675781 5.867188 -8.242188 C 6.695312 -8.203125 7.480469 -8.203125 7.914062 -8.242188 C 8.410156 -8.285156 8.757812 -8.410156 9.089844 -8.78125 C 9.585938 -9.316406 9.792969 -10.785156 10.019531 -14.480469 C 10.039062 -14.667969 10.0625 -15.101562 10.0625 -15.101562 L 5.824219 -15.101562 C 5.910156 -15.785156 5.949219 -16.507812 5.992188 -17.25 L 4.484375 -17.25 C 4.460938 -16.507812 4.421875 -15.761719 4.359375 -15.101562 L 1.21875 -15.101562 L 1.21875 -13.757812 L 4.171875 -13.757812 C 3.78125 -11.488281 2.914062 -9.773438 0.828125 -8.699219 C 1.15625 -8.449219 1.589844 -7.890625 1.777344 -7.5625 C 4.214844 -8.882812 5.226562 -10.992188 5.660156 -13.757812 Z M 6.363281 -4.070312 C 5.226562 -2.542969 3.222656 -1.15625 1.300781 -0.269531 C 1.671875 -0.0429688 2.292969 0.476562 2.582031 0.765625 C 4.441406 -0.246094 6.570312 -1.839844 7.871094 -3.574219 Z M 19.070312 -4.773438 L 19.070312 -6.15625 L 11.074219 -6.15625 L 11.074219 -8.140625 L 9.503906 -8.140625 L 9.503906 -6.15625 L 1.320312 -6.15625 L 1.320312 -4.773438 L 9.503906 -4.773438 L 9.503906 1.613281 L 11.074219 1.613281 L 11.074219 -4.773438 Z M 12.582031 -3.179688 C 14.605469 -2.066406 17.085938 -0.308594 18.261719 0.847656 L 19.421875 -0.207031 C 18.179688 -1.363281 15.640625 -3.035156 13.636719 -4.109375 Z M 12.582031 -3.179688 "/></g></g></g><g clip-path="url(#83a3f5697c)"><g clip-path="url(#6ec55354fd)"><path fill="#d9d9d9" d="M 186.324219 307.125 L 186.324219 270.980469 L 744.9375 270.980469 L 744.9375 307.125 Z M 186.324219 307.125 " fill-opacity="1" fill-rule="nonzero"/></g></g><g clip-path="url(#e2704c4953)"><g clip-path="url(#3f29d179e2)"><path fill="#d9d9d9" d="M 184.609375 367.023438 L 184.609375 330.878906 L 743.222656 330.878906 L 743.222656 367.023438 Z M 184.609375 367.023438 " fill-opacity="1" fill-rule="nonzero"/></g></g><g clip-path="url(#e309b33d75)"><g clip-path="url(#e075979e6a)"><path fill="#d9d9d9" d="M 184.609375 497.796875 L 184.609375 461.652344 L 743.222656 461.652344 L 743.222656 497.796875 Z M 184.609375 497.796875 " fill-opacity="1" fill-rule="nonzero"/></g></g><g fill="#000000" fill-opacity="1"><g transform="translate(297.441573, 109.024088)"><g><path d="M 8.671875 -7.5625 C 9.617188 -7.320312 10.363281 -6.882812 10.90625 -6.25 C 11.445312 -5.625 11.71875 -4.863281 11.71875 -3.96875 C 11.71875 -3.125 11.484375 -2.390625 11.015625 -1.765625 C 10.554688 -1.140625 9.910156 -0.660156 9.078125 -0.328125 C 8.242188 0.00390625 7.285156 0.171875 6.203125 0.171875 C 5.109375 0.171875 4.144531 0.00390625 3.3125 -0.328125 C 2.476562 -0.660156 1.832031 -1.140625 1.375 -1.765625 C 0.914062 -2.390625 0.6875 -3.125 0.6875 -3.96875 C 0.6875 -4.863281 0.953125 -5.625 1.484375 -6.25 C 2.023438 -6.882812 2.769531 -7.320312 3.71875 -7.5625 C 2.894531 -7.832031 2.242188 -8.265625 1.765625 -8.859375 C 1.285156 -9.453125 1.046875 -10.140625 1.046875 -10.921875 C 1.046875 -11.722656 1.265625 -12.421875 1.703125 -13.015625 C 2.148438 -13.617188 2.757812 -14.082031 3.53125 -14.40625 C 4.3125 -14.726562 5.203125 -14.890625 6.203125 -14.890625 C 7.191406 -14.890625 8.070312 -14.726562 8.84375 -14.40625 C 9.625 -14.082031 10.234375 -13.617188 10.671875 -13.015625 C 11.117188 -12.421875 11.34375 -11.722656 11.34375 -10.921875 C 11.34375 -10.128906 11.101562 -9.429688 10.625 -8.828125 C 10.15625 -8.234375 9.503906 -7.8125 8.671875 -7.5625 Z M 6.203125 -12.8125 C 5.390625 -12.8125 4.75 -12.625 4.28125 -12.25 C 3.8125 -11.875 3.578125 -11.34375 3.578125 -10.65625 C 3.578125 -10.007812 3.8125 -9.484375 4.28125 -9.078125 C 4.757812 -8.671875 5.398438 -8.40625 6.203125 -8.28125 C 6.992188 -8.40625 7.625 -8.671875 8.09375 -9.078125 C 8.570312 -9.484375 8.8125 -10.007812 8.8125 -10.65625 C 8.8125 -11.34375 8.578125 -11.875 8.109375 -12.25 C 7.648438 -12.625 7.015625 -12.8125 6.203125 -12.8125 Z M 6.203125 -1.921875 C 7.128906 -1.921875 7.859375 -2.113281 8.390625 -2.5 C 8.921875 -2.882812 9.1875 -3.4375 9.1875 -4.15625 C 9.1875 -4.832031 8.914062 -5.375 8.375 -5.78125 C 7.832031 -6.195312 7.109375 -6.46875 6.203125 -6.59375 C 5.285156 -6.46875 4.554688 -6.195312 4.015625 -5.78125 C 3.472656 -5.375 3.203125 -4.832031 3.203125 -4.15625 C 3.203125 -3.4375 3.46875 -2.882812 4 -2.5 C 4.53125 -2.113281 5.265625 -1.921875 6.203125 -1.921875 Z M 6.203125 -1.921875 "/></g></g></g><g fill="#000000" fill-opacity="1"><g transform="translate(309.832331, 109.024088)"><g><path d="M 5.640625 -6.320312 C 5.804688 -7.539062 5.867188 -8.71875 5.867188 -9.792969 L 15.304688 -9.792969 L 15.304688 -6.320312 Z M 15.304688 -14.6875 L 15.304688 -11.257812 L 5.867188 -11.257812 L 5.867188 -14.6875 Z M 16.898438 -16.195312 L 4.316406 -16.195312 L 4.316406 -9.875 C 4.316406 -6.589844 3.988281 -2.394531 0.703125 0.496094 C 1.011719 0.722656 1.632812 1.28125 1.839844 1.609375 C 3.84375 -0.144531 4.875 -2.480469 5.390625 -4.8125 L 15.304688 -4.8125 L 15.304688 -0.683594 C 15.304688 -0.226562 15.140625 -0.0820312 14.667969 -0.0625 C 14.191406 -0.0625 12.539062 -0.0429688 10.804688 -0.101562 C 11.070312 0.332031 11.359375 1.054688 11.464844 1.488281 C 13.675781 1.488281 15.039062 1.464844 15.824219 1.199219 C 16.585938 0.949219 16.898438 0.414062 16.898438 -0.660156 Z M 16.898438 -16.195312 "/></g></g></g><g fill="#000000" fill-opacity="1"><g transform="translate(398.696431, 108.960221)"><g><path d="M 5.71875 -14.890625 C 7.582031 -14.890625 9.019531 -14.257812 10.03125 -13 C 11.039062 -11.738281 11.546875 -9.945312 11.546875 -7.625 C 11.546875 -6 11.300781 -4.597656 10.8125 -3.421875 C 10.332031 -2.253906 9.640625 -1.359375 8.734375 -0.734375 C 7.835938 -0.117188 6.769531 0.1875 5.53125 0.1875 C 4.65625 0.1875 3.800781 0.0390625 2.96875 -0.25 C 2.132812 -0.550781 1.414062 -0.976562 0.8125 -1.53125 L 1.6875 -3.46875 C 3 -2.445312 4.25 -1.9375 5.4375 -1.9375 C 6.519531 -1.9375 7.359375 -2.398438 7.953125 -3.328125 C 8.554688 -4.265625 8.875 -5.597656 8.90625 -7.328125 C 8.582031 -6.691406 8.097656 -6.1875 7.453125 -5.8125 C 6.816406 -5.445312 6.09375 -5.265625 5.28125 -5.265625 C 4.414062 -5.265625 3.640625 -5.460938 2.953125 -5.859375 C 2.273438 -6.265625 1.742188 -6.820312 1.359375 -7.53125 C 0.972656 -8.25 0.78125 -9.070312 0.78125 -10 C 0.78125 -10.9375 0.988281 -11.773438 1.40625 -12.515625 C 1.832031 -13.265625 2.421875 -13.847656 3.171875 -14.265625 C 3.921875 -14.679688 4.769531 -14.890625 5.71875 -14.890625 Z M 5.859375 -7.390625 C 6.628906 -7.390625 7.253906 -7.632812 7.734375 -8.125 C 8.222656 -8.625 8.46875 -9.273438 8.46875 -10.078125 C 8.46875 -10.878906 8.222656 -11.53125 7.734375 -12.03125 C 7.253906 -12.53125 6.628906 -12.78125 5.859375 -12.78125 C 5.085938 -12.78125 4.472656 -12.53125 4.015625 -12.03125 C 3.554688 -11.539062 3.328125 -10.890625 3.328125 -10.078125 C 3.328125 -9.265625 3.554688 -8.613281 4.015625 -8.125 C 4.472656 -7.632812 5.085938 -7.390625 5.859375 -7.390625 Z M 5.859375 -7.390625 "/></g></g></g><g fill="#000000" fill-opacity="1"><g transform="translate(411.087189, 108.960221)"><g><path d="M 5.640625 -6.320312 C 5.804688 -7.539062 5.867188 -8.71875 5.867188 -9.792969 L 15.304688 -9.792969 L 15.304688 -6.320312 Z M 15.304688 -14.6875 L 15.304688 -11.257812 L 5.867188 -11.257812 L 5.867188 -14.6875 Z M 16.898438 -16.195312 L 4.316406 -16.195312 L 4.316406 -9.875 C 4.316406 -6.589844 3.988281 -2.394531 0.703125 0.496094 C 1.011719 0.722656 1.632812 1.28125 1.839844 1.609375 C 3.84375 -0.144531 4.875 -2.480469 5.390625 -4.8125 L 15.304688 -4.8125 L 15.304688 -0.683594 C 15.304688 -0.226562 15.140625 -0.0820312 14.667969 -0.0625 C 14.191406 -0.0625 12.539062 -0.0429688 10.804688 -0.101562 C 11.070312 0.332031 11.359375 1.054688 11.464844 1.488281 C 13.675781 1.488281 15.039062 1.464844 15.824219 1.199219 C 16.585938 0.949219 16.898438 0.414062 16.898438 -0.660156 Z M 16.898438 -16.195312 "/></g></g></g><g fill="#000000" fill-opacity="1"><g transform="translate(493.764681, 108.896413)"><g><path d="M 8.1875 -2.171875 L 11.375 -2.171875 L 11.375 0 L 2.3125 0 L 2.3125 -2.171875 L 5.53125 -2.171875 L 5.53125 -11.65625 L 2.546875 -9.859375 L 2.546875 -12.234375 L 6.625 -14.703125 L 8.1875 -14.703125 Z M 8.1875 -2.171875 "/></g></g></g><g fill="#000000" fill-opacity="1"><g transform="translate(506.155439, 108.896413)"><g><path d="M 6.203125 0.1875 C 4.453125 0.1875 3.117188 -0.453125 2.203125 -1.734375 C 1.285156 -3.023438 0.828125 -4.90625 0.828125 -7.375 C 0.828125 -9.800781 1.285156 -11.65625 2.203125 -12.9375 C 3.117188 -14.21875 4.453125 -14.859375 6.203125 -14.859375 C 7.941406 -14.859375 9.269531 -14.21875 10.1875 -12.9375 C 11.101562 -11.664062 11.5625 -9.8125 11.5625 -7.375 C 11.5625 -4.925781 11.101562 -3.050781 10.1875 -1.75 C 9.269531 -0.457031 7.941406 0.1875 6.203125 0.1875 Z M 6.203125 -1.90625 C 7.148438 -1.90625 7.835938 -2.34375 8.265625 -3.21875 C 8.703125 -4.09375 8.921875 -5.476562 8.921875 -7.375 C 8.921875 -9.25 8.703125 -10.613281 8.265625 -11.46875 C 7.835938 -12.332031 7.148438 -12.765625 6.203125 -12.765625 C 5.242188 -12.765625 4.546875 -12.332031 4.109375 -11.46875 C 3.679688 -10.613281 3.46875 -9.25 3.46875 -7.375 C 3.46875 -5.476562 3.679688 -4.09375 4.109375 -3.21875 C 4.546875 -2.34375 5.242188 -1.90625 6.203125 -1.90625 Z M 6.203125 -1.90625 "/></g></g></g><g fill="#000000" fill-opacity="1"><g transform="translate(518.546197, 108.896413)"><g><path d="M 5.640625 -6.320312 C 5.804688 -7.539062 5.867188 -8.71875 5.867188 -9.792969 L 15.304688 -9.792969 L 15.304688 -6.320312 Z M 15.304688 -14.6875 L 15.304688 -11.257812 L 5.867188 -11.257812 L 5.867188 -14.6875 Z M 16.898438 -16.195312 L 4.316406 -16.195312 L 4.316406 -9.875 C 4.316406 -6.589844 3.988281 -2.394531 0.703125 0.496094 C 1.011719 0.722656 1.632812 1.28125 1.839844 1.609375 C 3.84375 -0.144531 4.875 -2.480469 5.390625 -4.8125 L 15.304688 -4.8125 L 15.304688 -0.683594 C 15.304688 -0.226562 15.140625 -0.0820312 14.667969 -0.0625 C 14.191406 -0.0625 12.539062 -0.0429688 10.804688 -0.101562 C 11.070312 0.332031 11.359375 1.054688 11.464844 1.488281 C 13.675781 1.488281 15.039062 1.464844 15.824219 1.199219 C 16.585938 0.949219 16.898438 0.414062 16.898438 -0.660156 Z M 16.898438 -16.195312 "/></g></g></g><g fill="#000000" fill-opacity="1"><g transform="translate(592.769549, 108.832544)"><g><path d="M 8.1875 -2.171875 L 11.375 -2.171875 L 11.375 0 L 2.3125 0 L 2.3125 -2.171875 L 5.53125 -2.171875 L 5.53125 -11.65625 L 2.546875 -9.859375 L 2.546875 -12.234375 L 6.625 -14.703125 L 8.1875 -14.703125 Z M 8.1875 -2.171875 "/></g></g></g><g fill="#000000" fill-opacity="1"><g transform="translate(605.160307, 108.832544)"><g><path d="M 8.1875 -2.171875 L 11.375 -2.171875 L 11.375 0 L 2.3125 0 L 2.3125 -2.171875 L 5.53125 -2.171875 L 5.53125 -11.65625 L 2.546875 -9.859375 L 2.546875 -12.234375 L 6.625 -14.703125 L 8.1875 -14.703125 Z M 8.1875 -2.171875 "/></g></g></g><g fill="#000000" fill-opacity="1"><g transform="translate(617.551065, 108.832544)"><g><path d="M 5.640625 -6.320312 C 5.804688 -7.539062 5.867188 -8.71875 5.867188 -9.792969 L 15.304688 -9.792969 L 15.304688 -6.320312 Z M 15.304688 -14.6875 L 15.304688 -11.257812 L 5.867188 -11.257812 L 5.867188 -14.6875 Z M 16.898438 -16.195312 L 4.316406 -16.195312 L 4.316406 -9.875 C 4.316406 -6.589844 3.988281 -2.394531 0.703125 0.496094 C 1.011719 0.722656 1.632812 1.28125 1.839844 1.609375 C 3.84375 -0.144531 4.875 -2.480469 5.390625 -4.8125 L 15.304688 -4.8125 L 15.304688 -0.683594 C 15.304688 -0.226562 15.140625 -0.0820312 14.667969 -0.0625 C 14.191406 -0.0625 12.539062 -0.0429688 10.804688 -0.101562 C 11.070312 0.332031 11.359375 1.054688 11.464844 1.488281 C 13.675781 1.488281 15.039062 1.464844 15.824219 1.199219 C 16.585938 0.949219 16.898438 0.414062 16.898438 -0.660156 Z M 16.898438 -16.195312 "/></g></g></g><g fill="#000000" fill-opacity="1"><g transform="translate(697.914986, 109.383121)"><g><path d="M 8.1875 -2.171875 L 11.375 -2.171875 L 11.375 0 L 2.3125 0 L 2.3125 -2.171875 L 5.53125 -2.171875 L 5.53125 -11.65625 L 2.546875 -9.859375 L 2.546875 -12.234375 L 6.625 -14.703125 L 8.1875 -14.703125 Z M 8.1875 -2.171875 "/></g></g></g><g fill="#000000" fill-opacity="1"><g transform="translate(710.311089, 109.383121)"><g><path d="M 11.34375 -2.171875 L 11.34375 0 L 1.46875 0 L 1.46875 -1.96875 L 6.46875 -7.359375 C 7.0625 -8.003906 7.492188 -8.59375 7.765625 -9.125 C 8.046875 -9.664062 8.1875 -10.195312 8.1875 -10.71875 C 8.1875 -11.394531 7.988281 -11.90625 7.59375 -12.25 C 7.195312 -12.59375 6.632812 -12.765625 5.90625 -12.765625 C 4.613281 -12.765625 3.285156 -12.253906 1.921875 -11.234375 L 1.03125 -13.171875 C 1.613281 -13.703125 2.359375 -14.117188 3.265625 -14.421875 C 4.171875 -14.734375 5.085938 -14.890625 6.015625 -14.890625 C 7.484375 -14.890625 8.644531 -14.523438 9.5 -13.796875 C 10.363281 -13.078125 10.796875 -12.109375 10.796875 -10.890625 C 10.796875 -10.046875 10.613281 -9.25 10.25 -8.5 C 9.882812 -7.757812 9.273438 -6.929688 8.421875 -6.015625 L 4.8125 -2.171875 Z M 11.34375 -2.171875 "/></g></g></g><g fill="#000000" fill-opacity="1"><g transform="translate(722.727848, 109.383121)"><g><path d="M 5.640625 -6.324219 C 5.804688 -7.542969 5.867188 -8.71875 5.867188 -9.792969 L 15.3125 -9.792969 L 15.3125 -6.324219 Z M 15.3125 -14.691406 L 15.3125 -11.261719 L 5.867188 -11.261719 L 5.867188 -14.691406 Z M 16.902344 -16.199219 L 4.320312 -16.199219 L 4.320312 -9.875 C 4.320312 -6.589844 3.988281 -2.398438 0.703125 0.496094 C 1.011719 0.722656 1.632812 1.28125 1.839844 1.613281 C 3.84375 -0.144531 4.875 -2.480469 5.394531 -4.8125 L 15.3125 -4.8125 L 15.3125 -0.683594 C 15.3125 -0.226562 15.144531 -0.0820312 14.671875 -0.0625 C 14.195312 -0.0625 12.542969 -0.0429688 10.804688 -0.101562 C 11.074219 0.332031 11.363281 1.054688 11.46875 1.488281 C 13.679688 1.488281 15.042969 1.46875 15.828125 1.199219 C 16.59375 0.949219 16.902344 0.414062 16.902344 -0.660156 Z M 16.902344 -16.199219 "/></g></g></g><g clip-path="url(#36e9ca4973)"><g clip-path="url(#2ab87c472c)"><path fill="#4fbaff" d="M 303.460938 305.550781 L 303.460938 270.679688 L 417.589844 270.679688 L 417.589844 305.550781 Z M 303.460938 305.550781 " fill-opacity="1" fill-rule="nonzero"/></g></g><g clip-path="url(#5fc8117140)"><g clip-path="url(#6eb4204d09)"><path fill="#4fbaff" d="M 376.9375 367.019531 L 376.9375 332.144531 L 557.015625 332.144531 L 557.015625 367.019531 Z M 376.9375 367.019531 " fill-opacity="1" fill-rule="nonzero"/></g></g><g clip-path="url(#cb0daed7bb)"><g clip-path="url(#e6b80d2bca)"><path fill="#4fbaff" d="M 516.480469 432.007812 L 516.480469 397.132812 L 664.851562 397.132812 L 664.851562 432.007812 Z M 516.480469 432.007812 " fill-opacity="1" fill-rule="nonzero"/></g></g><g clip-path="url(#3d6159bb9a)"><g clip-path="url(#617372973f)"><path fill="#4fbaff" d="M 653.347656 496.992188 L 653.347656 462.121094 L 743.386719 462.121094 L 743.386719 496.992188 Z M 653.347656 496.992188 " fill-opacity="1" fill-rule="nonzero"/></g></g></svg>