<?xml version="1.0" encoding="UTF-8"?>
<!DOCTYPE svg PUBLIC "-//W3C//DTD SVG 1.1//EN" "http://www.w3.org/Graphics/SVG/1.1/DTD/svg11.dtd">
<svg xmlns="http://www.w3.org/2000/svg" version="1.1" width="4000px" height="2500px" style="shape-rendering:geometricPrecision; text-rendering:geometricPrecision; image-rendering:optimizeQuality; fill-rule:evenodd; clip-rule:evenodd" xmlns:xlink="http://www.w3.org/1999/xlink">
<g><path style="opacity:0.899" fill="#000000" d="M 3236.5,128.5 C 3258.83,128.5 3281.17,128.5 3303.5,128.5C 3303.67,158.169 3303.5,187.835 3303,217.5C 3301.89,219.815 3300.06,221.315 3297.5,222C 3289.86,223.236 3282.2,223.57 3274.5,223C 3273.31,220.122 3271.98,217.288 3270.5,214.5C 3278.51,214.17 3286.51,213.836 3294.5,213.5C 3294.5,205.5 3294.5,197.5 3294.5,189.5C 3277.5,189.333 3260.5,189.5 3243.5,190C 3241.01,200.475 3236.51,209.975 3230,218.5C 3224.63,225.369 3220.63,224.702 3218,216.5C 3229.16,205.173 3235.16,191.507 3236,175.5C 3236.5,159.837 3236.67,144.17 3236.5,128.5 Z M 3245.5,137.5 C 3261.83,137.5 3278.17,137.5 3294.5,137.5C 3294.5,143.167 3294.5,148.833 3294.5,154.5C 3278.17,154.5 3261.83,154.5 3245.5,154.5C 3245.5,148.833 3245.5,143.167 3245.5,137.5 Z M 3245.5,163.5 C 3261.83,163.5 3278.17,163.5 3294.5,163.5C 3294.5,169.167 3294.5,174.833 3294.5,180.5C 3277.83,180.5 3261.17,180.5 3244.5,180.5C 3245.35,174.879 3245.69,169.212 3245.5,163.5 Z"/></g>
<g><path style="opacity:0.877" fill="#000000" d="M 1609.5,129.5 C 1632.17,129.5 1654.83,129.5 1677.5,129.5C 1677.98,159.563 1677.48,189.563 1676,219.5C 1674.68,221.487 1672.85,222.654 1670.5,223C 1662.85,224.478 1655.18,224.644 1647.5,223.5C 1646.2,220.573 1645.2,217.573 1644.5,214.5C 1652.2,215.373 1659.86,215.373 1667.5,214.5C 1667.5,206.5 1667.5,198.5 1667.5,190.5C 1650.49,190.167 1633.49,190.501 1616.5,191.5C 1613.5,204.52 1607.16,215.52 1597.5,224.5C 1595.48,222.642 1593.31,220.975 1591,219.5C 1590.33,218.833 1590.33,218.167 1591,217.5C 1602.11,206.939 1608.11,193.939 1609,178.5C 1609.5,162.17 1609.67,145.837 1609.5,129.5 Z M 1618.5,138.5 C 1634.83,138.5 1651.17,138.5 1667.5,138.5C 1667.5,144.167 1667.5,149.833 1667.5,155.5C 1651.17,155.5 1634.83,155.5 1618.5,155.5C 1618.5,149.833 1618.5,144.167 1618.5,138.5 Z M 1618.5,164.5 C 1634.83,164.5 1651.17,164.5 1667.5,164.5C 1667.5,170.167 1667.5,175.833 1667.5,181.5C 1650.83,181.667 1634.16,181.5 1617.5,181C 1618.47,175.593 1618.81,170.093 1618.5,164.5 Z"/></g>
<g><path style="opacity:0.899" fill="#000000" d="M 2145.5,129.5 C 2167.83,129.5 2190.17,129.5 2212.5,129.5C 2212.67,158.835 2212.5,188.169 2212,217.5C 2210.52,220.663 2208.02,222.496 2204.5,223C 2197.14,223.831 2189.81,223.665 2182.5,222.5C 2181.69,220.085 2180.69,217.751 2179.5,215.5C 2187.17,214.833 2194.83,214.167 2202.5,213.5C 2203.47,205.89 2203.8,198.223 2203.5,190.5C 2186.17,190.5 2168.83,190.5 2151.5,190.5C 2149.31,204.218 2142.98,215.551 2132.5,224.5C 2130.02,222.517 2127.68,220.35 2125.5,218C 2134.84,209.496 2140.67,198.996 2143,186.5C 2145.05,167.563 2145.88,148.563 2145.5,129.5 Z M 2154.5,138.5 C 2170.83,138.5 2187.17,138.5 2203.5,138.5C 2203.5,144.167 2203.5,149.833 2203.5,155.5C 2187.17,155.5 2170.83,155.5 2154.5,155.5C 2154.5,149.833 2154.5,144.167 2154.5,138.5 Z M 2154.5,164.5 C 2170.83,164.5 2187.17,164.5 2203.5,164.5C 2203.5,170.167 2203.5,175.833 2203.5,181.5C 2186.83,181.5 2170.17,181.5 2153.5,181.5C 2153.63,175.819 2153.97,170.152 2154.5,164.5 Z"/></g>
<g><path style="opacity:0.918" fill="#000000" d="M 2713.5,129.5 C 2735.83,129.5 2758.17,129.5 2780.5,129.5C 2780.67,158.502 2780.5,187.502 2780,216.5C 2779.5,219.667 2777.67,221.5 2774.5,222C 2766.56,223.321 2758.56,223.821 2750.5,223.5C 2750.08,220.646 2749.08,217.979 2747.5,215.5C 2754.81,214.669 2762.14,214.169 2769.5,214C 2770,213.5 2770.5,213 2771,212.5C 2771.5,205.174 2771.67,197.841 2771.5,190.5C 2754.17,190.5 2736.83,190.5 2719.5,190.5C 2716.8,203.905 2710.47,215.238 2700.5,224.5C 2698.64,221.81 2696.31,219.644 2693.5,218C 2707.04,204.398 2713.54,187.898 2713,168.5C 2713.5,155.504 2713.67,142.504 2713.5,129.5 Z M 2722.5,138.5 C 2738.83,138.5 2755.17,138.5 2771.5,138.5C 2771.5,144.167 2771.5,149.833 2771.5,155.5C 2755.17,155.5 2738.83,155.5 2722.5,155.5C 2722.5,149.833 2722.5,144.167 2722.5,138.5 Z M 2722.5,163.5 C 2738.83,163.5 2755.17,163.5 2771.5,163.5C 2771.5,169.5 2771.5,175.5 2771.5,181.5C 2754.83,181.5 2738.17,181.5 2721.5,181.5C 2721.83,175.5 2722.17,169.5 2722.5,163.5 Z"/></g>
<g><path style="opacity:0.875" fill="#000000" d="M 1033.5,131.5 C 1056.17,131.5 1078.83,131.5 1101.5,131.5C 1101.96,161.209 1101.46,190.875 1100,220.5C 1098.66,223.094 1096.49,224.594 1093.5,225C 1086.18,225.999 1078.85,226.333 1071.5,226C 1070.45,223.021 1069.12,220.188 1067.5,217.5C 1075.39,216.819 1083.22,216.152 1091,215.5C 1091.5,207.841 1091.67,200.174 1091.5,192.5C 1074.5,192.333 1057.5,192.5 1040.5,193C 1038.01,203.475 1033.51,212.975 1027,221.5C 1021.63,228.369 1017.63,227.702 1015,219.5C 1026.16,208.173 1032.16,194.507 1033,178.5C 1033.5,162.837 1033.67,147.17 1033.5,131.5 Z M 1042.5,140.5 C 1058.83,140.5 1075.17,140.5 1091.5,140.5C 1091.5,146.167 1091.5,151.833 1091.5,157.5C 1075.17,157.5 1058.83,157.5 1042.5,157.5C 1042.5,151.833 1042.5,146.167 1042.5,140.5 Z M 1042.5,166.5 C 1058.83,166.5 1075.17,166.5 1091.5,166.5C 1091.5,172.167 1091.5,177.833 1091.5,183.5C 1074.83,183.5 1058.17,183.5 1041.5,183.5C 1042.35,177.879 1042.69,172.212 1042.5,166.5 Z"/></g>
<g><path style="opacity:0.875" fill="#000000" d="M 3792.5,131.5 C 3815.17,131.5 3837.83,131.5 3860.5,131.5C 3860.96,161.209 3860.46,190.875 3859,220.5C 3857.66,223.094 3855.49,224.594 3852.5,225C 3845.18,225.999 3837.85,226.333 3830.5,226C 3829.45,223.021 3828.12,220.188 3826.5,217.5C 3834.39,216.819 3842.22,216.152 3850,215.5C 3850.5,207.841 3850.67,200.174 3850.5,192.5C 3833.5,192.333 3816.5,192.5 3799.5,193C 3797.01,203.475 3792.51,212.975 3786,221.5C 3780.63,228.369 3776.63,227.702 3774,219.5C 3785.16,208.173 3791.16,194.507 3792,178.5C 3792.5,162.837 3792.67,147.17 3792.5,131.5 Z M 3801.5,140.5 C 3817.83,140.5 3834.17,140.5 3850.5,140.5C 3850.5,146.167 3850.5,151.833 3850.5,157.5C 3834.17,157.5 3817.83,157.5 3801.5,157.5C 3801.5,151.833 3801.5,146.167 3801.5,140.5 Z M 3801.5,166.5 C 3817.83,166.5 3834.17,166.5 3850.5,166.5C 3850.5,172.167 3850.5,177.833 3850.5,183.5C 3833.83,183.5 3817.17,183.5 3800.5,183.5C 3801.35,177.879 3801.69,172.212 3801.5,166.5 Z"/></g>
<g><path style="opacity:0.912" fill="#000000" d="M 1548.5,136.5 C 1560.34,135.025 1570.51,138.358 1579,146.5C 1585.47,159.083 1582.64,168.916 1570.5,176C 1584.16,182.642 1587.66,192.809 1581,206.5C 1574.11,214.244 1565.45,217.91 1555,217.5C 1544.2,218.059 1535.2,214.393 1528,206.5C 1521.79,192.777 1525.29,182.61 1538.5,176C 1527.6,169.458 1524.43,160.292 1529,148.5C 1533.89,141.807 1540.39,137.807 1548.5,136.5 Z M 1550.5,148.5 C 1556.53,147.676 1561.69,149.342 1566,153.5C 1569.45,163.923 1565.61,169.923 1554.5,171.5C 1541.64,168.702 1538.64,161.869 1545.5,151C 1547.31,150.243 1548.98,149.41 1550.5,148.5 Z M 1552.5,181.5 C 1559.28,181.639 1564.78,184.306 1569,189.5C 1570.45,200.224 1565.62,205.558 1554.5,205.5C 1542.88,205.074 1538.38,199.407 1541,188.5C 1544.23,184.979 1548.06,182.646 1552.5,181.5 Z"/></g>
<g><path style="opacity:0.912" fill="#000000" d="M 2080.5,136.5 C 2102.01,133.856 2114.51,143.189 2118,164.5C 2120.13,178.19 2118.13,191.19 2112,203.5C 2105.92,212.461 2097.42,217.128 2086.5,217.5C 2076.47,217.217 2067.81,213.717 2060.5,207C 2062.37,203.419 2064.37,199.919 2066.5,196.5C 2073.35,202.729 2081.35,205.229 2090.5,204C 2099.56,198.869 2103.72,191.036 2103,180.5C 2093.06,189.537 2082.23,190.704 2070.5,184C 2057.63,170.322 2057.29,156.322 2069.5,142C 2072.99,139.588 2076.66,137.755 2080.5,136.5 Z M 2084.5,148.5 C 2097.42,148.184 2102.75,154.351 2100.5,167C 2097.34,174.747 2091.67,177.413 2083.5,175C 2076.57,171.242 2074.07,165.409 2076,157.5C 2077.71,153.29 2080.55,150.29 2084.5,148.5 Z"/></g>
<g><path style="opacity:0.927" fill="#000000" d="M 2594.5,136.5 C 2597.5,136.5 2600.5,136.5 2603.5,136.5C 2603.5,158.833 2603.5,181.167 2603.5,203.5C 2609.17,203.5 2614.83,203.5 2620.5,203.5C 2620.5,207.5 2620.5,211.5 2620.5,215.5C 2604.17,215.5 2587.83,215.5 2571.5,215.5C 2571.5,211.5 2571.5,207.5 2571.5,203.5C 2577.17,203.5 2582.83,203.5 2588.5,203.5C 2588.67,187.163 2588.5,170.83 2588,154.5C 2583.42,157.876 2578.58,160.876 2573.5,163.5C 2572.17,158.833 2572.17,154.167 2573.5,149.5C 2580.73,145.392 2587.73,141.059 2594.5,136.5 Z"/></g>
<g><path style="opacity:0.919" fill="#000000" d="M 2650.5,136.5 C 2671.1,133.928 2682.93,142.928 2686,163.5C 2686.67,172.167 2686.67,180.833 2686,189.5C 2682.99,210.184 2671.15,219.017 2650.5,216C 2639.83,212.658 2633.33,205.491 2631,194.5C 2628.47,180.311 2629.14,166.311 2633,152.5C 2636.54,144.456 2642.37,139.123 2650.5,136.5 Z M 2653.5,148.5 C 2664.31,147.464 2670.14,152.464 2671,163.5C 2671.9,173.561 2671.56,183.561 2670,193.5C 2666.02,204.993 2659.02,207.327 2649,200.5C 2646.87,196.768 2645.53,192.768 2645,188.5C 2644.14,178.448 2644.47,168.448 2646,158.5C 2647.32,154.163 2649.82,150.83 2653.5,148.5 Z"/></g>
<g><path style="opacity:0.918" fill="#000000" d="M 3117.5,136.5 C 3120.5,136.5 3123.5,136.5 3126.5,136.5C 3126.5,158.5 3126.5,180.5 3126.5,202.5C 3132.17,202.5 3137.83,202.5 3143.5,202.5C 3143.5,206.833 3143.5,211.167 3143.5,215.5C 3127.17,215.5 3110.83,215.5 3094.5,215.5C 3094.5,211.167 3094.5,206.833 3094.5,202.5C 3100.17,202.5 3105.83,202.5 3111.5,202.5C 3111.67,186.497 3111.5,170.497 3111,154.5C 3106.5,157.749 3101.84,160.749 3097,163.5C 3096.33,158.833 3096.33,154.167 3097,149.5C 3103.98,145.267 3110.82,140.934 3117.5,136.5 Z"/></g>
<g><path style="opacity:0.91" fill="#000000" d="M 3182.5,136.5 C 3185.83,136.5 3189.17,136.5 3192.5,136.5C 3192.5,158.5 3192.5,180.5 3192.5,202.5C 3198.17,202.5 3203.83,202.5 3209.5,202.5C 3209.5,206.833 3209.5,211.167 3209.5,215.5C 3193.17,215.5 3176.83,215.5 3160.5,215.5C 3160.5,211.167 3160.5,206.833 3160.5,202.5C 3166.17,202.5 3171.83,202.5 3177.5,202.5C 3177.67,186.497 3177.5,170.497 3177,154.5C 3172,157.5 3167,160.5 3162,163.5C 3161.33,158.833 3161.33,154.167 3162,149.5C 3168.98,145.267 3175.82,140.934 3182.5,136.5 Z"/></g>
<g><path style="opacity:0.902" fill="#000000" d="M 3729.5,138.5 C 3741.24,136.665 3751.08,139.998 3759,148.5C 3763.52,158.428 3762.85,168.094 3757,177.5C 3749.2,186.964 3741.04,196.131 3732.5,205C 3743.16,205.5 3753.83,205.667 3764.5,205.5C 3764.5,209.833 3764.5,214.167 3764.5,218.5C 3746.83,218.5 3729.17,218.5 3711.5,218.5C 3711.33,214.486 3711.5,210.486 3712,206.5C 3721.67,196.167 3731.33,185.833 3741,175.5C 3743.89,171.944 3745.89,167.944 3747,163.5C 3748.17,156.66 3745.33,152.494 3738.5,151C 3730.37,150.709 3723.04,153.043 3716.5,158C 3715.36,158.749 3714.36,158.583 3713.5,157.5C 3711.8,154.232 3710.63,150.899 3710,147.5C 3715.82,142.845 3722.32,139.845 3729.5,138.5 Z"/></g>
<g><path style="opacity:0.9" fill="#000000" d="M 950.5,139.5 C 968.833,139.5 987.167,139.5 1005.5,139.5C 1005.67,143.846 1005.5,148.179 1005,152.5C 993.882,174.57 982.382,196.404 970.5,218C 965.136,218.829 959.802,218.663 954.5,217.5C 965.833,196.167 977.167,174.833 988.5,153.5C 975.851,152.501 963.184,152.168 950.5,152.5C 950.5,148.167 950.5,143.833 950.5,139.5 Z"/></g>
<g><path style="opacity:0.91" fill="#000000" d="M 3672.5,139.5 C 3675.83,139.5 3679.17,139.5 3682.5,139.5C 3682.5,161.5 3682.5,183.5 3682.5,205.5C 3688.17,205.5 3693.83,205.5 3699.5,205.5C 3699.5,209.833 3699.5,214.167 3699.5,218.5C 3683.17,218.5 3666.83,218.5 3650.5,218.5C 3650.5,214.167 3650.5,209.833 3650.5,205.5C 3656.17,205.5 3661.83,205.5 3667.5,205.5C 3667.67,189.497 3667.5,173.497 3667,157.5C 3662.08,160.375 3657.25,163.375 3652.5,166.5C 3651.34,161.869 3651.17,157.202 3652,152.5C 3659.01,148.304 3665.84,143.97 3672.5,139.5 Z"/></g>
<g><path style="opacity:0.991" fill="#d8d8d9" d="M 1011.5,418.5 C 961.385,438.712 940.218,475.712 948,529.5C 959.333,567.833 984.499,591.333 1023.5,600C 1077.54,600.979 1131.54,600.645 1185.5,599C 1221.32,589.849 1244.82,567.682 1256,532.5C 1265.09,487.884 1250.92,453.05 1213.5,428C 1204.35,422.923 1194.68,419.256 1184.5,417C 1129.83,416.5 1075.17,416.333 1020.5,416.5C 1023.31,415.681 1026.31,415.181 1029.5,415C 1955.5,414.333 2881.5,414.333 3807.5,415C 3853.65,420.982 3882.48,446.482 3894,491.5C 3900.38,539.248 3882.54,574.415 3840.5,597C 3830.92,601.228 3820.92,603.895 3810.5,605C 2882.17,605.667 1953.83,605.667 1025.5,605C 975.964,596.464 947.797,567.297 941,517.5C 939.827,474.334 958.327,442.834 996.5,423C 1001.3,420.787 1006.3,419.287 1011.5,418.5 Z"/></g>
<g><path style="opacity:1" fill="#4fbafe" d="M 1020.5,416.5 C 1075.17,416.333 1129.83,416.5 1184.5,417C 1194.68,419.256 1204.35,422.923 1213.5,428C 1250.92,453.05 1265.09,487.884 1256,532.5C 1244.82,567.682 1221.32,589.849 1185.5,599C 1131.54,600.645 1077.54,600.979 1023.5,600C 984.499,591.333 959.333,567.833 948,529.5C 940.218,475.712 961.385,438.712 1011.5,418.5C 1014.78,418.58 1017.78,417.913 1020.5,416.5 Z"/></g>
<g><path style="opacity:1" fill="#b3cfe4" d="M 1020.5,416.5 C 1017.78,417.913 1014.78,418.58 1011.5,418.5C 1014.22,417.087 1017.22,416.42 1020.5,416.5 Z"/></g>
<g><path style="opacity:0.868" fill="#000000" d="M 305.5,515.5 C 311.842,515.666 318.175,515.5 324.5,515C 326.294,511.912 327.961,508.746 329.5,505.5C 321.862,504.503 314.196,504.169 306.5,504.5C 306.5,501.833 306.5,499.167 306.5,496.5C 312.842,496.666 319.175,496.5 325.5,496C 323.211,491.252 320.545,486.752 317.5,482.5C 319.554,480.806 321.888,479.639 324.5,479C 319.511,478.501 314.511,478.334 309.5,478.5C 309.5,475.833 309.5,473.167 309.5,470.5C 318.173,470.666 326.84,470.5 335.5,470C 334.311,467.122 332.978,464.288 331.5,461.5C 334.278,459.975 337.278,458.975 340.5,458.5C 342.754,462.007 344.754,465.673 346.5,469.5C 353.803,470.497 361.137,470.831 368.5,470.5C 368.5,473.167 368.5,475.833 368.5,478.5C 354.163,478.333 339.829,478.5 325.5,479C 328.764,483.109 331.431,487.609 333.5,492.5C 331.664,493.919 329.664,495.086 327.5,496C 332.833,496.667 338.167,496.667 343.5,496C 346.294,490.912 348.961,485.745 351.5,480.5C 352.167,480.167 352.833,479.833 353.5,479.5C 356.26,479.758 358.594,480.758 360.5,482.5C 357.912,486.674 355.579,491.007 353.5,495.5C 359.128,496.495 364.794,496.829 370.5,496.5C 370.5,499.167 370.5,501.833 370.5,504.5C 357.128,504.146 346.462,504.479 338.5,505.5C 337.866,508.937 336.533,512.104 334.5,515C 340.825,515.5 347.158,515.666 353.5,515.5C 353.018,508.16 356.018,506.327 362.5,510C 363.138,511.707 363.138,513.54 362.5,515.5C 365.833,515.5 369.167,515.5 372.5,515.5C 372.5,518.167 372.5,520.833 372.5,523.5C 368.486,523.334 364.486,523.501 360.5,524C 358.101,530.802 354.435,536.802 349.5,542C 356.207,545.104 362.707,548.604 369,552.5C 368.209,555.643 366.209,557.976 363,559.5C 356.421,555.459 349.588,551.792 342.5,548.5C 331.932,554.917 320.599,558.25 308.5,558.5C 307.5,556.5 306.5,554.5 305.5,552.5C 314.84,550.748 323.84,547.915 332.5,544C 325.354,541.258 318.354,538.258 311.5,535C 314.553,531.613 317.22,527.947 319.5,524C 314.845,523.501 310.179,523.334 305.5,523.5C 305.5,520.833 305.5,518.167 305.5,515.5 Z M 329.5,523.5 C 351.876,518.736 355.376,523.736 340,538.5C 334.85,536.338 329.684,534.171 324.5,532C 326.556,529.386 328.223,526.553 329.5,523.5 Z"/></g>
<g><path style="opacity:0.821" fill="#000000" d="M 74.5,459.5 C 77.8524,459.784 80.8524,460.95 83.5,463C 76.0094,472.824 67.5094,481.657 58,489.5C 55.6251,487.188 54.2917,484.521 54,481.5C 62.0839,475.252 68.9173,467.919 74.5,459.5 Z"/></g>
<g><path style="opacity:0.866" fill="#000000" d="M 225.5,459.5 C 228.5,459.5 231.5,459.5 234.5,459.5C 234.5,467.5 234.5,475.5 234.5,483.5C 239.5,483.5 244.5,483.5 249.5,483.5C 249.5,477.167 249.5,470.833 249.5,464.5C 252.5,464.5 255.5,464.5 258.5,464.5C 258.5,473.5 258.5,482.5 258.5,491.5C 239.833,491.5 221.167,491.5 202.5,491.5C 202.5,482.5 202.5,473.5 202.5,464.5C 205.5,464.5 208.5,464.5 211.5,464.5C 211.5,470.833 211.5,477.167 211.5,483.5C 216.167,483.5 220.833,483.5 225.5,483.5C 225.5,475.5 225.5,467.5 225.5,459.5 Z"/></g>
<g><path style="opacity:0.918" fill="#000000" d="M 305.5,515.5 C 301.573,516.531 297.739,517.865 294,519.5C 293.961,531.929 293.294,544.262 292,556.5C 290.829,557.893 289.329,558.727 287.5,559C 283.459,559.827 279.459,559.66 275.5,558.5C 274.423,556.271 273.756,553.937 273.5,551.5C 277.673,552.044 281.506,551.377 285,549.5C 285.667,540.167 285.667,530.833 285,521.5C 281.29,523.126 277.457,524.459 273.5,525.5C 270.829,523.236 269.496,520.236 269.5,516.5C 274.594,515.581 279.594,514.247 284.5,512.5C 285.497,504.862 285.831,497.196 285.5,489.5C 280.833,489.5 276.167,489.5 271.5,489.5C 271.5,486.833 271.5,484.167 271.5,481.5C 276.167,481.5 280.833,481.5 285.5,481.5C 285.5,474.167 285.5,466.833 285.5,459.5C 288.167,459.5 290.833,459.5 293.5,459.5C 293.5,466.833 293.5,474.167 293.5,481.5C 297.5,481.5 301.5,481.5 305.5,481.5C 305.5,484.167 305.5,486.833 305.5,489.5C 301.5,489.5 297.5,489.5 293.5,489.5C 293.5,496.167 293.5,502.833 293.5,509.5C 296.829,509.002 299.995,508.002 303,506.5C 304.255,509.338 305.089,512.338 305.5,515.5 Z"/></g>
<g><path style="opacity:0.877" fill="#000000" d="M 111.5,460.5 C 114.843,461.059 117.843,462.392 120.5,464.5C 115.275,470.893 109.275,476.393 102.5,481C 107.833,481.667 113.167,481.667 118.5,481C 123.642,477.358 128.642,473.525 133.5,469.5C 136.167,471.167 138.833,472.833 141.5,474.5C 129.863,483.987 117.529,492.487 104.5,500C 113.492,500.001 122.492,499.667 131.5,499C 132.167,498.667 132.833,498.333 133.5,498C 130.93,495.933 128.93,493.433 127.5,490.5C 129.228,488.548 131.395,487.215 134,486.5C 141.368,493.567 147.535,501.567 152.5,510.5C 150.72,512.444 148.553,513.777 146,514.5C 143.532,512.358 141.365,509.858 139.5,507C 131.412,506.172 123.412,506.672 115.5,508.5C 114.041,510.583 112.708,512.75 111.5,515C 120.412,515.816 129.245,515.65 138,514.5C 139.419,515.46 140.919,516.293 142.5,517C 143.517,518.049 143.684,519.216 143,520.5C 138.28,529.553 131.78,537.053 123.5,543C 132.095,547.198 141.095,550.198 150.5,552C 151.451,552.718 151.617,553.551 151,554.5C 149.325,556.532 147.658,558.532 146,560.5C 135.217,557.963 125.051,553.963 115.5,548.5C 105.216,554.817 94.2161,558.484 82.5,559.5C 81.5,557.5 80.5,555.5 79.5,553.5C 85.7211,551.19 92.0544,549.023 98.5,547C 101.377,546.044 104.044,544.711 106.5,543C 103.292,539.623 99.9582,536.456 96.5,533.5C 93.5174,535.32 90.6841,537.32 88,539.5C 84.7913,537.976 82.7913,535.643 82,532.5C 84.8333,530.333 87.6667,528.167 90.5,526C 88.583,523.502 86.9164,520.835 85.5,518C 89.8369,514.173 93.5036,514.673 96.5,519.5C 99.5162,516.48 102.183,513.146 104.5,509.5C 98.4492,508.505 92.4492,508.838 86.5,510.5C 84.5056,507.85 83.5056,504.85 83.5,501.5C 91.525,498.988 98.8583,495.154 105.5,490C 99.7258,489.311 94.0591,489.811 88.5,491.5C 87.5147,489.228 86.6813,486.895 86,484.5C 82.6667,489.833 79.3333,495.167 76,500.5C 75.5,520.497 75.3334,540.497 75.5,560.5C 72.8333,560.5 70.1667,560.5 67.5,560.5C 67.6666,543.83 67.4999,527.163 67,510.5C 64.6419,514.358 61.4752,517.358 57.5,519.5C 55.4776,517.469 53.8109,515.135 52.5,512.5C 62.3876,503.528 70.721,493.361 77.5,482C 79.675,482.049 81.8417,482.549 84,483.5C 94.6062,477.605 103.773,469.939 111.5,460.5 Z M 105.5,522.5 C 114.173,522.334 122.84,522.5 131.5,523C 127.237,529.101 121.903,533.934 115.5,537.5C 110.94,535.115 106.773,532.115 103,528.5C 103.451,526.48 104.284,524.48 105.5,522.5 Z"/></g>
<g><path style="opacity:0.809" fill="#000000" d="M 178.5,460.5 C 179.822,460.33 180.989,460.663 182,461.5C 185.074,466.39 187.574,471.557 189.5,477C 187.754,477.471 186.087,478.138 184.5,479C 189.823,479.499 195.156,479.666 200.5,479.5C 200.5,482.5 200.5,485.5 200.5,488.5C 187.833,488.5 175.167,488.5 162.5,488.5C 162.5,485.5 162.5,482.5 162.5,479.5C 168.537,479.829 174.537,479.496 180.5,478.5C 178.44,473.38 176.107,468.38 173.5,463.5C 175.145,462.304 176.811,461.304 178.5,460.5 Z"/></g>
<g><path style="opacity:0.903" fill="#000000" d="M 389.5,470.5 C 416.833,470.5 444.167,470.5 471.5,470.5C 471.5,499.167 471.5,527.833 471.5,556.5C 468.5,556.5 465.5,556.5 462.5,556.5C 462.5,553.833 462.5,551.167 462.5,548.5C 441.167,548.5 419.833,548.5 398.5,548.5C 398.5,551.5 398.5,554.5 398.5,557.5C 395.5,557.5 392.5,557.5 389.5,557.5C 389.5,528.5 389.5,499.5 389.5,470.5 Z M 398.5,479.5 C 419.833,479.5 441.167,479.5 462.5,479.5C 462.5,499.167 462.5,518.833 462.5,538.5C 441.167,538.5 419.833,538.5 398.5,538.5C 398.5,518.833 398.5,499.167 398.5,479.5 Z"/></g>
<g><path style="opacity:0.879" fill="#000000" d="M 188.5,491.5 C 191.167,491.833 193.833,492.167 196.5,492.5C 195.043,506.244 193.043,519.911 190.5,533.5C 193.833,532.833 197.167,532.167 200.5,531.5C 202.011,531.204 202.344,525.871 201.5,515.5C 208.508,515.666 215.508,515.5 222.5,515C 223.482,512.262 224.148,509.428 224.5,506.5C 215.833,506.5 207.167,506.5 198.5,506.5C 198.5,503.833 198.5,501.167 198.5,498.5C 219.833,498.5 241.167,498.5 262.5,498.5C 262.5,501.167 262.5,503.833 262.5,506.5C 253.167,506.5 243.833,506.5 234.5,506.5C 233.833,509.5 233.167,512.5 232.5,515.5C 241.5,515.5 250.5,515.5 259.5,515.5C 259.667,529.504 259.5,543.504 259,557.5C 254.864,559.999 250.364,560.999 245.5,560.5C 245.613,557.951 244.946,555.618 243.5,553.5C 246.086,552.52 248.753,552.187 251.5,552.5C 251.5,542.833 251.5,533.167 251.5,523.5C 248.5,523.5 245.5,523.5 242.5,523.5C 242.5,535.167 242.5,546.833 242.5,558.5C 240.167,558.5 237.833,558.5 235.5,558.5C 235.5,546.833 235.5,535.167 235.5,523.5C 232.5,523.5 229.5,523.5 226.5,523.5C 226.5,535.5 226.5,547.5 226.5,559.5C 223.833,559.5 221.167,559.5 218.5,559.5C 218.5,547.5 218.5,535.5 218.5,523.5C 215.5,523.5 212.5,523.5 209.5,523.5C 209.5,535.833 209.5,548.167 209.5,560.5C 206.833,560.5 204.167,560.5 201.5,560.5C 201.5,553.833 201.5,547.167 201.5,540.5C 189.061,543.026 176.728,546.026 164.5,549.5C 162.897,546.364 162.564,543.197 163.5,540C 169.203,538.824 174.87,537.491 180.5,536C 181.428,535.612 182.095,534.945 182.5,534C 185.606,519.988 187.606,505.822 188.5,491.5 Z"/></g>
<g><path style="opacity:0.832" fill="#000000" d="M 169.5,492.5 C 171.451,492.227 172.951,492.893 174,494.5C 176.484,507.057 177.984,519.724 178.5,532.5C 175.932,533.45 173.432,533.45 171,532.5C 170.047,519.427 168.547,506.427 166.5,493.5C 167.791,493.737 168.791,493.404 169.5,492.5 Z"/></g>
<g><path style="opacity:0.992" fill="#d8d8d9" d="M 1858.5,919.5 C 1905.36,911.124 1933.19,883.458 1942,836.5C 1944.42,804.516 1933.92,777.683 1910.5,756C 1897.2,744.685 1881.87,737.685 1864.5,735C 1582.17,734.333 1299.83,734.333 1017.5,735C 966.39,750.043 941.89,784.21 944,837.5C 952.76,883.76 980.26,911.094 1026.5,919.5C 976.063,914.371 945.563,887.038 935,837.5C 930.412,795.526 945.579,763.026 980.5,740C 990.539,734.314 1001.21,730.314 1012.5,728C 1479.83,727.833 1947.17,727.667 2414.5,727.5C 2881.83,727.667 3349.17,727.833 3816.5,728C 3851.92,735.415 3876.42,755.915 3890,789.5C 3904.29,839.316 3890.12,878.483 3847.5,907C 3836.02,913.605 3823.68,917.605 3810.5,919C 3159.83,919.5 2509.17,919.667 1858.5,919.5 Z"/></g>
<g><path style="opacity:1" fill="#4fbafe" d="M 1858.5,919.5 C 1581.17,919.5 1303.83,919.5 1026.5,919.5C 980.26,911.094 952.76,883.76 944,837.5C 941.89,784.21 966.39,750.043 1017.5,735C 1299.83,734.333 1582.17,734.333 1864.5,735C 1881.87,737.685 1897.2,744.685 1910.5,756C 1933.92,777.683 1944.42,804.516 1942,836.5C 1933.19,883.458 1905.36,911.124 1858.5,919.5 Z"/></g>
<g><path style="opacity:0.862" fill="#000000" d="M 78.5,772.5 C 80.8333,772.5 83.1667,772.5 85.5,772.5C 85.5,774.833 85.5,777.167 85.5,779.5C 91.8333,779.5 98.1667,779.5 104.5,779.5C 104.5,783.167 104.5,786.833 104.5,790.5C 106.833,790.5 109.167,790.5 111.5,790.5C 111.5,793.167 111.5,795.833 111.5,798.5C 109.167,798.5 106.833,798.5 104.5,798.5C 104.5,802.5 104.5,806.5 104.5,810.5C 98.1667,810.5 91.8333,810.5 85.5,810.5C 85.5,811.5 85.5,812.5 85.5,813.5C 92.8333,813.5 100.167,813.5 107.5,813.5C 107.338,815.527 107.505,817.527 108,819.5C 115.287,805.027 119.787,789.694 121.5,773.5C 124.119,773.232 126.619,773.565 129,774.5C 128.609,780.852 127.776,787.185 126.5,793.5C 135.167,793.5 143.833,793.5 152.5,793.5C 152.5,796.167 152.5,798.833 152.5,801.5C 149.606,801.042 147.106,801.709 145,803.5C 143.557,816.938 140.39,829.938 135.5,842.5C 139.833,851.514 145.833,859.181 153.5,865.5C 151.973,867.193 150.64,869.027 149.5,871C 148.5,871.667 147.5,871.667 146.5,871C 140.204,865.711 135.038,859.544 131,852.5C 126.069,860.932 119.569,867.932 111.5,873.5C 109.833,871.5 108.167,869.5 106.5,867.5C 115.599,860.902 122.265,852.402 126.5,842C 123.608,833.597 121.108,825.097 119,816.5C 117.861,820.112 116.194,823.446 114,826.5C 112.185,824.595 110.185,822.928 108,821.5C 107.501,825.152 107.335,828.818 107.5,832.5C 99.4723,832.169 91.4723,832.502 83.5,833.5C 82.7515,835.332 81.7515,836.999 80.5,838.5C 85.4631,839.259 90.4631,839.259 95.5,838.5C 95.5,836.833 95.5,835.167 95.5,833.5C 97.8333,833.5 100.167,833.5 102.5,833.5C 102.5,835.167 102.5,836.833 102.5,838.5C 104.262,838.643 105.929,838.309 107.5,837.5C 108.474,839.743 108.808,842.076 108.5,844.5C 106.473,844.338 104.473,844.505 102.5,845C 100.728,850.045 98.0617,854.545 94.5,858.5C 98.3359,860.584 102.003,862.917 105.5,865.5C 103.5,867.167 101.5,868.833 99.5,870.5C 94.9215,868.294 90.4215,865.961 86,863.5C 76.0635,868.775 65.5635,871.442 54.5,871.5C 53.376,870.086 52.376,868.586 51.5,867C 59.814,865.395 67.814,862.895 75.5,859.5C 71.2761,857.555 66.9428,855.888 62.5,854.5C 61.4173,853.635 61.2506,852.635 62,851.5C 63.1667,850.333 64.3333,849.167 65.5,848C 61.5138,847.501 57.5138,847.334 53.5,847.5C 53.7564,845.208 53.4231,843.041 52.5,841C 58.3709,840.769 64.2043,840.269 70,839.5C 71.7339,837.71 73.2339,835.71 74.5,833.5C 68.8722,832.505 63.2055,832.171 57.5,832.5C 57.5,826.167 57.5,819.833 57.5,813.5C 64.5,813.5 71.5,813.5 78.5,813.5C 78.5,812.5 78.5,811.5 78.5,810.5C 72.5,810.5 66.5,810.5 60.5,810.5C 60.5,806.5 60.5,802.5 60.5,798.5C 58.1667,798.5 55.8333,798.5 53.5,798.5C 53.5,795.833 53.5,793.167 53.5,790.5C 55.8333,790.5 58.1667,790.5 60.5,790.5C 60.5,786.833 60.5,783.167 60.5,779.5C 66.5,779.5 72.5,779.5 78.5,779.5C 78.5,777.167 78.5,774.833 78.5,772.5 Z M 68.5,786.5 C 71.8333,786.5 75.1667,786.5 78.5,786.5C 78.5,788.167 78.5,789.833 78.5,791.5C 75.1667,791.5 71.8333,791.5 68.5,791.5C 68.5,789.833 68.5,788.167 68.5,786.5 Z M 85.5,786.5 C 89.1667,786.5 92.8333,786.5 96.5,786.5C 96.5,788.167 96.5,789.833 96.5,791.5C 92.8333,791.5 89.1667,791.5 85.5,791.5C 85.5,789.833 85.5,788.167 85.5,786.5 Z M 68.5,797.5 C 71.8333,797.5 75.1667,797.5 78.5,797.5C 78.5,799.5 78.5,801.5 78.5,803.5C 75.1667,803.5 71.8333,803.5 68.5,803.5C 68.5,801.5 68.5,799.5 68.5,797.5 Z M 85.5,797.5 C 89.1667,797.5 92.8333,797.5 96.5,797.5C 96.5,799.5 96.5,801.5 96.5,803.5C 92.8333,803.5 89.1667,803.5 85.5,803.5C 85.5,801.5 85.5,799.5 85.5,797.5 Z M 124.5,801.5 C 128.5,801.5 132.5,801.5 136.5,801.5C 135.885,811.406 134.052,821.073 131,830.5C 128.041,820.999 125.874,811.332 124.5,801.5 Z M 65.5,820.5 C 69.8333,820.5 74.1667,820.5 78.5,820.5C 78.5,822.167 78.5,823.833 78.5,825.5C 74.1667,825.5 69.8333,825.5 65.5,825.5C 65.5,823.833 65.5,822.167 65.5,820.5 Z M 85.5,820.5 C 89.8333,820.5 94.1667,820.5 98.5,820.5C 98.5,822.167 98.5,823.833 98.5,825.5C 94.1667,825.5 89.8333,825.5 85.5,825.5C 85.5,823.833 85.5,822.167 85.5,820.5 Z M 83.5,845.5 C 86.8499,845.335 90.1832,845.502 93.5,846C 88.4853,856.084 81.8187,857.25 73.5,849.5C 73.9767,848.522 74.6433,847.689 75.5,847C 78.3647,846.817 81.0314,846.317 83.5,845.5 Z"/></g>
<g><path style="opacity:0.904" fill="#000000" d="M 175.5,772.5 C 178.167,772.5 180.833,772.5 183.5,772.5C 183.5,779.833 183.5,787.167 183.5,794.5C 186.833,794.5 190.167,794.5 193.5,794.5C 193.5,797.167 193.5,799.833 193.5,802.5C 190.167,802.5 186.833,802.5 183.5,802.5C 183.334,808.842 183.5,815.175 184,821.5C 187.293,819.792 190.793,818.792 194.5,818.5C 195.263,821.141 195.43,823.808 195,826.5C 191.556,827.927 188.056,829.26 184.5,830.5C 183.816,843.532 183.149,856.532 182.5,869.5C 181.5,870.333 180.5,871.167 179.5,872C 174.844,872.665 170.177,873.165 165.5,873.5C 164.833,870.5 164.167,867.5 163.5,864.5C 167.5,864.5 171.5,864.5 175.5,864.5C 175.832,854.145 175.499,843.812 174.5,833.5C 170.833,834.833 167.167,836.167 163.5,837.5C 161.302,834.555 160.635,831.388 161.5,828C 166.108,826.518 170.775,825.351 175.5,824.5C 175.5,817.167 175.5,809.833 175.5,802.5C 170.833,802.5 166.167,802.5 161.5,802.5C 161.5,799.833 161.5,797.167 161.5,794.5C 166.167,794.5 170.833,794.5 175.5,794.5C 175.5,787.167 175.5,779.833 175.5,772.5 Z"/></g>
<g><path style="opacity:0.871" fill="#000000" d="M 221.5,772.5 C 224.5,772.5 227.5,772.5 230.5,772.5C 230.5,774.833 230.5,777.167 230.5,779.5C 238.833,779.5 247.167,779.5 255.5,779.5C 255.5,781.833 255.5,784.167 255.5,786.5C 247.167,786.5 238.833,786.5 230.5,786.5C 230.5,788.167 230.5,789.833 230.5,791.5C 240.93,791.298 251.263,791.298 261.5,791.5C 260.289,797.467 258.289,803.134 255.5,808.5C 253.111,807.82 250.778,806.986 248.5,806C 249.5,803.667 250.5,801.333 251.5,799C 243.841,798.5 236.174,798.334 228.5,798.5C 228.5,800.167 228.5,801.833 228.5,803.5C 234.5,802.833 240.5,802.167 246.5,801.5C 246.917,804.079 246.25,806.246 244.5,808C 239.166,808.567 233.833,809.067 228.5,809.5C 228.33,810.822 228.663,811.989 229.5,813C 237.549,813.802 245.549,813.635 253.5,812.5C 254.474,814.743 254.808,817.076 254.5,819.5C 244.494,819.666 234.494,819.5 224.5,819C 221.479,817.461 220.146,814.961 220.5,811.5C 216.152,811.909 211.819,812.076 207.5,812C 206.577,809.959 206.244,807.792 206.5,805.5C 211.119,804.686 215.786,804.353 220.5,804.5C 220.5,802.5 220.5,800.5 220.5,798.5C 215.167,798.5 209.833,798.5 204.5,798.5C 204.667,812.171 204.5,825.837 204,839.5C 203.09,851.228 199.59,862.062 193.5,872C 190.479,871.708 187.812,870.375 185.5,868C 191.977,858.903 195.477,848.736 196,837.5C 196.5,822.17 196.667,806.837 196.5,791.5C 204.833,791.5 213.167,791.5 221.5,791.5C 221.5,785.167 221.5,778.833 221.5,772.5 Z"/></g>
<g><path style="opacity:0.872" fill="#000000" d="M 398.5,772.5 C 401.5,772.5 404.5,772.5 407.5,772.5C 407.5,780.167 407.5,787.833 407.5,795.5C 412.833,795.5 418.167,795.5 423.5,795.5C 423.5,798.5 423.5,801.5 423.5,804.5C 418.167,804.5 412.833,804.5 407.5,804.5C 407.34,806.199 407.506,807.866 408,809.5C 413.414,815.747 418.247,822.414 422.5,829.5C 421.149,832.196 419.316,834.53 417,836.5C 414,831.833 411,827.167 408,822.5C 407.5,839.163 407.333,855.83 407.5,872.5C 404.5,872.5 401.5,872.5 398.5,872.5C 398.667,857.163 398.5,841.83 398,826.5C 394.888,835.391 390.721,843.724 385.5,851.5C 384.726,852.711 383.893,852.711 383,851.5C 381.953,849.238 380.787,847.071 379.5,845C 387.317,832.737 393.317,819.571 397.5,805.5C 392.544,804.506 387.544,804.173 382.5,804.5C 382.5,801.5 382.5,798.5 382.5,795.5C 387.833,795.5 393.167,795.5 398.5,795.5C 398.5,787.833 398.5,780.167 398.5,772.5 Z"/></g>
<g><path style="opacity:0.881" fill="#000000" d="M 465.5,773.5 C 469.147,774.667 472.147,776.834 474.5,780C 462.392,785.361 449.725,788.861 436.5,790.5C 436.5,796.833 436.5,803.167 436.5,809.5C 451.167,809.5 465.833,809.5 480.5,809.5C 480.5,812.5 480.5,815.5 480.5,818.5C 475.167,818.5 469.833,818.5 464.5,818.5C 464.5,836.833 464.5,855.167 464.5,873.5C 461.5,873.5 458.5,873.5 455.5,873.5C 455.5,855.167 455.5,836.833 455.5,818.5C 449.167,818.5 442.833,818.5 436.5,818.5C 437.674,837.132 434.174,854.799 426,871.5C 422.544,872.029 419.711,870.696 417.5,867.5C 422.959,858.623 426.126,848.956 427,838.5C 428.122,820.52 428.788,802.52 429,784.5C 441.557,781.823 453.723,778.157 465.5,773.5 Z"/></g>
<g><path style="opacity:0.872" fill="#000000" d="M 315.5,774.5 C 324.5,774.5 333.5,774.5 342.5,774.5C 347.86,791.55 357.86,805.217 372.5,815.5C 370.5,818.167 368.5,820.833 366.5,823.5C 362.858,821.025 359.358,818.358 356,815.5C 355.081,830.207 353.748,844.873 352,859.5C 351.393,865.756 348.227,869.922 342.5,872C 335.508,872.5 328.508,872.666 321.5,872.5C 321.242,869.043 320.742,865.71 320,862.5C 326.418,863.643 332.918,863.81 339.5,863C 340.701,862.097 341.535,860.931 342,859.5C 344.487,847.297 345.654,834.963 345.5,822.5C 336.5,822.5 327.5,822.5 318.5,822.5C 317.16,847.895 304.66,864.895 281,873.5C 278.723,871.126 276.557,868.626 274.5,866C 295.417,858.924 306.751,844.424 308.5,822.5C 301.167,822.5 293.833,822.5 286.5,822.5C 286.662,820.473 286.495,818.473 286,816.5C 283.603,819.4 280.77,821.733 277.5,823.5C 274.833,821.5 272.5,819.167 270.5,816.5C 284.421,806.02 293.921,792.354 299,775.5C 302.124,776.561 305.291,777.561 308.5,778.5C 304.259,791.491 297.593,802.991 288.5,813C 310.167,813.667 331.833,813.667 353.5,813C 345.568,803.97 339.568,793.803 335.5,782.5C 328.833,782.5 322.167,782.5 315.5,782.5C 315.5,779.833 315.5,777.167 315.5,774.5 Z"/></g>
<g><path style="opacity:0.843" fill="#000000" d="M 206.5,823.5 C 224.833,823.5 243.167,823.5 261.5,823.5C 261.5,825.5 261.5,827.5 261.5,829.5C 253.493,829.334 245.493,829.5 237.5,830C 235.167,831.667 232.833,833.333 230.5,835C 232.684,837.016 234.684,839.183 236.5,841.5C 243.078,838.294 249.578,834.961 256,831.5C 257.685,833.017 259.185,834.684 260.5,836.5C 256.5,838.833 252.5,841.167 248.5,843.5C 251.144,851.801 255.977,858.468 263,863.5C 263.667,864.167 263.667,864.833 263,865.5C 261.304,867.566 259.471,869.066 257.5,870C 249.684,863.541 244.518,855.375 242,845.5C 240.513,846.155 239.347,847.155 238.5,848.5C 241.232,855.221 241.066,861.888 238,868.5C 233.644,873.008 228.478,874.341 222.5,872.5C 221.682,870.892 221.015,869.225 220.5,867.5C 229.889,868.452 233.556,864.452 231.5,855.5C 224.018,861.326 215.851,865.992 207,869.5C 204.646,868.644 203.146,866.977 202.5,864.5C 211.431,861.036 219.764,856.536 227.5,851C 230.059,849.677 230.725,847.843 229.5,845.5C 222.724,850.221 215.391,853.888 207.5,856.5C 206.167,854.833 204.833,853.167 203.5,851.5C 211.716,848.726 219.382,844.892 226.5,840C 225.892,839.13 225.059,838.63 224,838.5C 219.052,840.703 214.052,842.703 209,844.5C 207.341,843.183 206.174,841.517 205.5,839.5C 212.759,836.87 219.759,833.703 226.5,830C 219.842,829.5 213.175,829.334 206.5,829.5C 206.5,827.5 206.5,825.5 206.5,823.5 Z"/></g>
<g><path style="opacity:0.996" fill="#4fbafe" d="M 2091.5,1072.5 C 2136.36,1090.52 2157.86,1123.85 2156,1172.5C 2151.12,1206.11 2133.62,1230.61 2103.5,1246C 2095.08,1249.47 2086.41,1252.14 2077.5,1254C 1930.17,1254.67 1782.83,1254.67 1635.5,1254C 1600.73,1248.9 1575.9,1230.4 1561,1198.5C 1545.23,1154.07 1555.4,1116.9 1591.5,1087C 1599.99,1081.09 1608.99,1076.26 1618.5,1072.5C 1622.49,1071.67 1626.49,1070.84 1630.5,1070C 1780.17,1069.33 1929.83,1069.33 2079.5,1070C 2083.51,1070.84 2087.51,1071.67 2091.5,1072.5 Z"/></g>
<g><path style="opacity:0.991" fill="#d8d8d9" d="M 1618.5,1072.5 C 1608.99,1076.26 1599.99,1081.09 1591.5,1087C 1555.4,1116.9 1545.23,1154.07 1561,1198.5C 1575.9,1230.4 1600.73,1248.9 1635.5,1254C 1782.83,1254.67 1930.17,1254.67 2077.5,1254C 2086.41,1252.14 2095.08,1249.47 2103.5,1246C 2133.62,1230.61 2151.12,1206.11 2156,1172.5C 2157.86,1123.85 2136.36,1090.52 2091.5,1072.5C 2660.83,1072.33 3230.17,1072.5 3799.5,1073C 3848.51,1079.01 3878.01,1106.18 3888,1154.5C 3891.91,1201.19 3873.08,1235.03 3831.5,1256C 3822.82,1259.56 3813.82,1261.89 3804.5,1263C 3340.17,1263.17 2875.83,1263.33 2411.5,1263.5C 1947.17,1263.33 1482.83,1263.17 1018.5,1263C 979.536,1257.36 953.036,1236.2 939,1199.5C 926.603,1154.36 938.77,1117.53 975.5,1089C 990.153,1079.67 1006.15,1074.34 1023.5,1073C 1221.83,1072.5 1420.17,1072.33 1618.5,1072.5 Z"/></g>
<g><path style="opacity:0.835" fill="#000000" d="M 126.5,1116.5 C 129.894,1117.63 133.227,1118.97 136.5,1120.5C 133.624,1125.09 130.624,1129.59 127.5,1134C 135.827,1134.5 144.16,1134.67 152.5,1134.5C 152.5,1137.5 152.5,1140.5 152.5,1143.5C 119.833,1143.5 87.1667,1143.5 54.5,1143.5C 54.5,1140.5 54.5,1137.5 54.5,1134.5C 63.1731,1134.67 71.8397,1134.5 80.5,1134C 77.5496,1129.38 74.2162,1125.05 70.5,1121C 75.6816,1115.92 80.1816,1116.42 84,1122.5C 86.1667,1126 88.3333,1129.5 90.5,1133C 90.1667,1133.33 89.8333,1133.67 89.5,1134C 98.5,1134.67 107.5,1134.67 116.5,1134C 120.489,1128.52 123.823,1122.69 126.5,1116.5 Z"/></g>
<g><path style="opacity:0.865" fill="#000000" d="M 558.5,1116.5 C 561.54,1119.91 563.54,1123.91 564.5,1128.5C 572.167,1128.5 579.833,1128.5 587.5,1128.5C 587.5,1131.17 587.5,1133.83 587.5,1136.5C 567.5,1136.5 547.5,1136.5 527.5,1136.5C 527.5,1133.83 527.5,1131.17 527.5,1128.5C 536.192,1128.83 544.859,1128.5 553.5,1127.5C 552.352,1124.71 551.019,1122.04 549.5,1119.5C 552.505,1118.18 555.505,1117.18 558.5,1116.5 Z"/></g>
<g><path style="opacity:0.81" fill="#000000" d="M 183.5,1117.5 C 186.852,1117.78 189.852,1118.95 192.5,1121C 185.73,1131.27 177.396,1140.1 167.5,1147.5C 165.445,1145.45 163.779,1143.11 162.5,1140.5C 171.282,1134.39 178.282,1126.72 183.5,1117.5 Z"/></g>
<g><path style="opacity:0.891" fill="#000000" d="M 334.5,1117.5 C 337.5,1117.5 340.5,1117.5 343.5,1117.5C 343.5,1125.5 343.5,1133.5 343.5,1141.5C 348.5,1141.5 353.5,1141.5 358.5,1141.5C 358.5,1135.17 358.5,1128.83 358.5,1122.5C 361.5,1122.5 364.5,1122.5 367.5,1122.5C 367.5,1131.5 367.5,1140.5 367.5,1149.5C 349.167,1149.5 330.833,1149.5 312.5,1149.5C 312.5,1140.5 312.5,1131.5 312.5,1122.5C 315.167,1122.5 317.833,1122.5 320.5,1122.5C 320.5,1128.83 320.5,1135.17 320.5,1141.5C 325.167,1141.5 329.833,1141.5 334.5,1141.5C 334.5,1133.5 334.5,1125.5 334.5,1117.5 Z"/></g>
<g><path style="opacity:0.887" fill="#000000" d="M 425.5,1117.5 C 428.833,1117.5 432.167,1117.5 435.5,1117.5C 435.5,1121.83 435.5,1126.17 435.5,1130.5C 446.833,1130.5 458.167,1130.5 469.5,1130.5C 469.5,1140.5 469.5,1150.5 469.5,1160.5C 458.167,1160.5 446.833,1160.5 435.5,1160.5C 435.5,1163.17 435.5,1165.83 435.5,1168.5C 448.5,1168.5 461.5,1168.5 474.5,1168.5C 474.5,1180.5 474.5,1192.5 474.5,1204.5C 471.167,1204.5 467.833,1204.5 464.5,1204.5C 464.5,1203.17 464.5,1201.83 464.5,1200.5C 454.833,1200.5 445.167,1200.5 435.5,1200.5C 435.5,1206.5 435.5,1212.5 435.5,1218.5C 432.167,1218.5 428.833,1218.5 425.5,1218.5C 425.5,1212.5 425.5,1206.5 425.5,1200.5C 415.833,1200.5 406.167,1200.5 396.5,1200.5C 396.5,1201.83 396.5,1203.17 396.5,1204.5C 393.5,1204.5 390.5,1204.5 387.5,1204.5C 387.5,1192.5 387.5,1180.5 387.5,1168.5C 400.167,1168.5 412.833,1168.5 425.5,1168.5C 425.5,1165.83 425.5,1163.17 425.5,1160.5C 414.167,1160.5 402.833,1160.5 391.5,1160.5C 391.5,1150.5 391.5,1140.5 391.5,1130.5C 402.833,1130.5 414.167,1130.5 425.5,1130.5C 425.5,1126.17 425.5,1121.83 425.5,1117.5 Z M 400.5,1138.5 C 408.833,1138.5 417.167,1138.5 425.5,1138.5C 425.5,1143.17 425.5,1147.83 425.5,1152.5C 417.167,1152.5 408.833,1152.5 400.5,1152.5C 400.5,1147.83 400.5,1143.17 400.5,1138.5 Z M 435.5,1138.5 C 443.833,1138.5 452.167,1138.5 460.5,1138.5C 460.5,1143.17 460.5,1147.83 460.5,1152.5C 452.167,1152.5 443.833,1152.5 435.5,1152.5C 435.5,1147.83 435.5,1143.17 435.5,1138.5 Z M 396.5,1177.5 C 406.167,1177.5 415.833,1177.5 425.5,1177.5C 425.5,1182.17 425.5,1186.83 425.5,1191.5C 415.833,1191.5 406.167,1191.5 396.5,1191.5C 396.5,1186.83 396.5,1182.17 396.5,1177.5 Z M 435.5,1177.5 C 445.167,1177.5 454.833,1177.5 464.5,1177.5C 464.5,1182.17 464.5,1186.83 464.5,1191.5C 454.833,1191.5 445.167,1191.5 435.5,1191.5C 435.5,1186.83 435.5,1182.17 435.5,1177.5 Z"/></g>
<g><path style="opacity:0.868" fill="#000000" d="M 523.5,1173.5 C 519.89,1174.7 516.223,1175.7 512.5,1176.5C 512.918,1188.89 512.418,1201.23 511,1213.5C 510.348,1215.72 508.848,1216.89 506.5,1217C 502.179,1217.5 497.846,1217.67 493.5,1217.5C 493.613,1214.95 492.946,1212.62 491.5,1210.5C 495.377,1209.8 499.21,1209.14 503,1208.5C 503.5,1199.17 503.666,1189.84 503.5,1180.5C 498.922,1181.91 494.255,1182.91 489.5,1183.5C 489.037,1180.52 488.704,1177.52 488.5,1174.5C 493.323,1173.78 497.99,1172.45 502.5,1170.5C 503.497,1162.86 503.831,1155.2 503.5,1147.5C 498.833,1147.5 494.167,1147.5 489.5,1147.5C 489.5,1144.83 489.5,1142.17 489.5,1139.5C 494.167,1139.5 498.833,1139.5 503.5,1139.5C 503.5,1132.17 503.5,1124.83 503.5,1117.5C 506.5,1117.5 509.5,1117.5 512.5,1117.5C 512.5,1124.83 512.5,1132.17 512.5,1139.5C 516.5,1139.5 520.5,1139.5 524.5,1139.5C 524.5,1142.17 524.5,1144.83 524.5,1147.5C 520.5,1147.5 516.5,1147.5 512.5,1147.5C 512.17,1154.2 512.503,1160.87 513.5,1167.5C 516.431,1166.73 519.264,1165.73 522,1164.5C 522.953,1167.43 523.453,1170.43 523.5,1173.5 Z"/></g>
<g><path style="opacity:0.858" fill="#000000" d="M 220.5,1118.5 C 223.843,1119.06 226.843,1120.39 229.5,1122.5C 223.943,1129.23 217.61,1135.06 210.5,1140C 216.468,1139.86 222.468,1139.53 228.5,1139C 233.021,1134.98 237.688,1131.14 242.5,1127.5C 245.167,1129.17 247.833,1130.83 250.5,1132.5C 239.248,1142.47 226.915,1150.97 213.5,1158C 223.19,1158.24 232.857,1157.74 242.5,1156.5C 240.5,1153.83 238.5,1151.17 236.5,1148.5C 238.167,1147.33 239.833,1146.17 241.5,1145C 242.784,1144.32 243.951,1144.48 245,1145.5C 249.667,1151.5 254.333,1157.5 259,1163.5C 262.941,1168.6 261.607,1171.6 255,1172.5C 252.712,1170.63 250.879,1168.29 249.5,1165.5C 241.118,1164.28 232.785,1164.61 224.5,1166.5C 223.543,1168.92 222.209,1171.08 220.5,1173C 229.548,1173.81 238.548,1173.64 247.5,1172.5C 249.977,1173.15 251.644,1174.65 252.5,1177C 248.023,1186.48 241.69,1194.48 233.5,1201C 242.382,1205.52 251.716,1208.85 261.5,1211C 259.443,1213.63 257.277,1216.13 255,1218.5C 244.323,1216.06 234.323,1212.06 225,1206.5C 214.806,1212.34 203.973,1216.17 192.5,1218C 191.292,1215.75 189.959,1213.58 188.5,1211.5C 198.15,1208.89 207.484,1205.39 216.5,1201C 212.686,1198.02 209.019,1194.85 205.5,1191.5C 203.072,1194.1 200.239,1196.1 197,1197.5C 194.369,1196.04 192.202,1194.04 190.5,1191.5C 193.5,1189 196.5,1186.5 199.5,1184C 198.084,1181.17 196.417,1178.5 194.5,1176C 196.725,1174.87 199.058,1174.04 201.5,1173.5C 203.272,1174.36 204.605,1175.69 205.5,1177.5C 209.082,1174.51 212.082,1171.01 214.5,1167C 207.778,1166.67 201.112,1167.17 194.5,1168.5C 193.833,1165.5 193.167,1162.5 192.5,1159.5C 200.691,1156.74 208.358,1152.9 215.5,1148C 209.551,1147.48 203.717,1147.98 198,1149.5C 196.619,1147.37 195.619,1145.03 195,1142.5C 192.252,1147.67 189.252,1152.67 186,1157.5C 185.5,1177.83 185.333,1198.16 185.5,1218.5C 182.5,1218.5 179.5,1218.5 176.5,1218.5C 176.667,1202.16 176.5,1185.83 176,1169.5C 173.286,1172.55 170.286,1175.22 167,1177.5C 164.712,1175.63 162.879,1173.29 161.5,1170.5C 171.475,1161.69 179.808,1151.52 186.5,1140C 188.675,1140.05 190.842,1140.55 193,1141.5C 203.807,1135.86 212.974,1128.2 220.5,1118.5 Z M 214.5,1181.5 C 222.84,1181.33 231.173,1181.5 239.5,1182C 235.333,1187.5 230.5,1192.33 225,1196.5C 219.912,1193.42 215.412,1189.58 211.5,1185C 212.71,1183.96 213.71,1182.79 214.5,1181.5 Z"/></g>
<g><path style="opacity:0.825" fill="#000000" d="M 288.5,1118.5 C 290.017,1118.51 291.184,1119.18 292,1120.5C 294.44,1125.05 296.607,1129.71 298.5,1134.5C 297.088,1135.81 295.421,1136.64 293.5,1137C 298.823,1137.5 304.156,1137.67 309.5,1137.5C 309.5,1140.5 309.5,1143.5 309.5,1146.5C 297.167,1146.5 284.833,1146.5 272.5,1146.5C 272.5,1143.5 272.5,1140.5 272.5,1137.5C 278.167,1137.5 283.833,1137.5 289.5,1137.5C 287.945,1131.84 285.612,1126.5 282.5,1121.5C 284.594,1120.48 286.594,1119.48 288.5,1118.5 Z"/></g>
<g><path style="opacity:0.861" fill="#000000" d="M 523.5,1173.5 C 530.2,1173.83 536.866,1173.5 543.5,1172.5C 545.039,1169.25 546.706,1166.09 548.5,1163C 540.841,1162.5 533.174,1162.33 525.5,1162.5C 525.5,1159.83 525.5,1157.17 525.5,1154.5C 531.537,1154.83 537.537,1154.5 543.5,1153.5C 541.54,1149.07 539.206,1144.91 536.5,1141C 537.778,1138.83 539.778,1137.66 542.5,1137.5C 543.442,1137.61 544.275,1137.94 545,1138.5C 547.3,1142.27 549.467,1146.1 551.5,1150C 550.48,1152.03 548.813,1153.36 546.5,1154C 551.5,1154.67 556.5,1154.67 561.5,1154C 565.113,1148.94 567.779,1143.44 569.5,1137.5C 572.216,1137.68 574.883,1138.18 577.5,1139C 578.022,1139.56 578.355,1140.23 578.5,1141C 576.174,1145.32 573.841,1149.65 571.5,1154C 577.491,1154.5 583.491,1154.67 589.5,1154.5C 589.5,1157.17 589.5,1159.83 589.5,1162.5C 577.162,1162.33 564.829,1162.5 552.5,1163C 554.256,1163.2 555.922,1163.7 557.5,1164.5C 556.167,1167.17 554.833,1169.83 553.5,1172.5C 559.463,1173.5 565.463,1173.83 571.5,1173.5C 571.699,1171.04 572.365,1168.71 573.5,1166.5C 575.776,1167.21 578.109,1167.71 580.5,1168C 581.833,1169.67 581.833,1171.33 580.5,1173C 583.817,1173.5 587.15,1173.67 590.5,1173.5C 590.5,1176.17 590.5,1178.83 590.5,1181.5C 586.445,1181.18 582.445,1181.51 578.5,1182.5C 576.318,1189.03 572.985,1194.87 568.5,1200C 575.33,1203.58 581.997,1207.41 588.5,1211.5C 586.669,1214.87 584.003,1216.71 580.5,1217C 573.991,1213.25 567.324,1209.75 560.5,1206.5C 550.084,1212.97 538.751,1216.64 526.5,1217.5C 526.327,1214.82 525.327,1212.49 523.5,1210.5C 532.945,1209.06 541.945,1206.22 550.5,1202C 544.206,1199.4 537.873,1196.9 531.5,1194.5C 530.417,1193.64 530.251,1192.64 531,1191.5C 533.36,1188.64 535.527,1185.64 537.5,1182.5C 532.88,1181.51 528.214,1181.17 523.5,1181.5C 523.5,1178.83 523.5,1176.17 523.5,1173.5 Z M 548.5,1181.5 C 555.2,1181.17 561.866,1181.5 568.5,1182.5C 566.298,1188.03 562.965,1192.69 558.5,1196.5C 553.28,1194.06 547.947,1191.89 542.5,1190C 544.72,1187.29 546.72,1184.45 548.5,1181.5 Z"/></g>
<g><path style="opacity:0.885" fill="#000000" d="M 135.5,1149.5 C 138.5,1149.5 141.5,1149.5 144.5,1149.5C 144.667,1170.5 144.5,1191.5 144,1212.5C 142.934,1215.56 140.767,1217.06 137.5,1217C 132.177,1217.5 126.844,1217.67 121.5,1217.5C 121.244,1215.06 120.577,1212.73 119.5,1210.5C 124.718,1209.81 129.884,1209.14 135,1208.5C 135.5,1188.84 135.667,1169.17 135.5,1149.5 Z"/></g>
<g><path style="opacity:0.864" fill="#000000" d="M 298.5,1149.5 C 301.254,1149.78 303.92,1150.45 306.5,1151.5C 304.353,1164.86 302.02,1178.2 299.5,1191.5C 302.833,1190.83 306.167,1190.17 309.5,1189.5C 310.668,1187.61 311.001,1182.27 310.5,1173.5C 317.833,1173.5 325.167,1173.5 332.5,1173.5C 332.704,1170.48 333.037,1167.48 333.5,1164.5C 324.833,1164.5 316.167,1164.5 307.5,1164.5C 307.5,1161.83 307.5,1159.17 307.5,1156.5C 328.833,1156.5 350.167,1156.5 371.5,1156.5C 371.5,1159.17 371.5,1161.83 371.5,1164.5C 362.494,1164.33 353.494,1164.5 344.5,1165C 343.407,1167.44 342.407,1169.94 341.5,1172.5C 350.475,1173.5 359.475,1173.83 368.5,1173.5C 368.667,1187.5 368.5,1201.5 368,1215.5C 364.276,1218.24 360.109,1219.07 355.5,1218C 354.601,1215.81 353.601,1213.64 352.5,1211.5C 355.086,1210.52 357.753,1210.19 360.5,1210.5C 360.5,1200.83 360.5,1191.17 360.5,1181.5C 357.5,1181.5 354.5,1181.5 351.5,1181.5C 351.5,1193.17 351.5,1204.83 351.5,1216.5C 349.167,1216.5 346.833,1216.5 344.5,1216.5C 344.5,1204.83 344.5,1193.17 344.5,1181.5C 341.5,1181.5 338.5,1181.5 335.5,1181.5C 335.5,1193.5 335.5,1205.5 335.5,1217.5C 332.833,1217.5 330.167,1217.5 327.5,1217.5C 327.5,1205.5 327.5,1193.5 327.5,1181.5C 324.833,1181.5 322.167,1181.5 319.5,1181.5C 319.5,1193.83 319.5,1206.17 319.5,1218.5C 316.5,1218.5 313.5,1218.5 310.5,1218.5C 310.5,1211.83 310.5,1205.17 310.5,1198.5C 298.435,1201.18 286.435,1204.18 274.5,1207.5C 272.758,1205.59 271.758,1203.26 271.5,1200.5C 271.818,1199.35 272.484,1198.52 273.5,1198C 279.4,1196.62 285.234,1195.12 291,1193.5C 294.386,1178.96 296.886,1164.3 298.5,1149.5 Z"/></g>
<g><path style="opacity:0.84" fill="#000000" d="M 279.5,1150.5 C 280.822,1150.33 281.989,1150.66 283,1151.5C 285.906,1164.4 287.072,1177.4 286.5,1190.5C 284.591,1191.35 282.591,1191.68 280.5,1191.5C 279.325,1178.1 277.659,1164.77 275.5,1151.5C 277.099,1151.77 278.432,1151.43 279.5,1150.5 Z"/></g>
<g><path style="opacity:0.878" fill="#000000" d="M 61.5,1151.5 C 74.8333,1151.5 88.1667,1151.5 101.5,1151.5C 101.667,1172.17 101.5,1192.84 101,1213.5C 99.6811,1215.49 97.8477,1216.65 95.5,1217C 90.798,1217.83 86.1313,1217.66 81.5,1216.5C 80.3995,1214.36 79.3995,1212.19 78.5,1210C 83.1548,1209.5 87.8215,1209.33 92.5,1209.5C 92.5,1204.5 92.5,1199.5 92.5,1194.5C 84.5,1194.5 76.5,1194.5 68.5,1194.5C 67.8861,1202.29 65.7195,1209.62 62,1216.5C 61.3109,1217.36 60.4776,1218.02 59.5,1218.5C 57.3292,1216.83 55.3292,1214.99 53.5,1213C 56.6362,1207.55 58.8029,1201.72 60,1195.5C 61.3276,1180.87 61.8276,1166.2 61.5,1151.5 Z M 69.5,1159.5 C 77.1667,1159.5 84.8333,1159.5 92.5,1159.5C 92.5,1162.83 92.5,1166.17 92.5,1169.5C 84.8333,1169.5 77.1667,1169.5 69.5,1169.5C 69.5,1166.17 69.5,1162.83 69.5,1159.5 Z M 69.5,1176.5 C 77.1667,1176.5 84.8333,1176.5 92.5,1176.5C 92.5,1179.83 92.5,1183.17 92.5,1186.5C 84.8333,1186.5 77.1667,1186.5 69.5,1186.5C 69.5,1183.17 69.5,1179.83 69.5,1176.5 Z"/></g>
<g><path style="opacity:0.818" fill="#000000" d="M 113.5,1152.5 C 116.5,1152.5 119.5,1152.5 122.5,1152.5C 122.5,1167.83 122.5,1183.17 122.5,1198.5C 119.5,1198.5 116.5,1198.5 113.5,1198.5C 113.5,1183.17 113.5,1167.83 113.5,1152.5 Z"/></g>
<g><path style="opacity:0.991" fill="#d8d8d9" d="M 1009.5,1389.5 C 1937.83,1389.33 2866.17,1389.5 3794.5,1390C 3838.78,1396.95 3866.61,1422.11 3878,1465.5C 3884.81,1515.05 3865.98,1550.88 3821.5,1573C 3811.87,1576.91 3801.87,1579.24 3791.5,1580C 2865.5,1580.67 1939.5,1580.67 1013.5,1580C 975.122,1576.07 947.955,1556.57 932,1521.5C 917.026,1477.89 926.526,1440.73 960.5,1410C 975.149,1398.96 991.482,1392.12 1009.5,1389.5 Z"/></g>
<g><path style="opacity:1" fill="#4fbafe" d="M 2014.5,1395.5 C 2282.83,1395.33 2551.17,1395.5 2819.5,1396C 2857.48,1405.32 2881.65,1428.82 2892,1466.5C 2898.92,1509.48 2884.42,1542.98 2848.5,1567C 2837.81,1572.84 2826.48,1576.84 2814.5,1579C 2549.83,1579.67 2285.17,1579.67 2020.5,1579C 1981.69,1571.18 1956.53,1548.35 1945,1510.5C 1936.25,1462.84 1952.75,1427 1994.5,1403C 2001.16,1400.17 2007.83,1397.67 2014.5,1395.5 Z"/></g>
<g><path style="opacity:0.864" fill="#000000" d="M 575.5,1430.5 C 577.39,1430.3 578.89,1430.96 580,1432.5C 581.706,1436.08 583.539,1439.58 585.5,1443C 598.496,1443.5 611.496,1443.67 624.5,1443.5C 624.5,1451.83 624.5,1460.17 624.5,1468.5C 621.167,1468.5 617.833,1468.5 614.5,1468.5C 614.5,1463.17 614.5,1457.83 614.5,1452.5C 590.167,1452.5 565.833,1452.5 541.5,1452.5C 541.5,1457.83 541.5,1463.17 541.5,1468.5C 538.5,1468.5 535.5,1468.5 532.5,1468.5C 532.5,1460.17 532.5,1451.83 532.5,1443.5C 546.504,1443.67 560.504,1443.5 574.5,1443C 572.706,1439.91 571.039,1436.75 569.5,1433.5C 571.594,1432.48 573.594,1431.48 575.5,1430.5 Z"/></g>
<g><path style="opacity:0.837" fill="#000000" d="M 72.5,1431.5 C 75.4665,1431.99 78.1332,1433.16 80.5,1435C 75.999,1444.83 70.6656,1454.16 64.5,1463C 67.866,1463.33 71.1994,1463 74.5,1462C 77.5485,1457.47 79.8818,1452.64 81.5,1447.5C 84.0046,1447.98 86.3379,1448.98 88.5,1450.5C 89.5827,1451.36 89.7494,1452.36 89,1453.5C 82.6755,1465.48 75.1755,1476.65 66.5,1487C 71.7441,1486.37 77.0775,1485.87 82.5,1485.5C 82.0946,1482.01 81.0946,1478.68 79.5,1475.5C 83.2441,1471.75 86.0774,1472.08 88,1476.5C 90.2322,1481.86 92.0656,1487.36 93.5,1493C 92.3136,1495.43 90.3136,1496.6 87.5,1496.5C 89.701,1504.44 91.701,1512.44 93.5,1520.5C 91.1944,1520.99 88.861,1521.33 86.5,1521.5C 84.9693,1514.38 82.9693,1507.38 80.5,1500.5C 82.1792,1499.22 84.0126,1498.22 86,1497.5C 86.8344,1494.19 85.5011,1492.52 82,1492.5C 73.3712,1493.58 64.8712,1495.24 56.5,1497.5C 54.5455,1495.14 53.7122,1492.47 54,1489.5C 59.5533,1484.05 64.3866,1478.05 68.5,1471.5C 68,1471.17 67.5,1470.83 67,1470.5C 62.8668,1471.4 58.7001,1472.07 54.5,1472.5C 54.2437,1470.06 53.5771,1467.73 52.5,1465.5C 61.1935,1455.46 67.8602,1444.13 72.5,1431.5 Z"/></g>
<g><path style="opacity:0.818" fill="#000000" d="M 183.5,1431.5 C 187.25,1436.66 190.25,1442.33 192.5,1448.5C 190.631,1449.62 188.631,1450.46 186.5,1451C 193.158,1451.5 199.825,1451.67 206.5,1451.5C 206.5,1454.5 206.5,1457.5 206.5,1460.5C 192.167,1460.5 177.833,1460.5 163.5,1460.5C 163.5,1457.5 163.5,1454.5 163.5,1451.5C 170.2,1451.83 176.866,1451.5 183.5,1450.5C 181.556,1445 179.222,1439.67 176.5,1434.5C 178.875,1433.34 181.208,1432.34 183.5,1431.5 Z"/></g>
<g><path style="opacity:0.936" fill="#000000" d="M 225.5,1431.5 C 228.5,1431.5 231.5,1431.5 234.5,1431.5C 234.5,1438.83 234.5,1446.17 234.5,1453.5C 243.833,1453.5 253.167,1453.5 262.5,1453.5C 262.5,1456.5 262.5,1459.5 262.5,1462.5C 253.167,1462.5 243.833,1462.5 234.5,1462.5C 234.5,1469.5 234.5,1476.5 234.5,1483.5C 242.167,1483.5 249.833,1483.5 257.5,1483.5C 257.5,1499.5 257.5,1515.5 257.5,1531.5C 254.5,1531.5 251.5,1531.5 248.5,1531.5C 248.5,1529.83 248.5,1528.17 248.5,1526.5C 237.833,1526.5 227.167,1526.5 216.5,1526.5C 216.5,1528.17 216.5,1529.83 216.5,1531.5C 213.833,1531.5 211.167,1531.5 208.5,1531.5C 208.5,1515.5 208.5,1499.5 208.5,1483.5C 214.167,1483.5 219.833,1483.5 225.5,1483.5C 225.5,1466.17 225.5,1448.83 225.5,1431.5 Z M 216.5,1491.5 C 227.167,1491.5 237.833,1491.5 248.5,1491.5C 248.5,1500.5 248.5,1509.5 248.5,1518.5C 237.833,1518.5 227.167,1518.5 216.5,1518.5C 216.5,1509.5 216.5,1500.5 216.5,1491.5 Z"/></g>
<g><path style="opacity:0.876" fill="#000000" d="M 330.5,1431.5 C 333.5,1431.5 336.5,1431.5 339.5,1431.5C 339.5,1434.5 339.5,1437.5 339.5,1440.5C 347.167,1440.5 354.833,1440.5 362.5,1440.5C 362.5,1445.5 362.5,1450.5 362.5,1455.5C 365.167,1455.5 367.833,1455.5 370.5,1455.5C 370.5,1457.83 370.5,1460.17 370.5,1462.5C 367.833,1462.5 365.167,1462.5 362.5,1462.5C 362.5,1467.5 362.5,1472.5 362.5,1477.5C 354.833,1477.5 347.167,1477.5 339.5,1477.5C 339.5,1479.83 339.5,1482.17 339.5,1484.5C 347.833,1484.5 356.167,1484.5 364.5,1484.5C 364.5,1486.83 364.5,1489.17 364.5,1491.5C 356.167,1491.5 347.833,1491.5 339.5,1491.5C 339.5,1494.17 339.5,1496.83 339.5,1499.5C 349.167,1499.5 358.833,1499.5 368.5,1499.5C 368.5,1502.17 368.5,1504.83 368.5,1507.5C 358.833,1507.5 349.167,1507.5 339.5,1507.5C 339.5,1511.17 339.5,1514.83 339.5,1518.5C 336.5,1518.5 333.5,1518.5 330.5,1518.5C 330.5,1514.83 330.5,1511.17 330.5,1507.5C 321.5,1507.5 312.5,1507.5 303.5,1507.5C 303.5,1504.83 303.5,1502.17 303.5,1499.5C 312.5,1499.5 321.5,1499.5 330.5,1499.5C 330.5,1496.83 330.5,1494.17 330.5,1491.5C 322.833,1491.5 315.167,1491.5 307.5,1491.5C 307.5,1489.17 307.5,1486.83 307.5,1484.5C 315.167,1484.5 322.833,1484.5 330.5,1484.5C 330.5,1482.17 330.5,1479.83 330.5,1477.5C 323.167,1477.5 315.833,1477.5 308.5,1477.5C 308.5,1474.83 308.5,1472.17 308.5,1469.5C 315.833,1469.5 323.167,1469.5 330.5,1469.5C 330.5,1467.17 330.5,1464.83 330.5,1462.5C 321.167,1462.5 311.833,1462.5 302.5,1462.5C 302.5,1460.17 302.5,1457.83 302.5,1455.5C 311.833,1455.5 321.167,1455.5 330.5,1455.5C 330.5,1453.17 330.5,1450.83 330.5,1448.5C 323.5,1448.5 316.5,1448.5 309.5,1448.5C 309.5,1445.83 309.5,1443.17 309.5,1440.5C 316.5,1440.5 323.5,1440.5 330.5,1440.5C 330.5,1437.5 330.5,1434.5 330.5,1431.5 Z M 339.5,1448.5 C 344.5,1448.5 349.5,1448.5 354.5,1448.5C 354.5,1450.83 354.5,1453.17 354.5,1455.5C 349.5,1455.5 344.5,1455.5 339.5,1455.5C 339.5,1453.17 339.5,1450.83 339.5,1448.5 Z M 339.5,1462.5 C 344.5,1462.5 349.5,1462.5 354.5,1462.5C 354.5,1464.83 354.5,1467.17 354.5,1469.5C 349.5,1469.5 344.5,1469.5 339.5,1469.5C 339.5,1467.17 339.5,1464.83 339.5,1462.5 Z"/></g>
<g><path style="opacity:0.854" fill="#000000" d="M 660.5,1431.5 C 663.5,1431.5 666.5,1431.5 669.5,1431.5C 669.5,1433.83 669.5,1436.17 669.5,1438.5C 676.167,1438.5 682.833,1438.5 689.5,1438.5C 689.5,1440.83 689.5,1443.17 689.5,1445.5C 682.833,1445.5 676.167,1445.5 669.5,1445.5C 669.5,1446.83 669.5,1448.17 669.5,1449.5C 675.167,1449.5 680.833,1449.5 686.5,1449.5C 686.335,1452.52 686.502,1455.52 687,1458.5C 694.567,1451.37 699.567,1442.71 702,1432.5C 704.75,1431.71 707.583,1431.71 710.5,1432.5C 710.208,1436.21 709.208,1439.71 707.5,1443C 717.494,1443.5 727.494,1443.67 737.5,1443.5C 737.5,1446.17 737.5,1448.83 737.5,1451.5C 734.881,1451.23 732.381,1451.56 730,1452.5C 727.773,1459.72 724.273,1466.22 719.5,1472C 725.201,1476.85 731.534,1480.68 738.5,1483.5C 736.667,1485.83 734.833,1488.17 733,1490.5C 725.914,1487.38 719.414,1483.38 713.5,1478.5C 706.995,1483.92 699.662,1487.42 691.5,1489C 689.457,1487.29 687.79,1485.29 686.5,1483C 694.226,1480.64 701.226,1476.97 707.5,1472C 704.271,1467.77 701.438,1463.27 699,1458.5C 697.356,1461.31 695.19,1463.64 692.5,1465.5C 686.89,1458.54 684.89,1459.88 686.5,1469.5C 682.154,1469.33 677.821,1469.5 673.5,1470C 678.798,1471.8 683.131,1474.8 686.5,1479C 685.464,1480.9 684.298,1482.73 683,1484.5C 679.015,1481.01 674.682,1478.01 670,1475.5C 669.501,1479.82 669.334,1484.15 669.5,1488.5C 666.5,1488.5 663.5,1488.5 660.5,1488.5C 660.665,1484.82 660.499,1481.15 660,1477.5C 654.948,1482.61 649.115,1486.61 642.5,1489.5C 640.833,1487.5 639.167,1485.5 637.5,1483.5C 644.85,1479.98 651.516,1475.48 657.5,1470C 652.511,1469.5 647.511,1469.33 642.5,1469.5C 642.5,1462.83 642.5,1456.17 642.5,1449.5C 648.5,1449.5 654.5,1449.5 660.5,1449.5C 660.5,1448.17 660.5,1446.83 660.5,1445.5C 653.5,1445.5 646.5,1445.5 639.5,1445.5C 639.5,1443.17 639.5,1440.83 639.5,1438.5C 646.5,1438.5 653.5,1438.5 660.5,1438.5C 660.5,1436.17 660.5,1433.83 660.5,1431.5 Z M 704.5,1451.5 C 710.176,1451.33 715.843,1451.5 721.5,1452C 719.713,1457.08 717.047,1461.58 713.5,1465.5C 709.495,1461.49 706.495,1456.83 704.5,1451.5 Z M 650.5,1456.5 C 653.833,1456.5 657.167,1456.5 660.5,1456.5C 660.5,1458.83 660.5,1461.17 660.5,1463.5C 657.167,1463.5 653.833,1463.5 650.5,1463.5C 650.5,1461.17 650.5,1458.83 650.5,1456.5 Z M 669.5,1456.5 C 672.5,1456.5 675.5,1456.5 678.5,1456.5C 678.5,1458.83 678.5,1461.17 678.5,1463.5C 675.5,1463.5 672.5,1463.5 669.5,1463.5C 669.5,1461.17 669.5,1458.83 669.5,1456.5 Z"/></g>
<g><path style="opacity:0.871" fill="#000000" d="M 753.5,1431.5 C 756.5,1431.5 759.5,1431.5 762.5,1431.5C 762.5,1442.5 762.5,1453.5 762.5,1464.5C 767.167,1464.5 771.833,1464.5 776.5,1464.5C 776.5,1454.5 776.5,1444.5 776.5,1434.5C 779.167,1434.5 781.833,1434.5 784.5,1434.5C 784.5,1447.17 784.5,1459.83 784.5,1472.5C 777.167,1472.5 769.833,1472.5 762.5,1472.5C 762.605,1476.55 762.272,1480.55 761.5,1484.5C 769.167,1484.5 776.833,1484.5 784.5,1484.5C 784.5,1500.17 784.5,1515.83 784.5,1531.5C 781.5,1531.5 778.5,1531.5 775.5,1531.5C 775.5,1518.5 775.5,1505.5 775.5,1492.5C 770.833,1492.5 766.167,1492.5 761.5,1492.5C 761.383,1504.44 759.549,1516.1 756,1527.5C 755.313,1529.55 754.146,1531.22 752.5,1532.5C 750.5,1530.83 748.5,1529.17 746.5,1527.5C 750.262,1517.86 752.429,1507.86 753,1497.5C 753.5,1475.5 753.667,1453.5 753.5,1431.5 Z"/></g>
<g><path style="opacity:0.88" fill="#000000" d="M 388.5,1435.5 C 416.833,1435.5 445.167,1435.5 473.5,1435.5C 473.5,1443.17 473.5,1450.83 473.5,1458.5C 460.496,1458.33 447.496,1458.5 434.5,1459C 433.62,1460.36 433.286,1461.86 433.5,1463.5C 447.833,1463.5 462.167,1463.5 476.5,1463.5C 476.5,1465.83 476.5,1468.17 476.5,1470.5C 461.5,1470.5 446.5,1470.5 431.5,1470.5C 431.643,1472.26 431.309,1473.93 430.5,1475.5C 441.814,1476.5 453.147,1476.83 464.5,1476.5C 464.5,1491.5 464.5,1506.5 464.5,1521.5C 469.5,1521.5 474.5,1521.5 479.5,1521.5C 479.5,1523.83 479.5,1526.17 479.5,1528.5C 447.167,1528.5 414.833,1528.5 382.5,1528.5C 382.5,1526.17 382.5,1523.83 382.5,1521.5C 387.167,1521.5 391.833,1521.5 396.5,1521.5C 396.5,1506.5 396.5,1491.5 396.5,1476.5C 404.84,1476.67 413.173,1476.5 421.5,1476C 422.406,1474.3 422.739,1472.47 422.5,1470.5C 409.5,1470.5 396.5,1470.5 383.5,1470.5C 383.5,1468.17 383.5,1465.83 383.5,1463.5C 397.167,1463.5 410.833,1463.5 424.5,1463.5C 424.5,1461.83 424.5,1460.17 424.5,1458.5C 412.5,1458.5 400.5,1458.5 388.5,1458.5C 388.5,1450.83 388.5,1443.17 388.5,1435.5 Z M 397.5,1442.5 C 402.833,1442.5 408.167,1442.5 413.5,1442.5C 413.5,1445.5 413.5,1448.5 413.5,1451.5C 408.167,1451.5 402.833,1451.5 397.5,1451.5C 397.5,1448.5 397.5,1445.5 397.5,1442.5 Z M 422.5,1442.5 C 428.167,1442.5 433.833,1442.5 439.5,1442.5C 439.5,1445.5 439.5,1448.5 439.5,1451.5C 433.833,1451.5 428.167,1451.5 422.5,1451.5C 422.5,1448.5 422.5,1445.5 422.5,1442.5 Z M 447.5,1442.5 C 453.167,1442.5 458.833,1442.5 464.5,1442.5C 464.5,1445.5 464.5,1448.5 464.5,1451.5C 458.833,1451.5 453.167,1451.5 447.5,1451.5C 447.5,1448.5 447.5,1445.5 447.5,1442.5 Z M 405.5,1482.5 C 422.167,1482.5 438.833,1482.5 455.5,1482.5C 455.5,1484.17 455.5,1485.83 455.5,1487.5C 438.833,1487.5 422.167,1487.5 405.5,1487.5C 405.5,1485.83 405.5,1484.17 405.5,1482.5 Z M 405.5,1493.5 C 422.167,1493.5 438.833,1493.5 455.5,1493.5C 455.5,1495.17 455.5,1496.83 455.5,1498.5C 438.833,1498.5 422.167,1498.5 405.5,1498.5C 405.5,1496.83 405.5,1495.17 405.5,1493.5 Z M 405.5,1504.5 C 422.167,1504.5 438.833,1504.5 455.5,1504.5C 455.5,1506.5 455.5,1508.5 455.5,1510.5C 438.833,1510.5 422.167,1510.5 405.5,1510.5C 405.5,1508.5 405.5,1506.5 405.5,1504.5 Z M 405.5,1516.5 C 422.167,1516.5 438.833,1516.5 455.5,1516.5C 455.5,1518.17 455.5,1519.83 455.5,1521.5C 438.833,1521.5 422.167,1521.5 405.5,1521.5C 405.5,1519.83 405.5,1518.17 405.5,1516.5 Z"/></g>
<g><path style="opacity:0.913" fill="#000000" d="M 94.5,1436.5 C 113.167,1436.5 131.833,1436.5 150.5,1436.5C 150.667,1466.84 150.5,1497.17 150,1527.5C 149.5,1529.33 148.333,1530.5 146.5,1531C 141.816,1532.17 137.15,1532.34 132.5,1531.5C 131.518,1528.9 130.851,1526.24 130.5,1523.5C 134.513,1524.71 138.513,1524.71 142.5,1523.5C 142.5,1497.17 142.5,1470.83 142.5,1444.5C 129.167,1444.5 115.833,1444.5 102.5,1444.5C 102.5,1473.83 102.5,1503.17 102.5,1532.5C 99.8333,1532.5 97.1667,1532.5 94.5,1532.5C 94.5,1500.5 94.5,1468.5 94.5,1436.5 Z"/></g>
<g><path style="opacity:0.866" fill="#000000" d="M 794.5,1437.5 C 810.833,1437.5 827.167,1437.5 843.5,1437.5C 843.5,1440.5 843.5,1443.5 843.5,1446.5C 830.167,1446.5 816.833,1446.5 803.5,1446.5C 803.5,1452.5 803.5,1458.5 803.5,1464.5C 816.504,1464.33 829.504,1464.5 842.5,1465C 843.428,1465.39 844.095,1466.05 844.5,1467C 842.208,1482.24 836.874,1496.24 828.5,1509C 833.902,1515.86 840.568,1521.03 848.5,1524.5C 846.448,1527.05 844.281,1529.38 842,1531.5C 834.479,1527.98 828.146,1522.98 823,1516.5C 817.567,1523.1 811.067,1528.43 803.5,1532.5C 801.727,1529.94 799.727,1527.61 797.5,1525.5C 796.081,1527.34 794.914,1529.34 794,1531.5C 793.282,1532.45 792.449,1532.62 791.5,1532C 789.534,1530.54 787.868,1528.87 786.5,1527C 790.965,1516.97 793.465,1506.47 794,1495.5C 794.5,1476.17 794.667,1456.84 794.5,1437.5 Z M 803.5,1472.5 C 806.374,1485.11 811.041,1497.11 817.5,1508.5C 812.363,1515.31 806.03,1520.64 798.5,1524.5C 798.167,1524.17 797.833,1523.83 797.5,1523.5C 802.084,1506.84 804.084,1489.84 803.5,1472.5 Z M 812.5,1472.5 C 819.841,1472.33 827.174,1472.5 834.5,1473C 832.034,1482.73 828.201,1491.9 823,1500.5C 817.826,1491.81 814.326,1482.48 812.5,1472.5 Z"/></g>
<g><path style="opacity:0.862" fill="#000000" d="M 273.5,1438.5 C 284.172,1438.33 294.839,1438.5 305.5,1439C 300.876,1448.88 295.876,1458.55 290.5,1468C 294.753,1468.2 298.92,1468.7 303,1469.5C 302.933,1482.93 300.1,1495.77 294.5,1508C 302.44,1515.1 311.773,1519.1 322.5,1520C 339.167,1520.33 355.833,1520.67 372.5,1521C 370.804,1523.59 369.804,1526.42 369.5,1529.5C 352.135,1529.86 334.801,1529.36 317.5,1528C 307.595,1526.48 298.762,1522.65 291,1516.5C 287.581,1521.92 283.415,1526.76 278.5,1531C 277.833,1531.67 277.167,1531.67 276.5,1531C 274.65,1528.98 272.65,1527.15 270.5,1525.5C 276.227,1521.11 280.893,1515.77 284.5,1509.5C 279.774,1502.81 276.941,1495.48 276,1487.5C 277.993,1485.62 280.159,1485.29 282.5,1486.5C 283.734,1491.21 285.734,1495.54 288.5,1499.5C 291.592,1492.13 293.592,1484.46 294.5,1476.5C 288.794,1476.83 283.128,1476.5 277.5,1475.5C 282.606,1466.39 287.272,1457.06 291.5,1447.5C 285.537,1446.5 279.537,1446.17 273.5,1446.5C 273.5,1443.83 273.5,1441.17 273.5,1438.5 Z"/></g>
<g><path style="opacity:0.907" fill="#000000" d="M 509.5,1444.5 C 513.5,1444.5 517.5,1444.5 521.5,1444.5C 515.076,1460.36 511.409,1476.86 510.5,1494C 511.251,1510.83 514.917,1527 521.5,1542.5C 517.541,1543.66 513.541,1543.83 509.5,1543C 490.909,1510.22 490.909,1477.38 509.5,1444.5 Z"/></g>
<g><path style="opacity:0.909" fill="#000000" d="M 854.5,1444.5 C 858.555,1444.18 862.555,1444.51 866.5,1445.5C 883.635,1477.75 883.802,1510.08 867,1542.5C 862.934,1543.46 858.767,1543.8 854.5,1543.5C 860.712,1527.6 864.046,1511.1 864.5,1494C 864.605,1486.07 863.771,1478.23 862,1470.5C 859.588,1461.77 857.088,1453.1 854.5,1444.5 Z"/></g>
<g><path style="opacity:0.861" fill="#000000" d="M 112.5,1446.5 C 116.424,1450.37 118.757,1455.2 119.5,1461C 119.089,1463.21 117.755,1464.55 115.5,1465C 118.817,1465.5 122.15,1465.67 125.5,1465.5C 127.452,1459.64 128.785,1453.64 129.5,1447.5C 132.4,1447.28 135.067,1447.95 137.5,1449.5C 135.425,1454.72 133.758,1460.06 132.5,1465.5C 135.5,1465.5 138.5,1465.5 141.5,1465.5C 141.5,1467.83 141.5,1470.17 141.5,1472.5C 135.491,1472.33 129.491,1472.5 123.5,1473C 125.235,1475.64 126.568,1478.47 127.5,1481.5C 126.975,1482.19 126.308,1482.69 125.5,1483C 130.155,1483.5 134.821,1483.67 139.5,1483.5C 139.5,1485.83 139.5,1488.17 139.5,1490.5C 132.167,1490.5 124.833,1490.5 117.5,1490.5C 117.5,1494.83 117.5,1499.17 117.5,1503.5C 124.833,1503.5 132.167,1503.5 139.5,1503.5C 139.993,1505.81 140.326,1508.14 140.5,1510.5C 131.161,1510.67 121.827,1510.5 112.5,1510C 111.299,1509.1 110.465,1507.93 110,1506.5C 109.501,1501.18 109.334,1495.84 109.5,1490.5C 108.167,1490.5 106.833,1490.5 105.5,1490.5C 105.5,1488.17 105.5,1485.83 105.5,1483.5C 110.167,1483.5 114.833,1483.5 119.5,1483.5C 118.866,1480.06 117.533,1476.9 115.5,1474C 116.167,1473.67 116.833,1473.33 117.5,1473C 113.179,1472.5 108.846,1472.33 104.5,1472.5C 104.5,1470.17 104.5,1467.83 104.5,1465.5C 107.5,1465.5 110.5,1465.5 113.5,1465.5C 112.562,1460.12 110.895,1454.95 108.5,1450C 109.347,1448.23 110.68,1447.06 112.5,1446.5 Z"/></g>
<g><path style="opacity:0.856" fill="#000000" d="M 193.5,1462.5 C 195.804,1463.16 198.137,1463.83 200.5,1464.5C 200.833,1465.5 201.167,1466.5 201.5,1467.5C 199.292,1479.87 196.959,1492.2 194.5,1504.5C 198.167,1503.83 201.833,1503.17 205.5,1502.5C 206.523,1505.39 206.523,1508.23 205.5,1511C 192.161,1514.5 178.828,1518 165.5,1521.5C 163.302,1518.56 162.635,1515.39 163.5,1512C 171.091,1510.39 178.591,1508.56 186,1506.5C 189.199,1491.94 191.699,1477.27 193.5,1462.5 Z"/></g>
<g><path style="opacity:0.937" fill="#000000" d="M 548.5,1463.5 C 568.5,1463.5 588.5,1463.5 608.5,1463.5C 608.5,1466.17 608.5,1468.83 608.5,1471.5C 588.5,1471.5 568.5,1471.5 548.5,1471.5C 548.5,1468.83 548.5,1466.17 548.5,1463.5 Z"/></g>
<g><path style="opacity:0.849" fill="#000000" d="M 170.5,1464.5 C 172.766,1464.14 174.599,1464.81 176,1466.5C 178.489,1479.08 180.322,1491.75 181.5,1504.5C 178.794,1504.58 176.127,1504.91 173.5,1505.5C 172.488,1493.09 170.822,1480.75 168.5,1468.5C 168.803,1466.89 169.47,1465.55 170.5,1464.5 Z"/></g>
<g><path style="opacity:0.869" fill="#000000" d="M 530.5,1483.5 C 562.833,1483.5 595.167,1483.5 627.5,1483.5C 627.5,1486.5 627.5,1489.5 627.5,1492.5C 616.833,1492.5 606.167,1492.5 595.5,1492.5C 595.182,1502.08 595.515,1511.58 596.5,1521C 603.5,1521.67 610.5,1521.67 617.5,1521C 618,1520.5 618.5,1520 619,1519.5C 619.325,1515.38 620.159,1511.38 621.5,1507.5C 623.5,1508.5 625.5,1509.5 627.5,1510.5C 630.458,1527.04 623.624,1533.71 607,1530.5C 602.5,1530.33 598,1530.17 593.5,1530C 591.152,1529.65 589.319,1528.49 588,1526.5C 586.567,1515.24 586.067,1503.91 586.5,1492.5C 580.5,1492.5 574.5,1492.5 568.5,1492.5C 568.176,1501.8 565.676,1510.46 561,1518.5C 553.296,1525.94 544.129,1530.6 533.5,1532.5C 531.957,1529.91 530.291,1527.41 528.5,1525C 547.385,1522.45 557.718,1511.78 559.5,1493C 549.839,1492.5 540.172,1492.33 530.5,1492.5C 530.5,1489.5 530.5,1486.5 530.5,1483.5 Z"/></g>
<g><path style="opacity:0.869" fill="#000000" d="M 645.5,1490.5 C 673.833,1490.5 702.167,1490.5 730.5,1490.5C 730.5,1493.17 730.5,1495.83 730.5,1498.5C 717.833,1498.5 705.167,1498.5 692.5,1498.5C 692.5,1500.83 692.5,1503.17 692.5,1505.5C 702.833,1505.5 713.167,1505.5 723.5,1505.5C 723.5,1508.17 723.5,1510.83 723.5,1513.5C 713.167,1513.5 702.833,1513.5 692.5,1513.5C 692.5,1516.17 692.5,1518.83 692.5,1521.5C 707.5,1521.5 722.5,1521.5 737.5,1521.5C 737.5,1524.17 737.5,1526.83 737.5,1529.5C 704.5,1529.5 671.5,1529.5 638.5,1529.5C 638.5,1526.83 638.5,1524.17 638.5,1521.5C 644.5,1521.5 650.5,1521.5 656.5,1521.5C 656.5,1515.5 656.5,1509.5 656.5,1503.5C 659.167,1503.5 661.833,1503.5 664.5,1503.5C 664.5,1509.5 664.5,1515.5 664.5,1521.5C 670.833,1521.5 677.167,1521.5 683.5,1521.5C 683.5,1513.83 683.5,1506.17 683.5,1498.5C 670.833,1498.5 658.167,1498.5 645.5,1498.5C 645.5,1495.83 645.5,1493.17 645.5,1490.5 Z"/></g>
<g><path style="opacity:0.817" fill="#000000" d="M 73.5,1500.5 C 74.9311,1500.88 75.7645,1501.88 76,1503.5C 77.6333,1510.69 78.1333,1517.86 77.5,1525C 75.7818,1525.35 74.1151,1525.85 72.5,1526.5C 70.9212,1518.2 69.5879,1509.87 68.5,1501.5C 70.4147,1501.78 72.0813,1501.45 73.5,1500.5 Z"/></g>
<g><path style="opacity:0.825" fill="#000000" d="M 57.5,1501.5 C 59.5273,1501.34 61.5273,1501.5 63.5,1502C 64.0968,1503.06 64.4302,1504.23 64.5,1505.5C 63.5262,1511.87 62.3596,1518.2 61,1524.5C 59.4697,1530.24 56.6363,1530.74 52.5,1526C 54.872,1517.97 56.5387,1509.81 57.5,1501.5 Z"/></g>
<g><path style="opacity:0.987" fill="#d8d8d9" d="M 1027.5,1728.5 C 1950.17,1728.33 2872.83,1728.5 3795.5,1729C 3847.41,1733.25 3879.25,1760.75 3891,1811.5C 3896.39,1863.24 3875.56,1899.74 3828.5,1921C 3818.8,1924.51 3808.8,1926.51 3798.5,1927C 2873.83,1927.67 1949.17,1927.67 1024.5,1927C 982.588,1923.3 953.421,1902.14 937,1863.5C 923.261,1820.29 932.761,1783.12 965.5,1752C 983.708,1737.54 1004.37,1729.71 1027.5,1728.5 Z"/></g>
<g><path style="opacity:1" fill="#4fbafe" d="M 2756.5,1738.5 C 2968.86,1738.01 3181.19,1738.51 3393.5,1740C 3432.05,1750.61 3455.55,1775.44 3464,1814.5C 3468.81,1861.4 3450.31,1895.23 3408.5,1916C 3400.4,1919.15 3392.06,1921.48 3383.5,1923C 3176.17,1923.67 2968.83,1923.67 2761.5,1923C 2716.87,1915.04 2690.04,1888.87 2681,1844.5C 2676.81,1805.4 2690.64,1774.56 2722.5,1752C 2733.22,1745.6 2744.55,1741.1 2756.5,1738.5 Z"/></g>
<g><path style="opacity:0.828" fill="#000000" d="M 397.5,1776.5 C 401.444,1780.64 404.444,1785.47 406.5,1791C 405.048,1792.56 403.381,1793.9 401.5,1795C 406.823,1795.5 412.156,1795.67 417.5,1795.5C 417.5,1798.17 417.5,1800.83 417.5,1803.5C 405.5,1803.5 393.5,1803.5 381.5,1803.5C 381.5,1800.83 381.5,1798.17 381.5,1795.5C 387.509,1795.67 393.509,1795.5 399.5,1795C 396.817,1790.32 394.15,1785.66 391.5,1781C 393.358,1779.25 395.358,1777.75 397.5,1776.5 Z"/></g>
<g><path style="opacity:0.839" fill="#000000" d="M 72.5,1777.5 C 75.4665,1777.99 78.1332,1779.16 80.5,1781C 75.999,1790.83 70.6656,1800.16 64.5,1809C 67.833,1809.11 71.1663,1808.78 74.5,1808C 77.267,1803.3 79.6003,1798.47 81.5,1793.5C 84.0046,1793.98 86.3379,1794.98 88.5,1796.5C 89.5827,1797.36 89.7494,1798.36 89,1799.5C 82.6755,1811.48 75.1755,1822.65 66.5,1833C 71.7441,1832.37 77.0775,1831.87 82.5,1831.5C 82.0946,1828.01 81.0946,1824.68 79.5,1821.5C 83.2441,1817.75 86.0774,1818.08 88,1822.5C 90.2322,1827.86 92.0656,1833.36 93.5,1839C 92.3136,1841.43 90.3136,1842.6 87.5,1842.5C 89.2894,1849.87 91.2894,1857.2 93.5,1864.5C 91.7962,1866.85 89.4629,1867.85 86.5,1867.5C 84.9693,1860.38 82.9693,1853.38 80.5,1846.5C 82.1792,1845.22 84.0126,1844.22 86,1843.5C 86.3247,1841.45 85.9913,1839.45 85,1837.5C 75.4713,1839.23 65.9713,1841.23 56.5,1843.5C 54.7547,1841.04 53.9214,1838.37 54,1835.5C 59.5533,1830.05 64.3866,1824.05 68.5,1817.5C 67.8333,1817.17 67.1667,1816.83 66.5,1816.5C 62.5271,1817.38 58.5271,1818.05 54.5,1818.5C 54.2437,1816.06 53.5771,1813.73 52.5,1811.5C 61.1935,1801.46 67.8602,1790.13 72.5,1777.5 Z"/></g>
<g><path style="opacity:0.823" fill="#000000" d="M 183.5,1777.5 C 187.25,1782.66 190.25,1788.33 192.5,1794.5C 190.631,1795.62 188.631,1796.46 186.5,1797C 193.158,1797.5 199.825,1797.67 206.5,1797.5C 206.5,1800.5 206.5,1803.5 206.5,1806.5C 192.167,1806.5 177.833,1806.5 163.5,1806.5C 163.5,1803.5 163.5,1800.5 163.5,1797.5C 170.2,1797.83 176.866,1797.5 183.5,1796.5C 181.556,1791 179.222,1785.67 176.5,1780.5C 178.875,1779.34 181.208,1778.34 183.5,1777.5 Z"/></g>
<g><path style="opacity:0.938" fill="#000000" d="M 225.5,1777.5 C 228.5,1777.5 231.5,1777.5 234.5,1777.5C 234.5,1784.83 234.5,1792.17 234.5,1799.5C 243.833,1799.5 253.167,1799.5 262.5,1799.5C 262.5,1802.5 262.5,1805.5 262.5,1808.5C 253.167,1808.5 243.833,1808.5 234.5,1808.5C 234.5,1815.5 234.5,1822.5 234.5,1829.5C 242.167,1829.5 249.833,1829.5 257.5,1829.5C 257.5,1845.5 257.5,1861.5 257.5,1877.5C 254.5,1877.5 251.5,1877.5 248.5,1877.5C 248.5,1875.83 248.5,1874.17 248.5,1872.5C 237.833,1872.5 227.167,1872.5 216.5,1872.5C 216.5,1874.17 216.5,1875.83 216.5,1877.5C 213.833,1877.5 211.167,1877.5 208.5,1877.5C 208.5,1861.5 208.5,1845.5 208.5,1829.5C 214.167,1829.5 219.833,1829.5 225.5,1829.5C 225.5,1812.17 225.5,1794.83 225.5,1777.5 Z M 216.5,1837.5 C 227.167,1837.5 237.833,1837.5 248.5,1837.5C 248.5,1846.5 248.5,1855.5 248.5,1864.5C 237.833,1864.5 227.167,1864.5 216.5,1864.5C 216.5,1855.5 216.5,1846.5 216.5,1837.5 Z"/></g>
<g><path style="opacity:0.912" fill="#000000" d="M 359.5,1777.5 C 362.167,1777.5 364.833,1777.5 367.5,1777.5C 367.667,1809.17 367.5,1840.84 367,1872.5C 366.535,1873.93 365.701,1875.1 364.5,1876C 358.251,1877.54 351.917,1877.87 345.5,1877C 344.5,1874.67 343.5,1872.33 342.5,1870C 348.083,1869.81 353.583,1869.31 359,1868.5C 359.5,1838.17 359.667,1807.84 359.5,1777.5 Z"/></g>
<g><path style="opacity:0.868" fill="#000000" d="M 450.5,1777.5 C 453.5,1777.5 456.5,1777.5 459.5,1777.5C 459.205,1784.23 459.538,1790.89 460.5,1797.5C 467.468,1798.5 474.468,1798.83 481.5,1798.5C 481.5,1801.5 481.5,1804.5 481.5,1807.5C 474.5,1807.5 467.5,1807.5 460.5,1807.5C 460.706,1826.48 463.206,1845.15 468,1863.5C 468.837,1865.84 470.171,1867.84 472,1869.5C 473.733,1863.63 474.899,1857.63 475.5,1851.5C 477.193,1853.03 479.027,1854.36 481,1855.5C 481.92,1863.23 480.42,1870.4 476.5,1877C 471.124,1879.32 466.624,1878.15 463,1873.5C 457.975,1862.38 454.975,1850.72 454,1838.5C 452.937,1828.18 452.104,1817.85 451.5,1807.5C 440.833,1807.5 430.167,1807.5 419.5,1807.5C 419.5,1804.5 419.5,1801.5 419.5,1798.5C 430.167,1798.5 440.833,1798.5 451.5,1798.5C 451.227,1791.5 450.894,1784.5 450.5,1777.5 Z"/></g>
<g><path style="opacity:0.805" fill="#000000" d="M 279.5,1778.5 C 286.476,1780.74 292.642,1784.41 298,1789.5C 297.427,1791.8 296.26,1793.97 294.5,1796C 293.5,1796.67 292.5,1796.67 291.5,1796C 286.766,1791.88 281.599,1788.38 276,1785.5C 276.798,1783.14 277.965,1780.81 279.5,1778.5 Z"/></g>
<g><path style="opacity:0.783" fill="#000000" d="M 466.5,1779.5 C 468.371,1779.86 469.871,1780.86 471,1782.5C 473.5,1786.17 476,1789.83 478.5,1793.5C 476.309,1796.28 473.642,1797.28 470.5,1796.5C 467.89,1791.89 464.89,1787.56 461.5,1783.5C 463.21,1782.11 464.877,1780.78 466.5,1779.5 Z"/></g>
<g><path style="opacity:0.911" fill="#000000" d="M 94.5,1782.5 C 113.167,1782.5 131.833,1782.5 150.5,1782.5C 150.667,1812.84 150.5,1843.17 150,1873.5C 149.5,1875.33 148.333,1876.5 146.5,1877C 142.822,1877.42 139.155,1877.92 135.5,1878.5C 134.5,1878.17 133.5,1877.83 132.5,1877.5C 131.518,1874.9 130.851,1872.24 130.5,1869.5C 134.5,1869.5 138.5,1869.5 142.5,1869.5C 142.5,1843.17 142.5,1816.83 142.5,1790.5C 129.167,1790.5 115.833,1790.5 102.5,1790.5C 102.5,1819.83 102.5,1849.17 102.5,1878.5C 99.8333,1878.5 97.1667,1878.5 94.5,1878.5C 94.5,1846.5 94.5,1814.5 94.5,1782.5 Z"/></g>
<g><path style="opacity:0.87" fill="#000000" d="M 300.5,1782.5 C 311.5,1782.5 322.5,1782.5 333.5,1782.5C 333.5,1805.5 333.5,1828.5 333.5,1851.5C 322.5,1851.5 311.5,1851.5 300.5,1851.5C 300.5,1828.5 300.5,1805.5 300.5,1782.5 Z M 308.5,1790.5 C 313.833,1790.5 319.167,1790.5 324.5,1790.5C 324.5,1794.5 324.5,1798.5 324.5,1802.5C 319.167,1802.5 313.833,1802.5 308.5,1802.5C 308.5,1798.5 308.5,1794.5 308.5,1790.5 Z M 308.5,1810.5 C 313.833,1810.5 319.167,1810.5 324.5,1810.5C 324.5,1814.5 324.5,1818.5 324.5,1822.5C 319.167,1822.5 313.833,1822.5 308.5,1822.5C 308.5,1818.5 308.5,1814.5 308.5,1810.5 Z M 308.5,1830.5 C 313.833,1830.5 319.167,1830.5 324.5,1830.5C 324.5,1834.83 324.5,1839.17 324.5,1843.5C 319.167,1843.5 313.833,1843.5 308.5,1843.5C 308.5,1839.17 308.5,1834.83 308.5,1830.5 Z"/></g>
<g><path style="opacity:0.894" fill="#000000" d="M 340.5,1788.5 C 343.167,1788.5 345.833,1788.5 348.5,1788.5C 348.5,1809.5 348.5,1830.5 348.5,1851.5C 345.833,1851.5 343.167,1851.5 340.5,1851.5C 340.5,1830.5 340.5,1809.5 340.5,1788.5 Z"/></g>
<g><path style="opacity:0.839" fill="#000000" d="M 112.5,1792.5 C 116.424,1796.37 118.757,1801.2 119.5,1807C 119.245,1808.33 118.578,1809.33 117.5,1810C 120.227,1810.82 122.894,1810.65 125.5,1809.5C 127.251,1803.75 129.084,1798.08 131,1792.5C 133.071,1793.52 135.238,1794.36 137.5,1795C 135.941,1799.84 134.274,1804.68 132.5,1809.5C 135.428,1810.48 138.428,1810.82 141.5,1810.5C 141.5,1813.17 141.5,1815.83 141.5,1818.5C 135.491,1818.33 129.491,1818.5 123.5,1819C 125.235,1821.64 126.568,1824.47 127.5,1827.5C 126.975,1828.19 126.308,1828.69 125.5,1829C 130.155,1829.5 134.821,1829.67 139.5,1829.5C 139.5,1831.83 139.5,1834.17 139.5,1836.5C 132.167,1836.5 124.833,1836.5 117.5,1836.5C 117.5,1840.83 117.5,1845.17 117.5,1849.5C 124.833,1849.5 132.167,1849.5 139.5,1849.5C 139.993,1851.81 140.326,1854.14 140.5,1856.5C 131.161,1856.67 121.827,1856.5 112.5,1856C 111.299,1855.1 110.465,1853.93 110,1852.5C 109.501,1847.18 109.334,1841.84 109.5,1836.5C 108.167,1836.5 106.833,1836.5 105.5,1836.5C 105.5,1834.17 105.5,1831.83 105.5,1829.5C 110.167,1829.5 114.833,1829.5 119.5,1829.5C 118.866,1826.06 117.533,1822.9 115.5,1820C 116.167,1819.67 116.833,1819.33 117.5,1819C 113.179,1818.5 108.846,1818.33 104.5,1818.5C 104.5,1815.83 104.5,1813.17 104.5,1810.5C 107.572,1810.82 110.572,1810.48 113.5,1809.5C 111.979,1804.96 110.312,1800.46 108.5,1796C 109.347,1794.23 110.68,1793.06 112.5,1792.5 Z"/></g>
<g><path style="opacity:0.816" fill="#000000" d="M 274.5,1807.5 C 281.959,1809.45 288.626,1812.95 294.5,1818C 292.789,1820.59 290.955,1823.09 289,1825.5C 283.253,1821.04 277.086,1817.21 270.5,1814C 272.085,1811.93 273.419,1809.76 274.5,1807.5 Z"/></g>
<g><path style="opacity:0.86" fill="#000000" d="M 193.5,1808.5 C 195.746,1809.21 198.08,1809.71 200.5,1810C 201.097,1811.06 201.43,1812.23 201.5,1813.5C 199.292,1825.87 196.959,1838.2 194.5,1850.5C 198.136,1849.67 201.803,1849.01 205.5,1848.5C 206.523,1851.39 206.523,1854.23 205.5,1857C 192.075,1860.19 178.741,1863.69 165.5,1867.5C 163.302,1864.56 162.635,1861.39 163.5,1858C 171.091,1856.39 178.591,1854.56 186,1852.5C 189.199,1837.94 191.699,1823.27 193.5,1808.5 Z"/></g>
<g><path style="opacity:0.849" fill="#000000" d="M 170.5,1810.5 C 172.766,1810.14 174.599,1810.81 176,1812.5C 178.489,1825.08 180.322,1837.75 181.5,1850.5C 178.794,1850.58 176.127,1850.91 173.5,1851.5C 172.488,1839.09 170.822,1826.75 168.5,1814.5C 168.803,1812.89 169.47,1811.55 170.5,1810.5 Z"/></g>
<g><path style="opacity:0.899" fill="#000000" d="M 385.5,1810.5 C 395.5,1810.5 405.5,1810.5 415.5,1810.5C 415.5,1812.83 415.5,1815.17 415.5,1817.5C 405.5,1817.5 395.5,1817.5 385.5,1817.5C 385.5,1815.17 385.5,1812.83 385.5,1810.5 Z"/></g>
<g><path style="opacity:0.841" fill="#000000" d="M 418.5,1821.5 C 428.833,1821.5 439.167,1821.5 449.5,1821.5C 449.5,1824.5 449.5,1827.5 449.5,1830.5C 445.833,1830.5 442.167,1830.5 438.5,1830.5C 438.169,1838.86 438.502,1847.19 439.5,1855.5C 444.046,1854.24 448.546,1852.91 453,1851.5C 453.995,1854.13 454.328,1856.79 454,1859.5C 442.373,1863.54 430.539,1866.88 418.5,1869.5C 417.833,1866.5 417.167,1863.5 416.5,1860.5C 420.833,1859.83 425.167,1859.17 429.5,1858.5C 429.5,1849.17 429.5,1839.83 429.5,1830.5C 425.833,1830.5 422.167,1830.5 418.5,1830.5C 418.5,1827.5 418.5,1824.5 418.5,1821.5 Z"/></g>
<g><path style="opacity:0.907" fill="#000000" d="M 385.5,1824.5 C 395.5,1824.5 405.5,1824.5 415.5,1824.5C 415.5,1826.83 415.5,1829.17 415.5,1831.5C 405.5,1831.5 395.5,1831.5 385.5,1831.5C 385.5,1829.17 385.5,1826.83 385.5,1824.5 Z"/></g>
<g><path style="opacity:0.84" fill="#000000" d="M 287.5,1836.5 C 290.876,1837.39 293.543,1839.22 295.5,1842C 291.684,1854.12 286.684,1865.62 280.5,1876.5C 277.343,1875.6 275.009,1873.77 273.5,1871C 279.056,1859.82 283.723,1848.32 287.5,1836.5 Z"/></g>
<g><path style="opacity:0.873" fill="#000000" d="M 385.5,1838.5 C 395.5,1838.5 405.5,1838.5 415.5,1838.5C 415.5,1849.5 415.5,1860.5 415.5,1871.5C 408.167,1871.5 400.833,1871.5 393.5,1871.5C 393.5,1873.17 393.5,1874.83 393.5,1876.5C 390.833,1876.5 388.167,1876.5 385.5,1876.5C 385.5,1863.83 385.5,1851.17 385.5,1838.5 Z M 393.5,1846.5 C 398.167,1846.5 402.833,1846.5 407.5,1846.5C 407.5,1852.17 407.5,1857.83 407.5,1863.5C 402.833,1863.5 398.167,1863.5 393.5,1863.5C 393.5,1857.83 393.5,1852.17 393.5,1846.5 Z"/></g>
<g><path style="opacity:0.812" fill="#000000" d="M 72.5,1846.5 C 73.5,1846.5 74.5,1846.5 75.5,1846.5C 77.2278,1854.42 78.0611,1862.42 78,1870.5C 76.2151,1871.24 74.3817,1871.91 72.5,1872.5C 71.0209,1864.19 69.6875,1855.85 68.5,1847.5C 70.099,1847.77 71.4324,1847.43 72.5,1846.5 Z"/></g>
<g><path style="opacity:0.825" fill="#000000" d="M 57.5,1847.5 C 59.8333,1847.5 62.1667,1847.5 64.5,1847.5C 64.1514,1857.25 62.1514,1866.58 58.5,1875.5C 56.0671,1874.98 54.0671,1873.81 52.5,1872C 54.872,1863.97 56.5387,1855.81 57.5,1847.5 Z"/></g>
<g><path style="opacity:0.81" fill="#000000" d="M 304.5,1852.5 C 307.785,1852.74 310.785,1853.74 313.5,1855.5C 309.693,1864.29 304.359,1871.96 297.5,1878.5C 294.991,1877.08 292.657,1875.41 290.5,1873.5C 296.788,1867.55 301.454,1860.55 304.5,1852.5 Z"/></g>
<g><path style="opacity:0.794" fill="#000000" d="M 324.5,1852.5 C 326.39,1852.3 327.89,1852.96 329,1854.5C 332.695,1859.36 336.195,1864.36 339.5,1869.5C 337.343,1871.41 335.009,1873.08 332.5,1874.5C 328.657,1868.15 324.323,1862.15 319.5,1856.5C 321.21,1855.11 322.877,1853.78 324.5,1852.5 Z"/></g>
<g><path style="opacity:0.991" fill="#d8d8d9" d="M 3799.5,2081.5 C 3692,2082.33 3584.33,2082.83 3476.5,2083C 3436.14,2093.69 3411.97,2119.53 3404,2160.5C 3400.65,2208.99 3421.15,2242.82 3465.5,2262C 3470.75,2263.65 3476.09,2264.98 3481.5,2266C 3586.83,2266.67 3692.17,2266.67 3797.5,2266C 3835.56,2260.44 3861.23,2239.6 3874.5,2203.5C 3874.83,2203.5 3875.17,2203.5 3875.5,2203.5C 3862.75,2242.41 3836.09,2264.91 3795.5,2271C 2866.83,2271.67 1938.17,2271.67 1009.5,2271C 963.085,2263.39 935.252,2236.55 926,2190.5C 921.71,2149.92 936.21,2118.09 969.5,2095C 983.313,2086.51 998.313,2081.84 1014.5,2081C 1942.84,2080.17 2871.18,2080.34 3799.5,2081.5 Z"/></g>
<g><path style="opacity:0.999" fill="#4fbafe" d="M 3799.5,2081.5 C 3837.7,2088.2 3863.2,2109.87 3876,2146.5C 3879.13,2159.64 3880.3,2172.97 3879.5,2186.5C 3877.47,2191.94 3875.8,2197.61 3874.5,2203.5C 3861.23,2239.6 3835.56,2260.44 3797.5,2266C 3692.17,2266.67 3586.83,2266.67 3481.5,2266C 3476.09,2264.98 3470.75,2263.65 3465.5,2262C 3421.15,2242.82 3400.65,2208.99 3404,2160.5C 3411.97,2119.53 3436.14,2093.69 3476.5,2083C 3584.33,2082.83 3692,2082.33 3799.5,2081.5 Z"/></g>
<g><path style="opacity:0.841" fill="#000000" d="M 72.5,2123.5 C 75.5158,2123.84 78.1825,2125.01 80.5,2127C 75.999,2136.83 70.6656,2146.16 64.5,2155C 67.833,2155.11 71.1663,2154.78 74.5,2154C 77.267,2149.3 79.6003,2144.47 81.5,2139.5C 84.0046,2139.98 86.3379,2140.98 88.5,2142.5C 89.5827,2143.36 89.7494,2144.36 89,2145.5C 82.951,2157.11 75.7843,2167.94 67.5,2178C 72.4884,2178.09 77.4884,2177.92 82.5,2177.5C 82.0946,2174.01 81.0946,2170.68 79.5,2167.5C 81.6684,2165.55 84.0017,2164.88 86.5,2165.5C 89.4251,2171.61 91.7585,2177.94 93.5,2184.5C 92.2432,2187.96 89.9098,2188.96 86.5,2187.5C 85.9017,2186.21 85.4017,2184.87 85,2183.5C 75.4713,2185.23 65.9713,2187.23 56.5,2189.5C 55.3076,2187.26 54.3076,2184.93 53.5,2182.5C 59.2228,2176.71 64.2228,2170.38 68.5,2163.5C 67.8333,2163.17 67.1667,2162.83 66.5,2162.5C 62.5271,2163.38 58.5271,2164.05 54.5,2164.5C 54.2437,2162.06 53.5771,2159.73 52.5,2157.5C 61.1935,2147.46 67.8602,2136.13 72.5,2123.5 Z"/></g>
<g><path style="opacity:0.823" fill="#000000" d="M 182.5,2123.5 C 183.496,2123.41 184.329,2123.75 185,2124.5C 187.773,2129.71 190.273,2135.05 192.5,2140.5C 190.631,2141.62 188.631,2142.46 186.5,2143C 193.158,2143.5 199.825,2143.67 206.5,2143.5C 206.5,2146.5 206.5,2149.5 206.5,2152.5C 192.167,2152.5 177.833,2152.5 163.5,2152.5C 163.5,2149.5 163.5,2146.5 163.5,2143.5C 170.2,2143.83 176.866,2143.5 183.5,2142.5C 181.717,2136.93 179.383,2131.6 176.5,2126.5C 178.594,2125.48 180.594,2124.48 182.5,2123.5 Z"/></g>
<g><path style="opacity:0.937" fill="#000000" d="M 225.5,2123.5 C 228.5,2123.5 231.5,2123.5 234.5,2123.5C 234.5,2130.83 234.5,2138.17 234.5,2145.5C 243.833,2145.5 253.167,2145.5 262.5,2145.5C 262.5,2148.5 262.5,2151.5 262.5,2154.5C 253.167,2154.5 243.833,2154.5 234.5,2154.5C 234.5,2161.5 234.5,2168.5 234.5,2175.5C 242.167,2175.5 249.833,2175.5 257.5,2175.5C 257.5,2191.5 257.5,2207.5 257.5,2223.5C 254.5,2223.5 251.5,2223.5 248.5,2223.5C 248.5,2221.83 248.5,2220.17 248.5,2218.5C 237.833,2218.5 227.167,2218.5 216.5,2218.5C 216.5,2220.17 216.5,2221.83 216.5,2223.5C 213.833,2223.5 211.167,2223.5 208.5,2223.5C 208.5,2207.5 208.5,2191.5 208.5,2175.5C 214.167,2175.5 219.833,2175.5 225.5,2175.5C 225.5,2158.17 225.5,2140.83 225.5,2123.5 Z M 216.5,2183.5 C 227.167,2183.5 237.833,2183.5 248.5,2183.5C 248.5,2192.5 248.5,2201.5 248.5,2210.5C 237.833,2210.5 227.167,2210.5 216.5,2210.5C 216.5,2201.5 216.5,2192.5 216.5,2183.5 Z"/></g>
<g><path style="opacity:0.866" fill="#000000" d="M 399.5,2123.5 C 402.5,2123.5 405.5,2123.5 408.5,2123.5C 407.886,2127.14 407.552,2130.8 407.5,2134.5C 414.833,2134.5 422.167,2134.5 429.5,2134.5C 429.332,2141.85 428.832,2149.19 428,2156.5C 427.641,2170.6 420.474,2175.93 406.5,2172.5C 405.833,2169.5 405.167,2166.5 404.5,2163.5C 407.002,2163.75 409.502,2164.08 412,2164.5C 414.145,2164.6 415.979,2163.94 417.5,2162.5C 419.317,2155.97 420.317,2149.3 420.5,2142.5C 415.833,2142.5 411.167,2142.5 406.5,2142.5C 405.281,2157.29 398.281,2168.29 385.5,2175.5C 383.712,2173.21 381.712,2171.04 379.5,2169C 389.556,2163.4 395.556,2154.9 397.5,2143.5C 392.208,2142.51 386.875,2142.17 381.5,2142.5C 381.5,2139.83 381.5,2137.17 381.5,2134.5C 387.167,2134.5 392.833,2134.5 398.5,2134.5C 398.552,2130.8 398.886,2127.14 399.5,2123.5 Z"/></g>
<g><path style="opacity:0.918" fill="#000000" d="M 313.5,2124.5 C 316.5,2124.5 319.5,2124.5 322.5,2124.5C 322.5,2135.83 322.5,2147.17 322.5,2158.5C 336.167,2158.5 349.833,2158.5 363.5,2158.5C 363.5,2161.5 363.5,2164.5 363.5,2167.5C 349.833,2167.5 336.167,2167.5 322.5,2167.5C 322.5,2181.5 322.5,2195.5 322.5,2209.5C 338.5,2209.5 354.5,2209.5 370.5,2209.5C 370.5,2212.5 370.5,2215.5 370.5,2218.5C 337.833,2218.5 305.167,2218.5 272.5,2218.5C 272.5,2215.5 272.5,2212.5 272.5,2209.5C 286.167,2209.5 299.833,2209.5 313.5,2209.5C 313.5,2181.17 313.5,2152.83 313.5,2124.5 Z"/></g>
<g><path style="opacity:0.914" fill="#000000" d="M 94.5,2128.5 C 113.167,2128.5 131.833,2128.5 150.5,2128.5C 150.667,2158.84 150.5,2189.17 150,2219.5C 149.5,2221.33 148.333,2222.5 146.5,2223C 142.113,2223.23 137.779,2223.73 133.5,2224.5C 131.736,2221.79 130.736,2218.79 130.5,2215.5C 134.5,2215.5 138.5,2215.5 142.5,2215.5C 142.5,2189.17 142.5,2162.83 142.5,2136.5C 129.167,2136.5 115.833,2136.5 102.5,2136.5C 102.5,2165.83 102.5,2195.17 102.5,2224.5C 99.8333,2224.5 97.1667,2224.5 94.5,2224.5C 94.5,2192.5 94.5,2160.5 94.5,2128.5 Z"/></g>
<g><path style="opacity:0.905" fill="#000000" d="M 436.5,2132.5 C 449.5,2132.5 462.5,2132.5 475.5,2132.5C 475.5,2144.83 475.5,2157.17 475.5,2169.5C 462.5,2169.5 449.5,2169.5 436.5,2169.5C 436.5,2157.17 436.5,2144.83 436.5,2132.5 Z M 445.5,2140.5 C 452.5,2140.5 459.5,2140.5 466.5,2140.5C 466.5,2147.5 466.5,2154.5 466.5,2161.5C 459.5,2161.5 452.5,2161.5 445.5,2161.5C 445.5,2154.5 445.5,2147.5 445.5,2140.5 Z"/></g>
<g><path style="opacity:0.821" fill="#000000" d="M 112.5,2138.5 C 116.424,2142.37 118.757,2147.2 119.5,2153C 119.245,2154.33 118.578,2155.33 117.5,2156C 120.227,2156.82 122.894,2156.65 125.5,2155.5C 127.251,2149.75 129.084,2144.08 131,2138.5C 133.071,2139.52 135.238,2140.36 137.5,2141C 135.941,2145.84 134.274,2150.68 132.5,2155.5C 135.428,2156.48 138.428,2156.82 141.5,2156.5C 141.5,2159.17 141.5,2161.83 141.5,2164.5C 135.491,2164.33 129.491,2164.5 123.5,2165C 125.235,2167.64 126.568,2170.47 127.5,2173.5C 131.445,2174.49 135.445,2174.82 139.5,2174.5C 139.5,2177.17 139.5,2179.83 139.5,2182.5C 132.167,2182.5 124.833,2182.5 117.5,2182.5C 117.5,2186.83 117.5,2191.17 117.5,2195.5C 124.833,2195.5 132.167,2195.5 139.5,2195.5C 139.993,2197.81 140.326,2200.14 140.5,2202.5C 130.727,2202.95 121.061,2202.45 111.5,2201C 110.874,2200.25 110.374,2199.42 110,2198.5C 109.501,2193.18 109.334,2187.84 109.5,2182.5C 108.167,2182.5 106.833,2182.5 105.5,2182.5C 105.5,2179.83 105.5,2177.17 105.5,2174.5C 110.214,2174.83 114.88,2174.49 119.5,2173.5C 118.294,2170.92 116.961,2168.42 115.5,2166C 115.833,2165.67 116.167,2165.33 116.5,2165C 112.514,2164.5 108.514,2164.33 104.5,2164.5C 104.5,2161.83 104.5,2159.17 104.5,2156.5C 107.572,2156.82 110.572,2156.48 113.5,2155.5C 111.979,2150.96 110.312,2146.46 108.5,2142C 109.347,2140.23 110.68,2139.06 112.5,2138.5 Z"/></g>
<g><path style="opacity:0.86" fill="#000000" d="M 193.5,2154.5 C 195.746,2155.21 198.08,2155.71 200.5,2156C 201.097,2157.06 201.43,2158.23 201.5,2159.5C 199.292,2171.87 196.959,2184.2 194.5,2196.5C 198.136,2195.67 201.803,2195.01 205.5,2194.5C 206.523,2197.39 206.523,2200.23 205.5,2203C 191.907,2206.27 178.407,2209.77 165,2213.5C 163.254,2210.4 162.754,2207.23 163.5,2204C 171.091,2202.39 178.591,2200.56 186,2198.5C 189.2,2183.93 191.7,2169.27 193.5,2154.5 Z"/></g>
<g><path style="opacity:0.847" fill="#000000" d="M 170.5,2156.5 C 172.766,2156.14 174.599,2156.81 176,2158.5C 178.535,2171.08 180.368,2183.74 181.5,2196.5C 178.794,2196.58 176.127,2196.91 173.5,2197.5C 172.488,2185.09 170.822,2172.75 168.5,2160.5C 168.803,2158.89 169.47,2157.55 170.5,2156.5 Z"/></g>
<g><path style="opacity:0.874" fill="#000000" d="M 425.5,2171.5 C 428.833,2171.5 432.167,2171.5 435.5,2171.5C 435.5,2175.17 435.5,2178.83 435.5,2182.5C 449.5,2182.5 463.5,2182.5 477.5,2182.5C 477.5,2185.17 477.5,2187.83 477.5,2190.5C 463.5,2190.5 449.5,2190.5 435.5,2190.5C 435.5,2201.83 435.5,2213.17 435.5,2224.5C 432.167,2224.5 428.833,2224.5 425.5,2224.5C 425.5,2213.17 425.5,2201.83 425.5,2190.5C 411.167,2190.5 396.833,2190.5 382.5,2190.5C 382.5,2187.83 382.5,2185.17 382.5,2182.5C 396.833,2182.5 411.167,2182.5 425.5,2182.5C 425.5,2178.83 425.5,2175.17 425.5,2171.5 Z"/></g>
<g><path style="opacity:0.797" fill="#000000" d="M 85.5,2189.5 C 86.4972,2189.47 87.1639,2189.97 87.5,2191C 89.8051,2197.41 91.8051,2203.91 93.5,2210.5C 91.7962,2212.85 89.4629,2213.85 86.5,2213.5C 84.9693,2206.38 82.9693,2199.38 80.5,2192.5C 82.1446,2191.3 83.8113,2190.3 85.5,2189.5 Z"/></g>
<g><path style="opacity:0.821" fill="#000000" d="M 72.5,2192.5 C 73.5,2192.5 74.5,2192.5 75.5,2192.5C 77.4006,2200.45 78.0672,2208.45 77.5,2216.5C 75.6183,2217.09 73.7849,2217.76 72,2218.5C 71.0145,2210.13 69.8479,2201.79 68.5,2193.5C 70.099,2193.77 71.4324,2193.43 72.5,2192.5 Z"/></g>
<g><path style="opacity:0.824" fill="#000000" d="M 447.5,2192.5 C 459,2198.42 469.667,2205.58 479.5,2214C 477.273,2216.93 474.606,2218.93 471.5,2220C 462.341,2211.93 452.674,2204.6 442.5,2198C 444.351,2196.32 446.017,2194.48 447.5,2192.5 Z"/></g>
<g><path style="opacity:0.825" fill="#000000" d="M 57.5,2193.5 C 59.8333,2193.5 62.1667,2193.5 64.5,2193.5C 64.1514,2203.25 62.1514,2212.58 58.5,2221.5C 56.0671,2220.98 54.0671,2219.81 52.5,2218C 54.872,2209.97 56.5387,2201.81 57.5,2193.5 Z"/></g>
<g><path style="opacity:0.823" fill="#000000" d="M 408.5,2193.5 C 411.947,2193.81 415.28,2194.65 418.5,2196C 410.494,2205.68 400.994,2213.51 390,2219.5C 387.677,2217.85 385.344,2216.18 383,2214.5C 382.312,2213.67 382.479,2213 383.5,2212.5C 393.296,2208.03 401.63,2201.7 408.5,2193.5 Z"/></g>
<g><path style="opacity:0.914" fill="#bad1e1" d="M 3879.5,2186.5 C 3878.9,2192.45 3877.57,2198.12 3875.5,2203.5C 3875.17,2203.5 3874.83,2203.5 3874.5,2203.5C 3875.8,2197.61 3877.47,2191.94 3879.5,2186.5 Z"/></g>
</svg>
