<?xml version="1.0" encoding="UTF-8"?>
<!DOCTYPE svg PUBLIC "-//W3C//DTD SVG 1.1//EN" "http://www.w3.org/Graphics/SVG/1.1/DTD/svg11.dtd">
<svg xmlns="http://www.w3.org/2000/svg" version="1.1" width="4000px" height="2266px" style="shape-rendering:geometricPrecision; text-rendering:geometricPrecision; image-rendering:optimizeQuality; fill-rule:evenodd; clip-rule:evenodd" xmlns:xlink="http://www.w3.org/1999/xlink">
<g><path style="opacity:0.899" fill="#000000" d="M 3236.5,48.5 C 3258.83,48.5 3281.17,48.5 3303.5,48.5C 3303.67,78.1685 3303.5,107.835 3303,137.5C 3301.89,139.815 3300.06,141.315 3297.5,142C 3289.86,143.236 3282.2,143.57 3274.5,143C 3273.31,140.122 3271.98,137.288 3270.5,134.5C 3278.51,134.17 3286.51,133.836 3294.5,133.5C 3294.5,125.5 3294.5,117.5 3294.5,109.5C 3277.5,109.333 3260.5,109.5 3243.5,110C 3241.01,120.475 3236.51,129.975 3230,138.5C 3224.63,145.369 3220.63,144.702 3218,136.5C 3229.16,125.173 3235.16,111.507 3236,95.5C 3236.5,79.8369 3236.67,64.1702 3236.5,48.5 Z M 3245.5,57.5 C 3261.83,57.5 3278.17,57.5 3294.5,57.5C 3294.5,63.1667 3294.5,68.8333 3294.5,74.5C 3278.17,74.5 3261.83,74.5 3245.5,74.5C 3245.5,68.8333 3245.5,63.1667 3245.5,57.5 Z M 3245.5,83.5 C 3261.83,83.5 3278.17,83.5 3294.5,83.5C 3294.5,89.1667 3294.5,94.8333 3294.5,100.5C 3277.83,100.5 3261.17,100.5 3244.5,100.5C 3245.35,94.8791 3245.69,89.2124 3245.5,83.5 Z"/></g>
<g><path style="opacity:0.877" fill="#000000" d="M 1609.5,49.5 C 1632.17,49.5 1654.83,49.5 1677.5,49.5C 1677.98,79.5631 1677.48,109.563 1676,139.5C 1674.68,141.487 1672.85,142.654 1670.5,143C 1662.85,144.478 1655.18,144.644 1647.5,143.5C 1646.2,140.573 1645.2,137.573 1644.5,134.5C 1652.2,135.373 1659.86,135.373 1667.5,134.5C 1667.5,126.5 1667.5,118.5 1667.5,110.5C 1650.49,110.167 1633.49,110.501 1616.5,111.5C 1613.5,124.52 1607.16,135.52 1597.5,144.5C 1595.48,142.642 1593.31,140.975 1591,139.5C 1590.33,138.833 1590.33,138.167 1591,137.5C 1602.11,126.939 1608.11,113.939 1609,98.5C 1609.5,82.1701 1609.67,65.8367 1609.5,49.5 Z M 1618.5,58.5 C 1634.83,58.5 1651.17,58.5 1667.5,58.5C 1667.5,64.1667 1667.5,69.8333 1667.5,75.5C 1651.17,75.5 1634.83,75.5 1618.5,75.5C 1618.5,69.8333 1618.5,64.1667 1618.5,58.5 Z M 1618.5,84.5 C 1634.83,84.5 1651.17,84.5 1667.5,84.5C 1667.5,90.1667 1667.5,95.8333 1667.5,101.5C 1650.83,101.667 1634.16,101.5 1617.5,101C 1618.47,95.5934 1618.81,90.0934 1618.5,84.5 Z"/></g>
<g><path style="opacity:0.899" fill="#000000" d="M 2145.5,49.5 C 2167.83,49.5 2190.17,49.5 2212.5,49.5C 2212.67,78.8352 2212.5,108.169 2212,137.5C 2210.52,140.663 2208.02,142.496 2204.5,143C 2197.14,143.831 2189.81,143.665 2182.5,142.5C 2181.69,140.085 2180.69,137.751 2179.5,135.5C 2187.17,134.833 2194.83,134.167 2202.5,133.5C 2203.47,125.89 2203.8,118.223 2203.5,110.5C 2186.17,110.5 2168.83,110.5 2151.5,110.5C 2149.31,124.218 2142.98,135.551 2132.5,144.5C 2130.02,142.517 2127.68,140.35 2125.5,138C 2134.84,129.496 2140.67,118.996 2143,106.5C 2145.05,87.5631 2145.88,68.5631 2145.5,49.5 Z M 2154.5,58.5 C 2170.83,58.5 2187.17,58.5 2203.5,58.5C 2203.5,64.1667 2203.5,69.8333 2203.5,75.5C 2187.17,75.5 2170.83,75.5 2154.5,75.5C 2154.5,69.8333 2154.5,64.1667 2154.5,58.5 Z M 2154.5,84.5 C 2170.83,84.5 2187.17,84.5 2203.5,84.5C 2203.5,90.1667 2203.5,95.8333 2203.5,101.5C 2186.83,101.5 2170.17,101.5 2153.5,101.5C 2153.63,95.819 2153.97,90.1523 2154.5,84.5 Z"/></g>
<g><path style="opacity:0.918" fill="#000000" d="M 2713.5,49.5 C 2735.83,49.5 2758.17,49.5 2780.5,49.5C 2780.67,78.5019 2780.5,107.502 2780,136.5C 2779.5,139.667 2777.67,141.5 2774.5,142C 2766.56,143.321 2758.56,143.821 2750.5,143.5C 2750.08,140.646 2749.08,137.979 2747.5,135.5C 2754.81,134.669 2762.14,134.169 2769.5,134C 2770,133.5 2770.5,133 2771,132.5C 2771.5,125.174 2771.67,117.841 2771.5,110.5C 2754.17,110.5 2736.83,110.5 2719.5,110.5C 2716.8,123.905 2710.47,135.238 2700.5,144.5C 2698.64,141.81 2696.31,139.644 2693.5,138C 2707.04,124.398 2713.54,107.898 2713,88.5C 2713.5,75.5043 2713.67,62.5043 2713.5,49.5 Z M 2722.5,58.5 C 2738.83,58.5 2755.17,58.5 2771.5,58.5C 2771.5,64.1667 2771.5,69.8333 2771.5,75.5C 2755.17,75.5 2738.83,75.5 2722.5,75.5C 2722.5,69.8333 2722.5,64.1667 2722.5,58.5 Z M 2722.5,83.5 C 2738.83,83.5 2755.17,83.5 2771.5,83.5C 2771.5,89.5 2771.5,95.5 2771.5,101.5C 2754.83,101.5 2738.17,101.5 2721.5,101.5C 2721.83,95.5 2722.17,89.5 2722.5,83.5 Z"/></g>
<g><path style="opacity:0.875" fill="#000000" d="M 1033.5,51.5 C 1056.17,51.5 1078.83,51.5 1101.5,51.5C 1101.96,81.2086 1101.46,110.875 1100,140.5C 1098.66,143.094 1096.49,144.594 1093.5,145C 1086.18,145.999 1078.85,146.333 1071.5,146C 1070.45,143.021 1069.12,140.188 1067.5,137.5C 1075.39,136.819 1083.22,136.152 1091,135.5C 1091.5,127.841 1091.67,120.174 1091.5,112.5C 1074.5,112.333 1057.5,112.5 1040.5,113C 1038.01,123.475 1033.51,132.975 1027,141.5C 1021.63,148.369 1017.63,147.702 1015,139.5C 1026.16,128.173 1032.16,114.507 1033,98.5C 1033.5,82.8369 1033.67,67.1702 1033.5,51.5 Z M 1042.5,60.5 C 1058.83,60.5 1075.17,60.5 1091.5,60.5C 1091.5,66.1667 1091.5,71.8333 1091.5,77.5C 1075.17,77.5 1058.83,77.5 1042.5,77.5C 1042.5,71.8333 1042.5,66.1667 1042.5,60.5 Z M 1042.5,86.5 C 1058.83,86.5 1075.17,86.5 1091.5,86.5C 1091.5,92.1667 1091.5,97.8333 1091.5,103.5C 1074.83,103.5 1058.17,103.5 1041.5,103.5C 1042.35,97.8791 1042.69,92.2124 1042.5,86.5 Z"/></g>
<g><path style="opacity:0.875" fill="#000000" d="M 3792.5,51.5 C 3815.17,51.5 3837.83,51.5 3860.5,51.5C 3860.96,81.2086 3860.46,110.875 3859,140.5C 3857.66,143.094 3855.49,144.594 3852.5,145C 3845.18,145.999 3837.85,146.333 3830.5,146C 3829.45,143.021 3828.12,140.188 3826.5,137.5C 3834.39,136.819 3842.22,136.152 3850,135.5C 3850.5,127.841 3850.67,120.174 3850.5,112.5C 3833.5,112.333 3816.5,112.5 3799.5,113C 3797.01,123.475 3792.51,132.975 3786,141.5C 3780.63,148.369 3776.63,147.702 3774,139.5C 3785.16,128.173 3791.16,114.507 3792,98.5C 3792.5,82.8369 3792.67,67.1702 3792.5,51.5 Z M 3801.5,60.5 C 3817.83,60.5 3834.17,60.5 3850.5,60.5C 3850.5,66.1667 3850.5,71.8333 3850.5,77.5C 3834.17,77.5 3817.83,77.5 3801.5,77.5C 3801.5,71.8333 3801.5,66.1667 3801.5,60.5 Z M 3801.5,86.5 C 3817.83,86.5 3834.17,86.5 3850.5,86.5C 3850.5,92.1667 3850.5,97.8333 3850.5,103.5C 3833.83,103.5 3817.17,103.5 3800.5,103.5C 3801.35,97.8791 3801.69,92.2124 3801.5,86.5 Z"/></g>
<g><path style="opacity:0.912" fill="#000000" d="M 1548.5,56.5 C 1560.34,55.0247 1570.51,58.358 1579,66.5C 1585.47,79.0826 1582.64,88.9159 1570.5,96C 1584.16,102.642 1587.66,112.809 1581,126.5C 1574.11,134.244 1565.45,137.91 1555,137.5C 1544.2,138.059 1535.2,134.393 1528,126.5C 1521.79,112.777 1525.29,102.61 1538.5,96C 1527.6,89.4583 1524.43,80.2916 1529,68.5C 1533.89,61.8067 1540.39,57.8067 1548.5,56.5 Z M 1550.5,68.5 C 1556.53,67.6757 1561.69,69.3424 1566,73.5C 1569.45,83.9229 1565.61,89.9229 1554.5,91.5C 1541.64,88.7022 1538.64,81.8689 1545.5,71C 1547.31,70.2432 1548.98,69.4098 1550.5,68.5 Z M 1552.5,101.5 C 1559.28,101.639 1564.78,104.306 1569,109.5C 1570.45,120.224 1565.62,125.558 1554.5,125.5C 1542.88,125.074 1538.38,119.407 1541,108.5C 1544.23,104.979 1548.06,102.646 1552.5,101.5 Z"/></g>
<g><path style="opacity:0.912" fill="#000000" d="M 2080.5,56.5 C 2102.01,53.8556 2114.51,63.1889 2118,84.5C 2120.13,98.1903 2118.13,111.19 2112,123.5C 2105.92,132.461 2097.42,137.128 2086.5,137.5C 2076.47,137.217 2067.81,133.717 2060.5,127C 2062.37,123.419 2064.37,119.919 2066.5,116.5C 2073.35,122.729 2081.35,125.229 2090.5,124C 2099.56,118.869 2103.72,111.036 2103,100.5C 2093.06,109.537 2082.23,110.704 2070.5,104C 2057.63,90.3215 2057.29,76.3215 2069.5,62C 2072.99,59.588 2076.66,57.7547 2080.5,56.5 Z M 2084.5,68.5 C 2097.42,68.1842 2102.75,74.3508 2100.5,87C 2097.34,94.7467 2091.67,97.4134 2083.5,95C 2076.57,91.2422 2074.07,85.4089 2076,77.5C 2077.71,73.2898 2080.55,70.2898 2084.5,68.5 Z"/></g>
<g><path style="opacity:0.927" fill="#000000" d="M 2594.5,56.5 C 2597.5,56.5 2600.5,56.5 2603.5,56.5C 2603.5,78.8333 2603.5,101.167 2603.5,123.5C 2609.17,123.5 2614.83,123.5 2620.5,123.5C 2620.5,127.5 2620.5,131.5 2620.5,135.5C 2604.17,135.5 2587.83,135.5 2571.5,135.5C 2571.5,131.5 2571.5,127.5 2571.5,123.5C 2577.17,123.5 2582.83,123.5 2588.5,123.5C 2588.67,107.163 2588.5,90.8299 2588,74.5C 2583.42,77.8758 2578.58,80.8758 2573.5,83.5C 2572.17,78.8333 2572.17,74.1667 2573.5,69.5C 2580.73,65.3921 2587.73,61.0588 2594.5,56.5 Z"/></g>
<g><path style="opacity:0.919" fill="#000000" d="M 2650.5,56.5 C 2671.1,53.9283 2682.93,62.9283 2686,83.5C 2686.67,92.1667 2686.67,100.833 2686,109.5C 2682.99,130.184 2671.15,139.017 2650.5,136C 2639.83,132.658 2633.33,125.491 2631,114.5C 2628.47,100.311 2629.14,86.3113 2633,72.5C 2636.54,64.4563 2642.37,59.1229 2650.5,56.5 Z M 2653.5,68.5 C 2664.31,67.4639 2670.14,72.4639 2671,83.5C 2671.9,93.5606 2671.56,103.561 2670,113.5C 2666.02,124.993 2659.02,127.327 2649,120.5C 2646.87,116.768 2645.53,112.768 2645,108.5C 2644.14,98.4483 2644.47,88.4483 2646,78.5C 2647.32,74.1633 2649.82,70.8299 2653.5,68.5 Z"/></g>
<g><path style="opacity:0.918" fill="#000000" d="M 3117.5,56.5 C 3120.5,56.5 3123.5,56.5 3126.5,56.5C 3126.5,78.5 3126.5,100.5 3126.5,122.5C 3132.17,122.5 3137.83,122.5 3143.5,122.5C 3143.5,126.833 3143.5,131.167 3143.5,135.5C 3127.17,135.5 3110.83,135.5 3094.5,135.5C 3094.5,131.167 3094.5,126.833 3094.5,122.5C 3100.17,122.5 3105.83,122.5 3111.5,122.5C 3111.67,106.497 3111.5,90.4965 3111,74.5C 3106.5,77.7494 3101.84,80.7494 3097,83.5C 3096.33,78.8333 3096.33,74.1667 3097,69.5C 3103.98,65.267 3110.82,60.9337 3117.5,56.5 Z"/></g>
<g><path style="opacity:0.91" fill="#000000" d="M 3182.5,56.5 C 3185.83,56.5 3189.17,56.5 3192.5,56.5C 3192.5,78.5 3192.5,100.5 3192.5,122.5C 3198.17,122.5 3203.83,122.5 3209.5,122.5C 3209.5,126.833 3209.5,131.167 3209.5,135.5C 3193.17,135.5 3176.83,135.5 3160.5,135.5C 3160.5,131.167 3160.5,126.833 3160.5,122.5C 3166.17,122.5 3171.83,122.5 3177.5,122.5C 3177.67,106.497 3177.5,90.4965 3177,74.5C 3172,77.5 3167,80.5 3162,83.5C 3161.33,78.8333 3161.33,74.1667 3162,69.5C 3168.98,65.267 3175.82,60.9337 3182.5,56.5 Z"/></g>
<g><path style="opacity:0.902" fill="#000000" d="M 3729.5,58.5 C 3741.24,56.6645 3751.08,59.9979 3759,68.5C 3763.52,78.4278 3762.85,88.0945 3757,97.5C 3749.2,106.964 3741.04,116.131 3732.5,125C 3743.16,125.5 3753.83,125.667 3764.5,125.5C 3764.5,129.833 3764.5,134.167 3764.5,138.5C 3746.83,138.5 3729.17,138.5 3711.5,138.5C 3711.33,134.486 3711.5,130.486 3712,126.5C 3721.67,116.167 3731.33,105.833 3741,95.5C 3743.89,91.9442 3745.89,87.9442 3747,83.5C 3748.17,76.6605 3745.33,72.4938 3738.5,71C 3730.37,70.7093 3723.04,73.0427 3716.5,78C 3715.36,78.7494 3714.36,78.5827 3713.5,77.5C 3711.8,74.2324 3710.63,70.8991 3710,67.5C 3715.82,62.8452 3722.32,59.8452 3729.5,58.5 Z"/></g>
<g><path style="opacity:0.9" fill="#000000" d="M 950.5,59.5 C 968.833,59.5 987.167,59.5 1005.5,59.5C 1005.67,63.8461 1005.5,68.1794 1005,72.5C 993.882,94.5703 982.382,116.404 970.5,138C 965.136,138.829 959.802,138.663 954.5,137.5C 965.833,116.167 977.167,94.8333 988.5,73.5C 975.851,72.5009 963.184,72.1676 950.5,72.5C 950.5,68.1667 950.5,63.8333 950.5,59.5 Z"/></g>
<g><path style="opacity:0.91" fill="#000000" d="M 3672.5,59.5 C 3675.83,59.5 3679.17,59.5 3682.5,59.5C 3682.5,81.5 3682.5,103.5 3682.5,125.5C 3688.17,125.5 3693.83,125.5 3699.5,125.5C 3699.5,129.833 3699.5,134.167 3699.5,138.5C 3683.17,138.5 3666.83,138.5 3650.5,138.5C 3650.5,134.167 3650.5,129.833 3650.5,125.5C 3656.17,125.5 3661.83,125.5 3667.5,125.5C 3667.67,109.497 3667.5,93.4965 3667,77.5C 3662.08,80.3747 3657.25,83.3747 3652.5,86.5C 3651.34,81.8687 3651.17,77.202 3652,72.5C 3659.01,68.3036 3665.84,63.9703 3672.5,59.5 Z"/></g>
<g><path style="opacity:0.991" fill="#d8d8d9" d="M 1011.5,338.5 C 961.385,358.712 940.218,395.712 948,449.5C 959.333,487.833 984.499,511.333 1023.5,520C 1077.54,520.979 1131.54,520.645 1185.5,519C 1221.32,509.849 1244.82,487.682 1256,452.5C 1265.09,407.884 1250.92,373.05 1213.5,348C 1204.35,342.923 1194.68,339.256 1184.5,337C 1129.83,336.5 1075.17,336.333 1020.5,336.5C 1023.31,335.681 1026.31,335.181 1029.5,335C 1955.5,334.333 2881.5,334.333 3807.5,335C 3853.65,340.982 3882.48,366.482 3894,411.5C 3900.38,459.248 3882.54,494.415 3840.5,517C 3830.92,521.228 3820.92,523.895 3810.5,525C 2882.17,525.667 1953.83,525.667 1025.5,525C 975.964,516.464 947.797,487.297 941,437.5C 939.827,394.334 958.327,362.834 996.5,343C 1001.3,340.787 1006.3,339.287 1011.5,338.5 Z"/></g>
<g><path style="opacity:1" fill="#4fbafe" d="M 1020.5,336.5 C 1075.17,336.333 1129.83,336.5 1184.5,337C 1194.68,339.256 1204.35,342.923 1213.5,348C 1250.92,373.05 1265.09,407.884 1256,452.5C 1244.82,487.682 1221.32,509.849 1185.5,519C 1131.54,520.645 1077.54,520.979 1023.5,520C 984.499,511.333 959.333,487.833 948,449.5C 940.218,395.712 961.385,358.712 1011.5,338.5C 1014.78,338.58 1017.78,337.913 1020.5,336.5 Z"/></g>
<g><path style="opacity:1" fill="#b3cfe4" d="M 1020.5,336.5 C 1017.78,337.913 1014.78,338.58 1011.5,338.5C 1014.22,337.087 1017.22,336.42 1020.5,336.5 Z"/></g>
<g><path style="opacity:0.868" fill="#000000" d="M 305.5,435.5 C 311.842,435.666 318.175,435.5 324.5,435C 326.294,431.912 327.961,428.746 329.5,425.5C 321.862,424.503 314.196,424.169 306.5,424.5C 306.5,421.833 306.5,419.167 306.5,416.5C 312.842,416.666 319.175,416.5 325.5,416C 323.211,411.252 320.545,406.752 317.5,402.5C 319.554,400.806 321.888,399.639 324.5,399C 319.511,398.501 314.511,398.334 309.5,398.5C 309.5,395.833 309.5,393.167 309.5,390.5C 318.173,390.666 326.84,390.5 335.5,390C 334.311,387.122 332.978,384.288 331.5,381.5C 334.278,379.975 337.278,378.975 340.5,378.5C 342.754,382.007 344.754,385.673 346.5,389.5C 353.803,390.497 361.137,390.831 368.5,390.5C 368.5,393.167 368.5,395.833 368.5,398.5C 354.163,398.333 339.829,398.5 325.5,399C 328.764,403.109 331.431,407.609 333.5,412.5C 331.664,413.919 329.664,415.086 327.5,416C 332.833,416.667 338.167,416.667 343.5,416C 346.294,410.912 348.961,405.745 351.5,400.5C 352.167,400.167 352.833,399.833 353.5,399.5C 356.26,399.758 358.594,400.758 360.5,402.5C 357.912,406.674 355.579,411.007 353.5,415.5C 359.128,416.495 364.794,416.829 370.5,416.5C 370.5,419.167 370.5,421.833 370.5,424.5C 357.128,424.146 346.462,424.479 338.5,425.5C 337.866,428.937 336.533,432.104 334.5,435C 340.825,435.5 347.158,435.666 353.5,435.5C 353.018,428.16 356.018,426.327 362.5,430C 363.138,431.707 363.138,433.54 362.5,435.5C 365.833,435.5 369.167,435.5 372.5,435.5C 372.5,438.167 372.5,440.833 372.5,443.5C 368.486,443.334 364.486,443.501 360.5,444C 358.101,450.802 354.435,456.802 349.5,462C 356.207,465.104 362.707,468.604 369,472.5C 368.209,475.643 366.209,477.976 363,479.5C 356.421,475.459 349.588,471.792 342.5,468.5C 331.932,474.917 320.599,478.25 308.5,478.5C 307.5,476.5 306.5,474.5 305.5,472.5C 314.84,470.748 323.84,467.915 332.5,464C 325.354,461.258 318.354,458.258 311.5,455C 314.553,451.613 317.22,447.947 319.5,444C 314.845,443.501 310.179,443.334 305.5,443.5C 305.5,440.833 305.5,438.167 305.5,435.5 Z M 329.5,443.5 C 351.876,438.736 355.376,443.736 340,458.5C 334.85,456.338 329.684,454.171 324.5,452C 326.556,449.386 328.223,446.553 329.5,443.5 Z"/></g>
<g><path style="opacity:0.821" fill="#000000" d="M 74.5,379.5 C 77.8524,379.784 80.8524,380.95 83.5,383C 76.0094,392.824 67.5094,401.657 58,409.5C 55.6251,407.188 54.2917,404.521 54,401.5C 62.0839,395.252 68.9173,387.919 74.5,379.5 Z"/></g>
<g><path style="opacity:0.866" fill="#000000" d="M 225.5,379.5 C 228.5,379.5 231.5,379.5 234.5,379.5C 234.5,387.5 234.5,395.5 234.5,403.5C 239.5,403.5 244.5,403.5 249.5,403.5C 249.5,397.167 249.5,390.833 249.5,384.5C 252.5,384.5 255.5,384.5 258.5,384.5C 258.5,393.5 258.5,402.5 258.5,411.5C 239.833,411.5 221.167,411.5 202.5,411.5C 202.5,402.5 202.5,393.5 202.5,384.5C 205.5,384.5 208.5,384.5 211.5,384.5C 211.5,390.833 211.5,397.167 211.5,403.5C 216.167,403.5 220.833,403.5 225.5,403.5C 225.5,395.5 225.5,387.5 225.5,379.5 Z"/></g>
<g><path style="opacity:0.918" fill="#000000" d="M 305.5,435.5 C 301.573,436.531 297.739,437.865 294,439.5C 293.961,451.929 293.294,464.262 292,476.5C 290.829,477.893 289.329,478.727 287.5,479C 283.459,479.827 279.459,479.66 275.5,478.5C 274.423,476.271 273.756,473.937 273.5,471.5C 277.673,472.044 281.506,471.377 285,469.5C 285.667,460.167 285.667,450.833 285,441.5C 281.29,443.126 277.457,444.459 273.5,445.5C 270.829,443.236 269.496,440.236 269.5,436.5C 274.594,435.581 279.594,434.247 284.5,432.5C 285.497,424.862 285.831,417.196 285.5,409.5C 280.833,409.5 276.167,409.5 271.5,409.5C 271.5,406.833 271.5,404.167 271.5,401.5C 276.167,401.5 280.833,401.5 285.5,401.5C 285.5,394.167 285.5,386.833 285.5,379.5C 288.167,379.5 290.833,379.5 293.5,379.5C 293.5,386.833 293.5,394.167 293.5,401.5C 297.5,401.5 301.5,401.5 305.5,401.5C 305.5,404.167 305.5,406.833 305.5,409.5C 301.5,409.5 297.5,409.5 293.5,409.5C 293.5,416.167 293.5,422.833 293.5,429.5C 296.829,429.002 299.995,428.002 303,426.5C 304.255,429.338 305.089,432.338 305.5,435.5 Z"/></g>
<g><path style="opacity:0.877" fill="#000000" d="M 111.5,380.5 C 114.843,381.059 117.843,382.392 120.5,384.5C 115.275,390.893 109.275,396.393 102.5,401C 107.833,401.667 113.167,401.667 118.5,401C 123.642,397.358 128.642,393.525 133.5,389.5C 136.167,391.167 138.833,392.833 141.5,394.5C 129.863,403.987 117.529,412.487 104.5,420C 113.492,420.001 122.492,419.667 131.5,419C 132.167,418.667 132.833,418.333 133.5,418C 130.93,415.933 128.93,413.433 127.5,410.5C 129.228,408.548 131.395,407.215 134,406.5C 141.368,413.567 147.535,421.567 152.5,430.5C 150.72,432.444 148.553,433.777 146,434.5C 143.532,432.358 141.365,429.858 139.5,427C 131.412,426.172 123.412,426.672 115.5,428.5C 114.041,430.583 112.708,432.75 111.5,435C 120.412,435.816 129.245,435.65 138,434.5C 139.419,435.46 140.919,436.293 142.5,437C 143.517,438.049 143.684,439.216 143,440.5C 138.28,449.553 131.78,457.053 123.5,463C 132.095,467.198 141.095,470.198 150.5,472C 151.451,472.718 151.617,473.551 151,474.5C 149.325,476.532 147.658,478.532 146,480.5C 135.217,477.963 125.051,473.963 115.5,468.5C 105.216,474.817 94.2161,478.484 82.5,479.5C 81.5,477.5 80.5,475.5 79.5,473.5C 85.7211,471.19 92.0544,469.023 98.5,467C 101.377,466.044 104.044,464.711 106.5,463C 103.292,459.623 99.9582,456.456 96.5,453.5C 93.5174,455.32 90.6841,457.32 88,459.5C 84.7913,457.976 82.7913,455.643 82,452.5C 84.8333,450.333 87.6667,448.167 90.5,446C 88.583,443.502 86.9164,440.835 85.5,438C 89.8369,434.173 93.5036,434.673 96.5,439.5C 99.5162,436.48 102.183,433.146 104.5,429.5C 98.4492,428.505 92.4492,428.838 86.5,430.5C 84.5056,427.85 83.5056,424.85 83.5,421.5C 91.525,418.988 98.8583,415.154 105.5,410C 99.7258,409.311 94.0591,409.811 88.5,411.5C 87.5147,409.228 86.6813,406.895 86,404.5C 82.6667,409.833 79.3333,415.167 76,420.5C 75.5,440.497 75.3334,460.497 75.5,480.5C 72.8333,480.5 70.1667,480.5 67.5,480.5C 67.6666,463.83 67.4999,447.163 67,430.5C 64.6419,434.358 61.4752,437.358 57.5,439.5C 55.4776,437.469 53.8109,435.135 52.5,432.5C 62.3876,423.528 70.721,413.361 77.5,402C 79.675,402.049 81.8417,402.549 84,403.5C 94.6062,397.605 103.773,389.939 111.5,380.5 Z M 105.5,442.5 C 114.173,442.334 122.84,442.5 131.5,443C 127.237,449.101 121.903,453.934 115.5,457.5C 110.94,455.115 106.773,452.115 103,448.5C 103.451,446.48 104.284,444.48 105.5,442.5 Z"/></g>
<g><path style="opacity:0.809" fill="#000000" d="M 178.5,380.5 C 179.822,380.33 180.989,380.663 182,381.5C 185.074,386.39 187.574,391.557 189.5,397C 187.754,397.471 186.087,398.138 184.5,399C 189.823,399.499 195.156,399.666 200.5,399.5C 200.5,402.5 200.5,405.5 200.5,408.5C 187.833,408.5 175.167,408.5 162.5,408.5C 162.5,405.5 162.5,402.5 162.5,399.5C 168.537,399.829 174.537,399.496 180.5,398.5C 178.44,393.38 176.107,388.38 173.5,383.5C 175.145,382.304 176.811,381.304 178.5,380.5 Z"/></g>
<g><path style="opacity:0.903" fill="#000000" d="M 389.5,390.5 C 416.833,390.5 444.167,390.5 471.5,390.5C 471.5,419.167 471.5,447.833 471.5,476.5C 468.5,476.5 465.5,476.5 462.5,476.5C 462.5,473.833 462.5,471.167 462.5,468.5C 441.167,468.5 419.833,468.5 398.5,468.5C 398.5,471.5 398.5,474.5 398.5,477.5C 395.5,477.5 392.5,477.5 389.5,477.5C 389.5,448.5 389.5,419.5 389.5,390.5 Z M 398.5,399.5 C 419.833,399.5 441.167,399.5 462.5,399.5C 462.5,419.167 462.5,438.833 462.5,458.5C 441.167,458.5 419.833,458.5 398.5,458.5C 398.5,438.833 398.5,419.167 398.5,399.5 Z"/></g>
<g><path style="opacity:0.879" fill="#000000" d="M 188.5,411.5 C 191.167,411.833 193.833,412.167 196.5,412.5C 195.043,426.244 193.043,439.911 190.5,453.5C 193.833,452.833 197.167,452.167 200.5,451.5C 202.011,451.204 202.344,445.871 201.5,435.5C 208.508,435.666 215.508,435.5 222.5,435C 223.482,432.262 224.148,429.428 224.5,426.5C 215.833,426.5 207.167,426.5 198.5,426.5C 198.5,423.833 198.5,421.167 198.5,418.5C 219.833,418.5 241.167,418.5 262.5,418.5C 262.5,421.167 262.5,423.833 262.5,426.5C 253.167,426.5 243.833,426.5 234.5,426.5C 233.833,429.5 233.167,432.5 232.5,435.5C 241.5,435.5 250.5,435.5 259.5,435.5C 259.667,449.504 259.5,463.504 259,477.5C 254.864,479.999 250.364,480.999 245.5,480.5C 245.613,477.951 244.946,475.618 243.5,473.5C 246.086,472.52 248.753,472.187 251.5,472.5C 251.5,462.833 251.5,453.167 251.5,443.5C 248.5,443.5 245.5,443.5 242.5,443.5C 242.5,455.167 242.5,466.833 242.5,478.5C 240.167,478.5 237.833,478.5 235.5,478.5C 235.5,466.833 235.5,455.167 235.5,443.5C 232.5,443.5 229.5,443.5 226.5,443.5C 226.5,455.5 226.5,467.5 226.5,479.5C 223.833,479.5 221.167,479.5 218.5,479.5C 218.5,467.5 218.5,455.5 218.5,443.5C 215.5,443.5 212.5,443.5 209.5,443.5C 209.5,455.833 209.5,468.167 209.5,480.5C 206.833,480.5 204.167,480.5 201.5,480.5C 201.5,473.833 201.5,467.167 201.5,460.5C 189.061,463.026 176.728,466.026 164.5,469.5C 162.897,466.364 162.564,463.197 163.5,460C 169.203,458.824 174.87,457.491 180.5,456C 181.428,455.612 182.095,454.945 182.5,454C 185.606,439.988 187.606,425.822 188.5,411.5 Z"/></g>
<g><path style="opacity:0.832" fill="#000000" d="M 169.5,412.5 C 171.451,412.227 172.951,412.893 174,414.5C 176.484,427.057 177.984,439.724 178.5,452.5C 175.932,453.45 173.432,453.45 171,452.5C 170.047,439.427 168.547,426.427 166.5,413.5C 167.791,413.737 168.791,413.404 169.5,412.5 Z"/></g>
<g><path style="opacity:0.992" fill="#d8d8d9" d="M 1858.5,839.5 C 1905.36,831.124 1933.19,803.458 1942,756.5C 1944.42,724.516 1933.92,697.683 1910.5,676C 1897.2,664.685 1881.87,657.685 1864.5,655C 1582.17,654.333 1299.83,654.333 1017.5,655C 966.39,670.043 941.89,704.21 944,757.5C 952.76,803.76 980.26,831.094 1026.5,839.5C 976.063,834.371 945.563,807.038 935,757.5C 930.412,715.526 945.579,683.026 980.5,660C 990.539,654.314 1001.21,650.314 1012.5,648C 1479.83,647.833 1947.17,647.667 2414.5,647.5C 2881.83,647.667 3349.17,647.833 3816.5,648C 3851.92,655.415 3876.42,675.915 3890,709.5C 3904.29,759.316 3890.12,798.483 3847.5,827C 3836.02,833.605 3823.68,837.605 3810.5,839C 3159.83,839.5 2509.17,839.667 1858.5,839.5 Z"/></g>
<g><path style="opacity:1" fill="#4fbafe" d="M 1858.5,839.5 C 1581.17,839.5 1303.83,839.5 1026.5,839.5C 980.26,831.094 952.76,803.76 944,757.5C 941.89,704.21 966.39,670.043 1017.5,655C 1299.83,654.333 1582.17,654.333 1864.5,655C 1881.87,657.685 1897.2,664.685 1910.5,676C 1933.92,697.683 1944.42,724.516 1942,756.5C 1933.19,803.458 1905.36,831.124 1858.5,839.5 Z"/></g>
<g><path style="opacity:0.862" fill="#000000" d="M 78.5,692.5 C 80.8333,692.5 83.1667,692.5 85.5,692.5C 85.5,694.833 85.5,697.167 85.5,699.5C 91.8333,699.5 98.1667,699.5 104.5,699.5C 104.5,703.167 104.5,706.833 104.5,710.5C 106.833,710.5 109.167,710.5 111.5,710.5C 111.5,713.167 111.5,715.833 111.5,718.5C 109.167,718.5 106.833,718.5 104.5,718.5C 104.5,722.5 104.5,726.5 104.5,730.5C 98.1667,730.5 91.8333,730.5 85.5,730.5C 85.5,731.5 85.5,732.5 85.5,733.5C 92.8333,733.5 100.167,733.5 107.5,733.5C 107.338,735.527 107.505,737.527 108,739.5C 115.287,725.027 119.787,709.694 121.5,693.5C 124.119,693.232 126.619,693.565 129,694.5C 128.609,700.852 127.776,707.185 126.5,713.5C 135.167,713.5 143.833,713.5 152.5,713.5C 152.5,716.167 152.5,718.833 152.5,721.5C 149.606,721.042 147.106,721.709 145,723.5C 143.557,736.938 140.39,749.938 135.5,762.5C 139.833,771.514 145.833,779.181 153.5,785.5C 151.973,787.193 150.64,789.027 149.5,791C 148.5,791.667 147.5,791.667 146.5,791C 140.204,785.711 135.038,779.544 131,772.5C 126.069,780.932 119.569,787.932 111.5,793.5C 109.833,791.5 108.167,789.5 106.5,787.5C 115.599,780.902 122.265,772.402 126.5,762C 123.608,753.597 121.108,745.097 119,736.5C 117.861,740.112 116.194,743.446 114,746.5C 112.185,744.595 110.185,742.928 108,741.5C 107.501,745.152 107.335,748.818 107.5,752.5C 99.4723,752.169 91.4723,752.502 83.5,753.5C 82.7515,755.332 81.7515,756.999 80.5,758.5C 85.4631,759.259 90.4631,759.259 95.5,758.5C 95.5,756.833 95.5,755.167 95.5,753.5C 97.8333,753.5 100.167,753.5 102.5,753.5C 102.5,755.167 102.5,756.833 102.5,758.5C 104.262,758.643 105.929,758.309 107.5,757.5C 108.474,759.743 108.808,762.076 108.5,764.5C 106.473,764.338 104.473,764.505 102.5,765C 100.728,770.045 98.0617,774.545 94.5,778.5C 98.3359,780.584 102.003,782.917 105.5,785.5C 103.5,787.167 101.5,788.833 99.5,790.5C 94.9215,788.294 90.4215,785.961 86,783.5C 76.0635,788.775 65.5635,791.442 54.5,791.5C 53.376,790.086 52.376,788.586 51.5,787C 59.814,785.395 67.814,782.895 75.5,779.5C 71.2761,777.555 66.9428,775.888 62.5,774.5C 61.4173,773.635 61.2506,772.635 62,771.5C 63.1667,770.333 64.3333,769.167 65.5,768C 61.5138,767.501 57.5138,767.334 53.5,767.5C 53.7564,765.208 53.4231,763.041 52.5,761C 58.3709,760.769 64.2043,760.269 70,759.5C 71.7339,757.71 73.2339,755.71 74.5,753.5C 68.8722,752.505 63.2055,752.171 57.5,752.5C 57.5,746.167 57.5,739.833 57.5,733.5C 64.5,733.5 71.5,733.5 78.5,733.5C 78.5,732.5 78.5,731.5 78.5,730.5C 72.5,730.5 66.5,730.5 60.5,730.5C 60.5,726.5 60.5,722.5 60.5,718.5C 58.1667,718.5 55.8333,718.5 53.5,718.5C 53.5,715.833 53.5,713.167 53.5,710.5C 55.8333,710.5 58.1667,710.5 60.5,710.5C 60.5,706.833 60.5,703.167 60.5,699.5C 66.5,699.5 72.5,699.5 78.5,699.5C 78.5,697.167 78.5,694.833 78.5,692.5 Z M 68.5,706.5 C 71.8333,706.5 75.1667,706.5 78.5,706.5C 78.5,708.167 78.5,709.833 78.5,711.5C 75.1667,711.5 71.8333,711.5 68.5,711.5C 68.5,709.833 68.5,708.167 68.5,706.5 Z M 85.5,706.5 C 89.1667,706.5 92.8333,706.5 96.5,706.5C 96.5,708.167 96.5,709.833 96.5,711.5C 92.8333,711.5 89.1667,711.5 85.5,711.5C 85.5,709.833 85.5,708.167 85.5,706.5 Z M 68.5,717.5 C 71.8333,717.5 75.1667,717.5 78.5,717.5C 78.5,719.5 78.5,721.5 78.5,723.5C 75.1667,723.5 71.8333,723.5 68.5,723.5C 68.5,721.5 68.5,719.5 68.5,717.5 Z M 85.5,717.5 C 89.1667,717.5 92.8333,717.5 96.5,717.5C 96.5,719.5 96.5,721.5 96.5,723.5C 92.8333,723.5 89.1667,723.5 85.5,723.5C 85.5,721.5 85.5,719.5 85.5,717.5 Z M 124.5,721.5 C 128.5,721.5 132.5,721.5 136.5,721.5C 135.885,731.406 134.052,741.073 131,750.5C 128.041,740.999 125.874,731.332 124.5,721.5 Z M 65.5,740.5 C 69.8333,740.5 74.1667,740.5 78.5,740.5C 78.5,742.167 78.5,743.833 78.5,745.5C 74.1667,745.5 69.8333,745.5 65.5,745.5C 65.5,743.833 65.5,742.167 65.5,740.5 Z M 85.5,740.5 C 89.8333,740.5 94.1667,740.5 98.5,740.5C 98.5,742.167 98.5,743.833 98.5,745.5C 94.1667,745.5 89.8333,745.5 85.5,745.5C 85.5,743.833 85.5,742.167 85.5,740.5 Z M 83.5,765.5 C 86.8499,765.335 90.1832,765.502 93.5,766C 88.4853,776.084 81.8187,777.25 73.5,769.5C 73.9767,768.522 74.6433,767.689 75.5,767C 78.3647,766.817 81.0314,766.317 83.5,765.5 Z"/></g>
<g><path style="opacity:0.904" fill="#000000" d="M 175.5,692.5 C 178.167,692.5 180.833,692.5 183.5,692.5C 183.5,699.833 183.5,707.167 183.5,714.5C 186.833,714.5 190.167,714.5 193.5,714.5C 193.5,717.167 193.5,719.833 193.5,722.5C 190.167,722.5 186.833,722.5 183.5,722.5C 183.334,728.842 183.5,735.175 184,741.5C 187.293,739.792 190.793,738.792 194.5,738.5C 195.263,741.141 195.43,743.808 195,746.5C 191.556,747.927 188.056,749.26 184.5,750.5C 183.816,763.532 183.149,776.532 182.5,789.5C 181.5,790.333 180.5,791.167 179.5,792C 174.844,792.665 170.177,793.165 165.5,793.5C 164.833,790.5 164.167,787.5 163.5,784.5C 167.5,784.5 171.5,784.5 175.5,784.5C 175.832,774.145 175.499,763.812 174.5,753.5C 170.833,754.833 167.167,756.167 163.5,757.5C 161.302,754.555 160.635,751.388 161.5,748C 166.108,746.518 170.775,745.351 175.5,744.5C 175.5,737.167 175.5,729.833 175.5,722.5C 170.833,722.5 166.167,722.5 161.5,722.5C 161.5,719.833 161.5,717.167 161.5,714.5C 166.167,714.5 170.833,714.5 175.5,714.5C 175.5,707.167 175.5,699.833 175.5,692.5 Z"/></g>
<g><path style="opacity:0.871" fill="#000000" d="M 221.5,692.5 C 224.5,692.5 227.5,692.5 230.5,692.5C 230.5,694.833 230.5,697.167 230.5,699.5C 238.833,699.5 247.167,699.5 255.5,699.5C 255.5,701.833 255.5,704.167 255.5,706.5C 247.167,706.5 238.833,706.5 230.5,706.5C 230.5,708.167 230.5,709.833 230.5,711.5C 240.93,711.298 251.263,711.298 261.5,711.5C 260.289,717.467 258.289,723.134 255.5,728.5C 253.111,727.82 250.778,726.986 248.5,726C 249.5,723.667 250.5,721.333 251.5,719C 243.841,718.5 236.174,718.334 228.5,718.5C 228.5,720.167 228.5,721.833 228.5,723.5C 234.5,722.833 240.5,722.167 246.5,721.5C 246.917,724.079 246.25,726.246 244.5,728C 239.166,728.567 233.833,729.067 228.5,729.5C 228.33,730.822 228.663,731.989 229.5,733C 237.549,733.802 245.549,733.635 253.5,732.5C 254.474,734.743 254.808,737.076 254.5,739.5C 244.494,739.666 234.494,739.5 224.5,739C 221.479,737.461 220.146,734.961 220.5,731.5C 216.152,731.909 211.819,732.076 207.5,732C 206.577,729.959 206.244,727.792 206.5,725.5C 211.119,724.686 215.786,724.353 220.5,724.5C 220.5,722.5 220.5,720.5 220.5,718.5C 215.167,718.5 209.833,718.5 204.5,718.5C 204.667,732.171 204.5,745.837 204,759.5C 203.09,771.228 199.59,782.062 193.5,792C 190.479,791.708 187.812,790.375 185.5,788C 191.977,778.903 195.477,768.736 196,757.5C 196.5,742.17 196.667,726.837 196.5,711.5C 204.833,711.5 213.167,711.5 221.5,711.5C 221.5,705.167 221.5,698.833 221.5,692.5 Z"/></g>
<g><path style="opacity:0.872" fill="#000000" d="M 398.5,692.5 C 401.5,692.5 404.5,692.5 407.5,692.5C 407.5,700.167 407.5,707.833 407.5,715.5C 412.833,715.5 418.167,715.5 423.5,715.5C 423.5,718.5 423.5,721.5 423.5,724.5C 418.167,724.5 412.833,724.5 407.5,724.5C 407.34,726.199 407.506,727.866 408,729.5C 413.414,735.747 418.247,742.414 422.5,749.5C 421.149,752.196 419.316,754.53 417,756.5C 414,751.833 411,747.167 408,742.5C 407.5,759.163 407.333,775.83 407.5,792.5C 404.5,792.5 401.5,792.5 398.5,792.5C 398.667,777.163 398.5,761.83 398,746.5C 394.888,755.391 390.721,763.724 385.5,771.5C 384.726,772.711 383.893,772.711 383,771.5C 381.953,769.238 380.787,767.071 379.5,765C 387.317,752.737 393.317,739.571 397.5,725.5C 392.544,724.506 387.544,724.173 382.5,724.5C 382.5,721.5 382.5,718.5 382.5,715.5C 387.833,715.5 393.167,715.5 398.5,715.5C 398.5,707.833 398.5,700.167 398.5,692.5 Z"/></g>
<g><path style="opacity:0.881" fill="#000000" d="M 465.5,693.5 C 469.147,694.667 472.147,696.834 474.5,700C 462.392,705.361 449.725,708.861 436.5,710.5C 436.5,716.833 436.5,723.167 436.5,729.5C 451.167,729.5 465.833,729.5 480.5,729.5C 480.5,732.5 480.5,735.5 480.5,738.5C 475.167,738.5 469.833,738.5 464.5,738.5C 464.5,756.833 464.5,775.167 464.5,793.5C 461.5,793.5 458.5,793.5 455.5,793.5C 455.5,775.167 455.5,756.833 455.5,738.5C 449.167,738.5 442.833,738.5 436.5,738.5C 437.674,757.132 434.174,774.799 426,791.5C 422.544,792.029 419.711,790.696 417.5,787.5C 422.959,778.623 426.126,768.956 427,758.5C 428.122,740.52 428.788,722.52 429,704.5C 441.557,701.823 453.723,698.157 465.5,693.5 Z"/></g>
<g><path style="opacity:0.872" fill="#000000" d="M 315.5,694.5 C 324.5,694.5 333.5,694.5 342.5,694.5C 347.86,711.55 357.86,725.217 372.5,735.5C 370.5,738.167 368.5,740.833 366.5,743.5C 362.858,741.025 359.358,738.358 356,735.5C 355.081,750.207 353.748,764.873 352,779.5C 351.393,785.756 348.227,789.922 342.5,792C 335.508,792.5 328.508,792.666 321.5,792.5C 321.242,789.043 320.742,785.71 320,782.5C 326.418,783.643 332.918,783.81 339.5,783C 340.701,782.097 341.535,780.931 342,779.5C 344.487,767.297 345.654,754.963 345.5,742.5C 336.5,742.5 327.5,742.5 318.5,742.5C 317.16,767.895 304.66,784.895 281,793.5C 278.723,791.126 276.557,788.626 274.5,786C 295.417,778.924 306.751,764.424 308.5,742.5C 301.167,742.5 293.833,742.5 286.5,742.5C 286.662,740.473 286.495,738.473 286,736.5C 283.603,739.4 280.77,741.733 277.5,743.5C 274.833,741.5 272.5,739.167 270.5,736.5C 284.421,726.02 293.921,712.354 299,695.5C 302.124,696.561 305.291,697.561 308.5,698.5C 304.259,711.491 297.593,722.991 288.5,733C 310.167,733.667 331.833,733.667 353.5,733C 345.568,723.97 339.568,713.803 335.5,702.5C 328.833,702.5 322.167,702.5 315.5,702.5C 315.5,699.833 315.5,697.167 315.5,694.5 Z"/></g>
<g><path style="opacity:0.843" fill="#000000" d="M 206.5,743.5 C 224.833,743.5 243.167,743.5 261.5,743.5C 261.5,745.5 261.5,747.5 261.5,749.5C 253.493,749.334 245.493,749.5 237.5,750C 235.167,751.667 232.833,753.333 230.5,755C 232.684,757.016 234.684,759.183 236.5,761.5C 243.078,758.294 249.578,754.961 256,751.5C 257.685,753.017 259.185,754.684 260.5,756.5C 256.5,758.833 252.5,761.167 248.5,763.5C 251.144,771.801 255.977,778.468 263,783.5C 263.667,784.167 263.667,784.833 263,785.5C 261.304,787.566 259.471,789.066 257.5,790C 249.684,783.541 244.518,775.375 242,765.5C 240.513,766.155 239.347,767.155 238.5,768.5C 241.232,775.221 241.066,781.888 238,788.5C 233.644,793.008 228.478,794.341 222.5,792.5C 221.682,790.892 221.015,789.225 220.5,787.5C 229.889,788.452 233.556,784.452 231.5,775.5C 224.018,781.326 215.851,785.992 207,789.5C 204.646,788.644 203.146,786.977 202.5,784.5C 211.431,781.036 219.764,776.536 227.5,771C 230.059,769.677 230.725,767.843 229.5,765.5C 222.724,770.221 215.391,773.888 207.5,776.5C 206.167,774.833 204.833,773.167 203.5,771.5C 211.716,768.726 219.382,764.892 226.5,760C 225.892,759.13 225.059,758.63 224,758.5C 219.052,760.703 214.052,762.703 209,764.5C 207.341,763.183 206.174,761.517 205.5,759.5C 212.759,756.87 219.759,753.703 226.5,750C 219.842,749.5 213.175,749.334 206.5,749.5C 206.5,747.5 206.5,745.5 206.5,743.5 Z"/></g>
<g><path style="opacity:0.996" fill="#4fbafe" d="M 2091.5,992.5 C 2136.36,1010.52 2157.86,1043.85 2156,1092.5C 2151.12,1126.11 2133.62,1150.61 2103.5,1166C 2095.08,1169.47 2086.41,1172.14 2077.5,1174C 1930.17,1174.67 1782.83,1174.67 1635.5,1174C 1600.73,1168.9 1575.9,1150.4 1561,1118.5C 1545.23,1074.07 1555.4,1036.9 1591.5,1007C 1599.99,1001.09 1608.99,996.258 1618.5,992.5C 1622.49,991.671 1626.49,990.837 1630.5,990C 1780.17,989.333 1929.83,989.333 2079.5,990C 2083.51,990.837 2087.51,991.671 2091.5,992.5 Z"/></g>
<g><path style="opacity:0.991" fill="#d8d8d9" d="M 1618.5,992.5 C 1608.99,996.258 1599.99,1001.09 1591.5,1007C 1555.4,1036.9 1545.23,1074.07 1561,1118.5C 1575.9,1150.4 1600.73,1168.9 1635.5,1174C 1782.83,1174.67 1930.17,1174.67 2077.5,1174C 2086.41,1172.14 2095.08,1169.47 2103.5,1166C 2133.62,1150.61 2151.12,1126.11 2156,1092.5C 2157.86,1043.85 2136.36,1010.52 2091.5,992.5C 2660.83,992.333 3230.17,992.5 3799.5,993C 3848.51,999.008 3878.01,1026.18 3888,1074.5C 3891.91,1121.19 3873.08,1155.03 3831.5,1176C 3822.82,1179.56 3813.82,1181.89 3804.5,1183C 3340.17,1183.17 2875.83,1183.33 2411.5,1183.5C 1947.17,1183.33 1482.83,1183.17 1018.5,1183C 979.536,1177.36 953.036,1156.2 939,1119.5C 926.603,1074.36 938.77,1037.53 975.5,1009C 990.153,999.671 1006.15,994.338 1023.5,993C 1221.83,992.5 1420.17,992.333 1618.5,992.5 Z"/></g>
<g><path style="opacity:0.835" fill="#000000" d="M 126.5,1036.5 C 129.894,1037.63 133.227,1038.97 136.5,1040.5C 133.624,1045.09 130.624,1049.59 127.5,1054C 135.827,1054.5 144.16,1054.67 152.5,1054.5C 152.5,1057.5 152.5,1060.5 152.5,1063.5C 119.833,1063.5 87.1667,1063.5 54.5,1063.5C 54.5,1060.5 54.5,1057.5 54.5,1054.5C 63.1731,1054.67 71.8397,1054.5 80.5,1054C 77.5496,1049.38 74.2162,1045.05 70.5,1041C 75.6816,1035.92 80.1816,1036.42 84,1042.5C 86.1667,1046 88.3333,1049.5 90.5,1053C 90.1667,1053.33 89.8333,1053.67 89.5,1054C 98.5,1054.67 107.5,1054.67 116.5,1054C 120.489,1048.52 123.823,1042.69 126.5,1036.5 Z"/></g>
<g><path style="opacity:0.865" fill="#000000" d="M 558.5,1036.5 C 561.54,1039.91 563.54,1043.91 564.5,1048.5C 572.167,1048.5 579.833,1048.5 587.5,1048.5C 587.5,1051.17 587.5,1053.83 587.5,1056.5C 567.5,1056.5 547.5,1056.5 527.5,1056.5C 527.5,1053.83 527.5,1051.17 527.5,1048.5C 536.192,1048.83 544.859,1048.5 553.5,1047.5C 552.352,1044.71 551.019,1042.04 549.5,1039.5C 552.505,1038.18 555.505,1037.18 558.5,1036.5 Z"/></g>
<g><path style="opacity:0.81" fill="#000000" d="M 183.5,1037.5 C 186.852,1037.78 189.852,1038.95 192.5,1041C 185.73,1051.27 177.396,1060.1 167.5,1067.5C 165.445,1065.45 163.779,1063.11 162.5,1060.5C 171.282,1054.39 178.282,1046.72 183.5,1037.5 Z"/></g>
<g><path style="opacity:0.891" fill="#000000" d="M 334.5,1037.5 C 337.5,1037.5 340.5,1037.5 343.5,1037.5C 343.5,1045.5 343.5,1053.5 343.5,1061.5C 348.5,1061.5 353.5,1061.5 358.5,1061.5C 358.5,1055.17 358.5,1048.83 358.5,1042.5C 361.5,1042.5 364.5,1042.5 367.5,1042.5C 367.5,1051.5 367.5,1060.5 367.5,1069.5C 349.167,1069.5 330.833,1069.5 312.5,1069.5C 312.5,1060.5 312.5,1051.5 312.5,1042.5C 315.167,1042.5 317.833,1042.5 320.5,1042.5C 320.5,1048.83 320.5,1055.17 320.5,1061.5C 325.167,1061.5 329.833,1061.5 334.5,1061.5C 334.5,1053.5 334.5,1045.5 334.5,1037.5 Z"/></g>
<g><path style="opacity:0.887" fill="#000000" d="M 425.5,1037.5 C 428.833,1037.5 432.167,1037.5 435.5,1037.5C 435.5,1041.83 435.5,1046.17 435.5,1050.5C 446.833,1050.5 458.167,1050.5 469.5,1050.5C 469.5,1060.5 469.5,1070.5 469.5,1080.5C 458.167,1080.5 446.833,1080.5 435.5,1080.5C 435.5,1083.17 435.5,1085.83 435.5,1088.5C 448.5,1088.5 461.5,1088.5 474.5,1088.5C 474.5,1100.5 474.5,1112.5 474.5,1124.5C 471.167,1124.5 467.833,1124.5 464.5,1124.5C 464.5,1123.17 464.5,1121.83 464.5,1120.5C 454.833,1120.5 445.167,1120.5 435.5,1120.5C 435.5,1126.5 435.5,1132.5 435.5,1138.5C 432.167,1138.5 428.833,1138.5 425.5,1138.5C 425.5,1132.5 425.5,1126.5 425.5,1120.5C 415.833,1120.5 406.167,1120.5 396.5,1120.5C 396.5,1121.83 396.5,1123.17 396.5,1124.5C 393.5,1124.5 390.5,1124.5 387.5,1124.5C 387.5,1112.5 387.5,1100.5 387.5,1088.5C 400.167,1088.5 412.833,1088.5 425.5,1088.5C 425.5,1085.83 425.5,1083.17 425.5,1080.5C 414.167,1080.5 402.833,1080.5 391.5,1080.5C 391.5,1070.5 391.5,1060.5 391.5,1050.5C 402.833,1050.5 414.167,1050.5 425.5,1050.5C 425.5,1046.17 425.5,1041.83 425.5,1037.5 Z M 400.5,1058.5 C 408.833,1058.5 417.167,1058.5 425.5,1058.5C 425.5,1063.17 425.5,1067.83 425.5,1072.5C 417.167,1072.5 408.833,1072.5 400.5,1072.5C 400.5,1067.83 400.5,1063.17 400.5,1058.5 Z M 435.5,1058.5 C 443.833,1058.5 452.167,1058.5 460.5,1058.5C 460.5,1063.17 460.5,1067.83 460.5,1072.5C 452.167,1072.5 443.833,1072.5 435.5,1072.5C 435.5,1067.83 435.5,1063.17 435.5,1058.5 Z M 396.5,1097.5 C 406.167,1097.5 415.833,1097.5 425.5,1097.5C 425.5,1102.17 425.5,1106.83 425.5,1111.5C 415.833,1111.5 406.167,1111.5 396.5,1111.5C 396.5,1106.83 396.5,1102.17 396.5,1097.5 Z M 435.5,1097.5 C 445.167,1097.5 454.833,1097.5 464.5,1097.5C 464.5,1102.17 464.5,1106.83 464.5,1111.5C 454.833,1111.5 445.167,1111.5 435.5,1111.5C 435.5,1106.83 435.5,1102.17 435.5,1097.5 Z"/></g>
<g><path style="opacity:0.868" fill="#000000" d="M 523.5,1093.5 C 519.89,1094.7 516.223,1095.7 512.5,1096.5C 512.918,1108.89 512.418,1121.23 511,1133.5C 510.348,1135.72 508.848,1136.89 506.5,1137C 502.179,1137.5 497.846,1137.67 493.5,1137.5C 493.613,1134.95 492.946,1132.62 491.5,1130.5C 495.377,1129.8 499.21,1129.14 503,1128.5C 503.5,1119.17 503.666,1109.84 503.5,1100.5C 498.922,1101.91 494.255,1102.91 489.5,1103.5C 489.037,1100.52 488.704,1097.52 488.5,1094.5C 493.323,1093.78 497.99,1092.45 502.5,1090.5C 503.497,1082.86 503.831,1075.2 503.5,1067.5C 498.833,1067.5 494.167,1067.5 489.5,1067.5C 489.5,1064.83 489.5,1062.17 489.5,1059.5C 494.167,1059.5 498.833,1059.5 503.5,1059.5C 503.5,1052.17 503.5,1044.83 503.5,1037.5C 506.5,1037.5 509.5,1037.5 512.5,1037.5C 512.5,1044.83 512.5,1052.17 512.5,1059.5C 516.5,1059.5 520.5,1059.5 524.5,1059.5C 524.5,1062.17 524.5,1064.83 524.5,1067.5C 520.5,1067.5 516.5,1067.5 512.5,1067.5C 512.17,1074.2 512.503,1080.87 513.5,1087.5C 516.431,1086.73 519.264,1085.73 522,1084.5C 522.953,1087.43 523.453,1090.43 523.5,1093.5 Z"/></g>
<g><path style="opacity:0.858" fill="#000000" d="M 220.5,1038.5 C 223.843,1039.06 226.843,1040.39 229.5,1042.5C 223.943,1049.23 217.61,1055.06 210.5,1060C 216.468,1059.86 222.468,1059.53 228.5,1059C 233.021,1054.98 237.688,1051.14 242.5,1047.5C 245.167,1049.17 247.833,1050.83 250.5,1052.5C 239.248,1062.47 226.915,1070.97 213.5,1078C 223.19,1078.24 232.857,1077.74 242.5,1076.5C 240.5,1073.83 238.5,1071.17 236.5,1068.5C 238.167,1067.33 239.833,1066.17 241.5,1065C 242.784,1064.32 243.951,1064.48 245,1065.5C 249.667,1071.5 254.333,1077.5 259,1083.5C 262.941,1088.6 261.607,1091.6 255,1092.5C 252.712,1090.63 250.879,1088.29 249.5,1085.5C 241.118,1084.28 232.785,1084.61 224.5,1086.5C 223.543,1088.92 222.209,1091.08 220.5,1093C 229.548,1093.81 238.548,1093.64 247.5,1092.5C 249.977,1093.15 251.644,1094.65 252.5,1097C 248.023,1106.48 241.69,1114.48 233.5,1121C 242.382,1125.52 251.716,1128.85 261.5,1131C 259.443,1133.63 257.277,1136.13 255,1138.5C 244.323,1136.06 234.323,1132.06 225,1126.5C 214.806,1132.34 203.973,1136.17 192.5,1138C 191.292,1135.75 189.959,1133.58 188.5,1131.5C 198.15,1128.89 207.484,1125.39 216.5,1121C 212.686,1118.02 209.019,1114.85 205.5,1111.5C 203.072,1114.1 200.239,1116.1 197,1117.5C 194.369,1116.04 192.202,1114.04 190.5,1111.5C 193.5,1109 196.5,1106.5 199.5,1104C 198.084,1101.17 196.417,1098.5 194.5,1096C 196.725,1094.87 199.058,1094.04 201.5,1093.5C 203.272,1094.36 204.605,1095.69 205.5,1097.5C 209.082,1094.51 212.082,1091.01 214.5,1087C 207.778,1086.67 201.112,1087.17 194.5,1088.5C 193.833,1085.5 193.167,1082.5 192.5,1079.5C 200.691,1076.74 208.358,1072.9 215.5,1068C 209.551,1067.48 203.717,1067.98 198,1069.5C 196.619,1067.37 195.619,1065.03 195,1062.5C 192.252,1067.67 189.252,1072.67 186,1077.5C 185.5,1097.83 185.333,1118.16 185.5,1138.5C 182.5,1138.5 179.5,1138.5 176.5,1138.5C 176.667,1122.16 176.5,1105.83 176,1089.5C 173.286,1092.55 170.286,1095.22 167,1097.5C 164.712,1095.63 162.879,1093.29 161.5,1090.5C 171.475,1081.69 179.808,1071.52 186.5,1060C 188.675,1060.05 190.842,1060.55 193,1061.5C 203.807,1055.86 212.974,1048.2 220.5,1038.5 Z M 214.5,1101.5 C 222.84,1101.33 231.173,1101.5 239.5,1102C 235.333,1107.5 230.5,1112.33 225,1116.5C 219.912,1113.42 215.412,1109.58 211.5,1105C 212.71,1103.96 213.71,1102.79 214.5,1101.5 Z"/></g>
<g><path style="opacity:0.825" fill="#000000" d="M 288.5,1038.5 C 290.017,1038.51 291.184,1039.18 292,1040.5C 294.44,1045.05 296.607,1049.71 298.5,1054.5C 297.088,1055.81 295.421,1056.64 293.5,1057C 298.823,1057.5 304.156,1057.67 309.5,1057.5C 309.5,1060.5 309.5,1063.5 309.5,1066.5C 297.167,1066.5 284.833,1066.5 272.5,1066.5C 272.5,1063.5 272.5,1060.5 272.5,1057.5C 278.167,1057.5 283.833,1057.5 289.5,1057.5C 287.945,1051.84 285.612,1046.5 282.5,1041.5C 284.594,1040.48 286.594,1039.48 288.5,1038.5 Z"/></g>
<g><path style="opacity:0.861" fill="#000000" d="M 523.5,1093.5 C 530.2,1093.83 536.866,1093.5 543.5,1092.5C 545.039,1089.25 546.706,1086.09 548.5,1083C 540.841,1082.5 533.174,1082.33 525.5,1082.5C 525.5,1079.83 525.5,1077.17 525.5,1074.5C 531.537,1074.83 537.537,1074.5 543.5,1073.5C 541.54,1069.07 539.206,1064.91 536.5,1061C 537.778,1058.83 539.778,1057.66 542.5,1057.5C 543.442,1057.61 544.275,1057.94 545,1058.5C 547.3,1062.27 549.467,1066.1 551.5,1070C 550.48,1072.03 548.813,1073.36 546.5,1074C 551.5,1074.67 556.5,1074.67 561.5,1074C 565.113,1068.94 567.779,1063.44 569.5,1057.5C 572.216,1057.68 574.883,1058.18 577.5,1059C 578.022,1059.56 578.355,1060.23 578.5,1061C 576.174,1065.32 573.841,1069.65 571.5,1074C 577.491,1074.5 583.491,1074.67 589.5,1074.5C 589.5,1077.17 589.5,1079.83 589.5,1082.5C 577.162,1082.33 564.829,1082.5 552.5,1083C 554.256,1083.2 555.922,1083.7 557.5,1084.5C 556.167,1087.17 554.833,1089.83 553.5,1092.5C 559.463,1093.5 565.463,1093.83 571.5,1093.5C 571.699,1091.04 572.365,1088.71 573.5,1086.5C 575.776,1087.21 578.109,1087.71 580.5,1088C 581.833,1089.67 581.833,1091.33 580.5,1093C 583.817,1093.5 587.15,1093.67 590.5,1093.5C 590.5,1096.17 590.5,1098.83 590.5,1101.5C 586.445,1101.18 582.445,1101.51 578.5,1102.5C 576.318,1109.03 572.985,1114.87 568.5,1120C 575.33,1123.58 581.997,1127.41 588.5,1131.5C 586.669,1134.87 584.003,1136.71 580.5,1137C 573.991,1133.25 567.324,1129.75 560.5,1126.5C 550.084,1132.97 538.751,1136.64 526.5,1137.5C 526.327,1134.82 525.327,1132.49 523.5,1130.5C 532.945,1129.06 541.945,1126.22 550.5,1122C 544.206,1119.4 537.873,1116.9 531.5,1114.5C 530.417,1113.64 530.251,1112.64 531,1111.5C 533.36,1108.64 535.527,1105.64 537.5,1102.5C 532.88,1101.51 528.214,1101.17 523.5,1101.5C 523.5,1098.83 523.5,1096.17 523.5,1093.5 Z M 548.5,1101.5 C 555.2,1101.17 561.866,1101.5 568.5,1102.5C 566.298,1108.03 562.965,1112.69 558.5,1116.5C 553.28,1114.06 547.947,1111.89 542.5,1110C 544.72,1107.29 546.72,1104.45 548.5,1101.5 Z"/></g>
<g><path style="opacity:0.885" fill="#000000" d="M 135.5,1069.5 C 138.5,1069.5 141.5,1069.5 144.5,1069.5C 144.667,1090.5 144.5,1111.5 144,1132.5C 142.934,1135.56 140.767,1137.06 137.5,1137C 132.177,1137.5 126.844,1137.67 121.5,1137.5C 121.244,1135.06 120.577,1132.73 119.5,1130.5C 124.718,1129.81 129.884,1129.14 135,1128.5C 135.5,1108.84 135.667,1089.17 135.5,1069.5 Z"/></g>
<g><path style="opacity:0.864" fill="#000000" d="M 298.5,1069.5 C 301.254,1069.78 303.92,1070.45 306.5,1071.5C 304.353,1084.86 302.02,1098.2 299.5,1111.5C 302.833,1110.83 306.167,1110.17 309.5,1109.5C 310.668,1107.61 311.001,1102.27 310.5,1093.5C 317.833,1093.5 325.167,1093.5 332.5,1093.5C 332.704,1090.48 333.037,1087.48 333.5,1084.5C 324.833,1084.5 316.167,1084.5 307.5,1084.5C 307.5,1081.83 307.5,1079.17 307.5,1076.5C 328.833,1076.5 350.167,1076.5 371.5,1076.5C 371.5,1079.17 371.5,1081.83 371.5,1084.5C 362.494,1084.33 353.494,1084.5 344.5,1085C 343.407,1087.44 342.407,1089.94 341.5,1092.5C 350.475,1093.5 359.475,1093.83 368.5,1093.5C 368.667,1107.5 368.5,1121.5 368,1135.5C 364.276,1138.24 360.109,1139.07 355.5,1138C 354.601,1135.81 353.601,1133.64 352.5,1131.5C 355.086,1130.52 357.753,1130.19 360.5,1130.5C 360.5,1120.83 360.5,1111.17 360.5,1101.5C 357.5,1101.5 354.5,1101.5 351.5,1101.5C 351.5,1113.17 351.5,1124.83 351.5,1136.5C 349.167,1136.5 346.833,1136.5 344.5,1136.5C 344.5,1124.83 344.5,1113.17 344.5,1101.5C 341.5,1101.5 338.5,1101.5 335.5,1101.5C 335.5,1113.5 335.5,1125.5 335.5,1137.5C 332.833,1137.5 330.167,1137.5 327.5,1137.5C 327.5,1125.5 327.5,1113.5 327.5,1101.5C 324.833,1101.5 322.167,1101.5 319.5,1101.5C 319.5,1113.83 319.5,1126.17 319.5,1138.5C 316.5,1138.5 313.5,1138.5 310.5,1138.5C 310.5,1131.83 310.5,1125.17 310.5,1118.5C 298.435,1121.18 286.435,1124.18 274.5,1127.5C 272.758,1125.59 271.758,1123.26 271.5,1120.5C 271.818,1119.35 272.484,1118.52 273.5,1118C 279.4,1116.62 285.234,1115.12 291,1113.5C 294.386,1098.96 296.886,1084.3 298.5,1069.5 Z"/></g>
<g><path style="opacity:0.84" fill="#000000" d="M 279.5,1070.5 C 280.822,1070.33 281.989,1070.66 283,1071.5C 285.906,1084.4 287.072,1097.4 286.5,1110.5C 284.591,1111.35 282.591,1111.68 280.5,1111.5C 279.325,1098.1 277.659,1084.77 275.5,1071.5C 277.099,1071.77 278.432,1071.43 279.5,1070.5 Z"/></g>
<g><path style="opacity:0.878" fill="#000000" d="M 61.5,1071.5 C 74.8333,1071.5 88.1667,1071.5 101.5,1071.5C 101.667,1092.17 101.5,1112.84 101,1133.5C 99.6811,1135.49 97.8477,1136.65 95.5,1137C 90.798,1137.83 86.1313,1137.66 81.5,1136.5C 80.3995,1134.36 79.3995,1132.19 78.5,1130C 83.1548,1129.5 87.8215,1129.33 92.5,1129.5C 92.5,1124.5 92.5,1119.5 92.5,1114.5C 84.5,1114.5 76.5,1114.5 68.5,1114.5C 67.8861,1122.29 65.7195,1129.62 62,1136.5C 61.3109,1137.36 60.4776,1138.02 59.5,1138.5C 57.3292,1136.83 55.3292,1134.99 53.5,1133C 56.6362,1127.55 58.8029,1121.72 60,1115.5C 61.3276,1100.87 61.8276,1086.2 61.5,1071.5 Z M 69.5,1079.5 C 77.1667,1079.5 84.8333,1079.5 92.5,1079.5C 92.5,1082.83 92.5,1086.17 92.5,1089.5C 84.8333,1089.5 77.1667,1089.5 69.5,1089.5C 69.5,1086.17 69.5,1082.83 69.5,1079.5 Z M 69.5,1096.5 C 77.1667,1096.5 84.8333,1096.5 92.5,1096.5C 92.5,1099.83 92.5,1103.17 92.5,1106.5C 84.8333,1106.5 77.1667,1106.5 69.5,1106.5C 69.5,1103.17 69.5,1099.83 69.5,1096.5 Z"/></g>
<g><path style="opacity:0.818" fill="#000000" d="M 113.5,1072.5 C 116.5,1072.5 119.5,1072.5 122.5,1072.5C 122.5,1087.83 122.5,1103.17 122.5,1118.5C 119.5,1118.5 116.5,1118.5 113.5,1118.5C 113.5,1103.17 113.5,1087.83 113.5,1072.5 Z"/></g>
<g><path style="opacity:0.991" fill="#d8d8d9" d="M 1009.5,1309.5 C 1937.83,1309.33 2866.17,1309.5 3794.5,1310C 3838.78,1316.95 3866.61,1342.11 3878,1385.5C 3884.81,1435.05 3865.98,1470.88 3821.5,1493C 3811.87,1496.91 3801.87,1499.24 3791.5,1500C 2865.5,1500.67 1939.5,1500.67 1013.5,1500C 975.122,1496.07 947.955,1476.57 932,1441.5C 917.026,1397.89 926.526,1360.73 960.5,1330C 975.149,1318.96 991.482,1312.12 1009.5,1309.5 Z"/></g>
<g><path style="opacity:1" fill="#4fbafe" d="M 2014.5,1315.5 C 2282.83,1315.33 2551.17,1315.5 2819.5,1316C 2857.48,1325.32 2881.65,1348.82 2892,1386.5C 2898.92,1429.48 2884.42,1462.98 2848.5,1487C 2837.81,1492.84 2826.48,1496.84 2814.5,1499C 2549.83,1499.67 2285.17,1499.67 2020.5,1499C 1981.69,1491.18 1956.53,1468.35 1945,1430.5C 1936.25,1382.84 1952.75,1347 1994.5,1323C 2001.16,1320.17 2007.83,1317.67 2014.5,1315.5 Z"/></g>
<g><path style="opacity:0.864" fill="#000000" d="M 575.5,1350.5 C 577.39,1350.3 578.89,1350.96 580,1352.5C 581.706,1356.08 583.539,1359.58 585.5,1363C 598.496,1363.5 611.496,1363.67 624.5,1363.5C 624.5,1371.83 624.5,1380.17 624.5,1388.5C 621.167,1388.5 617.833,1388.5 614.5,1388.5C 614.5,1383.17 614.5,1377.83 614.5,1372.5C 590.167,1372.5 565.833,1372.5 541.5,1372.5C 541.5,1377.83 541.5,1383.17 541.5,1388.5C 538.5,1388.5 535.5,1388.5 532.5,1388.5C 532.5,1380.17 532.5,1371.83 532.5,1363.5C 546.504,1363.67 560.504,1363.5 574.5,1363C 572.706,1359.91 571.039,1356.75 569.5,1353.5C 571.594,1352.48 573.594,1351.48 575.5,1350.5 Z"/></g>
<g><path style="opacity:0.837" fill="#000000" d="M 72.5,1351.5 C 75.4665,1351.99 78.1332,1353.16 80.5,1355C 75.999,1364.83 70.6656,1374.16 64.5,1383C 67.866,1383.33 71.1994,1383 74.5,1382C 77.5485,1377.47 79.8818,1372.64 81.5,1367.5C 84.0046,1367.98 86.3379,1368.98 88.5,1370.5C 89.5827,1371.36 89.7494,1372.36 89,1373.5C 82.6755,1385.48 75.1755,1396.65 66.5,1407C 71.7441,1406.37 77.0775,1405.87 82.5,1405.5C 82.0946,1402.01 81.0946,1398.68 79.5,1395.5C 83.2441,1391.75 86.0774,1392.08 88,1396.5C 90.2322,1401.86 92.0656,1407.36 93.5,1413C 92.3136,1415.43 90.3136,1416.6 87.5,1416.5C 89.701,1424.44 91.701,1432.44 93.5,1440.5C 91.1944,1440.99 88.861,1441.33 86.5,1441.5C 84.9693,1434.38 82.9693,1427.38 80.5,1420.5C 82.1792,1419.22 84.0126,1418.22 86,1417.5C 86.8344,1414.19 85.5011,1412.52 82,1412.5C 73.3712,1413.58 64.8712,1415.24 56.5,1417.5C 54.5455,1415.14 53.7122,1412.47 54,1409.5C 59.5533,1404.05 64.3866,1398.05 68.5,1391.5C 68,1391.17 67.5,1390.83 67,1390.5C 62.8668,1391.4 58.7001,1392.07 54.5,1392.5C 54.2437,1390.06 53.5771,1387.73 52.5,1385.5C 61.1935,1375.46 67.8602,1364.13 72.5,1351.5 Z"/></g>
<g><path style="opacity:0.818" fill="#000000" d="M 183.5,1351.5 C 187.25,1356.66 190.25,1362.33 192.5,1368.5C 190.631,1369.62 188.631,1370.46 186.5,1371C 193.158,1371.5 199.825,1371.67 206.5,1371.5C 206.5,1374.5 206.5,1377.5 206.5,1380.5C 192.167,1380.5 177.833,1380.5 163.5,1380.5C 163.5,1377.5 163.5,1374.5 163.5,1371.5C 170.2,1371.83 176.866,1371.5 183.5,1370.5C 181.556,1365 179.222,1359.67 176.5,1354.5C 178.875,1353.34 181.208,1352.34 183.5,1351.5 Z"/></g>
<g><path style="opacity:0.936" fill="#000000" d="M 225.5,1351.5 C 228.5,1351.5 231.5,1351.5 234.5,1351.5C 234.5,1358.83 234.5,1366.17 234.5,1373.5C 243.833,1373.5 253.167,1373.5 262.5,1373.5C 262.5,1376.5 262.5,1379.5 262.5,1382.5C 253.167,1382.5 243.833,1382.5 234.5,1382.5C 234.5,1389.5 234.5,1396.5 234.5,1403.5C 242.167,1403.5 249.833,1403.5 257.5,1403.5C 257.5,1419.5 257.5,1435.5 257.5,1451.5C 254.5,1451.5 251.5,1451.5 248.5,1451.5C 248.5,1449.83 248.5,1448.17 248.5,1446.5C 237.833,1446.5 227.167,1446.5 216.5,1446.5C 216.5,1448.17 216.5,1449.83 216.5,1451.5C 213.833,1451.5 211.167,1451.5 208.5,1451.5C 208.5,1435.5 208.5,1419.5 208.5,1403.5C 214.167,1403.5 219.833,1403.5 225.5,1403.5C 225.5,1386.17 225.5,1368.83 225.5,1351.5 Z M 216.5,1411.5 C 227.167,1411.5 237.833,1411.5 248.5,1411.5C 248.5,1420.5 248.5,1429.5 248.5,1438.5C 237.833,1438.5 227.167,1438.5 216.5,1438.5C 216.5,1429.5 216.5,1420.5 216.5,1411.5 Z"/></g>
<g><path style="opacity:0.876" fill="#000000" d="M 330.5,1351.5 C 333.5,1351.5 336.5,1351.5 339.5,1351.5C 339.5,1354.5 339.5,1357.5 339.5,1360.5C 347.167,1360.5 354.833,1360.5 362.5,1360.5C 362.5,1365.5 362.5,1370.5 362.5,1375.5C 365.167,1375.5 367.833,1375.5 370.5,1375.5C 370.5,1377.83 370.5,1380.17 370.5,1382.5C 367.833,1382.5 365.167,1382.5 362.5,1382.5C 362.5,1387.5 362.5,1392.5 362.5,1397.5C 354.833,1397.5 347.167,1397.5 339.5,1397.5C 339.5,1399.83 339.5,1402.17 339.5,1404.5C 347.833,1404.5 356.167,1404.5 364.5,1404.5C 364.5,1406.83 364.5,1409.17 364.5,1411.5C 356.167,1411.5 347.833,1411.5 339.5,1411.5C 339.5,1414.17 339.5,1416.83 339.5,1419.5C 349.167,1419.5 358.833,1419.5 368.5,1419.5C 368.5,1422.17 368.5,1424.83 368.5,1427.5C 358.833,1427.5 349.167,1427.5 339.5,1427.5C 339.5,1431.17 339.5,1434.83 339.5,1438.5C 336.5,1438.5 333.5,1438.5 330.5,1438.5C 330.5,1434.83 330.5,1431.17 330.5,1427.5C 321.5,1427.5 312.5,1427.5 303.5,1427.5C 303.5,1424.83 303.5,1422.17 303.5,1419.5C 312.5,1419.5 321.5,1419.5 330.5,1419.5C 330.5,1416.83 330.5,1414.17 330.5,1411.5C 322.833,1411.5 315.167,1411.5 307.5,1411.5C 307.5,1409.17 307.5,1406.83 307.5,1404.5C 315.167,1404.5 322.833,1404.5 330.5,1404.5C 330.5,1402.17 330.5,1399.83 330.5,1397.5C 323.167,1397.5 315.833,1397.5 308.5,1397.5C 308.5,1394.83 308.5,1392.17 308.5,1389.5C 315.833,1389.5 323.167,1389.5 330.5,1389.5C 330.5,1387.17 330.5,1384.83 330.5,1382.5C 321.167,1382.5 311.833,1382.5 302.5,1382.5C 302.5,1380.17 302.5,1377.83 302.5,1375.5C 311.833,1375.5 321.167,1375.5 330.5,1375.5C 330.5,1373.17 330.5,1370.83 330.5,1368.5C 323.5,1368.5 316.5,1368.5 309.5,1368.5C 309.5,1365.83 309.5,1363.17 309.5,1360.5C 316.5,1360.5 323.5,1360.5 330.5,1360.5C 330.5,1357.5 330.5,1354.5 330.5,1351.5 Z M 339.5,1368.5 C 344.5,1368.5 349.5,1368.5 354.5,1368.5C 354.5,1370.83 354.5,1373.17 354.5,1375.5C 349.5,1375.5 344.5,1375.5 339.5,1375.5C 339.5,1373.17 339.5,1370.83 339.5,1368.5 Z M 339.5,1382.5 C 344.5,1382.5 349.5,1382.5 354.5,1382.5C 354.5,1384.83 354.5,1387.17 354.5,1389.5C 349.5,1389.5 344.5,1389.5 339.5,1389.5C 339.5,1387.17 339.5,1384.83 339.5,1382.5 Z"/></g>
<g><path style="opacity:0.854" fill="#000000" d="M 660.5,1351.5 C 663.5,1351.5 666.5,1351.5 669.5,1351.5C 669.5,1353.83 669.5,1356.17 669.5,1358.5C 676.167,1358.5 682.833,1358.5 689.5,1358.5C 689.5,1360.83 689.5,1363.17 689.5,1365.5C 682.833,1365.5 676.167,1365.5 669.5,1365.5C 669.5,1366.83 669.5,1368.17 669.5,1369.5C 675.167,1369.5 680.833,1369.5 686.5,1369.5C 686.335,1372.52 686.502,1375.52 687,1378.5C 694.567,1371.37 699.567,1362.71 702,1352.5C 704.75,1351.71 707.583,1351.71 710.5,1352.5C 710.208,1356.21 709.208,1359.71 707.5,1363C 717.494,1363.5 727.494,1363.67 737.5,1363.5C 737.5,1366.17 737.5,1368.83 737.5,1371.5C 734.881,1371.23 732.381,1371.56 730,1372.5C 727.773,1379.72 724.273,1386.22 719.5,1392C 725.201,1396.85 731.534,1400.68 738.5,1403.5C 736.667,1405.83 734.833,1408.17 733,1410.5C 725.914,1407.38 719.414,1403.38 713.5,1398.5C 706.995,1403.92 699.662,1407.42 691.5,1409C 689.457,1407.29 687.79,1405.29 686.5,1403C 694.226,1400.64 701.226,1396.97 707.5,1392C 704.271,1387.77 701.438,1383.27 699,1378.5C 697.356,1381.31 695.19,1383.64 692.5,1385.5C 686.89,1378.54 684.89,1379.88 686.5,1389.5C 682.154,1389.33 677.821,1389.5 673.5,1390C 678.798,1391.8 683.131,1394.8 686.5,1399C 685.464,1400.9 684.298,1402.73 683,1404.5C 679.015,1401.01 674.682,1398.01 670,1395.5C 669.501,1399.82 669.334,1404.15 669.5,1408.5C 666.5,1408.5 663.5,1408.5 660.5,1408.5C 660.665,1404.82 660.499,1401.15 660,1397.5C 654.948,1402.61 649.115,1406.61 642.5,1409.5C 640.833,1407.5 639.167,1405.5 637.5,1403.5C 644.85,1399.98 651.516,1395.48 657.5,1390C 652.511,1389.5 647.511,1389.33 642.5,1389.5C 642.5,1382.83 642.5,1376.17 642.5,1369.5C 648.5,1369.5 654.5,1369.5 660.5,1369.5C 660.5,1368.17 660.5,1366.83 660.5,1365.5C 653.5,1365.5 646.5,1365.5 639.5,1365.5C 639.5,1363.17 639.5,1360.83 639.5,1358.5C 646.5,1358.5 653.5,1358.5 660.5,1358.5C 660.5,1356.17 660.5,1353.83 660.5,1351.5 Z M 704.5,1371.5 C 710.176,1371.33 715.843,1371.5 721.5,1372C 719.713,1377.08 717.047,1381.58 713.5,1385.5C 709.495,1381.49 706.495,1376.83 704.5,1371.5 Z M 650.5,1376.5 C 653.833,1376.5 657.167,1376.5 660.5,1376.5C 660.5,1378.83 660.5,1381.17 660.5,1383.5C 657.167,1383.5 653.833,1383.5 650.5,1383.5C 650.5,1381.17 650.5,1378.83 650.5,1376.5 Z M 669.5,1376.5 C 672.5,1376.5 675.5,1376.5 678.5,1376.5C 678.5,1378.83 678.5,1381.17 678.5,1383.5C 675.5,1383.5 672.5,1383.5 669.5,1383.5C 669.5,1381.17 669.5,1378.83 669.5,1376.5 Z"/></g>
<g><path style="opacity:0.871" fill="#000000" d="M 753.5,1351.5 C 756.5,1351.5 759.5,1351.5 762.5,1351.5C 762.5,1362.5 762.5,1373.5 762.5,1384.5C 767.167,1384.5 771.833,1384.5 776.5,1384.5C 776.5,1374.5 776.5,1364.5 776.5,1354.5C 779.167,1354.5 781.833,1354.5 784.5,1354.5C 784.5,1367.17 784.5,1379.83 784.5,1392.5C 777.167,1392.5 769.833,1392.5 762.5,1392.5C 762.605,1396.55 762.272,1400.55 761.5,1404.5C 769.167,1404.5 776.833,1404.5 784.5,1404.5C 784.5,1420.17 784.5,1435.83 784.5,1451.5C 781.5,1451.5 778.5,1451.5 775.5,1451.5C 775.5,1438.5 775.5,1425.5 775.5,1412.5C 770.833,1412.5 766.167,1412.5 761.5,1412.5C 761.383,1424.44 759.549,1436.1 756,1447.5C 755.313,1449.55 754.146,1451.22 752.5,1452.5C 750.5,1450.83 748.5,1449.17 746.5,1447.5C 750.262,1437.86 752.429,1427.86 753,1417.5C 753.5,1395.5 753.667,1373.5 753.5,1351.5 Z"/></g>
<g><path style="opacity:0.88" fill="#000000" d="M 388.5,1355.5 C 416.833,1355.5 445.167,1355.5 473.5,1355.5C 473.5,1363.17 473.5,1370.83 473.5,1378.5C 460.496,1378.33 447.496,1378.5 434.5,1379C 433.62,1380.36 433.286,1381.86 433.5,1383.5C 447.833,1383.5 462.167,1383.5 476.5,1383.5C 476.5,1385.83 476.5,1388.17 476.5,1390.5C 461.5,1390.5 446.5,1390.5 431.5,1390.5C 431.643,1392.26 431.309,1393.93 430.5,1395.5C 441.814,1396.5 453.147,1396.83 464.5,1396.5C 464.5,1411.5 464.5,1426.5 464.5,1441.5C 469.5,1441.5 474.5,1441.5 479.5,1441.5C 479.5,1443.83 479.5,1446.17 479.5,1448.5C 447.167,1448.5 414.833,1448.5 382.5,1448.5C 382.5,1446.17 382.5,1443.83 382.5,1441.5C 387.167,1441.5 391.833,1441.5 396.5,1441.5C 396.5,1426.5 396.5,1411.5 396.5,1396.5C 404.84,1396.67 413.173,1396.5 421.5,1396C 422.406,1394.3 422.739,1392.47 422.5,1390.5C 409.5,1390.5 396.5,1390.5 383.5,1390.5C 383.5,1388.17 383.5,1385.83 383.5,1383.5C 397.167,1383.5 410.833,1383.5 424.5,1383.5C 424.5,1381.83 424.5,1380.17 424.5,1378.5C 412.5,1378.5 400.5,1378.5 388.5,1378.5C 388.5,1370.83 388.5,1363.17 388.5,1355.5 Z M 397.5,1362.5 C 402.833,1362.5 408.167,1362.5 413.5,1362.5C 413.5,1365.5 413.5,1368.5 413.5,1371.5C 408.167,1371.5 402.833,1371.5 397.5,1371.5C 397.5,1368.5 397.5,1365.5 397.5,1362.5 Z M 422.5,1362.5 C 428.167,1362.5 433.833,1362.5 439.5,1362.5C 439.5,1365.5 439.5,1368.5 439.5,1371.5C 433.833,1371.5 428.167,1371.5 422.5,1371.5C 422.5,1368.5 422.5,1365.5 422.5,1362.5 Z M 447.5,1362.5 C 453.167,1362.5 458.833,1362.5 464.5,1362.5C 464.5,1365.5 464.5,1368.5 464.5,1371.5C 458.833,1371.5 453.167,1371.5 447.5,1371.5C 447.5,1368.5 447.5,1365.5 447.5,1362.5 Z M 405.5,1402.5 C 422.167,1402.5 438.833,1402.5 455.5,1402.5C 455.5,1404.17 455.5,1405.83 455.5,1407.5C 438.833,1407.5 422.167,1407.5 405.5,1407.5C 405.5,1405.83 405.5,1404.17 405.5,1402.5 Z M 405.5,1413.5 C 422.167,1413.5 438.833,1413.5 455.5,1413.5C 455.5,1415.17 455.5,1416.83 455.5,1418.5C 438.833,1418.5 422.167,1418.5 405.5,1418.5C 405.5,1416.83 405.5,1415.17 405.5,1413.5 Z M 405.5,1424.5 C 422.167,1424.5 438.833,1424.5 455.5,1424.5C 455.5,1426.5 455.5,1428.5 455.5,1430.5C 438.833,1430.5 422.167,1430.5 405.5,1430.5C 405.5,1428.5 405.5,1426.5 405.5,1424.5 Z M 405.5,1436.5 C 422.167,1436.5 438.833,1436.5 455.5,1436.5C 455.5,1438.17 455.5,1439.83 455.5,1441.5C 438.833,1441.5 422.167,1441.5 405.5,1441.5C 405.5,1439.83 405.5,1438.17 405.5,1436.5 Z"/></g>
<g><path style="opacity:0.913" fill="#000000" d="M 94.5,1356.5 C 113.167,1356.5 131.833,1356.5 150.5,1356.5C 150.667,1386.84 150.5,1417.17 150,1447.5C 149.5,1449.33 148.333,1450.5 146.5,1451C 141.816,1452.17 137.15,1452.34 132.5,1451.5C 131.518,1448.9 130.851,1446.24 130.5,1443.5C 134.513,1444.71 138.513,1444.71 142.5,1443.5C 142.5,1417.17 142.5,1390.83 142.5,1364.5C 129.167,1364.5 115.833,1364.5 102.5,1364.5C 102.5,1393.83 102.5,1423.17 102.5,1452.5C 99.8333,1452.5 97.1667,1452.5 94.5,1452.5C 94.5,1420.5 94.5,1388.5 94.5,1356.5 Z"/></g>
<g><path style="opacity:0.866" fill="#000000" d="M 794.5,1357.5 C 810.833,1357.5 827.167,1357.5 843.5,1357.5C 843.5,1360.5 843.5,1363.5 843.5,1366.5C 830.167,1366.5 816.833,1366.5 803.5,1366.5C 803.5,1372.5 803.5,1378.5 803.5,1384.5C 816.504,1384.33 829.504,1384.5 842.5,1385C 843.428,1385.39 844.095,1386.05 844.5,1387C 842.208,1402.24 836.874,1416.24 828.5,1429C 833.902,1435.86 840.568,1441.03 848.5,1444.5C 846.448,1447.05 844.281,1449.38 842,1451.5C 834.479,1447.98 828.146,1442.98 823,1436.5C 817.567,1443.1 811.067,1448.43 803.5,1452.5C 801.727,1449.94 799.727,1447.61 797.5,1445.5C 796.081,1447.34 794.914,1449.34 794,1451.5C 793.282,1452.45 792.449,1452.62 791.5,1452C 789.534,1450.54 787.868,1448.87 786.5,1447C 790.965,1436.97 793.465,1426.47 794,1415.5C 794.5,1396.17 794.667,1376.84 794.5,1357.5 Z M 803.5,1392.5 C 806.374,1405.11 811.041,1417.11 817.5,1428.5C 812.363,1435.31 806.03,1440.64 798.5,1444.5C 798.167,1444.17 797.833,1443.83 797.5,1443.5C 802.084,1426.84 804.084,1409.84 803.5,1392.5 Z M 812.5,1392.5 C 819.841,1392.33 827.174,1392.5 834.5,1393C 832.034,1402.73 828.201,1411.9 823,1420.5C 817.826,1411.81 814.326,1402.48 812.5,1392.5 Z"/></g>
<g><path style="opacity:0.862" fill="#000000" d="M 273.5,1358.5 C 284.172,1358.33 294.839,1358.5 305.5,1359C 300.876,1368.88 295.876,1378.55 290.5,1388C 294.753,1388.2 298.92,1388.7 303,1389.5C 302.933,1402.93 300.1,1415.77 294.5,1428C 302.44,1435.1 311.773,1439.1 322.5,1440C 339.167,1440.33 355.833,1440.67 372.5,1441C 370.804,1443.59 369.804,1446.42 369.5,1449.5C 352.135,1449.86 334.801,1449.36 317.5,1448C 307.595,1446.48 298.762,1442.65 291,1436.5C 287.581,1441.92 283.415,1446.76 278.5,1451C 277.833,1451.67 277.167,1451.67 276.5,1451C 274.65,1448.98 272.65,1447.15 270.5,1445.5C 276.227,1441.11 280.893,1435.77 284.5,1429.5C 279.774,1422.81 276.941,1415.48 276,1407.5C 277.993,1405.62 280.159,1405.29 282.5,1406.5C 283.734,1411.21 285.734,1415.54 288.5,1419.5C 291.592,1412.13 293.592,1404.46 294.5,1396.5C 288.794,1396.83 283.128,1396.5 277.5,1395.5C 282.606,1386.39 287.272,1377.06 291.5,1367.5C 285.537,1366.5 279.537,1366.17 273.5,1366.5C 273.5,1363.83 273.5,1361.17 273.5,1358.5 Z"/></g>
<g><path style="opacity:0.907" fill="#000000" d="M 509.5,1364.5 C 513.5,1364.5 517.5,1364.5 521.5,1364.5C 515.076,1380.36 511.409,1396.86 510.5,1414C 511.251,1430.83 514.917,1447 521.5,1462.5C 517.541,1463.66 513.541,1463.83 509.5,1463C 490.909,1430.22 490.909,1397.38 509.5,1364.5 Z"/></g>
<g><path style="opacity:0.909" fill="#000000" d="M 854.5,1364.5 C 858.555,1364.18 862.555,1364.51 866.5,1365.5C 883.635,1397.75 883.802,1430.08 867,1462.5C 862.934,1463.46 858.767,1463.8 854.5,1463.5C 860.712,1447.6 864.046,1431.1 864.5,1414C 864.605,1406.07 863.771,1398.23 862,1390.5C 859.588,1381.77 857.088,1373.1 854.5,1364.5 Z"/></g>
<g><path style="opacity:0.861" fill="#000000" d="M 112.5,1366.5 C 116.424,1370.37 118.757,1375.2 119.5,1381C 119.089,1383.21 117.755,1384.55 115.5,1385C 118.817,1385.5 122.15,1385.67 125.5,1385.5C 127.452,1379.64 128.785,1373.64 129.5,1367.5C 132.4,1367.28 135.067,1367.95 137.5,1369.5C 135.425,1374.72 133.758,1380.06 132.5,1385.5C 135.5,1385.5 138.5,1385.5 141.5,1385.5C 141.5,1387.83 141.5,1390.17 141.5,1392.5C 135.491,1392.33 129.491,1392.5 123.5,1393C 125.235,1395.64 126.568,1398.47 127.5,1401.5C 126.975,1402.19 126.308,1402.69 125.5,1403C 130.155,1403.5 134.821,1403.67 139.5,1403.5C 139.5,1405.83 139.5,1408.17 139.5,1410.5C 132.167,1410.5 124.833,1410.5 117.5,1410.5C 117.5,1414.83 117.5,1419.17 117.5,1423.5C 124.833,1423.5 132.167,1423.5 139.5,1423.5C 139.993,1425.81 140.326,1428.14 140.5,1430.5C 131.161,1430.67 121.827,1430.5 112.5,1430C 111.299,1429.1 110.465,1427.93 110,1426.5C 109.501,1421.18 109.334,1415.84 109.5,1410.5C 108.167,1410.5 106.833,1410.5 105.5,1410.5C 105.5,1408.17 105.5,1405.83 105.5,1403.5C 110.167,1403.5 114.833,1403.5 119.5,1403.5C 118.866,1400.06 117.533,1396.9 115.5,1394C 116.167,1393.67 116.833,1393.33 117.5,1393C 113.179,1392.5 108.846,1392.33 104.5,1392.5C 104.5,1390.17 104.5,1387.83 104.5,1385.5C 107.5,1385.5 110.5,1385.5 113.5,1385.5C 112.562,1380.12 110.895,1374.95 108.5,1370C 109.347,1368.23 110.68,1367.06 112.5,1366.5 Z"/></g>
<g><path style="opacity:0.856" fill="#000000" d="M 193.5,1382.5 C 195.804,1383.16 198.137,1383.83 200.5,1384.5C 200.833,1385.5 201.167,1386.5 201.5,1387.5C 199.292,1399.87 196.959,1412.2 194.5,1424.5C 198.167,1423.83 201.833,1423.17 205.5,1422.5C 206.523,1425.39 206.523,1428.23 205.5,1431C 192.161,1434.5 178.828,1438 165.5,1441.5C 163.302,1438.56 162.635,1435.39 163.5,1432C 171.091,1430.39 178.591,1428.56 186,1426.5C 189.199,1411.94 191.699,1397.27 193.5,1382.5 Z"/></g>
<g><path style="opacity:0.937" fill="#000000" d="M 548.5,1383.5 C 568.5,1383.5 588.5,1383.5 608.5,1383.5C 608.5,1386.17 608.5,1388.83 608.5,1391.5C 588.5,1391.5 568.5,1391.5 548.5,1391.5C 548.5,1388.83 548.5,1386.17 548.5,1383.5 Z"/></g>
<g><path style="opacity:0.849" fill="#000000" d="M 170.5,1384.5 C 172.766,1384.14 174.599,1384.81 176,1386.5C 178.489,1399.08 180.322,1411.75 181.5,1424.5C 178.794,1424.58 176.127,1424.91 173.5,1425.5C 172.488,1413.09 170.822,1400.75 168.5,1388.5C 168.803,1386.89 169.47,1385.55 170.5,1384.5 Z"/></g>
<g><path style="opacity:0.869" fill="#000000" d="M 530.5,1403.5 C 562.833,1403.5 595.167,1403.5 627.5,1403.5C 627.5,1406.5 627.5,1409.5 627.5,1412.5C 616.833,1412.5 606.167,1412.5 595.5,1412.5C 595.182,1422.08 595.515,1431.58 596.5,1441C 603.5,1441.67 610.5,1441.67 617.5,1441C 618,1440.5 618.5,1440 619,1439.5C 619.325,1435.38 620.159,1431.38 621.5,1427.5C 623.5,1428.5 625.5,1429.5 627.5,1430.5C 630.458,1447.04 623.624,1453.71 607,1450.5C 602.5,1450.33 598,1450.17 593.5,1450C 591.152,1449.65 589.319,1448.49 588,1446.5C 586.567,1435.24 586.067,1423.91 586.5,1412.5C 580.5,1412.5 574.5,1412.5 568.5,1412.5C 568.176,1421.8 565.676,1430.46 561,1438.5C 553.296,1445.94 544.129,1450.6 533.5,1452.5C 531.957,1449.91 530.291,1447.41 528.5,1445C 547.385,1442.45 557.718,1431.78 559.5,1413C 549.839,1412.5 540.172,1412.33 530.5,1412.5C 530.5,1409.5 530.5,1406.5 530.5,1403.5 Z"/></g>
<g><path style="opacity:0.869" fill="#000000" d="M 645.5,1410.5 C 673.833,1410.5 702.167,1410.5 730.5,1410.5C 730.5,1413.17 730.5,1415.83 730.5,1418.5C 717.833,1418.5 705.167,1418.5 692.5,1418.5C 692.5,1420.83 692.5,1423.17 692.5,1425.5C 702.833,1425.5 713.167,1425.5 723.5,1425.5C 723.5,1428.17 723.5,1430.83 723.5,1433.5C 713.167,1433.5 702.833,1433.5 692.5,1433.5C 692.5,1436.17 692.5,1438.83 692.5,1441.5C 707.5,1441.5 722.5,1441.5 737.5,1441.5C 737.5,1444.17 737.5,1446.83 737.5,1449.5C 704.5,1449.5 671.5,1449.5 638.5,1449.5C 638.5,1446.83 638.5,1444.17 638.5,1441.5C 644.5,1441.5 650.5,1441.5 656.5,1441.5C 656.5,1435.5 656.5,1429.5 656.5,1423.5C 659.167,1423.5 661.833,1423.5 664.5,1423.5C 664.5,1429.5 664.5,1435.5 664.5,1441.5C 670.833,1441.5 677.167,1441.5 683.5,1441.5C 683.5,1433.83 683.5,1426.17 683.5,1418.5C 670.833,1418.5 658.167,1418.5 645.5,1418.5C 645.5,1415.83 645.5,1413.17 645.5,1410.5 Z"/></g>
<g><path style="opacity:0.817" fill="#000000" d="M 73.5,1420.5 C 74.9311,1420.88 75.7645,1421.88 76,1423.5C 77.6333,1430.69 78.1333,1437.86 77.5,1445C 75.7818,1445.35 74.1151,1445.85 72.5,1446.5C 70.9212,1438.2 69.5879,1429.87 68.5,1421.5C 70.4147,1421.78 72.0813,1421.45 73.5,1420.5 Z"/></g>
<g><path style="opacity:0.825" fill="#000000" d="M 57.5,1421.5 C 59.5273,1421.34 61.5273,1421.5 63.5,1422C 64.0968,1423.06 64.4302,1424.23 64.5,1425.5C 63.5262,1431.87 62.3596,1438.2 61,1444.5C 59.4697,1450.24 56.6363,1450.74 52.5,1446C 54.872,1437.97 56.5387,1429.81 57.5,1421.5 Z"/></g>
<g><path style="opacity:0.987" fill="#d8d8d9" d="M 1027.5,1648.5 C 1950.17,1648.33 2872.83,1648.5 3795.5,1649C 3847.41,1653.25 3879.25,1680.75 3891,1731.5C 3896.39,1783.24 3875.56,1819.74 3828.5,1841C 3818.8,1844.51 3808.8,1846.51 3798.5,1847C 2873.83,1847.67 1949.17,1847.67 1024.5,1847C 982.588,1843.3 953.421,1822.14 937,1783.5C 923.261,1740.29 932.761,1703.12 965.5,1672C 983.708,1657.54 1004.37,1649.71 1027.5,1648.5 Z"/></g>
<g><path style="opacity:1" fill="#4fbafe" d="M 2756.5,1658.5 C 2968.86,1658.01 3181.19,1658.51 3393.5,1660C 3432.05,1670.61 3455.55,1695.44 3464,1734.5C 3468.81,1781.4 3450.31,1815.23 3408.5,1836C 3400.4,1839.15 3392.06,1841.48 3383.5,1843C 3176.17,1843.67 2968.83,1843.67 2761.5,1843C 2716.87,1835.04 2690.04,1808.87 2681,1764.5C 2676.81,1725.4 2690.64,1694.56 2722.5,1672C 2733.22,1665.6 2744.55,1661.1 2756.5,1658.5 Z"/></g>
<g><path style="opacity:0.828" fill="#000000" d="M 397.5,1696.5 C 401.444,1700.64 404.444,1705.47 406.5,1711C 405.048,1712.56 403.381,1713.9 401.5,1715C 406.823,1715.5 412.156,1715.67 417.5,1715.5C 417.5,1718.17 417.5,1720.83 417.5,1723.5C 405.5,1723.5 393.5,1723.5 381.5,1723.5C 381.5,1720.83 381.5,1718.17 381.5,1715.5C 387.509,1715.67 393.509,1715.5 399.5,1715C 396.817,1710.32 394.15,1705.66 391.5,1701C 393.358,1699.25 395.358,1697.75 397.5,1696.5 Z"/></g>
<g><path style="opacity:0.839" fill="#000000" d="M 72.5,1697.5 C 75.4665,1697.99 78.1332,1699.16 80.5,1701C 75.999,1710.83 70.6656,1720.16 64.5,1729C 67.833,1729.11 71.1663,1728.78 74.5,1728C 77.267,1723.3 79.6003,1718.47 81.5,1713.5C 84.0046,1713.98 86.3379,1714.98 88.5,1716.5C 89.5827,1717.36 89.7494,1718.36 89,1719.5C 82.6755,1731.48 75.1755,1742.65 66.5,1753C 71.7441,1752.37 77.0775,1751.87 82.5,1751.5C 82.0946,1748.01 81.0946,1744.68 79.5,1741.5C 83.2441,1737.75 86.0774,1738.08 88,1742.5C 90.2322,1747.86 92.0656,1753.36 93.5,1759C 92.3136,1761.43 90.3136,1762.6 87.5,1762.5C 89.2894,1769.87 91.2894,1777.2 93.5,1784.5C 91.7962,1786.85 89.4629,1787.85 86.5,1787.5C 84.9693,1780.38 82.9693,1773.38 80.5,1766.5C 82.1792,1765.22 84.0126,1764.22 86,1763.5C 86.3247,1761.45 85.9913,1759.45 85,1757.5C 75.4713,1759.23 65.9713,1761.23 56.5,1763.5C 54.7547,1761.04 53.9214,1758.37 54,1755.5C 59.5533,1750.05 64.3866,1744.05 68.5,1737.5C 67.8333,1737.17 67.1667,1736.83 66.5,1736.5C 62.5271,1737.38 58.5271,1738.05 54.5,1738.5C 54.2437,1736.06 53.5771,1733.73 52.5,1731.5C 61.1935,1721.46 67.8602,1710.13 72.5,1697.5 Z"/></g>
<g><path style="opacity:0.823" fill="#000000" d="M 183.5,1697.5 C 187.25,1702.66 190.25,1708.33 192.5,1714.5C 190.631,1715.62 188.631,1716.46 186.5,1717C 193.158,1717.5 199.825,1717.67 206.5,1717.5C 206.5,1720.5 206.5,1723.5 206.5,1726.5C 192.167,1726.5 177.833,1726.5 163.5,1726.5C 163.5,1723.5 163.5,1720.5 163.5,1717.5C 170.2,1717.83 176.866,1717.5 183.5,1716.5C 181.556,1711 179.222,1705.67 176.5,1700.5C 178.875,1699.34 181.208,1698.34 183.5,1697.5 Z"/></g>
<g><path style="opacity:0.938" fill="#000000" d="M 225.5,1697.5 C 228.5,1697.5 231.5,1697.5 234.5,1697.5C 234.5,1704.83 234.5,1712.17 234.5,1719.5C 243.833,1719.5 253.167,1719.5 262.5,1719.5C 262.5,1722.5 262.5,1725.5 262.5,1728.5C 253.167,1728.5 243.833,1728.5 234.5,1728.5C 234.5,1735.5 234.5,1742.5 234.5,1749.5C 242.167,1749.5 249.833,1749.5 257.5,1749.5C 257.5,1765.5 257.5,1781.5 257.5,1797.5C 254.5,1797.5 251.5,1797.5 248.5,1797.5C 248.5,1795.83 248.5,1794.17 248.5,1792.5C 237.833,1792.5 227.167,1792.5 216.5,1792.5C 216.5,1794.17 216.5,1795.83 216.5,1797.5C 213.833,1797.5 211.167,1797.5 208.5,1797.5C 208.5,1781.5 208.5,1765.5 208.5,1749.5C 214.167,1749.5 219.833,1749.5 225.5,1749.5C 225.5,1732.17 225.5,1714.83 225.5,1697.5 Z M 216.5,1757.5 C 227.167,1757.5 237.833,1757.5 248.5,1757.5C 248.5,1766.5 248.5,1775.5 248.5,1784.5C 237.833,1784.5 227.167,1784.5 216.5,1784.5C 216.5,1775.5 216.5,1766.5 216.5,1757.5 Z"/></g>
<g><path style="opacity:0.912" fill="#000000" d="M 359.5,1697.5 C 362.167,1697.5 364.833,1697.5 367.5,1697.5C 367.667,1729.17 367.5,1760.84 367,1792.5C 366.535,1793.93 365.701,1795.1 364.5,1796C 358.251,1797.54 351.917,1797.87 345.5,1797C 344.5,1794.67 343.5,1792.33 342.5,1790C 348.083,1789.81 353.583,1789.31 359,1788.5C 359.5,1758.17 359.667,1727.84 359.5,1697.5 Z"/></g>
<g><path style="opacity:0.868" fill="#000000" d="M 450.5,1697.5 C 453.5,1697.5 456.5,1697.5 459.5,1697.5C 459.205,1704.23 459.538,1710.89 460.5,1717.5C 467.468,1718.5 474.468,1718.83 481.5,1718.5C 481.5,1721.5 481.5,1724.5 481.5,1727.5C 474.5,1727.5 467.5,1727.5 460.5,1727.5C 460.706,1746.48 463.206,1765.15 468,1783.5C 468.837,1785.84 470.171,1787.84 472,1789.5C 473.733,1783.63 474.899,1777.63 475.5,1771.5C 477.193,1773.03 479.027,1774.36 481,1775.5C 481.92,1783.23 480.42,1790.4 476.5,1797C 471.124,1799.32 466.624,1798.15 463,1793.5C 457.975,1782.38 454.975,1770.72 454,1758.5C 452.937,1748.18 452.104,1737.85 451.5,1727.5C 440.833,1727.5 430.167,1727.5 419.5,1727.5C 419.5,1724.5 419.5,1721.5 419.5,1718.5C 430.167,1718.5 440.833,1718.5 451.5,1718.5C 451.227,1711.5 450.894,1704.5 450.5,1697.5 Z"/></g>
<g><path style="opacity:0.805" fill="#000000" d="M 279.5,1698.5 C 286.476,1700.74 292.642,1704.41 298,1709.5C 297.427,1711.8 296.26,1713.97 294.5,1716C 293.5,1716.67 292.5,1716.67 291.5,1716C 286.766,1711.88 281.599,1708.38 276,1705.5C 276.798,1703.14 277.965,1700.81 279.5,1698.5 Z"/></g>
<g><path style="opacity:0.783" fill="#000000" d="M 466.5,1699.5 C 468.371,1699.86 469.871,1700.86 471,1702.5C 473.5,1706.17 476,1709.83 478.5,1713.5C 476.309,1716.28 473.642,1717.28 470.5,1716.5C 467.89,1711.89 464.89,1707.56 461.5,1703.5C 463.21,1702.11 464.877,1700.78 466.5,1699.5 Z"/></g>
<g><path style="opacity:0.911" fill="#000000" d="M 94.5,1702.5 C 113.167,1702.5 131.833,1702.5 150.5,1702.5C 150.667,1732.84 150.5,1763.17 150,1793.5C 149.5,1795.33 148.333,1796.5 146.5,1797C 142.822,1797.42 139.155,1797.92 135.5,1798.5C 134.5,1798.17 133.5,1797.83 132.5,1797.5C 131.518,1794.9 130.851,1792.24 130.5,1789.5C 134.5,1789.5 138.5,1789.5 142.5,1789.5C 142.5,1763.17 142.5,1736.83 142.5,1710.5C 129.167,1710.5 115.833,1710.5 102.5,1710.5C 102.5,1739.83 102.5,1769.17 102.5,1798.5C 99.8333,1798.5 97.1667,1798.5 94.5,1798.5C 94.5,1766.5 94.5,1734.5 94.5,1702.5 Z"/></g>
<g><path style="opacity:0.87" fill="#000000" d="M 300.5,1702.5 C 311.5,1702.5 322.5,1702.5 333.5,1702.5C 333.5,1725.5 333.5,1748.5 333.5,1771.5C 322.5,1771.5 311.5,1771.5 300.5,1771.5C 300.5,1748.5 300.5,1725.5 300.5,1702.5 Z M 308.5,1710.5 C 313.833,1710.5 319.167,1710.5 324.5,1710.5C 324.5,1714.5 324.5,1718.5 324.5,1722.5C 319.167,1722.5 313.833,1722.5 308.5,1722.5C 308.5,1718.5 308.5,1714.5 308.5,1710.5 Z M 308.5,1730.5 C 313.833,1730.5 319.167,1730.5 324.5,1730.5C 324.5,1734.5 324.5,1738.5 324.5,1742.5C 319.167,1742.5 313.833,1742.5 308.5,1742.5C 308.5,1738.5 308.5,1734.5 308.5,1730.5 Z M 308.5,1750.5 C 313.833,1750.5 319.167,1750.5 324.5,1750.5C 324.5,1754.83 324.5,1759.17 324.5,1763.5C 319.167,1763.5 313.833,1763.5 308.5,1763.5C 308.5,1759.17 308.5,1754.83 308.5,1750.5 Z"/></g>
<g><path style="opacity:0.894" fill="#000000" d="M 340.5,1708.5 C 343.167,1708.5 345.833,1708.5 348.5,1708.5C 348.5,1729.5 348.5,1750.5 348.5,1771.5C 345.833,1771.5 343.167,1771.5 340.5,1771.5C 340.5,1750.5 340.5,1729.5 340.5,1708.5 Z"/></g>
<g><path style="opacity:0.839" fill="#000000" d="M 112.5,1712.5 C 116.424,1716.37 118.757,1721.2 119.5,1727C 119.245,1728.33 118.578,1729.33 117.5,1730C 120.227,1730.82 122.894,1730.65 125.5,1729.5C 127.251,1723.75 129.084,1718.08 131,1712.5C 133.071,1713.52 135.238,1714.36 137.5,1715C 135.941,1719.84 134.274,1724.68 132.5,1729.5C 135.428,1730.48 138.428,1730.82 141.5,1730.5C 141.5,1733.17 141.5,1735.83 141.5,1738.5C 135.491,1738.33 129.491,1738.5 123.5,1739C 125.235,1741.64 126.568,1744.47 127.5,1747.5C 126.975,1748.19 126.308,1748.69 125.5,1749C 130.155,1749.5 134.821,1749.67 139.5,1749.5C 139.5,1751.83 139.5,1754.17 139.5,1756.5C 132.167,1756.5 124.833,1756.5 117.5,1756.5C 117.5,1760.83 117.5,1765.17 117.5,1769.5C 124.833,1769.5 132.167,1769.5 139.5,1769.5C 139.993,1771.81 140.326,1774.14 140.5,1776.5C 131.161,1776.67 121.827,1776.5 112.5,1776C 111.299,1775.1 110.465,1773.93 110,1772.5C 109.501,1767.18 109.334,1761.84 109.5,1756.5C 108.167,1756.5 106.833,1756.5 105.5,1756.5C 105.5,1754.17 105.5,1751.83 105.5,1749.5C 110.167,1749.5 114.833,1749.5 119.5,1749.5C 118.866,1746.06 117.533,1742.9 115.5,1740C 116.167,1739.67 116.833,1739.33 117.5,1739C 113.179,1738.5 108.846,1738.33 104.5,1738.5C 104.5,1735.83 104.5,1733.17 104.5,1730.5C 107.572,1730.82 110.572,1730.48 113.5,1729.5C 111.979,1724.96 110.312,1720.46 108.5,1716C 109.347,1714.23 110.68,1713.06 112.5,1712.5 Z"/></g>
<g><path style="opacity:0.816" fill="#000000" d="M 274.5,1727.5 C 281.959,1729.45 288.626,1732.95 294.5,1738C 292.789,1740.59 290.955,1743.09 289,1745.5C 283.253,1741.04 277.086,1737.21 270.5,1734C 272.085,1731.93 273.419,1729.76 274.5,1727.5 Z"/></g>
<g><path style="opacity:0.86" fill="#000000" d="M 193.5,1728.5 C 195.746,1729.21 198.08,1729.71 200.5,1730C 201.097,1731.06 201.43,1732.23 201.5,1733.5C 199.292,1745.87 196.959,1758.2 194.5,1770.5C 198.136,1769.67 201.803,1769.01 205.5,1768.5C 206.523,1771.39 206.523,1774.23 205.5,1777C 192.075,1780.19 178.741,1783.69 165.5,1787.5C 163.302,1784.56 162.635,1781.39 163.5,1778C 171.091,1776.39 178.591,1774.56 186,1772.5C 189.199,1757.94 191.699,1743.27 193.5,1728.5 Z"/></g>
<g><path style="opacity:0.849" fill="#000000" d="M 170.5,1730.5 C 172.766,1730.14 174.599,1730.81 176,1732.5C 178.489,1745.08 180.322,1757.75 181.5,1770.5C 178.794,1770.58 176.127,1770.91 173.5,1771.5C 172.488,1759.09 170.822,1746.75 168.5,1734.5C 168.803,1732.89 169.47,1731.55 170.5,1730.5 Z"/></g>
<g><path style="opacity:0.899" fill="#000000" d="M 385.5,1730.5 C 395.5,1730.5 405.5,1730.5 415.5,1730.5C 415.5,1732.83 415.5,1735.17 415.5,1737.5C 405.5,1737.5 395.5,1737.5 385.5,1737.5C 385.5,1735.17 385.5,1732.83 385.5,1730.5 Z"/></g>
<g><path style="opacity:0.841" fill="#000000" d="M 418.5,1741.5 C 428.833,1741.5 439.167,1741.5 449.5,1741.5C 449.5,1744.5 449.5,1747.5 449.5,1750.5C 445.833,1750.5 442.167,1750.5 438.5,1750.5C 438.169,1758.86 438.502,1767.19 439.5,1775.5C 444.046,1774.24 448.546,1772.91 453,1771.5C 453.995,1774.13 454.328,1776.79 454,1779.5C 442.373,1783.54 430.539,1786.88 418.5,1789.5C 417.833,1786.5 417.167,1783.5 416.5,1780.5C 420.833,1779.83 425.167,1779.17 429.5,1778.5C 429.5,1769.17 429.5,1759.83 429.5,1750.5C 425.833,1750.5 422.167,1750.5 418.5,1750.5C 418.5,1747.5 418.5,1744.5 418.5,1741.5 Z"/></g>
<g><path style="opacity:0.907" fill="#000000" d="M 385.5,1744.5 C 395.5,1744.5 405.5,1744.5 415.5,1744.5C 415.5,1746.83 415.5,1749.17 415.5,1751.5C 405.5,1751.5 395.5,1751.5 385.5,1751.5C 385.5,1749.17 385.5,1746.83 385.5,1744.5 Z"/></g>
<g><path style="opacity:0.84" fill="#000000" d="M 287.5,1756.5 C 290.876,1757.39 293.543,1759.22 295.5,1762C 291.684,1774.12 286.684,1785.62 280.5,1796.5C 277.343,1795.6 275.009,1793.77 273.5,1791C 279.056,1779.82 283.723,1768.32 287.5,1756.5 Z"/></g>
<g><path style="opacity:0.873" fill="#000000" d="M 385.5,1758.5 C 395.5,1758.5 405.5,1758.5 415.5,1758.5C 415.5,1769.5 415.5,1780.5 415.5,1791.5C 408.167,1791.5 400.833,1791.5 393.5,1791.5C 393.5,1793.17 393.5,1794.83 393.5,1796.5C 390.833,1796.5 388.167,1796.5 385.5,1796.5C 385.5,1783.83 385.5,1771.17 385.5,1758.5 Z M 393.5,1766.5 C 398.167,1766.5 402.833,1766.5 407.5,1766.5C 407.5,1772.17 407.5,1777.83 407.5,1783.5C 402.833,1783.5 398.167,1783.5 393.5,1783.5C 393.5,1777.83 393.5,1772.17 393.5,1766.5 Z"/></g>
<g><path style="opacity:0.812" fill="#000000" d="M 72.5,1766.5 C 73.5,1766.5 74.5,1766.5 75.5,1766.5C 77.2278,1774.42 78.0611,1782.42 78,1790.5C 76.2151,1791.24 74.3817,1791.91 72.5,1792.5C 71.0209,1784.19 69.6875,1775.85 68.5,1767.5C 70.099,1767.77 71.4324,1767.43 72.5,1766.5 Z"/></g>
<g><path style="opacity:0.825" fill="#000000" d="M 57.5,1767.5 C 59.8333,1767.5 62.1667,1767.5 64.5,1767.5C 64.1514,1777.25 62.1514,1786.58 58.5,1795.5C 56.0671,1794.98 54.0671,1793.81 52.5,1792C 54.872,1783.97 56.5387,1775.81 57.5,1767.5 Z"/></g>
<g><path style="opacity:0.81" fill="#000000" d="M 304.5,1772.5 C 307.785,1772.74 310.785,1773.74 313.5,1775.5C 309.693,1784.29 304.359,1791.96 297.5,1798.5C 294.991,1797.08 292.657,1795.41 290.5,1793.5C 296.788,1787.55 301.454,1780.55 304.5,1772.5 Z"/></g>
<g><path style="opacity:0.794" fill="#000000" d="M 324.5,1772.5 C 326.39,1772.3 327.89,1772.96 329,1774.5C 332.695,1779.36 336.195,1784.36 339.5,1789.5C 337.343,1791.41 335.009,1793.08 332.5,1794.5C 328.657,1788.15 324.323,1782.15 319.5,1776.5C 321.21,1775.11 322.877,1773.78 324.5,1772.5 Z"/></g>
<g><path style="opacity:0.991" fill="#d8d8d9" d="M 3799.5,2001.5 C 3692,2002.33 3584.33,2002.83 3476.5,2003C 3436.14,2013.69 3411.97,2039.53 3404,2080.5C 3400.65,2128.99 3421.15,2162.82 3465.5,2182C 3470.75,2183.65 3476.09,2184.98 3481.5,2186C 3586.83,2186.67 3692.17,2186.67 3797.5,2186C 3835.56,2180.44 3861.23,2159.6 3874.5,2123.5C 3874.83,2123.5 3875.17,2123.5 3875.5,2123.5C 3862.75,2162.41 3836.09,2184.91 3795.5,2191C 2866.83,2191.67 1938.17,2191.67 1009.5,2191C 963.085,2183.39 935.252,2156.55 926,2110.5C 921.71,2069.92 936.21,2038.09 969.5,2015C 983.313,2006.51 998.313,2001.84 1014.5,2001C 1942.84,2000.17 2871.18,2000.34 3799.5,2001.5 Z"/></g>
<g><path style="opacity:0.999" fill="#4fbafe" d="M 3799.5,2001.5 C 3837.7,2008.2 3863.2,2029.87 3876,2066.5C 3879.13,2079.64 3880.3,2092.97 3879.5,2106.5C 3877.47,2111.94 3875.8,2117.61 3874.5,2123.5C 3861.23,2159.6 3835.56,2180.44 3797.5,2186C 3692.17,2186.67 3586.83,2186.67 3481.5,2186C 3476.09,2184.98 3470.75,2183.65 3465.5,2182C 3421.15,2162.82 3400.65,2128.99 3404,2080.5C 3411.97,2039.53 3436.14,2013.69 3476.5,2003C 3584.33,2002.83 3692,2002.33 3799.5,2001.5 Z"/></g>
<g><path style="opacity:0.841" fill="#000000" d="M 72.5,2043.5 C 75.5158,2043.84 78.1825,2045.01 80.5,2047C 75.999,2056.83 70.6656,2066.16 64.5,2075C 67.833,2075.11 71.1663,2074.78 74.5,2074C 77.267,2069.3 79.6003,2064.47 81.5,2059.5C 84.0046,2059.98 86.3379,2060.98 88.5,2062.5C 89.5827,2063.36 89.7494,2064.36 89,2065.5C 82.951,2077.11 75.7843,2087.94 67.5,2098C 72.4884,2098.09 77.4884,2097.92 82.5,2097.5C 82.0946,2094.01 81.0946,2090.68 79.5,2087.5C 81.6684,2085.55 84.0017,2084.88 86.5,2085.5C 89.4251,2091.61 91.7585,2097.94 93.5,2104.5C 92.2432,2107.96 89.9098,2108.96 86.5,2107.5C 85.9017,2106.21 85.4017,2104.87 85,2103.5C 75.4713,2105.23 65.9713,2107.23 56.5,2109.5C 55.3076,2107.26 54.3076,2104.93 53.5,2102.5C 59.2228,2096.71 64.2228,2090.38 68.5,2083.5C 67.8333,2083.17 67.1667,2082.83 66.5,2082.5C 62.5271,2083.38 58.5271,2084.05 54.5,2084.5C 54.2437,2082.06 53.5771,2079.73 52.5,2077.5C 61.1935,2067.46 67.8602,2056.13 72.5,2043.5 Z"/></g>
<g><path style="opacity:0.823" fill="#000000" d="M 182.5,2043.5 C 183.496,2043.41 184.329,2043.75 185,2044.5C 187.773,2049.71 190.273,2055.05 192.5,2060.5C 190.631,2061.62 188.631,2062.46 186.5,2063C 193.158,2063.5 199.825,2063.67 206.5,2063.5C 206.5,2066.5 206.5,2069.5 206.5,2072.5C 192.167,2072.5 177.833,2072.5 163.5,2072.5C 163.5,2069.5 163.5,2066.5 163.5,2063.5C 170.2,2063.83 176.866,2063.5 183.5,2062.5C 181.717,2056.93 179.383,2051.6 176.5,2046.5C 178.594,2045.48 180.594,2044.48 182.5,2043.5 Z"/></g>
<g><path style="opacity:0.937" fill="#000000" d="M 225.5,2043.5 C 228.5,2043.5 231.5,2043.5 234.5,2043.5C 234.5,2050.83 234.5,2058.17 234.5,2065.5C 243.833,2065.5 253.167,2065.5 262.5,2065.5C 262.5,2068.5 262.5,2071.5 262.5,2074.5C 253.167,2074.5 243.833,2074.5 234.5,2074.5C 234.5,2081.5 234.5,2088.5 234.5,2095.5C 242.167,2095.5 249.833,2095.5 257.5,2095.5C 257.5,2111.5 257.5,2127.5 257.5,2143.5C 254.5,2143.5 251.5,2143.5 248.5,2143.5C 248.5,2141.83 248.5,2140.17 248.5,2138.5C 237.833,2138.5 227.167,2138.5 216.5,2138.5C 216.5,2140.17 216.5,2141.83 216.5,2143.5C 213.833,2143.5 211.167,2143.5 208.5,2143.5C 208.5,2127.5 208.5,2111.5 208.5,2095.5C 214.167,2095.5 219.833,2095.5 225.5,2095.5C 225.5,2078.17 225.5,2060.83 225.5,2043.5 Z M 216.5,2103.5 C 227.167,2103.5 237.833,2103.5 248.5,2103.5C 248.5,2112.5 248.5,2121.5 248.5,2130.5C 237.833,2130.5 227.167,2130.5 216.5,2130.5C 216.5,2121.5 216.5,2112.5 216.5,2103.5 Z"/></g>
<g><path style="opacity:0.866" fill="#000000" d="M 399.5,2043.5 C 402.5,2043.5 405.5,2043.5 408.5,2043.5C 407.886,2047.14 407.552,2050.8 407.5,2054.5C 414.833,2054.5 422.167,2054.5 429.5,2054.5C 429.332,2061.85 428.832,2069.19 428,2076.5C 427.641,2090.6 420.474,2095.93 406.5,2092.5C 405.833,2089.5 405.167,2086.5 404.5,2083.5C 407.002,2083.75 409.502,2084.08 412,2084.5C 414.145,2084.6 415.979,2083.94 417.5,2082.5C 419.317,2075.97 420.317,2069.3 420.5,2062.5C 415.833,2062.5 411.167,2062.5 406.5,2062.5C 405.281,2077.29 398.281,2088.29 385.5,2095.5C 383.712,2093.21 381.712,2091.04 379.5,2089C 389.556,2083.4 395.556,2074.9 397.5,2063.5C 392.208,2062.51 386.875,2062.17 381.5,2062.5C 381.5,2059.83 381.5,2057.17 381.5,2054.5C 387.167,2054.5 392.833,2054.5 398.5,2054.5C 398.552,2050.8 398.886,2047.14 399.5,2043.5 Z"/></g>
<g><path style="opacity:0.918" fill="#000000" d="M 313.5,2044.5 C 316.5,2044.5 319.5,2044.5 322.5,2044.5C 322.5,2055.83 322.5,2067.17 322.5,2078.5C 336.167,2078.5 349.833,2078.5 363.5,2078.5C 363.5,2081.5 363.5,2084.5 363.5,2087.5C 349.833,2087.5 336.167,2087.5 322.5,2087.5C 322.5,2101.5 322.5,2115.5 322.5,2129.5C 338.5,2129.5 354.5,2129.5 370.5,2129.5C 370.5,2132.5 370.5,2135.5 370.5,2138.5C 337.833,2138.5 305.167,2138.5 272.5,2138.5C 272.5,2135.5 272.5,2132.5 272.5,2129.5C 286.167,2129.5 299.833,2129.5 313.5,2129.5C 313.5,2101.17 313.5,2072.83 313.5,2044.5 Z"/></g>
<g><path style="opacity:0.914" fill="#000000" d="M 94.5,2048.5 C 113.167,2048.5 131.833,2048.5 150.5,2048.5C 150.667,2078.84 150.5,2109.17 150,2139.5C 149.5,2141.33 148.333,2142.5 146.5,2143C 142.113,2143.23 137.779,2143.73 133.5,2144.5C 131.736,2141.79 130.736,2138.79 130.5,2135.5C 134.5,2135.5 138.5,2135.5 142.5,2135.5C 142.5,2109.17 142.5,2082.83 142.5,2056.5C 129.167,2056.5 115.833,2056.5 102.5,2056.5C 102.5,2085.83 102.5,2115.17 102.5,2144.5C 99.8333,2144.5 97.1667,2144.5 94.5,2144.5C 94.5,2112.5 94.5,2080.5 94.5,2048.5 Z"/></g>
<g><path style="opacity:0.905" fill="#000000" d="M 436.5,2052.5 C 449.5,2052.5 462.5,2052.5 475.5,2052.5C 475.5,2064.83 475.5,2077.17 475.5,2089.5C 462.5,2089.5 449.5,2089.5 436.5,2089.5C 436.5,2077.17 436.5,2064.83 436.5,2052.5 Z M 445.5,2060.5 C 452.5,2060.5 459.5,2060.5 466.5,2060.5C 466.5,2067.5 466.5,2074.5 466.5,2081.5C 459.5,2081.5 452.5,2081.5 445.5,2081.5C 445.5,2074.5 445.5,2067.5 445.5,2060.5 Z"/></g>
<g><path style="opacity:0.821" fill="#000000" d="M 112.5,2058.5 C 116.424,2062.37 118.757,2067.2 119.5,2073C 119.245,2074.33 118.578,2075.33 117.5,2076C 120.227,2076.82 122.894,2076.65 125.5,2075.5C 127.251,2069.75 129.084,2064.08 131,2058.5C 133.071,2059.52 135.238,2060.36 137.5,2061C 135.941,2065.84 134.274,2070.68 132.5,2075.5C 135.428,2076.48 138.428,2076.82 141.5,2076.5C 141.5,2079.17 141.5,2081.83 141.5,2084.5C 135.491,2084.33 129.491,2084.5 123.5,2085C 125.235,2087.64 126.568,2090.47 127.5,2093.5C 131.445,2094.49 135.445,2094.82 139.5,2094.5C 139.5,2097.17 139.5,2099.83 139.5,2102.5C 132.167,2102.5 124.833,2102.5 117.5,2102.5C 117.5,2106.83 117.5,2111.17 117.5,2115.5C 124.833,2115.5 132.167,2115.5 139.5,2115.5C 139.993,2117.81 140.326,2120.14 140.5,2122.5C 130.727,2122.95 121.061,2122.45 111.5,2121C 110.874,2120.25 110.374,2119.42 110,2118.5C 109.501,2113.18 109.334,2107.84 109.5,2102.5C 108.167,2102.5 106.833,2102.5 105.5,2102.5C 105.5,2099.83 105.5,2097.17 105.5,2094.5C 110.214,2094.83 114.88,2094.49 119.5,2093.5C 118.294,2090.92 116.961,2088.42 115.5,2086C 115.833,2085.67 116.167,2085.33 116.5,2085C 112.514,2084.5 108.514,2084.33 104.5,2084.5C 104.5,2081.83 104.5,2079.17 104.5,2076.5C 107.572,2076.82 110.572,2076.48 113.5,2075.5C 111.979,2070.96 110.312,2066.46 108.5,2062C 109.347,2060.23 110.68,2059.06 112.5,2058.5 Z"/></g>
<g><path style="opacity:0.86" fill="#000000" d="M 193.5,2074.5 C 195.746,2075.21 198.08,2075.71 200.5,2076C 201.097,2077.06 201.43,2078.23 201.5,2079.5C 199.292,2091.87 196.959,2104.2 194.5,2116.5C 198.136,2115.67 201.803,2115.01 205.5,2114.5C 206.523,2117.39 206.523,2120.23 205.5,2123C 191.907,2126.27 178.407,2129.77 165,2133.5C 163.254,2130.4 162.754,2127.23 163.5,2124C 171.091,2122.39 178.591,2120.56 186,2118.5C 189.2,2103.93 191.7,2089.27 193.5,2074.5 Z"/></g>
<g><path style="opacity:0.847" fill="#000000" d="M 170.5,2076.5 C 172.766,2076.14 174.599,2076.81 176,2078.5C 178.535,2091.08 180.368,2103.74 181.5,2116.5C 178.794,2116.58 176.127,2116.91 173.5,2117.5C 172.488,2105.09 170.822,2092.75 168.5,2080.5C 168.803,2078.89 169.47,2077.55 170.5,2076.5 Z"/></g>
<g><path style="opacity:0.874" fill="#000000" d="M 425.5,2091.5 C 428.833,2091.5 432.167,2091.5 435.5,2091.5C 435.5,2095.17 435.5,2098.83 435.5,2102.5C 449.5,2102.5 463.5,2102.5 477.5,2102.5C 477.5,2105.17 477.5,2107.83 477.5,2110.5C 463.5,2110.5 449.5,2110.5 435.5,2110.5C 435.5,2121.83 435.5,2133.17 435.5,2144.5C 432.167,2144.5 428.833,2144.5 425.5,2144.5C 425.5,2133.17 425.5,2121.83 425.5,2110.5C 411.167,2110.5 396.833,2110.5 382.5,2110.5C 382.5,2107.83 382.5,2105.17 382.5,2102.5C 396.833,2102.5 411.167,2102.5 425.5,2102.5C 425.5,2098.83 425.5,2095.17 425.5,2091.5 Z"/></g>
<g><path style="opacity:0.797" fill="#000000" d="M 85.5,2109.5 C 86.4972,2109.47 87.1639,2109.97 87.5,2111C 89.8051,2117.41 91.8051,2123.91 93.5,2130.5C 91.7962,2132.85 89.4629,2133.85 86.5,2133.5C 84.9693,2126.38 82.9693,2119.38 80.5,2112.5C 82.1446,2111.3 83.8113,2110.3 85.5,2109.5 Z"/></g>
<g><path style="opacity:0.821" fill="#000000" d="M 72.5,2112.5 C 73.5,2112.5 74.5,2112.5 75.5,2112.5C 77.4006,2120.45 78.0672,2128.45 77.5,2136.5C 75.6183,2137.09 73.7849,2137.76 72,2138.5C 71.0145,2130.13 69.8479,2121.79 68.5,2113.5C 70.099,2113.77 71.4324,2113.43 72.5,2112.5 Z"/></g>
<g><path style="opacity:0.824" fill="#000000" d="M 447.5,2112.5 C 459,2118.42 469.667,2125.58 479.5,2134C 477.273,2136.93 474.606,2138.93 471.5,2140C 462.341,2131.93 452.674,2124.6 442.5,2118C 444.351,2116.32 446.017,2114.48 447.5,2112.5 Z"/></g>
<g><path style="opacity:0.825" fill="#000000" d="M 57.5,2113.5 C 59.8333,2113.5 62.1667,2113.5 64.5,2113.5C 64.1514,2123.25 62.1514,2132.58 58.5,2141.5C 56.0671,2140.98 54.0671,2139.81 52.5,2138C 54.872,2129.97 56.5387,2121.81 57.5,2113.5 Z"/></g>
<g><path style="opacity:0.823" fill="#000000" d="M 408.5,2113.5 C 411.947,2113.81 415.28,2114.65 418.5,2116C 410.494,2125.68 400.994,2133.51 390,2139.5C 387.677,2137.85 385.344,2136.18 383,2134.5C 382.312,2133.67 382.479,2133 383.5,2132.5C 393.296,2128.03 401.63,2121.7 408.5,2113.5 Z"/></g>
<g><path style="opacity:0.914" fill="#bad1e1" d="M 3879.5,2106.5 C 3878.9,2112.45 3877.57,2118.12 3875.5,2123.5C 3875.17,2123.5 3874.83,2123.5 3874.5,2123.5C 3875.8,2117.61 3877.47,2111.94 3879.5,2106.5 Z"/></g>
</svg>
