<svg id="Layer_1" data-name="Layer 1" xmlns="http://www.w3.org/2000/svg" viewBox="0 0 117.88 122.88"><defs><style>.cls-1{fill:#313131;}.cls-2{fill:#00a912;}.cls-2,.cls-3{fill-rule:evenodd;}.cls-3{fill:#fff;}</style></defs><title>email-received</title><path class="cls-1" d="M102.31,30.86,78,5.74V5.49H12.44V46h0L46.66,76.6l.15.14L58.36,87.06,105,46.36v-10l-2.64-5.49Zm8.13,10.71a3.59,3.59,0,0,1,2.43-.93,4,4,0,0,1,2.06.6,5.09,5.09,0,0,1,1.26,1.07,7.06,7.06,0,0,1,1.69,4.26v70.64a5.71,5.71,0,0,1-1.66,4h0a5.67,5.67,0,0,1-4,1.66H5.67a5.71,5.71,0,0,1-4-1.66h0a5.62,5.62,0,0,1-1.66-4V46.57a7.1,7.1,0,0,1,1.73-4.32,5.5,5.5,0,0,1,1.26-1,4,4,0,0,1,2-.58,3.59,3.59,0,0,1,2,.57V2.74A2.74,2.74,0,0,1,9.7,0H78.9A2.71,2.71,0,0,1,81,1l28.65,29.59a2.71,2.71,0,0,1,.78,1.9h0v.79c0,.11,0,.22,0,.34s0,.22,0,.33v7.63ZM56.52,92.74,44.9,82.36,5.49,116.9v.31a.17.17,0,0,0,0,.13h0a.22.22,0,0,0,.13,0H112.21a.22.22,0,0,0,.13,0h0a.17.17,0,0,0,0-.13V117L72.45,82,60.15,92.76h0a2.73,2.73,0,0,1-3.62,0Zm-15.73-14L5.49,47.15v62.48l35.3-30.94Zm71.6,31.06V47.12L76.6,78.39l35.79,31.36Z"/><path class="cls-2" d="M59.94,15.42A25.26,25.26,0,1,1,34.68,40.68,25.26,25.26,0,0,1,59.94,15.42Z"/><path class="cls-3" d="M52.1,36.66l4.47,4.23L67.16,30.17c.87-.89,1.42-1.61,2.5-.49l3.51,3.59c1.15,1.14,1.1,1.81,0,2.87L58.58,50.5c-2.29,2.25-1.89,2.39-4.22.08l-8.17-8.12a1,1,0,0,1,.1-1.58l4.07-4.22c.62-.65,1.11-.6,1.74,0Z"/></svg>