<svg xmlns="http://www.w3.org/2000/svg" viewBox="0 0 500 500"><g id="freepik--Envelope--inject-3"><polygon points="182.55 240.22 315.71 239.26 319.42 329.79 181.54 328.51 182.55 240.22" style="fill:#FFDC62"></polygon><polyline points="182.55 240.22 250.15 185.52 315.71 239.26" style="fill:#FFDC62"></polyline><g style="opacity:0.30000000000000004"><polyline points="182.55 240.22 250.15 185.52 315.71 239.26"></polyline></g><path d="M181.54,328.51c-.17-.15,10.49-11.79,23.81-26s24.24-25.59,24.41-25.43-10.49,11.79-23.81,26S181.71,328.67,181.54,328.51Z" style="fill:#263238"></path><path d="M319.42,329.79c-.17.15-10.55-11.25-23.18-25.47s-22.74-25.87-22.57-26,10.55,11.25,23.18,25.47S319.59,329.64,319.42,329.79Z" style="fill:#263238"></path><g style="opacity:0.5"><polyline points="315.71 239.26 248.84 292.68 182.55 240.22"></polyline></g><polygon points="189.26 245.17 189.06 206.44 305.69 203.58 306.96 245.96 248.84 291.98 189.26 245.17" style="fill:#ebebeb"></polygon><path d="M250.47,278.06a29,29,0,0,1-28.89-32.28,29,29,0,0,1,57.66,6.53h0a29,29,0,0,1-28.77,25.75Zm-.08-57a28,28,0,1,0,27.85,31.17h0a28,28,0,0,0-24.68-31A28.2,28.2,0,0,0,250.39,221Z" style="fill:#FFDC62"></path><polygon points="230.69 253.07 235.54 247.13 246.88 255.32 265.31 233.6 270.87 238.49 247.16 265.81 230.69 253.07" style="fill:#FFDC62"></polygon></g></svg>