<svg xmlns="http://www.w3.org/2000/svg" xmlns:xlink="http://www.w3.org/1999/xlink" width="1024" zoomAndPan="magnify" viewBox="0 0 768 576" height="768" preserveAspectRatio="xMidYMid meet" version="1.0"><defs><g/><clipPath id="995d99f019"><path d="M 189.988281 141.519531 L 749 141.519531 L 749 177.660156 L 189.988281 177.660156 Z M 189.988281 141.519531 " clip-rule="nonzero"/></clipPath><clipPath id="bfc92692f4"><path d="M 189.988281 159.710938 C 189.988281 154.949219 191.878906 150.382812 195.242188 147.019531 C 198.609375 143.652344 203.175781 141.761719 207.9375 141.761719 L 730.820312 141.761719 C 735.578125 141.761719 740.144531 143.652344 743.511719 147.019531 C 746.875 150.382812 748.769531 154.949219 748.769531 159.710938 C 748.769531 164.472656 746.875 169.035156 743.511719 172.402344 C 740.144531 175.769531 735.578125 177.660156 730.820312 177.660156 L 207.9375 177.660156 C 203.175781 177.660156 198.609375 175.769531 195.242188 172.402344 C 191.878906 169.035156 189.988281 164.472656 189.988281 159.710938 " clip-rule="nonzero"/></clipPath><clipPath id="d671935802"><path d="M 189.988281 141.515625 L 273 141.515625 L 273 177.65625 L 189.988281 177.65625 Z M 189.988281 141.515625 " clip-rule="nonzero"/></clipPath><clipPath id="75cc61b70c"><path d="M 189.988281 159.710938 C 189.988281 154.949219 191.878906 150.382812 195.246094 147.015625 C 198.613281 143.652344 203.175781 141.761719 207.9375 141.761719 L 254.527344 141.761719 C 259.285156 141.761719 263.851562 143.652344 267.21875 147.015625 C 270.585938 150.382812 272.476562 154.949219 272.476562 159.710938 C 272.476562 164.46875 270.585938 169.035156 267.21875 172.402344 C 263.851562 175.765625 259.285156 177.65625 254.527344 177.65625 L 207.9375 177.65625 C 203.175781 177.65625 198.613281 175.765625 195.246094 172.402344 C 191.878906 169.035156 189.988281 164.46875 189.988281 159.710938 " clip-rule="nonzero"/></clipPath><clipPath id="d001a0b1ed"><path d="M 189.984375 202.867188 L 749 202.867188 L 749 240.277344 L 189.984375 240.277344 Z M 189.984375 202.867188 " clip-rule="nonzero"/></clipPath><clipPath id="35e58ab2e9"><path d="M 189.984375 221.625 C 189.984375 211.320312 198.335938 202.96875 208.640625 202.96875 L 730.113281 202.96875 C 740.414062 202.96875 748.765625 211.320312 748.765625 221.625 C 748.765625 231.925781 740.414062 240.277344 730.113281 240.277344 L 208.640625 240.277344 C 198.335938 240.277344 189.984375 231.925781 189.984375 221.625 " clip-rule="nonzero"/></clipPath><clipPath id="33c43f79c3"><path d="M 261.261719 203 L 395 203 L 395 239.890625 L 261.261719 239.890625 Z M 261.261719 203 " clip-rule="nonzero"/></clipPath><clipPath id="e144c87d6a"><path d="M 261.261719 221.429688 C 261.261719 211.238281 269.527344 202.972656 279.71875 202.972656 L 376.074219 202.972656 C 386.269531 202.972656 394.535156 211.238281 394.535156 221.429688 C 394.535156 231.625 386.269531 239.890625 376.074219 239.890625 L 279.71875 239.890625 C 269.527344 239.890625 261.261719 231.625 261.261719 221.429688 " clip-rule="nonzero"/></clipPath><clipPath id="67be5a7394"><path d="M 189.984375 269.238281 L 749 269.238281 L 749 306.648438 L 189.984375 306.648438 Z M 189.984375 269.238281 " clip-rule="nonzero"/></clipPath><clipPath id="dc8c5a4562"><path d="M 189.984375 287.992188 C 189.984375 277.691406 198.335938 269.339844 208.640625 269.339844 L 730.113281 269.339844 C 740.414062 269.339844 748.765625 277.691406 748.765625 287.992188 C 748.765625 298.296875 740.414062 306.648438 730.113281 306.648438 L 208.640625 306.648438 C 198.335938 306.648438 189.984375 298.296875 189.984375 287.992188 " clip-rule="nonzero"/></clipPath><clipPath id="4df8980533"><path d="M 298.878906 269.238281 L 535 269.238281 L 535 306.648438 L 298.878906 306.648438 Z M 298.878906 269.238281 " clip-rule="nonzero"/></clipPath><clipPath id="bcaccbf54d"><path d="M 298.878906 287.996094 C 298.878906 277.695312 307.230469 269.34375 317.53125 269.34375 L 516.289062 269.34375 C 526.589844 269.34375 534.941406 277.695312 534.941406 287.996094 C 534.941406 298.296875 526.589844 306.648438 516.289062 306.648438 L 317.53125 306.648438 C 307.230469 306.648438 298.878906 298.296875 298.878906 287.996094 " clip-rule="nonzero"/></clipPath><clipPath id="7cf32cfb78"><path d="M 189.984375 401.40625 L 749 401.40625 L 749 438.816406 L 189.984375 438.816406 Z M 189.984375 401.40625 " clip-rule="nonzero"/></clipPath><clipPath id="af73abaa99"><path d="M 189.984375 420.160156 C 189.984375 409.859375 198.335938 401.507812 208.640625 401.507812 L 730.113281 401.507812 C 740.414062 401.507812 748.765625 409.859375 748.765625 420.160156 C 748.765625 430.464844 740.414062 438.816406 730.113281 438.816406 L 208.640625 438.816406 C 198.335938 438.816406 189.984375 430.464844 189.984375 420.160156 " clip-rule="nonzero"/></clipPath><clipPath id="e18b486f18"><path d="M 560.933594 401.40625 L 749 401.40625 L 749 438.816406 L 560.933594 438.816406 Z M 560.933594 401.40625 " clip-rule="nonzero"/></clipPath><clipPath id="ad3d5c0c7f"><path d="M 560.933594 420.164062 C 560.933594 409.863281 569.285156 401.511719 579.585938 401.511719 L 730.109375 401.511719 C 740.414062 401.511719 748.765625 409.863281 748.765625 420.164062 C 748.765625 430.464844 740.414062 438.816406 730.109375 438.816406 L 579.585938 438.816406 C 569.285156 438.816406 560.933594 430.464844 560.933594 420.164062 " clip-rule="nonzero"/></clipPath><clipPath id="3a3464cd6f"><path d="M 189.984375 335.792969 L 749 335.792969 L 749 373.203125 L 189.984375 373.203125 Z M 189.984375 335.792969 " clip-rule="nonzero"/></clipPath><clipPath id="6f4ed40c65"><path d="M 189.984375 354.550781 C 189.984375 344.246094 198.335938 335.898438 208.640625 335.898438 L 730.113281 335.898438 C 740.414062 335.898438 748.765625 344.246094 748.765625 354.550781 C 748.765625 364.851562 740.414062 373.203125 730.113281 373.203125 L 208.640625 373.203125 C 198.335938 373.203125 189.984375 364.851562 189.984375 354.550781 " clip-rule="nonzero"/></clipPath><clipPath id="4a76db1506"><path d="M 520.429688 336.542969 L 699 336.542969 L 699 373.953125 L 520.429688 373.953125 Z M 520.429688 336.542969 " clip-rule="nonzero"/></clipPath><clipPath id="681d90590a"><path d="M 520.429688 355.300781 C 520.429688 344.996094 528.78125 336.644531 539.082031 336.644531 L 680.191406 336.644531 C 690.492188 336.644531 698.84375 344.996094 698.84375 355.300781 C 698.84375 365.601562 690.492188 373.953125 680.191406 373.953125 L 539.082031 373.953125 C 528.78125 373.953125 520.429688 365.601562 520.429688 355.300781 " clip-rule="nonzero"/></clipPath></defs><g fill="#000000" fill-opacity="1"><g transform="translate(344.280072, 110.53142)"><g><path d="M 8.46875 -7.5625 C 9.332031 -7.320312 9.992188 -6.890625 10.453125 -6.265625 C 10.921875 -5.648438 11.15625 -4.890625 11.15625 -3.984375 C 11.15625 -2.703125 10.679688 -1.6875 9.734375 -0.9375 C 8.796875 -0.195312 7.523438 0.171875 5.921875 0.171875 C 4.929688 0.171875 3.976562 0.0195312 3.0625 -0.28125 C 2.144531 -0.59375 1.394531 -1.015625 0.8125 -1.546875 L 1.71875 -3.484375 C 3.019531 -2.472656 4.390625 -1.96875 5.828125 -1.96875 C 6.765625 -1.96875 7.460938 -2.148438 7.921875 -2.515625 C 8.378906 -2.890625 8.609375 -3.457031 8.609375 -4.21875 C 8.609375 -4.957031 8.375 -5.5 7.90625 -5.84375 C 7.4375 -6.195312 6.71875 -6.375 5.75 -6.375 L 3.796875 -6.375 L 3.796875 -8.515625 L 5.390625 -8.515625 C 7.285156 -8.515625 8.234375 -9.234375 8.234375 -10.671875 C 8.234375 -11.347656 8.023438 -11.863281 7.609375 -12.21875 C 7.203125 -12.582031 6.628906 -12.765625 5.890625 -12.765625 C 4.566406 -12.765625 3.242188 -12.253906 1.921875 -11.234375 L 1.03125 -13.171875 C 1.625 -13.703125 2.367188 -14.117188 3.265625 -14.421875 C 4.171875 -14.734375 5.097656 -14.890625 6.046875 -14.890625 C 7.492188 -14.890625 8.644531 -14.535156 9.5 -13.828125 C 10.363281 -13.117188 10.796875 -12.171875 10.796875 -10.984375 C 10.785156 -10.171875 10.578125 -9.460938 10.171875 -8.859375 C 9.765625 -8.265625 9.195312 -7.832031 8.46875 -7.5625 Z M 8.46875 -7.5625 "/></g></g></g><g fill="#000000" fill-opacity="1"><g transform="translate(356.67083, 110.53142)"><g><path d="M 5.640625 -6.320312 C 5.804688 -7.539062 5.867188 -8.71875 5.867188 -9.792969 L 15.304688 -9.792969 L 15.304688 -6.320312 Z M 15.304688 -14.6875 L 15.304688 -11.257812 L 5.867188 -11.257812 L 5.867188 -14.6875 Z M 16.898438 -16.195312 L 4.316406 -16.195312 L 4.316406 -9.875 C 4.316406 -6.589844 3.988281 -2.394531 0.703125 0.496094 C 1.011719 0.722656 1.632812 1.28125 1.839844 1.609375 C 3.84375 -0.144531 4.875 -2.480469 5.390625 -4.8125 L 15.304688 -4.8125 L 15.304688 -0.683594 C 15.304688 -0.226562 15.140625 -0.0820312 14.667969 -0.0625 C 14.191406 -0.0625 12.539062 -0.0429688 10.804688 -0.101562 C 11.070312 0.332031 11.359375 1.054688 11.464844 1.488281 C 13.675781 1.488281 15.039062 1.464844 15.824219 1.199219 C 16.585938 0.949219 16.898438 0.414062 16.898438 -0.660156 Z M 16.898438 -16.195312 "/></g></g></g><g fill="#000000" fill-opacity="1"><g transform="translate(440.888148, 110.53142)"><g><path d="M 11.890625 -4.953125 L 11.890625 -2.875 L 9.8125 -2.875 L 9.8125 0 L 7.203125 0 L 7.203125 -2.875 L 0.8125 -2.875 L 0.8125 -4.859375 L 7.6875 -14.703125 L 9.8125 -14.703125 L 9.8125 -4.953125 Z M 3.328125 -4.953125 L 7.203125 -4.953125 L 7.203125 -10.5625 Z M 3.328125 -4.953125 "/></g></g></g><g fill="#000000" fill-opacity="1"><g transform="translate(453.278907, 110.53142)"><g><path d="M 5.640625 -6.320312 C 5.804688 -7.539062 5.867188 -8.71875 5.867188 -9.792969 L 15.304688 -9.792969 L 15.304688 -6.320312 Z M 15.304688 -14.6875 L 15.304688 -11.257812 L 5.867188 -11.257812 L 5.867188 -14.6875 Z M 16.898438 -16.195312 L 4.316406 -16.195312 L 4.316406 -9.875 C 4.316406 -6.589844 3.988281 -2.394531 0.703125 0.496094 C 1.011719 0.722656 1.632812 1.28125 1.839844 1.609375 C 3.84375 -0.144531 4.875 -2.480469 5.390625 -4.8125 L 15.304688 -4.8125 L 15.304688 -0.683594 C 15.304688 -0.226562 15.140625 -0.0820312 14.667969 -0.0625 C 14.191406 -0.0625 12.539062 -0.0429688 10.804688 -0.101562 C 11.070312 0.332031 11.359375 1.054688 11.464844 1.488281 C 13.675781 1.488281 15.039062 1.464844 15.824219 1.199219 C 16.585938 0.949219 16.898438 0.414062 16.898438 -0.660156 Z M 16.898438 -16.195312 "/></g></g></g><g clip-path="url(#995d99f019)"><g clip-path="url(#bfc92692f4)"><path fill="#d9d9d9" d="M 189.988281 177.660156 L 189.988281 141.519531 L 748.597656 141.519531 L 748.597656 177.660156 Z M 189.988281 177.660156 " fill-opacity="1" fill-rule="nonzero"/></g></g><g clip-path="url(#d671935802)"><g clip-path="url(#75cc61b70c)"><path fill="#4fbaff" d="M 189.988281 177.65625 L 189.988281 141.515625 L 272.417969 141.515625 L 272.417969 177.65625 Z M 189.988281 177.65625 " fill-opacity="1" fill-rule="nonzero"/></g></g><g fill="#000000" fill-opacity="1"><g transform="translate(19.234037, 167.482903)"><g><path d="M 3.097656 -12.5 L 9.523438 -12.5 L 9.523438 -7.996094 L 11.011719 -7.996094 L 11.011719 -12.5 L 17.539062 -12.5 L 17.539062 -9.296875 L 19.046875 -9.296875 L 19.046875 -13.699219 L 11.011719 -13.699219 L 11.011719 -15.226562 L 18.097656 -15.226562 L 18.097656 -16.402344 L 2.519531 -16.402344 L 2.519531 -15.226562 L 9.523438 -15.226562 L 9.523438 -13.699219 L 1.632812 -13.699219 L 1.632812 -9.296875 L 3.097656 -9.296875 Z M 17.042969 -8.78125 C 15.90625 -9.171875 13.820312 -9.605469 12.25 -9.773438 L 11.878906 -8.84375 C 13.46875 -8.636719 15.578125 -8.140625 16.691406 -7.746094 Z M 16.050781 -12.230469 C 15.039062 -11.878906 13.324219 -11.238281 12.148438 -10.992188 L 12.683594 -10.207031 C 13.863281 -10.433594 15.535156 -10.867188 16.714844 -11.34375 Z M 3.988281 -11.300781 C 5.332031 -11.054688 7.042969 -10.515625 7.972656 -10.125 L 8.410156 -11.054688 C 7.480469 -11.445312 5.742188 -11.921875 4.441406 -12.128906 Z M 3.90625 -7.808594 C 5.269531 -8.058594 6.796875 -8.367188 8.410156 -8.699219 L 8.367188 -9.667969 C 6.507812 -9.398438 4.75 -9.132812 3.472656 -8.988281 Z M 19.335938 -6.117188 L 19.335938 -7.375 L 1.382812 -7.375 L 1.382812 -6.117188 L 9.378906 -6.117188 C 9.253906 -5.621094 9.089844 -5.101562 8.945312 -4.628906 L 2.996094 -4.628906 L 2.996094 1.550781 L 4.460938 1.550781 L 4.460938 -3.367188 L 7.519531 -3.367188 L 7.519531 1.425781 L 8.925781 1.425781 L 8.925781 -3.367188 L 12.042969 -3.367188 L 12.042969 1.425781 L 13.449219 1.425781 L 13.449219 -3.367188 L 16.671875 -3.367188 L 16.671875 0.0429688 C 16.671875 0.226562 16.609375 0.289062 16.382812 0.308594 C 16.15625 0.332031 15.472656 0.332031 14.648438 0.308594 C 14.8125 0.683594 15.039062 1.199219 15.121094 1.589844 C 16.238281 1.589844 17.003906 1.589844 17.5 1.34375 C 18.035156 1.117188 18.160156 0.765625 18.160156 0.0625 L 18.160156 -4.628906 L 10.414062 -4.628906 C 10.597656 -5.082031 10.785156 -5.597656 10.949219 -6.117188 Z M 19.335938 -6.117188 "/></g></g></g><g fill="#000000" fill-opacity="1"><g transform="translate(39.893128, 167.482903)"><g><path d="M 17.125 -11.402344 C 16.195312 -10.125 14.648438 -8.492188 13.367188 -7.3125 C 12.4375 -8.78125 11.652344 -10.390625 11.074219 -12.066406 L 11.074219 -12.332031 L 19.335938 -12.332031 L 19.335938 -13.820312 L 16.796875 -13.820312 L 17.664062 -14.8125 C 16.835938 -15.515625 15.183594 -16.488281 13.882812 -17.148438 L 12.972656 -16.175781 C 14.214844 -15.515625 15.761719 -14.542969 16.609375 -13.820312 L 11.074219 -13.820312 L 11.074219 -17.230469 L 9.523438 -17.230469 L 9.523438 -13.820312 L 1.40625 -13.820312 L 1.40625 -12.332031 L 9.523438 -12.332031 L 9.523438 -6.609375 C 6.40625 -4.835938 3.035156 -2.953125 0.949219 -1.878906 L 1.941406 -0.496094 C 4.050781 -1.714844 6.859375 -3.386719 9.523438 -5.039062 L 9.523438 -0.496094 C 9.523438 -0.101562 9.378906 0 9.007812 0.0195312 C 8.59375 0.0429688 7.25 0.0429688 5.847656 0 C 6.054688 0.453125 6.300781 1.175781 6.382812 1.613281 C 8.203125 1.613281 9.421875 1.570312 10.101562 1.300781 C 10.785156 1.054688 11.074219 0.578125 11.074219 -0.496094 L 11.074219 -8.699219 C 12.851562 -4.894531 15.433594 -1.757812 18.757812 -0.144531 C 19.027344 -0.558594 19.523438 -1.15625 19.875 -1.445312 C 17.644531 -2.417969 15.679688 -4.109375 14.132812 -6.175781 C 15.535156 -7.335938 17.1875 -9.007812 18.449219 -10.472656 Z M 7.128906 -7.292969 C 6.464844 -8.410156 4.957031 -10 3.65625 -11.113281 L 2.5 -10.308594 C 3.800781 -9.152344 5.246094 -7.5 5.886719 -6.382812 Z M 7.128906 -7.292969 "/></g></g></g><g fill="#000000" fill-opacity="1"><g transform="translate(60.552219, 167.482903)"><g><path d="M 6.117188 -16.589844 C 5.125 -13.367188 3.242188 -10.640625 0.804688 -8.945312 C 1.175781 -8.699219 1.816406 -8.121094 2.085938 -7.808594 C 4.503906 -9.75 6.550781 -12.683594 7.707031 -16.195312 Z M 3.90625 -9.523438 L 3.90625 -8.035156 L 8.121094 -8.035156 C 7.644531 -4.523438 6.507812 -1.28125 1.632812 0.351562 C 2.003906 0.683594 2.4375 1.28125 2.625 1.695312 C 7.871094 -0.226562 9.214844 -3.945312 9.75 -8.035156 L 15.082031 -8.035156 C 14.832031 -2.832031 14.542969 -0.765625 14.007812 -0.246094 C 13.800781 -0.0195312 13.574219 0.0195312 13.140625 0.0195312 C 12.644531 0.0195312 11.382812 0 10.039062 -0.125 C 10.328125 0.332031 10.515625 0.949219 10.535156 1.425781 C 11.816406 1.488281 13.117188 1.527344 13.78125 1.46875 C 14.523438 1.382812 14.957031 1.238281 15.390625 0.722656 C 16.09375 -0.0625 16.382812 -2.4375 16.671875 -8.78125 C 16.691406 -8.988281 16.714844 -9.523438 16.714844 -9.523438 Z M 9.339844 -16.921875 L 9.339844 -15.472656 L 12.996094 -15.472656 C 14.171875 -12.394531 16.300781 -9.503906 18.863281 -7.851562 C 19.128906 -8.285156 19.625 -8.902344 19.957031 -9.234375 C 17.332031 -10.722656 15.121094 -13.675781 14.089844 -16.921875 Z M 9.339844 -16.921875 "/></g></g></g><g fill="#000000" fill-opacity="1"><g transform="translate(81.21131, 167.482903)"><g><path d="M 8.71875 -6.550781 C 8.304688 -7.167969 6.589844 -9.484375 5.867188 -10.351562 L 5.867188 -11.402344 L 8.882812 -11.402344 L 8.882812 -12.871094 L 5.867188 -12.871094 L 5.867188 -17.292969 L 4.378906 -17.292969 L 4.378906 -12.871094 L 1.300781 -12.871094 L 1.300781 -11.402344 L 4.214844 -11.402344 C 3.53125 -8.574219 2.105469 -5.351562 0.742188 -3.636719 C 0.992188 -3.265625 1.382812 -2.664062 1.550781 -2.25 C 2.601562 -3.636719 3.617188 -5.867188 4.378906 -8.179688 L 4.378906 1.570312 L 5.867188 1.570312 L 5.867188 -8.449219 C 6.570312 -7.355469 7.375 -6.054688 7.726562 -5.332031 Z M 19.667969 -10.269531 L 11.402344 -10.269531 L 11.402344 -13.945312 C 13.882812 -14.398438 16.570312 -15.0625 18.492188 -15.847656 L 17.1875 -17.042969 C 15.515625 -16.28125 12.5625 -15.496094 9.957031 -15.019531 L 9.957031 -8.699219 C 9.957031 -5.824219 9.773438 -1.984375 7.914062 0.765625 C 8.265625 0.886719 8.902344 1.300781 9.171875 1.550781 C 11.113281 -1.300781 11.402344 -5.621094 11.402344 -8.699219 L 11.402344 -8.800781 L 15.164062 -8.800781 L 15.164062 1.589844 L 16.671875 1.589844 L 16.671875 -8.800781 L 19.667969 -8.800781 Z M 19.667969 -10.269531 "/></g></g></g><g fill="#000000" fill-opacity="1"><g transform="translate(19.234037, 412.203459)"><g><path d="M 3.222656 -13.988281 L 17.398438 -13.988281 L 17.398438 -11.40625 L 18.925781 -11.40625 L 18.925781 -15.371094 L 11.425781 -15.371094 C 11.15625 -15.992188 10.746094 -16.796875 10.351562 -17.398438 L 8.863281 -16.941406 C 9.152344 -16.488281 9.441406 -15.890625 9.691406 -15.371094 L 1.734375 -15.371094 L 1.734375 -11.40625 L 3.222656 -11.40625 Z M 16.386719 -12.148438 L 4.234375 -12.148438 L 4.234375 -10.867188 L 16.386719 -10.867188 Z M 6.054688 -5.019531 L 14.484375 -5.019531 L 14.484375 -3.015625 L 6.054688 -3.015625 Z M 6.054688 -8.140625 L 14.484375 -8.140625 L 14.484375 -6.179688 L 6.054688 -6.179688 Z M 15.992188 -1.796875 L 15.992188 -9.359375 L 4.566406 -9.359375 L 4.566406 -1.796875 Z M 1.324219 -0.394531 L 1.324219 1.011719 L 19.296875 1.011719 L 19.296875 -0.394531 Z M 1.324219 -0.394531 "/></g></g></g><g fill="#000000" fill-opacity="1"><g transform="translate(39.894203, 412.203459)"><g><path d="M 5.515625 -17.210938 C 4.359375 -14.070312 2.4375 -10.992188 0.414062 -9.007812 C 0.703125 -8.679688 1.117188 -7.871094 1.28125 -7.519531 C 2.003906 -8.265625 2.707031 -9.113281 3.367188 -10.0625 L 3.367188 1.527344 L 4.8125 1.527344 L 4.8125 -12.316406 C 5.640625 -13.742188 6.363281 -15.25 6.941406 -16.777344 Z M 11.984375 -0.289062 C 11.445312 -1.054688 10.3125 -2.191406 9.359375 -2.976562 L 8.222656 -2.253906 C 9.195312 -1.425781 10.289062 -0.226562 10.804688 0.539062 Z M 13.761719 -7.871094 L 15.929688 -7.871094 L 15.601562 -7.6875 C 15.992188 -7.398438 16.40625 -7.066406 16.820312 -6.714844 L 13.761719 -6.652344 Z M 8.84375 -8.84375 L 8.84375 -10.164062 L 12.273438 -10.164062 L 12.273438 -8.84375 Z M 8.84375 -12.375 L 12.273438 -12.375 L 12.273438 -11.097656 L 8.84375 -11.097656 Z M 17.273438 -12.375 L 17.273438 -11.097656 L 13.761719 -11.097656 L 13.761719 -12.375 Z M 17.273438 -8.84375 L 13.761719 -8.84375 L 13.761719 -10.164062 L 17.273438 -10.164062 Z M 16.882812 -5.597656 L 17.976562 -5.640625 C 18.308594 -5.308594 18.597656 -5 18.804688 -4.730469 L 19.898438 -5.433594 C 19.296875 -6.136719 18.246094 -7.109375 17.210938 -7.871094 L 18.742188 -7.871094 L 18.742188 -13.347656 L 13.761719 -13.347656 L 13.761719 -14.527344 L 19.566406 -14.527344 L 19.566406 -15.703125 L 13.761719 -15.703125 L 13.761719 -17.128906 L 12.273438 -17.128906 L 12.273438 -15.703125 L 6.613281 -15.703125 L 6.613281 -14.527344 L 12.273438 -14.527344 L 12.273438 -13.347656 L 7.4375 -13.347656 L 7.4375 -7.871094 L 12.273438 -7.871094 L 12.273438 -6.613281 C 10.0625 -6.570312 8.015625 -6.550781 6.445312 -6.550781 L 6.589844 -5.308594 C 8.945312 -5.351562 12.128906 -5.453125 15.394531 -5.558594 L 15.394531 -4.214844 L 6.035156 -4.214844 L 6.035156 -2.976562 L 15.394531 -2.976562 L 15.394531 -0.0625 C 15.394531 0.207031 15.3125 0.289062 14.980469 0.289062 C 14.671875 0.332031 13.617188 0.332031 12.335938 0.289062 C 12.542969 0.660156 12.75 1.199219 12.832031 1.589844 C 14.402344 1.589844 15.433594 1.589844 16.054688 1.382812 C 16.695312 1.179688 16.882812 0.785156 16.882812 -0.0429688 L 16.882812 -2.976562 L 19.773438 -2.976562 L 19.773438 -4.214844 L 16.882812 -4.214844 Z M 16.882812 -5.597656 "/></g></g></g><g fill="#000000" fill-opacity="1"><g transform="translate(60.55437, 412.203459)"><g><path d="M 17.316406 -16.859375 C 16.136719 -15.207031 14.03125 -13.492188 12.210938 -12.480469 C 12.605469 -12.210938 13.058594 -11.734375 13.328125 -11.425781 C 15.226562 -12.582031 17.355469 -14.421875 18.742188 -16.261719 Z M 17.996094 -11.324219 C 16.695312 -9.546875 14.296875 -7.726562 12.230469 -6.714844 C 12.625 -6.425781 13.058594 -5.949219 13.308594 -5.621094 C 15.476562 -6.820312 17.894531 -8.742188 19.382812 -10.746094 Z M 10.019531 -14.277344 L 3.761719 -14.277344 L 3.761719 -15.496094 L 10.019531 -15.496094 Z M 10.019531 -12.003906 L 3.761719 -12.003906 L 3.761719 -13.265625 L 10.019531 -13.265625 Z M 11.53125 -16.550781 L 2.292969 -16.550781 L 2.292969 -10.972656 L 11.53125 -10.972656 Z M 12.230469 -9.648438 L 7.726562 -9.648438 C 7.542969 -10.082031 7.273438 -10.558594 7.023438 -10.929688 L 5.621094 -10.578125 C 5.765625 -10.3125 5.929688 -9.980469 6.09375 -9.648438 L 1.28125 -9.648438 L 1.28125 -8.410156 L 12.230469 -8.410156 Z M 3.242188 -2.996094 C 2.789062 -1.921875 2.046875 -0.828125 1.21875 -0.0625 C 1.550781 0.144531 2.066406 0.578125 2.3125 0.785156 C 3.140625 -0.0625 4.027344 -1.382812 4.546875 -2.601562 Z M 3.90625 -6.28125 L 9.792969 -6.28125 L 9.792969 -4.546875 L 3.90625 -4.546875 Z M 11.300781 -3.449219 L 11.300781 -7.375 L 2.480469 -7.375 L 2.480469 -3.449219 L 6.074219 -3.449219 L 6.074219 -0.0625 C 6.074219 0.125 6.035156 0.207031 5.785156 0.207031 C 5.578125 0.226562 4.875 0.226562 4.027344 0.207031 C 4.234375 0.578125 4.421875 1.074219 4.503906 1.46875 C 5.640625 1.46875 6.425781 1.46875 6.921875 1.238281 C 7.4375 1.03125 7.582031 0.703125 7.582031 -0.0429688 L 7.582031 -3.449219 Z M 8.636719 -2.5 C 9.339844 -1.550781 10.125 -0.246094 10.496094 0.558594 L 11.652344 -0.0429688 C 11.28125 -0.847656 10.457031 -2.085938 9.710938 -3.015625 Z M 18.410156 -5.414062 C 16.984375 -3.039062 14.320312 -0.910156 11.613281 0.289062 C 11.984375 0.597656 12.4375 1.09375 12.6875 1.46875 C 15.515625 0.0625 18.222656 -2.230469 19.816406 -4.855469 Z M 18.410156 -5.414062 "/></g></g></g><g fill="#000000" fill-opacity="1"><g transform="translate(81.214537, 412.203459)"><g><path d="M 5.722656 -7.335938 C 5.785156 -8.246094 5.804688 -9.175781 5.804688 -10.105469 L 5.804688 -10.660156 L 15.125 -10.660156 L 15.125 -17.253906 L 13.574219 -17.253906 L 13.574219 -12.171875 L 5.804688 -12.171875 L 5.804688 -17.046875 L 4.277344 -17.046875 L 4.277344 -10.105469 C 4.277344 -6.363281 3.988281 -2.480469 1.382812 0.515625 C 1.734375 0.765625 2.292969 1.300781 2.542969 1.652344 C 4.484375 -0.515625 5.289062 -3.121094 5.597656 -5.804688 L 14.277344 -5.804688 L 14.277344 1.589844 L 15.847656 1.589844 L 15.847656 -7.335938 Z M 5.722656 -7.335938 "/></g></g></g><g fill="#000000" fill-opacity="1"><g transform="translate(101.874703, 412.203459)"><g><path d="M 18.367188 -17.085938 L 16.964844 -17.085938 L 16.964844 -8.59375 C 16.964844 -8.328125 16.882812 -8.246094 16.570312 -8.246094 C 16.28125 -8.222656 15.289062 -8.203125 14.152344 -8.246094 C 14.359375 -7.871094 14.585938 -7.375 14.648438 -6.984375 C 16.097656 -6.984375 17.027344 -6.984375 17.625 -7.210938 C 18.183594 -7.4375 18.367188 -7.769531 18.367188 -8.574219 Z M 14.464844 -16.242188 L 13.078125 -16.242188 L 13.078125 -9.503906 L 14.464844 -9.503906 Z M 5.785156 -11.261719 L 2.191406 -11.261719 L 2.191406 -7.417969 L 3.429688 -7.417969 L 3.429688 -10.226562 L 5.785156 -10.226562 L 5.785156 -6.878906 L 7.128906 -6.878906 L 7.128906 -10.226562 L 9.671875 -10.226562 L 9.671875 -8.742188 C 9.671875 -8.574219 9.628906 -8.511719 9.441406 -8.511719 C 9.257812 -8.492188 8.742188 -8.492188 8.058594 -8.511719 C 8.203125 -8.222656 8.410156 -7.851562 8.472656 -7.519531 C 9.378906 -7.519531 10.019531 -7.519531 10.414062 -7.707031 C 10.867188 -7.894531 10.972656 -8.160156 10.972656 -8.742188 L 10.972656 -11.261719 L 7.128906 -11.261719 L 7.128906 -12.355469 L 11.488281 -12.355469 L 11.488281 -13.472656 L 7.128906 -13.472656 L 7.128906 -14.730469 L 10.765625 -14.730469 L 10.765625 -15.808594 L 7.128906 -15.808594 L 7.128906 -17.292969 L 5.785156 -17.292969 L 5.785156 -15.808594 L 3.84375 -15.808594 C 4.007812 -16.179688 4.171875 -16.550781 4.296875 -16.921875 L 3.078125 -17.210938 C 2.726562 -16.074219 2.148438 -14.917969 1.445312 -14.09375 C 1.734375 -13.945312 2.292969 -13.679688 2.542969 -13.492188 C 2.808594 -13.84375 3.078125 -14.277344 3.328125 -14.730469 L 5.785156 -14.730469 L 5.785156 -13.472656 L 1.136719 -13.472656 L 1.136719 -12.355469 L 5.785156 -12.355469 Z M 17.335938 -4.628906 C 16.425781 -3.96875 14.917969 -3.097656 13.679688 -2.480469 C 12.871094 -3.160156 12.253906 -3.925781 11.757812 -4.8125 L 19.464844 -4.8125 L 19.464844 -6.09375 L 11.589844 -6.09375 C 11.363281 -6.613281 11.054688 -7.253906 10.722656 -7.769531 L 9.296875 -7.355469 C 9.503906 -6.984375 9.753906 -6.507812 9.9375 -6.09375 L 1.21875 -6.09375 L 1.21875 -4.8125 L 8.410156 -4.8125 C 6.40625 -3.59375 3.472656 -2.625 0.867188 -2.148438 C 1.15625 -1.859375 1.550781 -1.34375 1.714844 -1.011719 C 2.871094 -1.261719 4.089844 -1.613281 5.289062 -2.046875 L 5.289062 -1.117188 C 5.289062 -0.1875 4.753906 0.246094 4.421875 0.453125 C 4.585938 0.683594 4.855469 1.179688 4.960938 1.507812 L 4.960938 1.613281 C 5.351562 1.363281 6.011719 1.179688 11.425781 -0.101562 C 11.40625 -0.371094 11.425781 -0.910156 11.46875 -1.28125 L 6.734375 -0.269531 L 6.734375 -2.625 C 8.121094 -3.242188 9.359375 -3.945312 10.351562 -4.710938 C 11.941406 -1.507812 14.773438 0.496094 18.886719 1.324219 C 19.050781 0.929688 19.445312 0.394531 19.734375 0.0820312 C 17.75 -0.246094 16.054688 -0.847656 14.710938 -1.714844 C 15.929688 -2.292969 17.355469 -3.078125 18.453125 -3.84375 Z M 17.335938 -4.628906 "/></g></g></g><g fill="#000000" fill-opacity="1"><g transform="translate(122.53487, 412.203459)"><g><path d="M 5.929688 -17.210938 C 4.773438 -14.070312 2.871094 -10.992188 0.828125 -9.007812 C 1.117188 -8.679688 1.570312 -7.832031 1.714844 -7.480469 C 2.417969 -8.203125 3.121094 -9.03125 3.761719 -9.9375 L 3.761719 1.550781 L 5.289062 1.550781 L 5.289062 -12.316406 C 6.09375 -13.742188 6.839844 -15.25 7.398438 -16.738281 Z M 19.792969 -12.375 L 19.792969 -13.84375 L 11.199219 -13.84375 C 11.613281 -14.753906 12.003906 -15.683594 12.335938 -16.632812 L 10.867188 -17.027344 C 9.855469 -14.007812 8.183594 -11.035156 6.324219 -9.113281 C 6.675781 -8.863281 7.273438 -8.347656 7.519531 -8.078125 C 8.554688 -9.234375 9.566406 -10.722656 10.457031 -12.375 L 11.882812 -12.375 L 11.882812 1.570312 L 13.429688 1.570312 L 13.429688 -3.429688 L 19.609375 -3.429688 L 19.609375 -4.875 L 13.429688 -4.875 L 13.429688 -7.996094 L 19.320312 -7.996094 L 19.320312 -9.421875 L 13.429688 -9.421875 L 13.429688 -12.375 Z M 19.792969 -12.375 "/></g></g></g><g fill="#000000" fill-opacity="1"><g transform="translate(143.195038, 412.203459)"><g/></g></g><g fill="#000000" fill-opacity="1"><g transform="translate(148.855927, 412.203459)"><g><path d="M 1.65625 1.21875 L -0.515625 1.21875 L 4.828125 -15.546875 L 7.046875 -15.546875 Z M 1.65625 1.21875 "/></g></g></g><g fill="#000000" fill-opacity="1"><g transform="translate(155.359031, 412.203459)"><g/></g></g><g fill="#000000" fill-opacity="1"><g transform="translate(161.01992, 412.203459)"><g/></g></g><g fill="#000000" fill-opacity="1"><g transform="translate(19.234037, 440.703458)"><g><path d="M 5.867188 -14.671875 L 5.082031 -14.070312 C 5.746094 -13.472656 6.550781 -12.644531 6.941406 -12.128906 L 7.953125 -12.996094 C 7.5625 -13.453125 6.859375 -14.152344 6.238281 -14.671875 L 10.207031 -14.671875 L 10.207031 -15.910156 L 4.917969 -15.910156 C 5.105469 -16.28125 5.308594 -16.652344 5.476562 -17.046875 L 4.113281 -17.417969 C 3.410156 -15.828125 2.210938 -14.277344 0.929688 -13.246094 C 1.238281 -13.015625 1.757812 -12.5 1.984375 -12.253906 C 2.726562 -12.894531 3.472656 -13.742188 4.113281 -14.671875 Z M 7.933594 -11.054688 L 7.933594 -9.917969 L 3.554688 -9.917969 L 3.554688 -11.054688 Z M 3.554688 -7.789062 L 3.554688 -8.945312 L 7.933594 -8.945312 L 7.933594 -7.789062 Z M 9.339844 -6.777344 L 9.339844 -12.066406 L 2.128906 -12.066406 L 2.128906 1.570312 L 3.554688 1.570312 L 3.554688 -6.777344 Z M 12.789062 -4.753906 L 12.789062 -3.410156 L 7.953125 -3.410156 L 7.953125 -4.753906 Z M 7.953125 -1.09375 L 7.953125 -2.457031 L 12.789062 -2.457031 L 12.789062 -1.09375 Z M 14.152344 -0.125 L 14.152344 -5.722656 L 6.550781 -5.722656 L 6.550781 0.621094 L 7.953125 0.621094 L 7.953125 -0.125 Z M 17.085938 -9.917969 L 12.480469 -9.917969 L 12.480469 -11.054688 L 17.085938 -11.054688 Z M 12.480469 -7.789062 L 12.480469 -8.945312 L 17.085938 -8.945312 L 17.085938 -7.789062 Z M 19.671875 -15.890625 L 13.472656 -15.890625 C 13.65625 -16.28125 13.824219 -16.675781 13.945312 -17.085938 L 12.542969 -17.417969 C 11.984375 -15.808594 10.972656 -14.238281 9.773438 -13.246094 C 10.125 -13.039062 10.703125 -12.5625 10.949219 -12.335938 C 11.632812 -12.957031 12.273438 -13.761719 12.832031 -14.671875 L 14.917969 -14.671875 L 14.03125 -13.945312 C 14.753906 -13.367188 15.578125 -12.582031 15.992188 -12.066406 L 11.074219 -12.066406 L 11.074219 -6.777344 L 17.085938 -6.777344 L 17.085938 -0.1875 C 17.085938 0.101562 16.984375 0.207031 16.652344 0.226562 C 16.34375 0.226562 15.269531 0.246094 14.09375 0.1875 C 14.296875 0.597656 14.527344 1.179688 14.566406 1.570312 C 16.117188 1.589844 17.128906 1.570312 17.75 1.324219 C 18.328125 1.09375 18.511719 0.683594 18.511719 -0.1875 L 18.511719 -12.066406 L 16.035156 -12.066406 L 17.027344 -12.976562 C 16.632812 -13.453125 15.785156 -14.152344 15.125 -14.671875 L 19.671875 -14.671875 Z M 19.671875 -15.890625 "/></g></g></g><g fill="#000000" fill-opacity="1"><g transform="translate(39.894203, 440.703458)"><g><path d="M 9.960938 -11.777344 L 6.324219 -11.777344 L 6.324219 -13.84375 L 9.441406 -13.84375 L 9.441406 -15.167969 L 6.324219 -15.167969 L 6.324219 -17.253906 L 4.898438 -17.253906 L 4.898438 -15.167969 L 1.652344 -15.167969 L 1.652344 -13.84375 L 4.898438 -13.84375 L 4.898438 -11.777344 L 1.054688 -11.777344 L 1.054688 -10.433594 L 9.960938 -10.433594 Z M 6.324219 -6.179688 L 9.585938 -6.179688 L 9.585938 -7.519531 L 7.519531 -7.519531 C 7.976562 -8.304688 8.472656 -9.234375 8.90625 -10.082031 L 7.582031 -10.433594 C 7.253906 -9.609375 6.695312 -8.410156 6.15625 -7.519531 L 3.59375 -7.519531 L 4.628906 -7.894531 C 4.484375 -8.574219 4.050781 -9.609375 3.574219 -10.351562 L 2.4375 -10.042969 C 2.851562 -9.257812 3.285156 -8.222656 3.410156 -7.519531 L 1.488281 -7.519531 L 1.488281 -6.179688 L 4.898438 -6.179688 L 4.898438 -3.945312 L 1.03125 -3.945312 L 1.03125 -2.625 L 4.898438 -2.625 L 4.898438 1.507812 L 6.324219 1.507812 L 6.324219 -2.625 L 10 -2.625 L 10 -3.945312 L 6.324219 -3.945312 Z M 12.148438 -8.101562 L 12.335938 -8.101562 C 12.957031 -6.011719 13.824219 -4.050781 14.960938 -2.375 C 14.152344 -1.300781 13.222656 -0.371094 12.148438 0.351562 Z M 17.542969 -8.101562 C 17.171875 -6.550781 16.59375 -5.019531 15.765625 -3.636719 C 14.878906 -4.980469 14.152344 -6.507812 13.65625 -8.101562 Z M 18.265625 -9.441406 L 18.019531 -9.378906 L 12.148438 -9.378906 L 12.148438 -14.9375 L 17.316406 -14.9375 L 17.316406 -12.398438 C 17.316406 -12.148438 17.234375 -12.085938 16.902344 -12.066406 C 16.59375 -12.046875 15.515625 -12.046875 14.238281 -12.085938 C 14.441406 -11.675781 14.648438 -11.15625 14.710938 -10.722656 C 16.28125 -10.722656 17.316406 -10.746094 17.957031 -10.972656 C 18.597656 -11.199219 18.742188 -11.589844 18.742188 -12.375 L 18.742188 -16.34375 L 10.746094 -16.34375 L 10.746094 1.550781 L 12.148438 1.550781 L 12.148438 0.867188 C 12.417969 1.09375 12.667969 1.382812 12.832031 1.632812 C 13.988281 0.886719 14.980469 -0.0820312 15.847656 -1.179688 C 16.777344 -0.101562 17.789062 0.804688 18.949219 1.445312 C 19.195312 1.054688 19.648438 0.496094 20 0.207031 C 18.78125 -0.394531 17.667969 -1.28125 16.714844 -2.398438 C 17.957031 -4.378906 18.78125 -6.652344 19.238281 -9.089844 Z M 18.265625 -9.441406 "/></g></g></g><g fill="#000000" fill-opacity="1"><g transform="translate(60.554371, 440.703458)"><g/></g></g><g fill="#000000" fill-opacity="1"><g transform="translate(66.215259, 440.703458)"><g><path d="M 1.59375 -14.703125 L 7.96875 -14.703125 C 9.550781 -14.703125 10.785156 -14.320312 11.671875 -13.5625 C 12.554688 -12.800781 13 -11.757812 13 -10.4375 C 13 -9.113281 12.550781 -8.066406 11.65625 -7.296875 C 10.769531 -6.523438 9.539062 -6.140625 7.96875 -6.140625 L 4.25 -6.140625 L 4.25 0 L 1.59375 0 Z M 7.65625 -8.203125 C 8.582031 -8.203125 9.28125 -8.390625 9.75 -8.765625 C 10.226562 -9.148438 10.46875 -9.695312 10.46875 -10.40625 C 10.46875 -11.132812 10.234375 -11.6875 9.765625 -12.0625 C 9.296875 -12.445312 8.59375 -12.640625 7.65625 -12.640625 L 4.25 -12.640625 L 4.25 -8.203125 Z M 7.65625 -8.203125 "/></g></g></g><g fill="#000000" fill-opacity="1"><g transform="translate(79.974925, 440.703458)"><g><path d="M 1.59375 -14.703125 L 7.96875 -14.703125 C 9.550781 -14.703125 10.785156 -14.320312 11.671875 -13.5625 C 12.554688 -12.800781 13 -11.757812 13 -10.4375 C 13 -9.113281 12.550781 -8.066406 11.65625 -7.296875 C 10.769531 -6.523438 9.539062 -6.140625 7.96875 -6.140625 L 4.25 -6.140625 L 4.25 0 L 1.59375 0 Z M 7.65625 -8.203125 C 8.582031 -8.203125 9.28125 -8.390625 9.75 -8.765625 C 10.226562 -9.148438 10.46875 -9.695312 10.46875 -10.40625 C 10.46875 -11.132812 10.234375 -11.6875 9.765625 -12.0625 C 9.296875 -12.445312 8.59375 -12.640625 7.65625 -12.640625 L 4.25 -12.640625 L 4.25 -8.203125 Z M 7.65625 -8.203125 "/></g></g></g><g fill="#000000" fill-opacity="1"><g transform="translate(93.734591, 440.703458)"><g><path d="M 5.046875 0 L 5.046875 -12.515625 L 0.25 -12.515625 L 0.25 -14.703125 L 12.53125 -14.703125 L 12.53125 -12.515625 L 7.71875 -12.515625 L 7.71875 0 Z M 5.046875 0 "/></g></g></g><g clip-path="url(#d001a0b1ed)"><g clip-path="url(#35e58ab2e9)"><path fill="#d9d9d9" d="M 189.984375 240.277344 L 189.984375 202.867188 L 748.597656 202.867188 L 748.597656 240.277344 Z M 189.984375 240.277344 " fill-opacity="1" fill-rule="nonzero"/></g></g><g clip-path="url(#33c43f79c3)"><g clip-path="url(#e144c87d6a)"><path fill="#4fbaff" d="M 261.261719 239.890625 L 261.261719 203.113281 L 394.414062 203.113281 L 394.414062 239.890625 Z M 261.261719 239.890625 " fill-opacity="1" fill-rule="nonzero"/></g></g><g clip-path="url(#67be5a7394)"><g clip-path="url(#dc8c5a4562)"><path fill="#d9d9d9" d="M 189.984375 306.648438 L 189.984375 269.238281 L 748.597656 269.238281 L 748.597656 306.648438 Z M 189.984375 306.648438 " fill-opacity="1" fill-rule="nonzero"/></g></g><g clip-path="url(#4df8980533)"><g clip-path="url(#bcaccbf54d)"><path fill="#4fbaff" d="M 298.878906 306.648438 L 298.878906 269.238281 L 534.75 269.238281 L 534.75 306.648438 Z M 298.878906 306.648438 " fill-opacity="1" fill-rule="nonzero"/></g></g><g clip-path="url(#7cf32cfb78)"><g clip-path="url(#af73abaa99)"><path fill="#d9d9d9" d="M 189.984375 438.816406 L 189.984375 401.40625 L 748.597656 401.40625 L 748.597656 438.816406 Z M 189.984375 438.816406 " fill-opacity="1" fill-rule="nonzero"/></g></g><g clip-path="url(#e18b486f18)"><g clip-path="url(#ad3d5c0c7f)"><path fill="#4fbaff" d="M 560.933594 438.816406 L 560.933594 401.40625 L 748.617188 401.40625 L 748.617188 438.816406 Z M 560.933594 438.816406 " fill-opacity="1" fill-rule="nonzero"/></g></g><g fill="#000000" fill-opacity="1"><g transform="translate(189.984748, 110.986239)"><g><path d="M 11.34375 -2.171875 L 11.34375 0 L 1.46875 0 L 1.46875 -1.96875 L 6.46875 -7.359375 C 7.0625 -8.003906 7.492188 -8.59375 7.765625 -9.125 C 8.046875 -9.664062 8.1875 -10.195312 8.1875 -10.71875 C 8.1875 -11.394531 7.988281 -11.90625 7.59375 -12.25 C 7.195312 -12.59375 6.632812 -12.765625 5.90625 -12.765625 C 4.613281 -12.765625 3.285156 -12.253906 1.921875 -11.234375 L 1.03125 -13.171875 C 1.613281 -13.703125 2.359375 -14.117188 3.265625 -14.421875 C 4.171875 -14.734375 5.085938 -14.890625 6.015625 -14.890625 C 7.484375 -14.890625 8.644531 -14.523438 9.5 -13.796875 C 10.363281 -13.078125 10.796875 -12.109375 10.796875 -10.890625 C 10.796875 -10.046875 10.613281 -9.25 10.25 -8.5 C 9.882812 -7.757812 9.273438 -6.929688 8.421875 -6.015625 L 4.8125 -2.171875 Z M 11.34375 -2.171875 "/></g></g></g><g fill="#000000" fill-opacity="1"><g transform="translate(202.401507, 110.986239)"><g><path d="M 6.203125 0.1875 C 4.453125 0.1875 3.117188 -0.453125 2.203125 -1.734375 C 1.285156 -3.023438 0.828125 -4.90625 0.828125 -7.375 C 0.828125 -9.800781 1.285156 -11.65625 2.203125 -12.9375 C 3.117188 -14.21875 4.453125 -14.859375 6.203125 -14.859375 C 7.941406 -14.859375 9.269531 -14.21875 10.1875 -12.9375 C 11.101562 -11.664062 11.5625 -9.8125 11.5625 -7.375 C 11.5625 -4.925781 11.101562 -3.050781 10.1875 -1.75 C 9.269531 -0.457031 7.941406 0.1875 6.203125 0.1875 Z M 6.203125 -1.90625 C 7.148438 -1.90625 7.835938 -2.34375 8.265625 -3.21875 C 8.703125 -4.09375 8.921875 -5.476562 8.921875 -7.375 C 8.921875 -9.25 8.703125 -10.613281 8.265625 -11.46875 C 7.835938 -12.332031 7.148438 -12.765625 6.203125 -12.765625 C 5.242188 -12.765625 4.546875 -12.332031 4.109375 -11.46875 C 3.679688 -10.613281 3.46875 -9.25 3.46875 -7.375 C 3.46875 -5.476562 3.679688 -4.09375 4.109375 -3.21875 C 4.546875 -2.34375 5.242188 -1.90625 6.203125 -1.90625 Z M 6.203125 -1.90625 "/></g></g></g><g fill="#000000" fill-opacity="1"><g transform="translate(214.797609, 110.986239)"><g><path d="M 11.34375 -2.171875 L 11.34375 0 L 1.46875 0 L 1.46875 -1.96875 L 6.46875 -7.359375 C 7.0625 -8.003906 7.492188 -8.59375 7.765625 -9.125 C 8.046875 -9.664062 8.1875 -10.195312 8.1875 -10.71875 C 8.1875 -11.394531 7.988281 -11.90625 7.59375 -12.25 C 7.195312 -12.59375 6.632812 -12.765625 5.90625 -12.765625 C 4.613281 -12.765625 3.285156 -12.253906 1.921875 -11.234375 L 1.03125 -13.171875 C 1.613281 -13.703125 2.359375 -14.117188 3.265625 -14.421875 C 4.171875 -14.734375 5.085938 -14.890625 6.015625 -14.890625 C 7.484375 -14.890625 8.644531 -14.523438 9.5 -13.796875 C 10.363281 -13.078125 10.796875 -12.109375 10.796875 -10.890625 C 10.796875 -10.046875 10.613281 -9.25 10.25 -8.5 C 9.882812 -7.757812 9.273438 -6.929688 8.421875 -6.015625 L 4.8125 -2.171875 Z M 11.34375 -2.171875 "/></g></g></g><g fill="#000000" fill-opacity="1"><g transform="translate(227.214368, 110.986239)"><g><path d="M 8.46875 -7.5625 C 9.332031 -7.320312 9.992188 -6.890625 10.453125 -6.265625 C 10.921875 -5.648438 11.15625 -4.890625 11.15625 -3.984375 C 11.15625 -2.703125 10.679688 -1.6875 9.734375 -0.9375 C 8.796875 -0.195312 7.523438 0.171875 5.921875 0.171875 C 4.929688 0.171875 3.976562 0.0195312 3.0625 -0.28125 C 2.144531 -0.59375 1.394531 -1.015625 0.8125 -1.546875 L 1.71875 -3.484375 C 3.019531 -2.472656 4.390625 -1.96875 5.828125 -1.96875 C 6.765625 -1.96875 7.460938 -2.148438 7.921875 -2.515625 C 8.378906 -2.890625 8.609375 -3.457031 8.609375 -4.21875 C 8.609375 -4.957031 8.375 -5.5 7.90625 -5.84375 C 7.4375 -6.195312 6.71875 -6.375 5.75 -6.375 L 3.796875 -6.375 L 3.796875 -8.515625 L 5.390625 -8.515625 C 7.285156 -8.515625 8.234375 -9.234375 8.234375 -10.671875 C 8.234375 -11.347656 8.023438 -11.863281 7.609375 -12.21875 C 7.203125 -12.582031 6.628906 -12.765625 5.890625 -12.765625 C 4.566406 -12.765625 3.242188 -12.253906 1.921875 -11.234375 L 1.03125 -13.171875 C 1.625 -13.703125 2.367188 -14.117188 3.265625 -14.421875 C 4.171875 -14.734375 5.097656 -14.890625 6.046875 -14.890625 C 7.492188 -14.890625 8.644531 -14.535156 9.5 -13.828125 C 10.363281 -13.117188 10.796875 -12.171875 10.796875 -10.984375 C 10.785156 -10.171875 10.578125 -9.460938 10.171875 -8.859375 C 9.765625 -8.265625 9.195312 -7.832031 8.46875 -7.5625 Z M 8.46875 -7.5625 "/></g></g></g><g fill="#000000" fill-opacity="1"><g transform="translate(239.610471, 110.986239)"><g/></g></g><g fill="#000000" fill-opacity="1"><g transform="translate(245.271359, 110.986239)"><g><path d="M 1.65625 1.21875 L -0.515625 1.21875 L 4.828125 -15.546875 L 7.046875 -15.546875 Z M 1.65625 1.21875 "/></g></g></g><g fill="#000000" fill-opacity="1"><g transform="translate(251.779305, 110.986239)"><g/></g></g><g fill="#000000" fill-opacity="1"><g transform="translate(257.440193, 110.986239)"><g><path d="M 11.34375 -2.171875 L 11.34375 0 L 1.46875 0 L 1.46875 -1.96875 L 6.46875 -7.359375 C 7.0625 -8.003906 7.492188 -8.59375 7.765625 -9.125 C 8.046875 -9.664062 8.1875 -10.195312 8.1875 -10.71875 C 8.1875 -11.394531 7.988281 -11.90625 7.59375 -12.25 C 7.195312 -12.59375 6.632812 -12.765625 5.90625 -12.765625 C 4.613281 -12.765625 3.285156 -12.253906 1.921875 -11.234375 L 1.03125 -13.171875 C 1.613281 -13.703125 2.359375 -14.117188 3.265625 -14.421875 C 4.171875 -14.734375 5.085938 -14.890625 6.015625 -14.890625 C 7.484375 -14.890625 8.644531 -14.523438 9.5 -13.796875 C 10.363281 -13.078125 10.796875 -12.109375 10.796875 -10.890625 C 10.796875 -10.046875 10.613281 -9.25 10.25 -8.5 C 9.882812 -7.757812 9.273438 -6.929688 8.421875 -6.015625 L 4.8125 -2.171875 Z M 11.34375 -2.171875 "/></g></g></g><g fill="#000000" fill-opacity="1"><g transform="translate(269.856953, 110.986239)"><g><path d="M 5.640625 -6.324219 C 5.804688 -7.542969 5.867188 -8.71875 5.867188 -9.792969 L 15.3125 -9.792969 L 15.3125 -6.324219 Z M 15.3125 -14.691406 L 15.3125 -11.261719 L 5.867188 -11.261719 L 5.867188 -14.691406 Z M 16.902344 -16.199219 L 4.320312 -16.199219 L 4.320312 -9.875 C 4.320312 -6.589844 3.988281 -2.398438 0.703125 0.496094 C 1.011719 0.722656 1.632812 1.28125 1.839844 1.613281 C 3.84375 -0.144531 4.875 -2.480469 5.394531 -4.8125 L 15.3125 -4.8125 L 15.3125 -0.683594 C 15.3125 -0.226562 15.144531 -0.0820312 14.671875 -0.0625 C 14.195312 -0.0625 12.542969 -0.0429688 10.804688 -0.101562 C 11.074219 0.332031 11.363281 1.054688 11.46875 1.488281 C 13.679688 1.488281 15.042969 1.46875 15.828125 1.199219 C 16.59375 0.949219 16.902344 0.414062 16.902344 -0.660156 Z M 16.902344 -16.199219 "/></g></g></g><g fill="#000000" fill-opacity="1"><g transform="translate(19.234037, 362.699092)"><g><path d="M 1.839844 -4.070312 C 1.632812 -2.417969 1.320312 -0.597656 0.867188 0.683594 C 1.15625 0.765625 1.757812 0.949219 2.003906 1.09375 C 2.417969 -0.1875 2.808594 -2.085938 3.015625 -3.882812 Z M 3.964844 -3.945312 C 4.195312 -2.542969 4.421875 -0.742188 4.460938 0.476562 L 5.621094 0.1875 C 5.558594 -1.011719 5.332031 -2.789062 5.039062 -4.152344 Z M 6.199219 -4.339844 C 6.652344 -3.078125 7.148438 -1.425781 7.355469 -0.332031 L 8.429688 -0.722656 C 8.222656 -1.777344 7.683594 -3.410156 7.210938 -4.691406 Z M 6.011719 -9.070312 C 6.238281 -8.46875 6.507812 -7.808594 6.734375 -7.148438 L 3.179688 -6.652344 C 4.8125 -8.613281 6.40625 -11.074219 7.707031 -13.511719 L 6.507812 -14.234375 C 6.074219 -13.261719 5.515625 -12.273438 5 -11.382812 L 2.832031 -11.175781 C 3.964844 -12.746094 5.082031 -14.773438 5.949219 -16.714844 L 4.648438 -17.269531 C 3.84375 -15.039062 2.4375 -12.683594 2.003906 -12.066406 C 1.589844 -11.445312 1.238281 -11.011719 0.910156 -10.929688 C 1.054688 -10.578125 1.261719 -9.894531 1.34375 -9.605469 C 1.613281 -9.75 2.046875 -9.855469 4.195312 -10.101562 C 3.472656 -8.964844 2.832031 -8.078125 2.5 -7.683594 C 1.902344 -6.898438 1.445312 -6.382812 1.03125 -6.300781 C 1.199219 -5.929688 1.425781 -5.269531 1.46875 -4.957031 C 1.859375 -5.164062 2.480469 -5.308594 7.085938 -6.03125 C 7.167969 -5.679688 7.273438 -5.332031 7.335938 -5.039062 L 8.492188 -5.496094 C 8.242188 -6.488281 7.644531 -8.140625 7.105469 -9.441406 Z M 13.429688 -3.554688 C 12.996094 -3.554688 12.933594 -3.71875 12.933594 -4.257812 L 12.933594 -6.28125 L 17.1875 -6.28125 L 17.1875 -7.5 L 14.132812 -7.5 L 14.875 -7.828125 C 14.6875 -8.285156 14.316406 -9.089844 13.964844 -9.6875 L 17.4375 -9.6875 L 17.4375 -10.910156 L 15.679688 -10.910156 C 16.011719 -11.796875 16.382812 -12.972656 16.691406 -13.988281 L 15.578125 -14.316406 C 15.390625 -13.324219 14.976562 -11.878906 14.605469 -10.910156 L 10.679688 -10.910156 L 10.679688 -9.6875 L 13.84375 -9.6875 L 12.890625 -9.316406 C 13.179688 -8.78125 13.511719 -8.058594 13.699219 -7.5 L 10.886719 -7.5 L 10.886719 -6.28125 L 11.652344 -6.28125 L 11.652344 -4.277344 C 11.652344 -2.914062 11.960938 -2.417969 13.324219 -2.417969 L 15.96875 -2.417969 C 16.488281 -2.417969 17.023438 -2.4375 17.292969 -2.519531 C 17.25 -2.832031 17.210938 -3.304688 17.167969 -3.65625 C 16.859375 -3.574219 16.28125 -3.554688 15.949219 -3.554688 Z M 11.382812 -14.027344 C 11.878906 -13.117188 12.3125 -11.878906 12.457031 -11.074219 L 13.449219 -11.425781 C 13.324219 -12.230469 12.851562 -13.449219 12.332031 -14.359375 Z M 19.273438 -16.300781 L 8.757812 -16.300781 L 8.757812 1.613281 L 10.144531 1.613281 L 10.144531 -14.9375 L 17.871094 -14.9375 L 17.871094 -0.144531 C 17.871094 0.144531 17.789062 0.226562 17.519531 0.246094 C 17.269531 0.246094 16.445312 0.269531 15.578125 0.226562 C 15.742188 0.597656 15.929688 1.21875 15.96875 1.589844 C 17.230469 1.589844 18.078125 1.570312 18.574219 1.320312 C 19.109375 1.074219 19.273438 0.703125 19.273438 -0.144531 Z M 19.273438 -16.300781 "/></g></g></g><g fill="#000000" fill-opacity="1"><g transform="translate(39.893128, 362.699092)"><g><path d="M 6.445312 -14.109375 C 6.199219 -14.957031 5.597656 -16.21875 4.980469 -17.167969 L 3.699219 -16.777344 C 4.234375 -15.804688 4.8125 -14.480469 5.0625 -13.636719 Z M 6.777344 -3.304688 C 7.3125 -5.476562 7.871094 -8.613281 8.285156 -11.03125 L 6.839844 -11.300781 C 6.570312 -8.800781 6.03125 -5.1875 5.496094 -2.996094 C 3.800781 -2.582031 2.230469 -2.25 1.03125 -1.984375 L 1.40625 -0.476562 C 3.554688 -1.011719 6.425781 -1.734375 9.152344 -2.4375 L 9.007812 -3.84375 Z M 2.085938 -10.824219 C 2.5625 -8.492188 2.996094 -5.476562 3.078125 -3.449219 L 4.378906 -3.699219 C 4.257812 -5.722656 3.800781 -8.699219 3.328125 -11.054688 Z M 1.28125 -12.003906 L 9.253906 -12.003906 L 9.253906 -13.429688 L 1.28125 -13.429688 Z M 17.332031 -0.847656 L 11.136719 -0.847656 L 11.136719 -6.03125 L 17.332031 -6.03125 Z M 19.75 -11.546875 L 19.75 -13.015625 L 14.542969 -13.015625 L 14.542969 -17.292969 L 12.996094 -17.292969 L 12.996094 -7.480469 L 9.648438 -7.480469 L 9.648438 1.570312 L 11.136719 1.570312 L 11.136719 0.597656 L 17.332031 0.597656 L 17.332031 1.488281 L 18.882812 1.488281 L 18.882812 -7.480469 L 14.542969 -7.480469 L 14.542969 -11.546875 Z M 19.75 -11.546875 "/></g></g></g><g fill="#000000" fill-opacity="1"><g transform="translate(60.552219, 362.699092)"><g><path d="M 16.671875 -14.277344 L 16.671875 -12.769531 L 13.574219 -12.769531 L 13.574219 -14.277344 Z M 16.671875 -9.980469 L 13.574219 -9.980469 L 13.574219 -11.507812 L 16.671875 -11.507812 Z M 12.128906 -12.769531 L 6.816406 -12.769531 L 6.816406 -11.507812 L 12.128906 -11.507812 L 12.128906 -9.980469 L 8.015625 -9.980469 L 8.015625 -8.738281 L 12.128906 -8.738281 L 12.128906 -7.191406 L 7.871094 -7.191406 L 7.871094 -6.011719 L 12.128906 -6.011719 L 12.128906 -4.339844 L 7.003906 -4.339844 L 7.003906 -3.078125 L 12.128906 -3.078125 L 12.128906 -1.03125 L 13.574219 -1.03125 L 13.574219 -3.078125 L 19.214844 -3.078125 L 19.214844 -4.339844 L 13.574219 -4.339844 L 13.574219 -6.011719 L 18.449219 -6.011719 L 18.449219 -7.191406 L 13.574219 -7.191406 L 13.574219 -8.738281 L 18.054688 -8.738281 L 18.054688 -11.507812 L 19.480469 -11.507812 L 19.480469 -12.769531 L 18.054688 -12.769531 L 18.054688 -15.496094 L 13.574219 -15.496094 L 13.574219 -17.1875 L 12.128906 -17.1875 L 12.128906 -15.496094 L 8.160156 -15.496094 L 8.160156 -14.277344 L 12.128906 -14.277344 Z M 6.054688 -10.308594 L 5.785156 -10.269531 L 4.316406 -10.269531 C 5.226562 -11.984375 6.320312 -14.171875 7.191406 -15.992188 L 1.382812 -15.992188 L 1.382812 -14.628906 L 5 -14.628906 C 4.070312 -12.644531 2.933594 -10.414062 2.046875 -8.902344 L 5.390625 -8.902344 C 5.125 -7.042969 4.710938 -5.433594 4.152344 -4.050781 C 3.617188 -4.875 3.160156 -5.886719 2.808594 -7.105469 L 1.671875 -6.652344 C 2.167969 -5.019531 2.769531 -3.71875 3.53125 -2.6875 C 2.789062 -1.382812 1.878906 -0.332031 0.828125 0.414062 C 1.175781 0.621094 1.714844 1.15625 1.960938 1.46875 C 2.933594 0.703125 3.78125 -0.289062 4.523438 -1.550781 C 6.652344 0.539062 9.648438 1.074219 13.46875 1.074219 L 19.234375 1.074219 C 19.316406 0.660156 19.585938 0 19.8125 -0.351562 C 18.757812 -0.332031 14.316406 -0.332031 13.511719 -0.332031 C 10 -0.332031 7.148438 -0.785156 5.144531 -2.808594 C 5.992188 -4.730469 6.589844 -7.128906 6.921875 -10.0625 Z M 6.054688 -10.308594 "/></g></g></g><g fill="#000000" fill-opacity="1"><g transform="translate(81.21131, 362.699092)"><g><path d="M 5.433594 -1.445312 L 15.121094 -1.445312 L 15.121094 -0.1875 L 5.433594 -0.1875 Z M 15.121094 -7.769531 L 15.121094 -6.609375 L 5.433594 -6.609375 L 5.433594 -7.769531 Z M 5.433594 -3.59375 L 15.121094 -3.59375 L 15.121094 -2.355469 L 5.433594 -2.355469 Z M 15.121094 -4.503906 L 5.433594 -4.503906 L 5.433594 -5.679688 L 15.121094 -5.679688 Z M 8.636719 -15.390625 L 12.023438 -15.390625 L 12.023438 -13.53125 L 8.636719 -13.53125 Z M 7.210938 -13.53125 L 3.945312 -13.53125 L 3.945312 -15.390625 L 7.210938 -15.390625 Z M 13.429688 -15.390625 L 16.898438 -15.390625 L 16.898438 -13.53125 L 13.429688 -13.53125 Z M 16.632812 -0.1875 L 16.632812 -8.800781 L 10.207031 -8.800781 C 10.308594 -9.195312 10.390625 -9.585938 10.496094 -10.039062 L 19.007812 -10.039062 L 19.007812 -11.238281 L 10.722656 -11.238281 C 10.804688 -11.632812 10.886719 -12.042969 10.949219 -12.417969 L 18.40625 -12.417969 L 18.40625 -16.507812 L 2.480469 -16.507812 L 2.480469 -12.417969 L 9.398438 -12.417969 C 9.359375 -12.042969 9.296875 -11.632812 9.234375 -11.238281 L 1.46875 -11.238281 L 1.46875 -10.039062 L 9.027344 -10.039062 C 8.945312 -9.585938 8.863281 -9.195312 8.78125 -8.800781 L 3.988281 -8.800781 L 3.988281 -0.1875 L 1.261719 -0.1875 L 1.261719 0.972656 L 19.460938 0.972656 L 19.460938 -0.1875 Z M 16.632812 -0.1875 "/></g></g></g><g fill="#000000" fill-opacity="1"><g transform="translate(101.870399, 362.699092)"><g><path d="M 4.671875 3.765625 C 3.742188 2.117188 3.082031 0.566406 2.6875 -0.890625 C 2.300781 -2.347656 2.109375 -3.882812 2.109375 -5.5 C 2.109375 -7.101562 2.304688 -8.644531 2.703125 -10.125 C 3.109375 -11.613281 3.765625 -13.140625 4.671875 -14.703125 L 6.78125 -14.703125 C 6.019531 -12.867188 5.492188 -11.242188 5.203125 -9.828125 C 4.910156 -8.410156 4.765625 -6.96875 4.765625 -5.5 C 4.765625 -4.039062 4.910156 -2.597656 5.203125 -1.171875 C 5.492188 0.253906 6.003906 1.898438 6.734375 3.765625 Z M 4.671875 3.765625 "/></g></g></g><g fill="#000000" fill-opacity="1"><g transform="translate(109.204382, 362.699092)"><g><path d="M 6.34375 -14.542969 C 5.992188 -15.289062 5.226562 -16.445312 4.546875 -17.292969 L 3.367188 -16.632812 C 4.007812 -15.742188 4.773438 -14.542969 5.125 -13.757812 Z M 8.84375 -5.0625 C 8.574219 -5.371094 7.851562 -6.15625 7.148438 -6.898438 C 7.769531 -7.457031 8.492188 -8.160156 9.152344 -8.820312 L 8.097656 -9.6875 C 7.707031 -9.109375 7.003906 -8.285156 6.425781 -7.664062 C 6.175781 -7.953125 5.929688 -8.203125 5.722656 -8.410156 L 5.722656 -8.449219 C 6.734375 -9.875 7.644531 -11.488281 8.285156 -13.078125 L 7.394531 -13.699219 L 7.105469 -13.636719 L 1.199219 -13.636719 L 1.199219 -12.230469 L 6.34375 -12.230469 C 5.082031 -9.605469 2.851562 -6.898438 0.785156 -5.351562 C 1.054688 -5.101562 1.46875 -4.316406 1.613281 -3.90625 C 2.457031 -4.585938 3.328125 -5.453125 4.171875 -6.425781 L 4.171875 1.570312 L 5.722656 1.570312 L 5.722656 -6.652344 C 6.527344 -5.660156 7.457031 -4.460938 7.871094 -3.820312 Z M 18.984375 -15.535156 L 8.59375 -15.535156 L 8.59375 -14.046875 L 11.960938 -14.046875 C 11.734375 -7.273438 10.886719 -2.4375 7.148438 0.414062 C 7.5 0.703125 8.121094 1.300781 8.347656 1.613281 C 12.230469 -1.671875 13.179688 -6.671875 13.511719 -14.046875 L 17.476562 -14.046875 C 17.210938 -4.585938 16.941406 -1.09375 16.257812 -0.332031 C 16.011719 -0.0429688 15.804688 0.0429688 15.410156 0.0429688 C 14.9375 0.0429688 13.820312 0.0195312 12.539062 -0.0820312 C 12.828125 0.332031 12.996094 0.949219 13.015625 1.382812 C 14.171875 1.46875 15.328125 1.488281 16.011719 1.40625 C 16.734375 1.320312 17.167969 1.136719 17.621094 0.515625 C 18.429688 -0.515625 18.695312 -4.089844 18.984375 -14.6875 Z M 18.984375 -15.535156 "/></g></g></g><g fill="#000000" fill-opacity="1"><g transform="translate(129.863473, 362.699092)"><g><path d="M 6.488281 -11.03125 L 3.617188 -11.03125 L 3.617188 -17.210938 L 2.230469 -17.210938 L 2.230469 -8.820312 C 2.230469 -5.640625 2.085938 -1.902344 0.910156 0.804688 C 1.261719 1.011719 1.777344 1.445312 2.023438 1.714844 C 3.058594 -0.390625 3.429688 -3.140625 3.554688 -5.867188 L 6.425781 -5.867188 L 6.425781 1.570312 L 7.851562 1.570312 L 7.851562 -7.25 L 3.59375 -7.25 C 3.617188 -7.769531 3.617188 -8.304688 3.617188 -8.820312 L 3.617188 -9.648438 L 7.890625 -9.648438 L 7.890625 -16.714844 L 6.488281 -16.714844 Z M 17.5 -9.628906 C 17.042969 -7.457031 16.257812 -5.515625 15.265625 -3.945312 C 14.277344 -5.578125 13.574219 -7.519531 13.058594 -9.628906 Z M 18.242188 -11.09375 L 17.996094 -11.03125 L 11.425781 -11.03125 L 11.425781 -14.648438 L 19.070312 -14.648438 L 19.070312 -16.050781 L 9.980469 -16.050781 L 9.980469 -8.613281 C 9.980469 -5.640625 9.8125 -1.859375 8.367188 0.828125 C 8.757812 1.011719 9.296875 1.40625 9.585938 1.671875 C 11.199219 -1.21875 11.425781 -5.269531 11.425781 -8.613281 L 11.425781 -9.628906 L 11.753906 -9.628906 C 12.332031 -6.960938 13.160156 -4.605469 14.378906 -2.6875 C 13.261719 -1.320312 11.984375 -0.289062 10.597656 0.371094 C 10.910156 0.660156 11.34375 1.238281 11.546875 1.632812 C 12.933594 0.886719 14.171875 -0.125 15.265625 -1.425781 C 16.257812 -0.164062 17.457031 0.847656 18.902344 1.550781 C 19.128906 1.15625 19.625 0.578125 19.957031 0.269531 C 18.449219 -0.371094 17.210938 -1.363281 16.175781 -2.644531 C 17.601562 -4.75 18.65625 -7.457031 19.171875 -10.785156 Z M 18.242188 -11.09375 "/></g></g></g><g fill="#000000" fill-opacity="1"><g transform="translate(150.522564, 362.699092)"><g><path d="M 0.59375 3.765625 C 1.320312 1.898438 1.832031 0.253906 2.125 -1.171875 C 2.414062 -2.597656 2.5625 -4.039062 2.5625 -5.5 C 2.5625 -6.96875 2.414062 -8.410156 2.125 -9.828125 C 1.832031 -11.242188 1.316406 -12.867188 0.578125 -14.703125 L 2.640625 -14.703125 C 3.546875 -13.140625 4.203125 -11.613281 4.609375 -10.125 C 5.015625 -8.644531 5.21875 -7.101562 5.21875 -5.5 C 5.21875 -3.894531 5.019531 -2.359375 4.625 -0.890625 C 4.226562 0.566406 3.578125 2.117188 2.671875 3.765625 Z M 0.59375 3.765625 "/></g></g></g><g fill="#000000" fill-opacity="1"><g transform="translate(19.234037, 215.235298)"><g><path d="M 14.585938 -14.234375 L 14.585938 -9.855469 L 12.683594 -9.855469 L 12.683594 -14.234375 Z M 17.582031 -9.855469 L 15.679688 -9.855469 L 15.679688 -14.234375 L 17.582031 -14.234375 Z M 17.3125 -3.304688 C 18.902344 -3.304688 19.316406 -4.007812 19.503906 -6.445312 C 19.128906 -6.550781 18.550781 -6.777344 18.242188 -7.003906 C 18.160156 -5.039062 18.035156 -4.648438 17.230469 -4.648438 L 13.820312 -4.648438 C 12.851562 -4.648438 12.683594 -4.792969 12.683594 -5.535156 L 12.683594 -8.554688 L 18.902344 -8.554688 L 18.902344 -15.515625 L 11.320312 -15.515625 L 11.320312 -5.535156 C 11.320312 -3.738281 11.878906 -3.304688 13.699219 -3.304688 Z M 9.792969 -17.230469 C 8.058594 -16.464844 5 -15.679688 2.3125 -15.164062 L 2.3125 -8.121094 C 2.3125 -5.414062 2.167969 -1.816406 0.785156 0.703125 C 1.074219 0.867188 1.671875 1.300781 1.878906 1.570312 C 3.429688 -1.136719 3.675781 -5.207031 3.675781 -8.121094 L 3.675781 -14.171875 C 6.238281 -14.6875 9.050781 -15.351562 11.054688 -16.136719 Z M 5.414062 1.363281 L 6.777344 1.363281 L 6.777344 -13.84375 L 5.414062 -13.84375 Z M 8.492188 -13.699219 C 8.285156 -3.015625 9.152344 0.847656 19.234375 1.550781 C 19.359375 1.15625 19.648438 0.496094 19.914062 0.1875 C 10.207031 -0.289062 9.566406 -3.84375 9.8125 -13.613281 Z M 8.492188 -13.699219 "/></g></g></g><g fill="#000000" fill-opacity="1"><g transform="translate(39.893128, 215.235298)"><g><path d="M 8.140625 -11.816406 L 4.109375 -11.816406 L 4.109375 -14.566406 L 8.140625 -14.566406 Z M 4.109375 -6.175781 L 8.140625 -6.175781 L 8.140625 -3.636719 C 6.753906 -3.429688 5.371094 -3.222656 4.109375 -3.058594 Z M 8.140625 -7.582031 L 4.109375 -7.582031 L 4.109375 -10.453125 L 8.140625 -10.453125 Z M 11.074219 -14.566406 L 11.074219 -15.992188 L 1.054688 -15.992188 L 1.054688 -14.566406 L 2.664062 -14.566406 L 2.664062 -2.851562 C 1.921875 -2.746094 1.238281 -2.664062 0.660156 -2.601562 L 0.929688 -1.054688 C 2.890625 -1.382812 5.535156 -1.777344 8.140625 -2.210938 L 8.140625 1.527344 L 9.628906 1.527344 L 9.628906 -14.566406 Z M 18.222656 -14.523438 L 17.933594 -14.460938 L 10.558594 -14.460938 L 10.558594 -12.953125 L 17.519531 -12.953125 C 17.042969 -9.917969 16.15625 -7.335938 14.957031 -5.226562 C 13.78125 -7.417969 12.953125 -10.019531 12.417969 -12.871094 L 10.949219 -12.601562 C 11.632812 -9.214844 12.601562 -6.21875 14.027344 -3.78125 C 12.789062 -2.085938 11.320312 -0.804688 9.6875 0.0429688 C 10.019531 0.332031 10.472656 0.886719 10.703125 1.28125 C 12.273438 0.371094 13.699219 -0.847656 14.917969 -2.398438 C 16.03125 -0.847656 17.394531 0.414062 19.027344 1.34375 C 19.273438 0.949219 19.769531 0.371094 20.121094 0.0820312 C 18.40625 -0.785156 17.003906 -2.105469 15.867188 -3.761719 C 17.519531 -6.382812 18.675781 -9.8125 19.214844 -14.234375 Z M 18.222656 -14.523438 "/></g></g></g><g fill="#000000" fill-opacity="1"><g transform="translate(60.552219, 215.235298)"><g><path d="M 12.355469 -14.6875 L 12.355469 -14.480469 C 12.355469 -13.40625 11.859375 -12.003906 6.507812 -11.28125 C 6.777344 -11.03125 7.167969 -10.472656 7.335938 -10.144531 C 10.96875 -10.703125 12.601562 -11.652344 13.285156 -12.664062 C 14.566406 -11.402344 16.546875 -10.578125 18.902344 -10.246094 C 19.089844 -10.617188 19.480469 -11.175781 19.769531 -11.464844 C 17.066406 -11.691406 14.8125 -12.5 13.71875 -13.738281 C 13.757812 -13.988281 13.78125 -14.214844 13.78125 -14.421875 L 13.78125 -14.6875 L 17.066406 -14.6875 C 16.777344 -14.089844 16.402344 -13.492188 16.09375 -13.058594 L 17.3125 -12.621094 C 17.871094 -13.347656 18.53125 -14.542969 19.046875 -15.597656 L 18.015625 -15.949219 L 17.765625 -15.886719 L 10.847656 -15.886719 C 10.992188 -16.257812 11.15625 -16.632812 11.28125 -17.023438 L 9.894531 -17.332031 C 9.441406 -15.824219 8.59375 -14.378906 7.519531 -13.40625 C 7.851562 -13.242188 8.429688 -12.851562 8.675781 -12.621094 C 9.234375 -13.179688 9.773438 -13.902344 10.226562 -14.6875 Z M 5.269531 -4.171875 L 15.617188 -4.171875 L 15.617188 -2.726562 L 5.269531 -2.726562 Z M 5.269531 -6.570312 L 15.617188 -6.570312 L 15.617188 -5.164062 L 5.269531 -5.164062 Z M 5.269531 -8.964844 L 15.617188 -8.964844 L 15.617188 -7.5625 L 5.269531 -7.5625 Z M 3.78125 -1.714844 L 17.148438 -1.714844 L 17.148438 -10 L 3.78125 -10 Z M 6.464844 -16.050781 L 1.527344 -16.050781 L 1.527344 -14.855469 L 6.464844 -14.855469 Z M 6.984375 -12.851562 L 1.074219 -12.851562 L 1.074219 -11.609375 L 6.984375 -11.609375 Z M 7.230469 -1.570312 C 5.765625 -0.765625 3.285156 -0.0195312 1.175781 0.414062 C 1.527344 0.683594 2.046875 1.261719 2.3125 1.570312 C 4.359375 1.011719 6.960938 0.0429688 8.613281 -0.949219 Z M 12.273438 -0.765625 C 14.503906 -0.0195312 16.734375 0.867188 18.054688 1.527344 L 19.398438 0.640625 C 17.953125 -0.0195312 15.535156 -0.910156 13.324219 -1.589844 Z M 12.273438 -0.765625 "/></g></g></g><g fill="#000000" fill-opacity="1"><g transform="translate(81.21131, 215.235298)"><g><path d="M 14.6875 -13.304688 C 14.027344 -14.070312 12.601562 -15.121094 11.445312 -15.824219 L 10.660156 -14.792969 C 11.839844 -14.027344 13.242188 -12.914062 13.902344 -12.128906 Z M 13.78125 -8.367188 C 13.058594 -9.089844 11.546875 -10.039062 10.328125 -10.679688 L 9.605469 -9.605469 C 10.824219 -8.925781 12.3125 -7.871094 13.015625 -7.128906 Z M 7.828125 -16.03125 C 7.519531 -14.648438 6.941406 -12.621094 6.445312 -11.402344 L 7.457031 -11.074219 C 8.015625 -12.230469 8.65625 -14.152344 9.152344 -15.703125 Z M 3.53125 -11.425781 C 3.386719 -12.664062 2.914062 -14.523438 2.3125 -15.949219 L 1.199219 -15.679688 C 1.734375 -14.234375 2.210938 -12.332031 2.335938 -11.113281 Z M 2.832031 -7.746094 C 2.480469 -5.910156 1.632812 -3.617188 0.765625 -2.417969 C 1.054688 -1.960938 1.40625 -1.238281 1.570312 -0.722656 C 2.644531 -2.210938 3.511719 -5.101562 3.945312 -7.394531 Z M 9.152344 -8.945312 L 9.152344 -10.390625 L 5.785156 -10.390625 L 5.785156 -17.269531 L 4.359375 -17.269531 L 4.359375 -10.390625 L 1.054688 -10.390625 L 1.054688 -8.945312 L 4.359375 -8.945312 L 4.359375 1.589844 L 5.785156 1.589844 L 5.785156 -8.945312 Z M 5.886719 -7.128906 C 6.320312 -6.238281 7.457031 -3.59375 7.828125 -2.480469 L 8.925781 -3.617188 C 8.613281 -4.316406 7.128906 -7.128906 6.734375 -7.726562 Z M 19.875 -4.710938 L 19.648438 -6.117188 L 17.210938 -5.679688 L 17.210938 -17.269531 L 15.761719 -17.269531 L 15.761719 -5.414062 L 9.109375 -4.234375 L 9.359375 -2.789062 L 15.761719 -3.964844 L 15.761719 1.570312 L 17.210938 1.570312 L 17.210938 -4.234375 Z M 19.875 -4.710938 "/></g></g></g><g fill="#000000" fill-opacity="1"><g transform="translate(101.870399, 215.235298)"><g/></g></g><g fill="#000000" fill-opacity="1"><g transform="translate(107.530988, 215.235298)"><g><path d="M 1.65625 1.21875 L -0.515625 1.21875 L 4.828125 -15.546875 L 7.046875 -15.546875 Z M 1.65625 1.21875 "/></g></g></g><g fill="#000000" fill-opacity="1"><g transform="translate(19.234037, 243.561124)"><g><path d="M 12.355469 -14.6875 L 12.355469 -14.480469 C 12.355469 -13.40625 11.859375 -12.003906 6.507812 -11.28125 C 6.777344 -11.03125 7.167969 -10.472656 7.335938 -10.144531 C 10.96875 -10.703125 12.601562 -11.652344 13.285156 -12.664062 C 14.566406 -11.402344 16.546875 -10.578125 18.902344 -10.246094 C 19.089844 -10.617188 19.480469 -11.175781 19.769531 -11.464844 C 17.066406 -11.691406 14.8125 -12.5 13.71875 -13.738281 C 13.757812 -13.988281 13.78125 -14.214844 13.78125 -14.421875 L 13.78125 -14.6875 L 17.066406 -14.6875 C 16.777344 -14.089844 16.402344 -13.492188 16.09375 -13.058594 L 17.3125 -12.621094 C 17.871094 -13.347656 18.53125 -14.542969 19.046875 -15.597656 L 18.015625 -15.949219 L 17.765625 -15.886719 L 10.847656 -15.886719 C 10.992188 -16.257812 11.15625 -16.632812 11.28125 -17.023438 L 9.894531 -17.332031 C 9.441406 -15.824219 8.59375 -14.378906 7.519531 -13.40625 C 7.851562 -13.242188 8.429688 -12.851562 8.675781 -12.621094 C 9.234375 -13.179688 9.773438 -13.902344 10.226562 -14.6875 Z M 5.269531 -4.171875 L 15.617188 -4.171875 L 15.617188 -2.726562 L 5.269531 -2.726562 Z M 5.269531 -6.570312 L 15.617188 -6.570312 L 15.617188 -5.164062 L 5.269531 -5.164062 Z M 5.269531 -8.964844 L 15.617188 -8.964844 L 15.617188 -7.5625 L 5.269531 -7.5625 Z M 3.78125 -1.714844 L 17.148438 -1.714844 L 17.148438 -10 L 3.78125 -10 Z M 6.464844 -16.050781 L 1.527344 -16.050781 L 1.527344 -14.855469 L 6.464844 -14.855469 Z M 6.984375 -12.851562 L 1.074219 -12.851562 L 1.074219 -11.609375 L 6.984375 -11.609375 Z M 7.230469 -1.570312 C 5.765625 -0.765625 3.285156 -0.0195312 1.175781 0.414062 C 1.527344 0.683594 2.046875 1.261719 2.3125 1.570312 C 4.359375 1.011719 6.960938 0.0429688 8.613281 -0.949219 Z M 12.273438 -0.765625 C 14.503906 -0.0195312 16.734375 0.867188 18.054688 1.527344 L 19.398438 0.640625 C 17.953125 -0.0195312 15.535156 -0.910156 13.324219 -1.589844 Z M 12.273438 -0.765625 "/></g></g></g><g fill="#000000" fill-opacity="1"><g transform="translate(39.893128, 243.561124)"><g><path d="M 14.6875 -13.304688 C 14.027344 -14.070312 12.601562 -15.121094 11.445312 -15.824219 L 10.660156 -14.792969 C 11.839844 -14.027344 13.242188 -12.914062 13.902344 -12.128906 Z M 13.78125 -8.367188 C 13.058594 -9.089844 11.546875 -10.039062 10.328125 -10.679688 L 9.605469 -9.605469 C 10.824219 -8.925781 12.3125 -7.871094 13.015625 -7.128906 Z M 7.828125 -16.03125 C 7.519531 -14.648438 6.941406 -12.621094 6.445312 -11.402344 L 7.457031 -11.074219 C 8.015625 -12.230469 8.65625 -14.152344 9.152344 -15.703125 Z M 3.53125 -11.425781 C 3.386719 -12.664062 2.914062 -14.523438 2.3125 -15.949219 L 1.199219 -15.679688 C 1.734375 -14.234375 2.210938 -12.332031 2.335938 -11.113281 Z M 2.832031 -7.746094 C 2.480469 -5.910156 1.632812 -3.617188 0.765625 -2.417969 C 1.054688 -1.960938 1.40625 -1.238281 1.570312 -0.722656 C 2.644531 -2.210938 3.511719 -5.101562 3.945312 -7.394531 Z M 9.152344 -8.945312 L 9.152344 -10.390625 L 5.785156 -10.390625 L 5.785156 -17.269531 L 4.359375 -17.269531 L 4.359375 -10.390625 L 1.054688 -10.390625 L 1.054688 -8.945312 L 4.359375 -8.945312 L 4.359375 1.589844 L 5.785156 1.589844 L 5.785156 -8.945312 Z M 5.886719 -7.128906 C 6.320312 -6.238281 7.457031 -3.59375 7.828125 -2.480469 L 8.925781 -3.617188 C 8.613281 -4.316406 7.128906 -7.128906 6.734375 -7.726562 Z M 19.875 -4.710938 L 19.648438 -6.117188 L 17.210938 -5.679688 L 17.210938 -17.269531 L 15.761719 -17.269531 L 15.761719 -5.414062 L 9.109375 -4.234375 L 9.359375 -2.789062 L 15.761719 -3.964844 L 15.761719 1.570312 L 17.210938 1.570312 L 17.210938 -4.234375 Z M 19.875 -4.710938 "/></g></g></g><g fill="#000000" fill-opacity="1"><g transform="translate(60.552219, 243.561124)"><g><path d="M 19.523438 -14.132812 L 19.523438 -15.472656 L 12.292969 -15.472656 C 12.003906 -16.050781 11.589844 -16.753906 11.15625 -17.292969 L 9.730469 -16.878906 C 10.039062 -16.445312 10.328125 -15.96875 10.578125 -15.472656 L 2.5 -15.472656 L 2.5 -9.050781 C 2.5 -6.117188 2.355469 -2.085938 0.742188 0.742188 C 1.054688 0.886719 1.695312 1.34375 1.960938 1.632812 C 3.699219 -1.382812 3.964844 -5.886719 3.964844 -9.050781 L 3.964844 -14.132812 Z M 7.230469 -4.648438 L 7.230469 -6.238281 L 11.054688 -6.238281 L 11.054688 -4.648438 Z M 7.230469 -8.800781 L 11.054688 -8.800781 L 11.054688 -7.25 L 7.230469 -7.25 Z M 16.527344 -8.800781 L 16.527344 -7.25 L 12.519531 -7.25 L 12.519531 -8.800781 Z M 16.527344 -4.648438 L 12.519531 -4.648438 L 12.519531 -6.238281 L 16.527344 -6.238281 Z M 19.667969 -2.167969 L 12.519531 -2.167969 L 12.519531 -3.617188 L 17.953125 -3.617188 L 17.953125 -9.832031 L 12.519531 -9.832031 L 12.519531 -11.175781 L 19.027344 -11.175781 L 19.027344 -12.394531 L 12.519531 -12.394531 L 12.519531 -13.699219 L 11.054688 -13.699219 L 11.054688 -12.394531 L 5.101562 -12.394531 L 5.101562 -11.175781 L 11.054688 -11.175781 L 11.054688 -9.832031 L 5.867188 -9.832031 L 5.867188 -3.617188 L 11.054688 -3.617188 L 11.054688 -2.167969 L 4.234375 -2.167969 L 4.234375 -0.886719 L 11.054688 -0.886719 L 11.054688 1.488281 L 12.519531 1.488281 L 12.519531 -0.886719 L 19.667969 -0.886719 Z M 19.667969 -2.167969 "/></g></g></g><g fill="#000000" fill-opacity="1"><g transform="translate(81.21131, 243.561124)"><g><path d="M 12.042969 -15.101562 L 15.472656 -15.101562 L 15.472656 -11.796875 C 15.472656 -10.246094 15.761719 -9.667969 17.105469 -9.667969 L 18.449219 -9.667969 C 18.839844 -9.667969 19.253906 -9.6875 19.460938 -9.773438 C 19.441406 -10.125 19.378906 -10.703125 19.359375 -11.09375 C 19.109375 -11.03125 18.71875 -10.992188 18.449219 -10.992188 L 17.230469 -10.992188 C 16.941406 -10.992188 16.898438 -11.175781 16.898438 -11.753906 L 16.898438 -16.546875 L 10.617188 -16.546875 L 10.617188 -14.277344 C 10.617188 -12.808594 10.269531 -11.113281 8.058594 -9.855469 C 8.324219 -9.628906 8.84375 -9.050781 9.050781 -8.738281 C 11.507812 -10.183594 12.042969 -12.375 12.042969 -14.234375 Z M 6.054688 -14.710938 C 5.722656 -15.453125 5.0625 -16.527344 4.460938 -17.375 L 3.265625 -16.777344 C 3.84375 -15.90625 4.503906 -14.75 4.8125 -14.007812 Z M 8.84375 -13.78125 L 1.03125 -13.78125 L 1.03125 -12.519531 L 8.84375 -12.519531 Z M 1.921875 -7.167969 L 8.015625 -7.167969 L 8.015625 -8.386719 L 1.921875 -8.386719 Z M 1.921875 -11.074219 L 1.921875 -9.855469 L 7.996094 -9.855469 L 7.996094 -11.074219 Z M 16.691406 -6.777344 C 16.011719 -5.207031 15 -3.90625 13.78125 -2.832031 C 12.539062 -3.925781 11.546875 -5.246094 10.867188 -6.777344 Z M 6.632812 -0.949219 L 3.242188 -0.949219 L 3.242188 -4.359375 L 6.632812 -4.359375 Z M 17.683594 -8.285156 L 17.417969 -8.222656 L 8.613281 -8.222656 L 8.613281 -6.777344 L 10.414062 -6.777344 L 9.523438 -6.464844 C 10.269531 -4.710938 11.320312 -3.160156 12.601562 -1.902344 C 11.21875 -0.949219 9.628906 -0.246094 7.996094 0.1875 L 7.996094 -5.640625 L 1.902344 -5.640625 L 1.902344 1.300781 L 3.242188 1.300781 L 3.242188 0.332031 L 7.953125 0.332031 C 8.222656 0.683594 8.511719 1.21875 8.65625 1.613281 C 10.515625 1.054688 12.25 0.226562 13.78125 -0.910156 C 15.246094 0.207031 16.960938 1.03125 18.902344 1.550781 C 19.109375 1.117188 19.542969 0.496094 19.855469 0.164062 C 18.015625 -0.246094 16.382812 -0.949219 14.976562 -1.902344 C 16.609375 -3.410156 17.890625 -5.351562 18.65625 -7.851562 Z M 17.683594 -8.285156 "/></g></g></g><g fill="#000000" fill-opacity="1"><g transform="translate(101.870401, 243.561124)"><g><path d="M 6.589844 -14.710938 C 6.28125 -15.433594 5.621094 -16.507812 5 -17.355469 L 3.84375 -16.753906 C 4.402344 -15.90625 5.0625 -14.75 5.351562 -14.007812 Z M 9.875 -13.78125 L 1.382812 -13.78125 L 1.382812 -12.519531 L 9.875 -12.519531 Z M 8.945312 -8.386719 L 2.292969 -8.386719 L 2.292969 -7.167969 L 8.945312 -7.167969 Z M 7.644531 -4.359375 L 7.644531 -0.949219 L 3.800781 -0.949219 L 3.800781 -4.359375 Z M 9.007812 -5.640625 L 2.457031 -5.640625 L 2.457031 1.300781 L 3.800781 1.300781 L 3.800781 0.332031 L 9.007812 0.332031 Z M 2.292969 -9.855469 L 9.007812 -9.855469 L 9.007812 -11.074219 L 2.292969 -11.074219 Z M 19.667969 -10.164062 L 15.433594 -10.164062 L 15.433594 -16.898438 L 13.882812 -16.898438 L 13.882812 -10.164062 L 9.832031 -10.164062 L 9.832031 -8.65625 L 13.882812 -8.65625 L 13.882812 1.589844 L 15.433594 1.589844 L 15.433594 -8.65625 L 19.667969 -8.65625 Z M 19.667969 -10.164062 "/></g></g></g><g fill="#000000" fill-opacity="1"><g transform="translate(19.234037, 295.487903)"><g><path d="M 7.65625 0.1875 C 5.632812 0.1875 4.101562 -0.332031 3.0625 -1.375 C 2.03125 -2.414062 1.515625 -3.941406 1.515625 -5.953125 L 1.515625 -14.703125 L 4.125 -14.703125 L 4.125 -5.796875 C 4.125 -4.535156 4.421875 -3.578125 5.015625 -2.921875 C 5.609375 -2.265625 6.488281 -1.9375 7.65625 -1.9375 C 8.800781 -1.9375 9.671875 -2.265625 10.265625 -2.921875 C 10.867188 -3.585938 11.171875 -4.546875 11.171875 -5.796875 L 11.171875 -14.703125 L 13.796875 -14.703125 L 13.796875 -5.953125 C 13.796875 -3.953125 13.269531 -2.425781 12.21875 -1.375 C 11.175781 -0.332031 9.65625 0.1875 7.65625 0.1875 Z M 7.65625 0.1875 "/></g></g></g><g fill="#000000" fill-opacity="1"><g transform="translate(34.521762, 295.487903)"><g><path d="M 1.59375 0 L 1.59375 -14.703125 L 4.25 -14.703125 L 4.25 0 Z M 1.59375 0 "/></g></g></g><g fill="#000000" fill-opacity="1"><g transform="translate(40.368288, 295.487903)"><g/></g></g><g fill="#000000" fill-opacity="1"><g transform="translate(46.028877, 295.487903)"><g><path d="M 1.65625 1.21875 L -0.515625 1.21875 L 4.828125 -15.546875 L 7.046875 -15.546875 Z M 1.65625 1.21875 "/></g></g></g><g fill="#000000" fill-opacity="1"><g transform="translate(52.536488, 295.487903)"><g/></g></g><g fill="#000000" fill-opacity="1"><g transform="translate(58.197077, 295.487903)"><g><path d="M 7.65625 0.1875 C 5.632812 0.1875 4.101562 -0.332031 3.0625 -1.375 C 2.03125 -2.414062 1.515625 -3.941406 1.515625 -5.953125 L 1.515625 -14.703125 L 4.125 -14.703125 L 4.125 -5.796875 C 4.125 -4.535156 4.421875 -3.578125 5.015625 -2.921875 C 5.609375 -2.265625 6.488281 -1.9375 7.65625 -1.9375 C 8.800781 -1.9375 9.671875 -2.265625 10.265625 -2.921875 C 10.867188 -3.585938 11.171875 -4.546875 11.171875 -5.796875 L 11.171875 -14.703125 L 13.796875 -14.703125 L 13.796875 -5.953125 C 13.796875 -3.953125 13.269531 -2.425781 12.21875 -1.375 C 11.175781 -0.332031 9.65625 0.1875 7.65625 0.1875 Z M 7.65625 0.1875 "/></g></g></g><g fill="#000000" fill-opacity="1"><g transform="translate(73.484802, 295.487903)"><g><path d="M 8.421875 -7.484375 L 14.03125 0 L 10.90625 0 L 6.921875 -5.5 L 2.9375 0 L -0.1875 0 L 5.40625 -7.5 L 0 -14.703125 L 3.125 -14.703125 L 6.921875 -9.4375 L 10.765625 -14.703125 L 13.859375 -14.703125 Z M 8.421875 -7.484375 "/></g></g></g><g fill="#000000" fill-opacity="1"><g transform="translate(87.347059, 295.487903)"><g/></g></g><g fill="#000000" fill-opacity="1"><g transform="translate(93.007647, 295.487903)"><g><path d="M 12.042969 -15.101562 L 15.472656 -15.101562 L 15.472656 -11.796875 C 15.472656 -10.246094 15.761719 -9.667969 17.105469 -9.667969 L 18.449219 -9.667969 C 18.839844 -9.667969 19.253906 -9.6875 19.460938 -9.773438 C 19.441406 -10.125 19.378906 -10.703125 19.359375 -11.09375 C 19.109375 -11.03125 18.71875 -10.992188 18.449219 -10.992188 L 17.230469 -10.992188 C 16.941406 -10.992188 16.898438 -11.175781 16.898438 -11.753906 L 16.898438 -16.546875 L 10.617188 -16.546875 L 10.617188 -14.277344 C 10.617188 -12.808594 10.269531 -11.113281 8.058594 -9.855469 C 8.324219 -9.628906 8.84375 -9.050781 9.050781 -8.738281 C 11.507812 -10.183594 12.042969 -12.375 12.042969 -14.234375 Z M 6.054688 -14.710938 C 5.722656 -15.453125 5.0625 -16.527344 4.460938 -17.375 L 3.265625 -16.777344 C 3.84375 -15.90625 4.503906 -14.75 4.8125 -14.007812 Z M 8.84375 -13.78125 L 1.03125 -13.78125 L 1.03125 -12.519531 L 8.84375 -12.519531 Z M 1.921875 -7.167969 L 8.015625 -7.167969 L 8.015625 -8.386719 L 1.921875 -8.386719 Z M 1.921875 -11.074219 L 1.921875 -9.855469 L 7.996094 -9.855469 L 7.996094 -11.074219 Z M 16.691406 -6.777344 C 16.011719 -5.207031 15 -3.90625 13.78125 -2.832031 C 12.539062 -3.925781 11.546875 -5.246094 10.867188 -6.777344 Z M 6.632812 -0.949219 L 3.242188 -0.949219 L 3.242188 -4.359375 L 6.632812 -4.359375 Z M 17.683594 -8.285156 L 17.417969 -8.222656 L 8.613281 -8.222656 L 8.613281 -6.777344 L 10.414062 -6.777344 L 9.523438 -6.464844 C 10.269531 -4.710938 11.320312 -3.160156 12.601562 -1.902344 C 11.21875 -0.949219 9.628906 -0.246094 7.996094 0.1875 L 7.996094 -5.640625 L 1.902344 -5.640625 L 1.902344 1.300781 L 3.242188 1.300781 L 3.242188 0.332031 L 7.953125 0.332031 C 8.222656 0.683594 8.511719 1.21875 8.65625 1.613281 C 10.515625 1.054688 12.25 0.226562 13.78125 -0.910156 C 15.246094 0.207031 16.960938 1.03125 18.902344 1.550781 C 19.109375 1.117188 19.542969 0.496094 19.855469 0.164062 C 18.015625 -0.246094 16.382812 -0.949219 14.976562 -1.902344 C 16.609375 -3.410156 17.890625 -5.351562 18.65625 -7.851562 Z M 17.683594 -8.285156 "/></g></g></g><g fill="#000000" fill-opacity="1"><g transform="translate(113.666739, 295.487903)"><g><path d="M 6.589844 -14.710938 C 6.28125 -15.433594 5.621094 -16.507812 5 -17.355469 L 3.84375 -16.753906 C 4.402344 -15.90625 5.0625 -14.75 5.351562 -14.007812 Z M 9.875 -13.78125 L 1.382812 -13.78125 L 1.382812 -12.519531 L 9.875 -12.519531 Z M 8.945312 -8.386719 L 2.292969 -8.386719 L 2.292969 -7.167969 L 8.945312 -7.167969 Z M 7.644531 -4.359375 L 7.644531 -0.949219 L 3.800781 -0.949219 L 3.800781 -4.359375 Z M 9.007812 -5.640625 L 2.457031 -5.640625 L 2.457031 1.300781 L 3.800781 1.300781 L 3.800781 0.332031 L 9.007812 0.332031 Z M 2.292969 -9.855469 L 9.007812 -9.855469 L 9.007812 -11.074219 L 2.292969 -11.074219 Z M 19.667969 -10.164062 L 15.433594 -10.164062 L 15.433594 -16.898438 L 13.882812 -16.898438 L 13.882812 -10.164062 L 9.832031 -10.164062 L 9.832031 -8.65625 L 13.882812 -8.65625 L 13.882812 1.589844 L 15.433594 1.589844 L 15.433594 -8.65625 L 19.667969 -8.65625 Z M 19.667969 -10.164062 "/></g></g></g><g clip-path="url(#3a3464cd6f)"><g clip-path="url(#6f4ed40c65)"><path fill="#d9d9d9" d="M 189.984375 373.203125 L 189.984375 335.792969 L 748.597656 335.792969 L 748.597656 373.203125 Z M 189.984375 373.203125 " fill-opacity="1" fill-rule="nonzero"/></g></g><g clip-path="url(#4a76db1506)"><g clip-path="url(#681d90590a)"><path fill="#4fbaff" d="M 520.429688 373.953125 L 520.429688 336.542969 L 698.601562 336.542969 L 698.601562 373.953125 Z M 520.429688 373.953125 " fill-opacity="1" fill-rule="nonzero"/></g></g><g fill="#000000" fill-opacity="1"><g transform="translate(544.403192, 110.53142)"><g><path d="M 6.984375 -9.40625 C 7.898438 -9.40625 8.707031 -9.207031 9.40625 -8.8125 C 10.113281 -8.414062 10.660156 -7.863281 11.046875 -7.15625 C 11.429688 -6.445312 11.625 -5.628906 11.625 -4.703125 C 11.625 -3.742188 11.40625 -2.894531 10.96875 -2.15625 C 10.53125 -1.414062 9.894531 -0.84375 9.0625 -0.4375 C 8.238281 -0.03125 7.285156 0.171875 6.203125 0.171875 C 5.273438 0.171875 4.363281 0.015625 3.46875 -0.296875 C 2.570312 -0.609375 1.835938 -1.023438 1.265625 -1.546875 L 2.140625 -3.484375 C 3.484375 -2.472656 4.847656 -1.96875 6.234375 -1.96875 C 7.160156 -1.96875 7.867188 -2.195312 8.359375 -2.65625 C 8.847656 -3.113281 9.09375 -3.769531 9.09375 -4.625 C 9.09375 -5.4375 8.835938 -6.085938 8.328125 -6.578125 C 7.828125 -7.066406 7.160156 -7.3125 6.328125 -7.3125 C 5.742188 -7.3125 5.195312 -7.203125 4.6875 -6.984375 C 4.175781 -6.773438 3.726562 -6.460938 3.34375 -6.046875 L 1.734375 -6.046875 L 1.734375 -14.703125 L 10.953125 -14.703125 L 10.953125 -12.640625 L 4.34375 -12.640625 L 4.34375 -8.640625 C 5.082031 -9.148438 5.960938 -9.40625 6.984375 -9.40625 Z M 6.984375 -9.40625 "/></g></g></g><g fill="#000000" fill-opacity="1"><g transform="translate(556.79395, 110.53142)"><g><path d="M 5.640625 -6.320312 C 5.804688 -7.539062 5.867188 -8.71875 5.867188 -9.792969 L 15.304688 -9.792969 L 15.304688 -6.320312 Z M 15.304688 -14.6875 L 15.304688 -11.257812 L 5.867188 -11.257812 L 5.867188 -14.6875 Z M 16.898438 -16.195312 L 4.316406 -16.195312 L 4.316406 -9.875 C 4.316406 -6.589844 3.988281 -2.394531 0.703125 0.496094 C 1.011719 0.722656 1.632812 1.28125 1.839844 1.609375 C 3.84375 -0.144531 4.875 -2.480469 5.390625 -4.8125 L 15.304688 -4.8125 L 15.304688 -0.683594 C 15.304688 -0.226562 15.140625 -0.0820312 14.667969 -0.0625 C 14.191406 -0.0625 12.539062 -0.0429688 10.804688 -0.101562 C 11.070312 0.332031 11.359375 1.054688 11.464844 1.488281 C 13.675781 1.488281 15.039062 1.464844 15.824219 1.199219 C 16.585938 0.949219 16.898438 0.414062 16.898438 -0.660156 Z M 16.898438 -16.195312 "/></g></g></g><g fill="#000000" fill-opacity="1"><g transform="translate(715.71571, 110.986239)"><g><path d="M 7.109375 -9.4375 C 7.972656 -9.4375 8.742188 -9.234375 9.421875 -8.828125 C 10.109375 -8.429688 10.644531 -7.875 11.03125 -7.15625 C 11.414062 -6.445312 11.609375 -5.628906 11.609375 -4.703125 C 11.609375 -3.773438 11.394531 -2.9375 10.96875 -2.1875 C 10.550781 -1.445312 9.96875 -0.863281 9.21875 -0.4375 C 8.46875 -0.0195312 7.617188 0.1875 6.671875 0.1875 C 4.816406 0.1875 3.382812 -0.441406 2.375 -1.703125 C 1.375 -2.960938 0.875 -4.753906 0.875 -7.078125 C 0.875 -8.703125 1.109375 -10.097656 1.578125 -11.265625 C 2.054688 -12.441406 2.742188 -13.335938 3.640625 -13.953125 C 4.546875 -14.578125 5.617188 -14.890625 6.859375 -14.890625 C 7.742188 -14.890625 8.597656 -14.738281 9.421875 -14.4375 C 10.253906 -14.144531 10.984375 -13.722656 11.609375 -13.171875 L 10.703125 -11.234375 C 9.410156 -12.253906 8.164062 -12.765625 6.96875 -12.765625 C 5.875 -12.765625 5.03125 -12.300781 4.4375 -11.375 C 3.84375 -10.457031 3.535156 -9.140625 3.515625 -7.421875 C 3.828125 -8.035156 4.304688 -8.523438 4.953125 -8.890625 C 5.597656 -9.253906 6.316406 -9.4375 7.109375 -9.4375 Z M 6.546875 -1.921875 C 7.304688 -1.921875 7.914062 -2.164062 8.375 -2.65625 C 8.832031 -3.15625 9.0625 -3.8125 9.0625 -4.625 C 9.0625 -5.4375 8.832031 -6.085938 8.375 -6.578125 C 7.914062 -7.066406 7.300781 -7.3125 6.53125 -7.3125 C 5.757812 -7.3125 5.128906 -7.0625 4.640625 -6.5625 C 4.160156 -6.070312 3.921875 -5.425781 3.921875 -4.625 C 3.921875 -3.820312 4.164062 -3.171875 4.65625 -2.671875 C 5.144531 -2.171875 5.773438 -1.921875 6.546875 -1.921875 Z M 6.546875 -1.921875 "/></g></g></g><g fill="#000000" fill-opacity="1"><g transform="translate(728.111812, 110.986239)"><g><path d="M 5.640625 -6.324219 C 5.804688 -7.542969 5.867188 -8.71875 5.867188 -9.792969 L 15.3125 -9.792969 L 15.3125 -6.324219 Z M 15.3125 -14.691406 L 15.3125 -11.261719 L 5.867188 -11.261719 L 5.867188 -14.691406 Z M 16.902344 -16.199219 L 4.320312 -16.199219 L 4.320312 -9.875 C 4.320312 -6.589844 3.988281 -2.398438 0.703125 0.496094 C 1.011719 0.722656 1.632812 1.28125 1.839844 1.613281 C 3.84375 -0.144531 4.875 -2.480469 5.394531 -4.8125 L 15.3125 -4.8125 L 15.3125 -0.683594 C 15.3125 -0.226562 15.144531 -0.0820312 14.671875 -0.0625 C 14.195312 -0.0625 12.542969 -0.0429688 10.804688 -0.101562 C 11.074219 0.332031 11.363281 1.054688 11.46875 1.488281 C 13.679688 1.488281 15.042969 1.46875 15.828125 1.199219 C 16.59375 0.949219 16.902344 0.414062 16.902344 -0.660156 Z M 16.902344 -16.199219 "/></g></g></g></svg>